<?xml version="1.0" encoding="utf-8"?>
<!-- Generator: Adobe Illustrator 25.0.1, SVG Export Plug-In . SVG Version: 6.00 Build 0)  -->
<svg version="1.1" id="Layer_1" xmlns="http://www.w3.org/2000/svg" xmlns:xlink="http://www.w3.org/1999/xlink" x="0px" y="0px"
	 viewBox="0 0 430 430" style="enable-background:new 0 0 430 430;" xml:space="preserve">
<style type="text/css">
	.st0{fill:#0777da;}
	.st1{fill:#322954;}
</style>
<g>
	<path class="st0" d="M90.7,121.4h-0.2c-5,0-9-4-9-9s4-9,9-9h0.2c5,0,9,4,9,9S95.7,121.4,90.7,121.4z"/>
	<path class="st0" d="M127.6,121.4h-0.2c-5,0-9-4-9-9s4-9,9-9h0.2c5,0,9,4,9,9S132.6,121.4,127.6,121.4z"/>
	<path class="st0" d="M164.6,121.4h-0.2c-5,0-9-4-9-9s4-9,9-9h0.2c5,0,9,4,9,9S169.5,121.4,164.6,121.4z"/>
</g>
<path class="st1" d="M375.1,357.5H54.9c-3.3,0-6-2.7-6-6V146.5c0-3.3,2.7-6,6-6h320.2c3.3,0,6,2.7,6,6v205.1
	C381.1,354.8,378.4,357.5,375.1,357.5z M60.9,345.5h308.2V152.5H60.9V345.5z"/>
<path class="st1" d="M375.1,152.4H54.9c-3.3,0-6-2.7-6-6V78.5c0-3.3,2.7-6,6-6h320.2c3.3,0,6,2.7,6,6v67.9
	C381.1,149.7,378.4,152.4,375.1,152.4z M60.9,140.4h308.2V84.5H60.9V140.4z"/>
<g>
	<path class="st0" d="M156.3,290.2c-1.2,0-2.5-0.4-3.6-1.2l-47.7-35.2c-1.5-1.1-2.4-2.9-2.4-4.8s0.9-3.7,2.4-4.8l47.7-35.2
		c2.7-2,6.4-1.4,8.4,1.3c2,2.7,1.4,6.4-1.3,8.4L118.7,249l41.2,30.3c2.7,2,3.2,5.7,1.3,8.4C160,289.3,158.2,290.2,156.3,290.2z"/>
	<path class="st0" d="M273.7,290.2c-1.8,0-3.7-0.8-4.8-2.4c-2-2.7-1.4-6.4,1.3-8.4l41.2-30.3l-41.2-30.3c-2.7-2-3.2-5.7-1.3-8.4
		c2-2.7,5.7-3.2,8.4-1.3l47.7,35.2c1.5,1.1,2.4,2.9,2.4,4.8s-0.9,3.7-2.4,4.8L277.2,289C276.2,289.8,274.9,290.2,273.7,290.2z"/>
	<path class="st0" d="M203.1,290.2c-0.6,0-1.2-0.1-1.9-0.3c-3.2-1-4.9-4.4-3.9-7.6l22.8-70.3c1-3.2,4.4-4.9,7.6-3.9
		c3.2,1,4.9,4.4,3.9,7.6L208.8,286C208,288.5,205.6,290.2,203.1,290.2z"/>
</g>
</svg>
