<?xml version="1.0" encoding="utf-8"?>
<!-- Generator: Adobe Illustrator 25.0.1, SVG Export Plug-In . SVG Version: 6.00 Build 0)  -->
<svg version="1.1" id="Layer_1" xmlns="http://www.w3.org/2000/svg" xmlns:xlink="http://www.w3.org/1999/xlink" x="0px" y="0px"
	 viewBox="0 0 430 430" style="enable-background:new 0 0 430 430;" xml:space="preserve">
<style type="text/css">
	.st0{fill:#0777da;}
	.st1{fill:#322954;}
</style>
<g>
	<path class="st0" d="M287.9,338.2c-3.3,0-6-2.7-6-6l-0.6-83h-33.4c-1.2,0-2.3-0.3-3.3-1l-63.2-41.8c-2.8-1.8-3.5-5.6-1.7-8.3
		c1.8-2.8,5.6-3.5,8.3-1.7l61.7,40.8h37.6c3.3,0,6,2.7,6,6l0.7,89C294,335.5,291.3,338.2,287.9,338.2
		C288,338.2,288,338.2,287.9,338.2z"/>
	<g>
		<path class="st0" d="M287.2,381.1c-3.3,0-6-2.7-6-6V332c0-3.3,2.7-6,6-6s6,2.7,6,6v43.1C293.2,378.4,290.5,381.1,287.2,381.1z"/>
		<path class="st0" d="M238.8,381.1c-3.3,0-6-2.7-6-6V332c0-3.3,2.7-6,6-6s6,2.7,6,6v43.1C244.8,378.4,242.1,381.1,238.8,381.1z"/>
		<path class="st0" d="M142.1,381.1c-3.3,0-6-2.7-6-6V332c0-3.3,2.7-6,6-6s6,2.7,6,6v43.1C148.1,378.4,145.4,381.1,142.1,381.1z"/>
		<path class="st0" d="M190.4,381.1c-3.3,0-6-2.7-6-6V332c0-3.3,2.7-6,6-6s6,2.7,6,6v43.1C196.4,378.4,193.8,381.1,190.4,381.1z"/>
	</g>
	<g>
		<path class="st0" d="M287.2,104c-3.3,0-6-2.7-6-6V54.9c0-3.3,2.7-6,6-6s6,2.7,6,6V98C293.2,101.3,290.5,104,287.2,104z"/>
		<path class="st0" d="M238.8,104c-3.3,0-6-2.7-6-6V54.9c0-3.3,2.7-6,6-6s6,2.7,6,6V98C244.8,101.3,242.1,104,238.8,104z"/>
		<path class="st0" d="M142.1,104c-3.3,0-6-2.7-6-6V54.9c0-3.3,2.7-6,6-6s6,2.7,6,6V98C148.1,101.3,145.4,104,142.1,104z"/>
		<path class="st0" d="M190.4,104c-3.3,0-6-2.7-6-6V54.9c0-3.3,2.7-6,6-6s6,2.7,6,6V98C196.4,101.3,193.8,104,190.4,104z"/>
	</g>
	<g>
		<path class="st0" d="M376,293.6h-43.1c-3.3,0-6-2.7-6-6s2.7-6,6-6H376c3.3,0,6,2.7,6,6S379.3,293.6,376,293.6z"/>
		<path class="st0" d="M376,245.2h-43.1c-3.3,0-6-2.7-6-6s2.7-6,6-6H376c3.3,0,6,2.7,6,6S379.3,245.2,376,245.2z"/>
		<path class="st0" d="M376,148.4h-43.1c-3.3,0-6-2.7-6-6s2.7-6,6-6H376c3.3,0,6,2.7,6,6S379.3,148.4,376,148.4z"/>
		<path class="st0" d="M376,196.8h-43.1c-3.3,0-6-2.7-6-6s2.7-6,6-6H376c3.3,0,6,2.7,6,6S379.3,196.8,376,196.8z"/>
	</g>
	<g>
		<path class="st0" d="M97.1,293.6H54c-3.3,0-6-2.7-6-6s2.7-6,6-6h43.1c3.3,0,6,2.7,6,6S100.4,293.6,97.1,293.6z"/>
		<path class="st0" d="M97.1,245.2H54c-3.3,0-6-2.7-6-6s2.7-6,6-6h43.1c3.3,0,6,2.7,6,6S100.4,245.2,97.1,245.2z"/>
		<path class="st0" d="M97.1,148.4H54c-3.3,0-6-2.7-6-6s2.7-6,6-6h43.1c3.3,0,6,2.7,6,6S100.4,148.4,97.1,148.4z"/>
		<path class="st0" d="M97.1,196.8H54c-3.3,0-6-2.7-6-6s2.7-6,6-6h43.1c3.3,0,6,2.7,6,6S100.4,196.8,97.1,196.8z"/>
	</g>
	<path class="st1" d="M308.4,338H120.9c-16.1,0-29.3-13.1-29.3-29.3V121.2c0-16.1,13.1-29.3,29.3-29.3h187.5
		c16.1,0,29.3,13.1,29.3,29.3v187.5C337.7,324.9,324.5,338,308.4,338z M120.9,104c-9.5,0-17.3,7.7-17.3,17.3v187.5
		c0,9.5,7.7,17.3,17.3,17.3h187.5c9.5,0,17.3-7.7,17.3-17.3V121.2c0-9.5-7.7-17.3-17.3-17.3H120.9z"/>
	<path class="st1" d="M216.4,287.6c-1.1,0-2.3-0.3-3.3-1l-61.7-40.8H97.6c-3.3,0-6-2.7-6-6s2.7-6,6-6h55.5c1.2,0,2.3,0.3,3.3,1
		l63.2,41.8c2.8,1.8,3.5,5.6,1.7,8.3C220.2,286.7,218.3,287.6,216.4,287.6z"/>
	<path class="st1" d="M174.4,148.8H99.6c-3.3,0-6-2.7-6-6s2.7-6,6-6h74.8c3.3,0,6,2.7,6,6S177.7,148.8,174.4,148.8z"/>
	<path class="st1" d="M329.7,197.3h-65.5c-3.3,0-6-2.7-6-6s2.7-6,6-6h65.5c3.3,0,6,2.7,6,6S333,197.3,329.7,197.3z"/>
	<path class="st1" d="M264.2,197.1c-3.3,0-6-2.7-6-6v-48.3c0-3.3,2.7-6,6-6s6,2.7,6,6v48.3C270.2,194.4,267.6,197.1,264.2,197.1z"/>
	<path class="st1" d="M264.5,153.8H264c-6.1,0-11-4.9-11-11s4.9-11,11-11h0.4c6.1,0,11,4.9,11,11S270.5,153.8,264.5,153.8z"/>
	<path class="st0" d="M186,211.3h-0.4c-6.1,0-11-4.9-11-11s4.9-11,11-11h0.4c6.1,0,11,4.9,11,11S192,211.3,186,211.3z"/>
	<path class="st1" d="M215.9,292.6h-0.4c-6.1,0-11-4.9-11-11s4.9-11,11-11h0.4c6.1,0,11,4.9,11,11S222,292.6,215.9,292.6z"/>
	<path class="st1" d="M174.8,153.8h-0.4c-6.1,0-11-4.9-11-11s4.9-11,11-11h0.4c6.1,0,11,4.9,11,11S180.9,153.8,174.8,153.8z"/>
</g>
</svg>
