<?xml version="1.0" encoding="UTF-8"?> <svg xmlns="http://www.w3.org/2000/svg" width="36" height="36" viewBox="0 0 36 36" fill="none"><path fill-rule="evenodd" clip-rule="evenodd" d="M2.02817 5.02817H4.72183V7.72183H2.02817V5.02817ZM0 9.75V3H6.75V9.75H0ZM2.02817 16.2782H4.72183V18.9718H2.02817V16.2782ZM0 21V14.25H6.75V16.6109H11.291C11.5063 13.9556 12.5599 11.5373 14.1867 9.62086L11.955 7.38908L6.75 7.38908L6.75 5.36091L12.795 5.36091L15.6209 8.18673C17.7787 6.35498 20.5728 5.25 23.625 5.25C30.4595 5.25 36 10.7905 36 17.625C36 24.4595 30.4595 30 23.625 30C20.7164 30 18.0422 28.9966 15.9297 27.317L12.795 30.4516H6.75L6.75 32.25H0V25.5H6.75L6.75 28.4234H11.955L14.4495 25.9288C12.6736 23.9677 11.5177 21.4347 11.291 18.6391H6.75V21H0ZM4.72183 27.5282H2.02817V30.2218H4.72183V27.5282ZM33.9718 17.625C33.9718 23.3394 29.3394 27.9718 23.625 27.9718C17.9106 27.9718 13.2782 23.3394 13.2782 17.625C13.2782 11.9106 17.9106 7.27817 23.625 7.27817C29.3394 7.27817 33.9718 11.9106 33.9718 17.625ZM21.0121 22.9847L29.9155 13.6479L28.4468 12.2492L21.0121 20.0438L18.2199 17.112L16.7512 18.5108L21.0121 22.9847Z" fill="#0099CE"></path></svg> 