<svg width="96" height="98" viewBox="0 0 96 98" fill="none" xmlns="http://www.w3.org/2000/svg">
<path opacity="0.6" fill-rule="evenodd" clip-rule="evenodd" d="M64.3513 76.5664C58.4854 80.4026 51.4984 82.629 43.9984 82.629C23.2376 82.629 6.40771 65.5702 6.40771 44.5273C6.40771 23.4842 23.2376 6.42554 43.9984 6.42554C64.7593 6.42554 81.5893 23.4842 81.5893 44.5273C81.5893 52.9402 78.8991 60.7166 74.343 67.0204L87.6454 80.3613C90.1847 82.9084 90.2614 87.0137 87.819 89.6541C85.284 92.3947 81.0025 92.524 78.3077 89.9412L64.3513 76.5664Z" fill="#6619D0" fill-opacity="0.8"/>
<path opacity="0.2" fill-rule="evenodd" clip-rule="evenodd" d="M63.9827 80.6083C58.065 83.9438 51.2379 85.8462 43.9757 85.8462C21.3134 85.8462 3 67.3667 3 44.6423C3 21.9181 21.3134 3.43848 43.9757 3.43848C66.6377 3.43848 84.951 21.9181 84.951 44.6423C84.951 52.7415 82.6243 60.3038 78.6034 66.6799L90.0934 78.1218C93.8666 81.8789 93.9806 87.9347 90.3514 91.8302C86.5851 95.8727 80.2247 96.0635 76.221 92.2536L63.9827 80.6083ZM64.4207 76.5989C58.5283 80.4252 51.5096 82.6457 43.9757 82.6457C23.1203 82.6457 6.21377 65.6311 6.21377 44.6423C6.21377 23.6536 23.1203 6.63878 43.9757 6.63878C64.8309 6.63878 81.7371 23.6536 81.7371 44.6423C81.7371 53.0338 79.035 60.79 74.4583 67.0774L87.8211 80.3844C90.372 82.9251 90.4491 87.0196 87.9956 89.6535C85.449 92.3868 81.1483 92.5157 78.441 89.9398L64.4207 76.5989Z" fill="#6619D0"/>
<path opacity="0.7" d="M14.223 36.5248C9.73032 53.3407 19.4192 70.5552 35.8637 74.9746C52.3084 79.3937 69.2811 69.3439 73.7738 52.5279C78.2665 35.7121 68.5778 18.4976 52.1331 14.0784C35.6886 9.65924 18.7157 19.7088 14.223 36.5248Z" fill="url(#paint0_linear_2912_1456)"/>
<path d="M27.5237 40.0994C25.0379 49.4036 30.3987 58.9285 39.4975 61.3738C48.5961 63.8186 57.9874 58.2584 60.4731 48.954C62.9589 39.6497 57.5983 30.125 48.4993 27.6798C39.4006 25.2347 30.0095 30.7951 27.5237 40.0994Z" stroke="url(#paint1_linear_2912_1456)" stroke-opacity="0.8" stroke-width="5" stroke-linecap="round" stroke-linejoin="round"/>
<path fill-rule="evenodd" clip-rule="evenodd" d="M51.0125 18.2732C65.1318 22.0675 73.5159 36.8775 69.6318 51.4146C65.748 65.9522 51.1038 74.5736 36.9845 70.7795C22.8653 66.985 14.4812 52.175 18.3651 37.6378C22.2491 23.1004 36.8933 14.4789 51.0125 18.2732ZM73.7713 52.5275C78.2478 35.7733 68.6028 18.5504 52.1216 14.1214C35.6408 9.69247 18.7016 19.7713 14.2254 36.5253C9.74932 53.2792 19.3944 70.5023 35.8753 74.9312C45.9433 77.6369 56.1823 74.9282 63.6468 68.5913L80.7948 85.7894C81.6318 86.6289 82.9882 86.6289 83.8252 85.7894C84.6622 84.95 84.6622 83.5896 83.8252 82.7501L66.7222 65.5971C69.9618 61.9832 72.4282 57.556 73.7713 52.5275Z" fill="url(#paint2_linear_2912_1456)" fill-opacity="0.8"/>
<path d="M43.7143 22.7806C44.4244 22.7806 45 22.2033 45 21.4911C45 20.779 44.4244 20.2017 43.7143 20.2017C43.0042 20.2017 42.4286 20.779 42.4286 21.4911C42.4286 22.2033 43.0042 22.7806 43.7143 22.7806Z" fill="#D9D9D9"/>
<path d="M43.7143 69.2018C44.4244 69.2018 45 68.6244 45 67.9123C45 67.2001 44.4244 66.6228 43.7143 66.6228C43.0042 66.6228 42.4286 67.2001 42.4286 67.9123C42.4286 68.6244 43.0042 69.2018 43.7143 69.2018Z" fill="#D9D9D9"/>
<path d="M65.5714 44.7018C65.5714 45.414 66.147 45.9913 66.8571 45.9913C67.5672 45.9913 68.1428 45.414 68.1428 44.7018C68.1428 43.9897 67.5672 43.4124 66.8571 43.4124C66.147 43.4124 65.5714 43.9897 65.5714 44.7018Z" fill="#D9D9D9"/>
<path d="M19.2857 44.7018C19.2857 45.414 19.8614 45.9913 20.5715 45.9913C21.2815 45.9913 21.8572 45.414 21.8572 44.7018C21.8572 43.9897 21.2815 43.4124 20.5715 43.4124C19.8614 43.4124 19.2857 43.9897 19.2857 44.7018Z" fill="#D9D9D9"/>
<path d="M59.1508 60.125C58.6823 60.5949 58.6823 61.3567 59.1508 61.8266C59.6194 62.2965 60.379 62.2965 60.8475 61.8266C61.316 61.3567 61.316 60.5949 60.8475 60.125C60.379 59.6551 59.6194 59.6551 59.1508 60.125Z" fill="#D9D9D9"/>
<path d="M26.3493 27.2276C25.8808 27.6975 25.8808 28.4593 26.3493 28.9292C26.8178 29.3991 27.5775 29.3991 28.046 28.9292C28.5145 28.4593 28.5145 27.6975 28.046 27.2276C27.5775 26.7577 26.8178 26.7577 26.3493 27.2276Z" fill="#D9D9D9"/>
<path d="M28.0462 60.1251C27.5777 59.6552 26.8181 59.6552 26.3496 60.1251C25.881 60.595 25.881 61.3568 26.3496 61.8267C26.8181 62.2966 27.5777 62.2966 28.0462 61.8267C28.5147 61.3568 28.5147 60.595 28.0462 60.1251Z" fill="#D9D9D9"/>
<path d="M60.8475 27.2271C60.3789 26.7573 59.6193 26.7573 59.1508 27.2271C58.6823 27.697 58.6823 28.4589 59.1508 28.9287C59.6193 29.3986 60.379 29.3986 60.8475 28.9287C61.316 28.4589 61.316 27.697 60.8475 27.2271Z" fill="#D9D9D9"/>
<path d="M53.493 44.0962C52.8677 44.0962 52.3376 44.4826 52.1143 45.0311H49.0839C48.777 45.0311 48.5259 45.2829 48.5259 45.5907C48.5259 45.8989 48.777 46.1508 49.0839 46.1508H52.1143C52.3376 46.6992 52.8677 47.0852 53.493 47.0852C54.3133 47.0852 54.9832 46.4138 54.9832 45.5907C54.9832 44.768 54.3133 44.0962 53.493 44.0962ZM53.493 45.9659C53.2865 45.9659 53.1189 45.7979 53.1189 45.5907C53.1189 45.3839 53.2865 45.2159 53.493 45.2159C53.6996 45.2159 53.8667 45.3839 53.8667 45.5907C53.8667 45.7979 53.6996 45.9659 53.493 45.9659Z" fill="url(#paint3_linear_2912_1456)"/>
<path d="M53.9229 38.6332C53.9229 37.8104 53.2531 37.1387 52.4323 37.1387C51.6121 37.1387 50.9422 37.8104 50.9422 38.6332C50.9422 39.2489 51.3163 39.7807 51.8465 40.0102V41.8685H49.1508C48.8439 41.8685 48.5928 42.1205 48.5928 42.4283C48.5928 42.7362 48.8439 42.988 49.1508 42.988H52.4045C52.7118 42.988 52.9629 42.7362 52.9629 42.4283V40.027C53.5209 39.8087 53.9229 39.2713 53.9229 38.6332ZM52.4323 38.2581C52.6389 38.2581 52.8065 38.4261 52.8065 38.6332C52.8065 38.8403 52.6389 39.0082 52.4323 39.0082C52.2262 39.0082 52.0586 38.8403 52.0586 38.6332C52.0586 38.4261 52.2262 38.2581 52.4323 38.2581Z" fill="url(#paint4_linear_2912_1456)"/>
<path d="M52.9629 51.3678V48.9664C52.9629 48.6586 52.7117 48.4067 52.4044 48.4067H48.1629C47.856 48.4067 47.6049 48.6586 47.6049 48.9664C47.6049 49.2741 47.856 49.526 48.1629 49.526H51.8464V51.3846C51.3163 51.6141 50.9426 52.1402 50.9426 52.7613C50.9426 53.5844 51.612 54.2558 52.4327 54.2558C53.253 54.2558 53.9229 53.5844 53.9229 52.7613C53.9229 52.1234 53.5209 51.5862 52.9629 51.3678ZM52.4327 53.1365C52.2261 53.1365 52.0586 52.9685 52.0586 52.7613C52.0586 52.5541 52.2261 52.3865 52.4327 52.3865C52.6389 52.3865 52.8064 52.5541 52.8064 52.7613C52.8064 52.9685 52.6389 53.1365 52.4327 53.1365Z" fill="url(#paint5_linear_2912_1456)"/>
<path d="M34.9188 44.0962C35.5438 44.0962 36.0741 44.4826 36.2973 45.0311H39.3279C39.6349 45.0311 39.886 45.2829 39.886 45.5907C39.886 45.8989 39.6349 46.1508 39.3279 46.1508H36.2973C36.0741 46.6992 35.5438 47.0852 34.9188 47.0852C34.0983 47.0852 33.4286 46.4138 33.4286 45.5907C33.4286 44.768 34.0983 44.0962 34.9188 44.0962ZM34.9188 45.9659C35.1253 45.9659 35.2927 45.7979 35.2927 45.5907C35.2927 45.3839 35.1253 45.2159 34.9188 45.2159C34.7122 45.2159 34.5448 45.3839 34.5448 45.5907C34.5448 45.7979 34.7122 45.9659 34.9188 45.9659Z" fill="url(#paint6_linear_2912_1456)"/>
<path d="M34.489 38.6332C34.489 37.8104 35.1587 37.1387 35.9792 37.1387C36.7996 37.1387 37.4693 37.8104 37.4693 38.6332C37.4693 39.2489 37.0954 39.7807 36.5652 40.0102V41.8685H39.2609C39.5679 41.8685 39.819 42.1205 39.819 42.4283C39.819 42.7362 39.5679 42.988 39.2609 42.988H36.0071C35.7001 42.988 35.449 42.7362 35.449 42.4283V40.027C34.8908 39.8087 34.489 39.2713 34.489 38.6332ZM35.9792 38.2581C35.7727 38.2581 35.6052 38.4261 35.6052 38.6332C35.6052 38.8403 35.7727 39.0082 35.9792 39.0082C36.1857 39.0082 36.3531 38.8403 36.3531 38.6332C36.3531 38.4261 36.1857 38.2581 35.9792 38.2581Z" fill="url(#paint7_linear_2912_1456)"/>
<path d="M35.449 51.3678V48.9664C35.449 48.6586 35.7001 48.4067 36.0071 48.4067H40.2488C40.5557 48.4067 40.8069 48.6586 40.8069 48.9664C40.8069 49.2741 40.5557 49.526 40.2488 49.526H36.5652V51.3846C37.0954 51.6141 37.4693 52.1402 37.4693 52.7613C37.4693 53.5844 36.7996 54.2558 35.9792 54.2558C35.1587 54.2558 34.489 53.5844 34.489 52.7613C34.489 52.1234 34.8908 51.5862 35.449 51.3678ZM35.9792 53.1365C36.1857 53.1365 36.3531 52.9685 36.3531 52.7613C36.3531 52.5541 36.1857 52.3865 35.9792 52.3865C35.7727 52.3865 35.6052 52.5541 35.6052 52.7613C35.6052 52.9685 35.7727 53.1365 35.9792 53.1365Z" fill="url(#paint8_linear_2912_1456)"/>
<path fill-rule="evenodd" clip-rule="evenodd" d="M49.6697 41.264L49.6919 41.8014V41.8069C49.8325 44.8869 50.0357 49.4374 45.5807 52.996V53.0751H45.4808C45.1795 53.311 44.8572 53.5423 44.5127 53.7688C44.4179 53.8247 44.3117 53.8582 44.2058 53.8582C44.0999 53.8582 43.9881 53.8303 43.8989 53.7688C43.5544 53.5423 43.2321 53.311 42.9308 53.0751H42.9081V53.057C38.3736 49.4895 38.5784 44.9045 38.7195 41.8069L38.7418 41.264C38.7641 40.805 39.0934 40.4188 39.5511 40.3236C39.8748 40.2564 40.1706 40.1893 40.4496 40.1221C40.4496 38.7507 41.1752 37.5528 42.2635 36.8867L41.6105 35.9352H40.7399C40.4329 35.9352 40.1817 35.6833 40.1817 35.3754C40.1817 35.0676 40.4329 34.8157 40.7399 34.8157H41.9063C42.0849 34.8157 42.2579 34.9052 42.364 35.0564L43.3127 36.439C43.6088 36.3662 43.9212 36.3214 44.2281 36.3214C44.5349 36.3214 44.8307 36.3606 45.1212 36.4334L46.0645 35.0564C46.1648 34.9052 46.3379 34.8157 46.5218 34.8157H47.6884C47.9952 34.8157 48.2464 35.0676 48.2464 35.3754C48.2464 35.6833 47.9952 35.9352 47.6884 35.9352H46.8179L46.1759 36.8756C47.2697 37.5417 48.0064 38.7451 48.0064 40.1221H47.9618C48.2408 40.1893 48.5369 40.2564 48.8605 40.3236C49.3182 40.4132 49.6529 40.805 49.6697 41.264ZM42.9081 51.5913C39.5358 48.5125 39.7002 44.8611 39.8354 41.8575L39.8357 41.8517L39.858 41.3983C41.2092 41.1184 42.197 40.8131 42.9081 40.5363V51.5913ZM45.5807 51.5307V40.5646C46.2899 40.8337 47.2594 41.1279 48.5648 41.3983L48.5871 41.8517V41.8575C48.7217 44.8413 48.8845 48.4648 45.5807 51.5307ZM45.5807 39.3617C45.9081 39.501 46.3294 39.6578 46.8625 39.8198C46.7507 38.8179 46.0979 37.9895 45.1992 37.6312C45.1962 37.6297 45.1937 37.6282 45.1911 37.6268C45.1847 37.623 45.1795 37.62 45.1714 37.62C44.8757 37.5081 44.5628 37.4409 44.2281 37.4409C42.8661 37.4409 41.75 38.4764 41.5938 39.8031C42.7826 39.4336 43.3911 39.0922 43.6422 38.9298C43.9714 38.7171 44.4012 38.7115 44.7359 38.9298C44.8739 39.0201 45.1217 39.1621 45.5125 39.3323H45.5807V39.3617Z" fill="white"/>
<defs>
<linearGradient id="paint0_linear_2912_1456" x1="73.7738" y1="52.5279" x2="14.1998" y2="36.6118" gradientUnits="userSpaceOnUse">
<stop stop-color="#6619D0"/>
<stop offset="1" stop-color="#00BFCB"/>
</linearGradient>
<linearGradient id="paint1_linear_2912_1456" x1="60.4731" y1="48.954" x2="27.5109" y2="40.1475" gradientUnits="userSpaceOnUse">
<stop stop-color="white"/>
<stop offset="1" stop-color="white" stop-opacity="0.2"/>
</linearGradient>
<linearGradient id="paint2_linear_2912_1456" x1="86.208" y1="82.9818" x2="26.0015" y2="22.9867" gradientUnits="userSpaceOnUse">
<stop stop-color="white"/>
<stop offset="1" stop-color="white" stop-opacity="0.4"/>
</linearGradient>
<linearGradient id="paint3_linear_2912_1456" x1="54.4826" y1="45.6246" x2="47.2851" y2="45.4324" gradientUnits="userSpaceOnUse">
<stop stop-color="white"/>
<stop offset="1" stop-color="white" stop-opacity="0"/>
</linearGradient>
<linearGradient id="paint4_linear_2912_1456" x1="52.9046" y1="37.7495" x2="46.8809" y2="44.4491" gradientUnits="userSpaceOnUse">
<stop stop-color="white"/>
<stop offset="1" stop-color="white" stop-opacity="0"/>
</linearGradient>
<linearGradient id="paint5_linear_2912_1456" x1="52.6354" y1="53.6153" x2="45.8483" y2="48.9629" gradientUnits="userSpaceOnUse">
<stop stop-color="white"/>
<stop offset="1" stop-color="white" stop-opacity="0"/>
</linearGradient>
<linearGradient id="paint6_linear_2912_1456" x1="33.929" y1="45.6246" x2="41.1267" y2="45.4324" gradientUnits="userSpaceOnUse">
<stop stop-color="white"/>
<stop offset="1" stop-color="white" stop-opacity="0"/>
</linearGradient>
<linearGradient id="paint7_linear_2912_1456" x1="35.507" y1="37.7495" x2="41.531" y2="44.4491" gradientUnits="userSpaceOnUse">
<stop stop-color="white"/>
<stop offset="1" stop-color="white" stop-opacity="0"/>
</linearGradient>
<linearGradient id="paint8_linear_2912_1456" x1="35.7765" y1="53.6153" x2="42.5635" y2="48.9629" gradientUnits="userSpaceOnUse">
<stop stop-color="white"/>
<stop offset="1" stop-color="white" stop-opacity="0"/>
</linearGradient>
</defs>
</svg>
