<svg width="413" height="176" viewBox="0 0 413 176" fill="none" xmlns="http://www.w3.org/2000/svg">
<rect width="413" height="176" fill="url(#paint0_linear_2919_7811)"/>
<g clip-path="url(#clip0_2919_7811)">
<path opacity="0.2" fill-rule="evenodd" clip-rule="evenodd" d="M191.909 156.601C191.331 157.106 190.618 157.364 189.893 157.364L189.868 157.34C189.167 157.34 188.466 157.094 187.888 156.613L140.152 116.184C139.697 115.814 139.365 115.309 139.193 114.742L120.367 53.3592C119.912 51.844 120.674 50.218 122.138 49.6143L187.617 22.5136C188.356 22.218 189.192 22.2057 189.929 22.5013L255.926 48.7027C257.402 49.2818 258.188 50.8954 257.745 52.423L239.916 114.052C239.756 114.62 239.424 115.137 238.981 115.518L191.909 156.601Z" fill="#6619D0"/>
<path d="M188.914 163.901C146.988 163.901 113 129.897 113 87.9506C113 46.0042 146.988 12 188.914 12C230.84 12 264.827 46.0042 264.827 87.9506C264.827 129.897 230.84 163.901 188.914 163.901Z" fill="url(#paint1_radial_2919_7811)"/>
<path opacity="0.2" fill-rule="evenodd" clip-rule="evenodd" d="M191.601 149.418C191.086 149.869 190.449 150.099 189.802 150.099L189.78 150.077C189.155 150.077 188.529 149.857 188.013 149.428L145.412 113.348C145.006 113.018 144.71 112.568 144.556 112.062L127.755 57.2818C127.349 55.9296 128.03 54.4785 129.335 53.9398L187.772 29.7542C188.43 29.4904 189.176 29.4794 189.835 29.7433L248.732 53.1262C250.049 53.6429 250.752 55.0831 250.357 56.4462L234.444 111.446C234.301 111.952 234.005 112.414 233.61 112.755L191.601 149.418Z" fill="#6619D0"/>
<path opacity="0.5" fill-rule="evenodd" clip-rule="evenodd" d="M191.234 140.808C190.793 141.194 190.248 141.392 189.694 141.392L189.676 141.373C189.14 141.373 188.605 141.184 188.164 140.818L151.718 109.95C151.37 109.668 151.117 109.282 150.985 108.85L136.611 61.9837C136.264 60.8267 136.846 59.5852 137.963 59.1244L187.957 38.4328C188.521 38.2071 189.159 38.1977 189.722 38.4235L240.111 58.4283C241.238 58.8704 241.838 60.1024 241.5 61.2687L227.887 108.323C227.765 108.756 227.512 109.151 227.174 109.442L191.234 140.808Z" fill="url(#paint2_linear_2919_7811)"/>
<g opacity="0.75">
<mask id="mask0_2919_7811" style="mask-type:luminance" maskUnits="userSpaceOnUse" x="147" y="48" width="84" height="84">
<g opacity="0.75">
<path d="M147.602 48.4907H230.287V131.797H147.602V48.4907Z" fill="white"/>
</g>
</mask>
<g mask="url(#mask0_2919_7811)">
<path d="M189.482 123.632C189.846 123.632 190.205 123.502 190.495 123.25L214.155 102.67C214.378 102.478 214.545 102.219 214.625 101.935L223.587 71.0627C223.809 70.2978 223.414 69.4894 222.672 69.1991L189.5 56.0739C189.129 55.9257 188.709 55.9319 188.339 56.08L155.426 69.6561C154.691 69.9581 154.307 70.7724 154.536 71.5314L163.999 102.281C164.085 102.565 164.252 102.818 164.481 103.003L188.475 123.255C188.765 123.496 189.117 123.62 189.469 123.62L189.482 123.632ZM211.788 100.646L189.469 120.059L166.836 100.954L157.917 71.9825L188.95 59.184L220.23 71.5627L211.782 100.652L211.788 100.646Z" fill="url(#paint3_linear_2919_7811)"/>
<path d="M189.482 123.632C189.846 123.632 190.205 123.502 190.495 123.25L214.155 102.67C214.378 102.478 214.545 102.219 214.625 101.935L223.587 71.0627C223.809 70.2978 223.414 69.4894 222.672 69.1991L189.5 56.0739C189.129 55.9257 188.709 55.9319 188.339 56.08L155.426 69.6561C154.691 69.9581 154.307 70.7724 154.536 71.5314L163.999 102.281C164.085 102.565 164.252 102.818 164.481 103.003L188.475 123.255C188.765 123.496 189.117 123.62 189.469 123.62L189.482 123.632ZM211.788 100.646L189.469 120.059L166.836 100.954L157.917 71.9825L188.95 59.184L220.23 71.5627L211.782 100.652L211.788 100.646Z" fill="url(#paint4_linear_2919_7811)"/>
<path d="M159.827 106.558C159.976 106.558 160.124 106.539 160.266 106.496C161.082 106.255 161.552 105.391 161.304 104.577L150.624 68.7304C150.383 67.9162 149.524 67.447 148.702 67.6938C147.886 67.9347 147.416 68.7983 147.664 69.6131L158.344 105.459C158.542 106.132 159.16 106.564 159.827 106.564V106.558Z" fill="url(#paint5_linear_2919_7811)"/>
<path d="M189.55 131.796C189.915 131.796 190.273 131.666 190.564 131.413L212.648 112.21C213.29 111.648 213.358 110.673 212.796 110.031C212.233 109.39 211.257 109.322 210.614 109.883L189.532 128.217L168.851 110.76C168.196 110.21 167.225 110.29 166.675 110.938C166.125 111.587 166.206 112.562 166.855 113.111L188.549 131.419C188.839 131.66 189.191 131.783 189.544 131.783L189.55 131.796Z" fill="url(#paint6_linear_2919_7811)"/>
<path d="M219.007 105.441C219.681 105.441 220.3 104.996 220.491 104.317L230.226 70.1003C230.461 69.2797 229.985 68.4283 229.162 68.1937C228.34 67.9591 227.488 68.4342 227.253 69.2553L217.518 103.472C217.283 104.293 217.76 105.144 218.582 105.379C218.723 105.416 218.865 105.441 219.002 105.441H219.007Z" fill="url(#paint7_linear_2919_7811)"/>
<path d="M159.067 63.6212C159.259 63.6212 159.457 63.5846 159.648 63.5103L188.889 51.6932L218.414 63.134C219.206 63.4424 220.102 63.0475 220.411 62.2513C220.72 61.4556 220.324 60.5607 219.527 60.2521L189.439 48.5954C189.075 48.4535 188.666 48.4535 188.302 48.6016L158.493 60.6471C157.701 60.9678 157.318 61.8691 157.64 62.6525C157.881 63.2513 158.462 63.6154 159.074 63.6154L159.067 63.6212Z" fill="url(#paint8_linear_2919_7811)"/>
<path d="M181.991 101.553H182.004L196.633 101.442C197.152 101.442 197.634 101.171 197.918 100.739C198.203 100.301 198.246 99.7513 198.036 99.2767L194.074 90.2916C196.985 88.6441 198.839 85.608 198.815 82.3124C198.778 77.271 194.464 73.1982 189.185 73.1982H189.111C186.552 73.2168 184.148 74.1796 182.343 75.9074C180.514 77.6595 179.519 79.9801 179.537 82.4546C179.562 85.7497 181.459 88.7609 184.395 90.3596L180.57 99.3994C180.366 99.875 180.421 100.424 180.706 100.856C180.99 101.282 181.472 101.541 181.991 101.541V101.553ZM194.26 98.3755L184.327 98.4498L187.831 90.1743C187.999 89.7794 187.992 89.3352 187.819 88.9466C187.646 88.5576 187.313 88.2555 186.911 88.1197C184.364 87.2492 182.646 84.9663 182.628 82.4424C182.616 80.832 183.277 79.3076 184.482 78.1473C185.712 76.9689 187.368 76.3081 189.129 76.2959H189.185C192.77 76.2959 195.706 78.9987 195.73 82.3437C195.75 84.8671 194.062 87.1754 191.527 88.0825C191.126 88.2243 190.798 88.5326 190.632 88.928C190.465 89.323 190.465 89.7672 190.632 90.1558L194.26 98.3819V98.3755Z" fill="url(#paint9_linear_2919_7811)"/>
</g>
</g>
<path opacity="0.75" d="M264.898 88.7466C264.898 77.3842 255.696 68.1733 244.345 68.1733C232.995 68.1733 223.793 77.3842 223.793 88.7466C223.793 100.109 232.995 109.32 244.345 109.32C255.696 109.32 264.898 100.109 264.898 88.7466Z" fill="url(#paint10_linear_2919_7811)" stroke="url(#paint11_linear_2919_7811)" stroke-width="6" stroke-miterlimit="10"/>
<path opacity="0.75" d="M258.911 88.7468C258.911 80.6942 252.389 74.166 244.345 74.166C236.3 74.166 229.779 80.6942 229.779 88.7468C229.779 96.7998 236.3 103.328 244.345 103.328C252.389 103.328 258.911 96.7998 258.911 88.7468Z" fill="url(#paint12_linear_2919_7811)" stroke="url(#paint13_linear_2919_7811)" stroke-width="6" stroke-miterlimit="10"/>
<path d="M299.584 88.7469C299.584 89.503 298.971 90.1169 298.216 90.1169H243.153C242.398 90.1169 241.784 89.503 241.784 88.7469C241.784 87.9908 242.398 87.377 243.153 87.377H298.216C298.971 87.377 299.584 87.9908 299.584 88.7469Z" fill="url(#paint14_linear_2919_7811)"/>
<path d="M299.585 68.9725C299.585 69.3229 299.451 69.6738 299.182 69.9402L292.297 76.8335C291.318 77.8129 290.022 78.351 288.639 78.351H253.952C253.197 78.351 252.583 77.7372 252.583 76.9811C252.583 76.2255 253.197 75.6111 253.952 75.6111H288.639C289.29 75.6111 289.9 75.3565 290.36 74.8956L297.247 68.0023C297.782 67.4667 298.647 67.4667 299.182 68.0023C299.449 68.2687 299.585 68.6191 299.585 68.9696V68.9725Z" fill="url(#paint15_linear_2919_7811)"/>
<path d="M299.581 109.187C299.581 109.943 298.968 110.557 298.213 110.557H289.292C287.91 110.557 286.61 110.018 285.635 109.039L279.197 102.592C278.737 102.131 278.127 101.877 277.476 101.877H266.348C265.592 101.877 264.979 101.262 264.979 100.506C264.979 99.7501 265.592 99.1362 266.348 99.1362H277.476C278.858 99.1362 280.155 99.6748 281.133 100.654L287.574 107.101C288.034 107.562 288.644 107.817 289.295 107.817H298.216C298.971 107.817 299.584 108.431 299.584 109.187H299.581Z" fill="url(#paint16_linear_2919_7811)"/>
<path d="M246.055 88.5475C246.055 90.6154 244.475 92.2918 242.528 92.2918C240.581 92.2918 239.001 90.6154 239.001 88.5475C239.001 86.4791 240.581 84.8022 242.528 84.8022C244.475 84.8022 246.055 86.4791 246.055 88.5475Z" fill="url(#paint17_radial_2919_7811)"/>
<path d="M256.961 76.9298C256.961 78.9977 255.381 80.6751 253.434 80.6751C251.486 80.6751 249.906 78.9977 249.906 76.9298C249.906 74.8615 251.486 73.1851 253.434 73.1851C255.381 73.1851 256.961 74.8615 256.961 76.9298Z" fill="url(#paint18_radial_2919_7811)"/>
<path d="M269.336 100.585C269.336 102.652 267.756 104.329 265.809 104.329C263.861 104.329 262.282 102.652 262.282 100.585C262.282 98.5162 263.861 96.8394 265.809 96.8394C267.756 96.8394 269.336 98.5162 269.336 100.585Z" fill="url(#paint19_radial_2919_7811)"/>
</g>
<defs>
<linearGradient id="paint0_linear_2919_7811" x1="206.5" y1="0" x2="206.5" y2="176" gradientUnits="userSpaceOnUse">
<stop stop-color="#6619D0" stop-opacity="0.3"/>
<stop offset="1" stop-color="#6619D0" stop-opacity="0"/>
</linearGradient>
<radialGradient id="paint1_radial_2919_7811" cx="0" cy="0" r="1" gradientUnits="userSpaceOnUse" gradientTransform="translate(188.914 87.9506) rotate(90) scale(75.9506 75.9137)">
<stop stop-color="#6619D0"/>
<stop offset="1" stop-color="#6619D0" stop-opacity="0"/>
</radialGradient>
<linearGradient id="paint2_linear_2919_7811" x1="189.053" y1="38.2588" x2="189.053" y2="141.392" gradientUnits="userSpaceOnUse">
<stop stop-color="#6619D0"/>
<stop offset="1" stop-color="#00BFCB"/>
</linearGradient>
<linearGradient id="paint3_linear_2919_7811" x1="189.068" y1="64.0834" x2="189.068" y2="131.605" gradientUnits="userSpaceOnUse">
<stop stop-color="white"/>
<stop offset="1" stop-color="white" stop-opacity="0.5"/>
</linearGradient>
<linearGradient id="paint4_linear_2919_7811" x1="189.068" y1="64.0834" x2="189.068" y2="131.605" gradientUnits="userSpaceOnUse">
<stop stop-color="white"/>
<stop offset="1" stop-color="white" stop-opacity="0.5"/>
</linearGradient>
<linearGradient id="paint5_linear_2919_7811" x1="154.487" y1="64.9788" x2="154.487" y2="112.969" gradientUnits="userSpaceOnUse">
<stop stop-color="white"/>
<stop offset="1" stop-color="white" stop-opacity="0.5"/>
</linearGradient>
<linearGradient id="paint6_linear_2919_7811" x1="159.011" y1="120.652" x2="212.147" y2="120.652" gradientUnits="userSpaceOnUse">
<stop stop-color="white"/>
<stop offset="1" stop-color="white" stop-opacity="0.5"/>
</linearGradient>
<linearGradient id="paint7_linear_2919_7811" x1="223.872" y1="107.915" x2="223.872" y2="63.7632" gradientUnits="userSpaceOnUse">
<stop stop-color="white"/>
<stop offset="1" stop-color="white" stop-opacity="0.5"/>
</linearGradient>
<linearGradient id="paint8_linear_2919_7811" x1="220.523" y1="56.056" x2="157.522" y2="56.056" gradientUnits="userSpaceOnUse">
<stop stop-color="white"/>
<stop offset="1" stop-color="white" stop-opacity="0.5"/>
</linearGradient>
<linearGradient id="paint9_linear_2919_7811" x1="189.173" y1="72.1372" x2="189.173" y2="101.294" gradientUnits="userSpaceOnUse">
<stop stop-color="white"/>
<stop offset="1" stop-color="white" stop-opacity="0.5"/>
</linearGradient>
<linearGradient id="paint10_linear_2919_7811" x1="223.793" y1="88.7466" x2="251.599" y2="88.7466" gradientUnits="userSpaceOnUse">
<stop stop-color="white"/>
<stop offset="1" stop-color="#6619D0" stop-opacity="0"/>
</linearGradient>
<linearGradient id="paint11_linear_2919_7811" x1="222.925" y1="88.7466" x2="265.769" y2="88.7466" gradientUnits="userSpaceOnUse">
<stop stop-color="#6919D0"/>
<stop offset="1" stop-color="#6619D0" stop-opacity="0"/>
</linearGradient>
<linearGradient id="paint12_linear_2919_7811" x1="229.779" y1="148.151" x2="249.486" y2="147.861" gradientUnits="userSpaceOnUse">
<stop stop-color="white"/>
<stop offset="1" stop-color="#6619D0" stop-opacity="0"/>
</linearGradient>
<linearGradient id="paint13_linear_2919_7811" x1="228.911" y1="148.151" x2="259.779" y2="147.861" gradientUnits="userSpaceOnUse">
<stop stop-color="#6919D0"/>
<stop offset="1" stop-color="#6619D0" stop-opacity="0"/>
</linearGradient>
<linearGradient id="paint14_linear_2919_7811" x1="299.154" y1="88.7469" x2="256.295" y2="88.7469" gradientUnits="userSpaceOnUse">
<stop stop-color="#94F9FF" stop-opacity="0.2"/>
<stop offset="1" stop-color="#94FFF0"/>
</linearGradient>
<linearGradient id="paint15_linear_2919_7811" x1="299.154" y1="72.9787" x2="256.296" y2="72.9787" gradientUnits="userSpaceOnUse">
<stop stop-color="#94F9FF" stop-opacity="0.2"/>
<stop offset="1" stop-color="#94FFF0"/>
</linearGradient>
<linearGradient id="paint16_linear_2919_7811" x1="299.153" y1="104.848" x2="256.295" y2="104.848" gradientUnits="userSpaceOnUse">
<stop stop-color="#94F9FF" stop-opacity="0.2"/>
<stop offset="1" stop-color="#94FFF0"/>
</linearGradient>
<radialGradient id="paint17_radial_2919_7811" cx="0" cy="0" r="1" gradientUnits="userSpaceOnUse" gradientTransform="translate(242.287 88.7459) rotate(90) scale(5.82732 5.48816)">
<stop offset="0.34" stop-color="#94FFF0"/>
<stop offset="1" stop-color="#94FFF0" stop-opacity="0"/>
</radialGradient>
<radialGradient id="paint18_radial_2919_7811" cx="0" cy="0" r="1" gradientUnits="userSpaceOnUse" gradientTransform="translate(253.185 77.1547) rotate(90) scale(5.77121 5.43528)">
<stop offset="0.34" stop-color="#94FFF0"/>
<stop offset="1" stop-color="#94FFF0" stop-opacity="0"/>
</radialGradient>
<radialGradient id="paint19_radial_2919_7811" cx="0" cy="0" r="1" gradientUnits="userSpaceOnUse" gradientTransform="translate(265.565 100.336) rotate(90) scale(4.38539 4.13014)">
<stop offset="0.34" stop-color="#94FFF0"/>
<stop offset="1" stop-color="#94FFF0" stop-opacity="0"/>
</radialGradient>
<clipPath id="clip0_2919_7811">
<rect width="187" height="152" fill="white" transform="translate(113 12)"/>
</clipPath>
</defs>
</svg>
