<svg xmlns="http://www.w3.org/2000/svg" fill="none" viewBox="0 0 190 190">
  <path fill="url(#a)" d="M95 190c52.467 0 95-42.533 95-95S147.467 0 95 0 0 42.533 0 95s42.533 95 95 95Z" opacity=".35"/>
  <path fill="url(#b)" d="M95.438 182.12c47.873 0 86.682-38.809 86.682-86.682 0-47.873-38.809-86.682-86.682-86.682-47.873 0-86.682 38.809-86.682 86.682 0 47.873 38.809 86.682 86.682 86.682Z" opacity=".35"/>
  <path fill="url(#c)" d="M94.562 168.111c40.62 0 73.548-32.929 73.548-73.549 0-40.62-32.928-73.548-73.548-73.548-40.62 0-73.548 32.928-73.548 73.548 0 40.62 32.928 73.549 73.548 73.549Z"/>
  <path fill="#37F3FF" d="M95.956 32.914h-1.912v-1.911c0-.678-.555-1.233-1.233-1.233s-1.233.555-1.233 1.233v1.911h-1.912c-.678 0-1.233.555-1.233 1.233 0 .679.555 1.234 1.233 1.234h1.912v1.911c0 .678.555 1.233 1.233 1.233s1.233-.555 1.233-1.233v-1.911h1.912c.678 0 1.233-.555 1.233-1.234 0-.678-.555-1.233-1.233-1.233Z"/>
  <path fill="#6619D0" d="M60.427 42.478h-1.338V41.14a.866.866 0 0 0-.863-.864.866.866 0 0 0-.864.864v1.338h-1.338a.866.866 0 0 0-.863.863c0 .475.389.863.863.863h1.338v1.338c0 .475.389.864.864.864a.866.866 0 0 0 .863-.864v-1.338h1.338a.866.866 0 0 0 .863-.863.866.866 0 0 0-.863-.863Z"/>
  <path fill="#65F6FF" d="m139.714 46.789-3.18-3.01-3.01 3.179 3.18 3.01z"/>
  <circle cx="83.18" cy="46.406" r="2.627" fill="#B183F0"/>
  <path fill="url(#d)" d="M0 0h6.775v6.775H0z" transform="scale(1 -1) rotate(-11.58 -159.326 -561.368)"/>
  <path fill="url(#e)" d="M145.762 95.43V68.345c0-3.802-3.091-6.9-6.901-6.9-3.809 0-6.9 3.09-6.9 6.9v24.152a6.911 6.911 0 0 0-7.016.475l-13.017 8.985c-2.43 1.668-5.255 4.701-8.389 9.028a16.68 16.68 0 0 0-3.199 9.841v13.981a1.798 1.798 0 0 0 3.594 0v-13.981c0-2.789.87-5.456 2.516-7.727 2.854-3.932 5.449-6.757 7.512-8.173l13.017-8.986a3.303 3.303 0 0 1 4.594.849 3.24 3.24 0 0 1 .524 2.472 3.299 3.299 0 0 1-1.372 2.121l-12.738 8.769a1.8 1.8 0 0 0 2.042 2.962l12.737-8.77a6.862 6.862 0 0 0 2.875-4.428 6.79 6.79 0 0 0-.1-2.947c0-.05.014-.1.014-.15V68.344a3.312 3.312 0 0 1 3.306-3.306 3.307 3.307 0 0 1 3.307 3.306v28.458c0 .065.014.122.022.18v8.755a7.92 7.92 0 0 1-2.509 5.772l-14.463 13.492a8.415 8.415 0 0 0-2.666 6.139v3.579a1.798 1.798 0 0 0 3.594 0v-3.579c0-1.323.553-2.602 1.524-3.508l14.462-13.492a11.52 11.52 0 0 0 3.652-8.403V95.61c0-.065-.015-.122-.022-.18Z"/>
  <path fill="url(#f)" d="M126.986 146.53h-26.725a3.96 3.96 0 0 1-3.953-3.953v-5.635a3.96 3.96 0 0 1 3.953-3.954h26.725a3.961 3.961 0 0 1 3.954 3.954v5.635a3.96 3.96 0 0 1-3.954 3.953Zm-26.725-9.948a.356.356 0 0 0-.36.36v5.635c0 .201.159.359.36.359h26.725c.202 0 .36-.158.36-.359v-5.635a.356.356 0 0 0-.36-.36h-26.725Z"/>
  <path fill="url(#g)" d="M87.323 110.978c-3.134-4.32-5.96-7.361-8.382-9.021l-13.018-8.985a6.91 6.91 0 0 0-7.015-.475V68.345c0-3.802-3.091-6.9-6.9-6.9-3.81 0-6.901 3.098-6.901 6.9v27.092c0 .058-.015.115-.015.18v10.128c0 3.177 1.33 6.232 3.652 8.403l14.462 13.492a4.815 4.815 0 0 1 1.524 3.508v3.58a1.798 1.798 0 0 0 3.594 0v-3.58c0-2.322-.97-4.557-2.666-6.139l-14.463-13.492a7.92 7.92 0 0 1-2.509-5.772V96.99c0-.058.015-.115.015-.18V68.345a3.312 3.312 0 0 1 3.306-3.306 3.307 3.307 0 0 1 3.307 3.306v28.458c0 .05.014.1.014.151a6.778 6.778 0 0 0-.1 2.947 6.81 6.81 0 0 0 2.875 4.428l12.737 8.77a1.8 1.8 0 0 0 2.041-2.962l-12.737-8.769a3.276 3.276 0 0 1-1.373-2.121 3.302 3.302 0 0 1 5.118-3.32l13.025 8.984c2.063 1.416 4.658 4.241 7.512 8.173a13.1 13.1 0 0 1 2.516 7.727v13.981a1.798 1.798 0 0 0 3.594 0v-13.981c0-3.551-1.107-6.951-3.2-9.84l-.013.007Z"/>
  <path fill="url(#h)" d="M90.614 146.53H63.882a3.96 3.96 0 0 1-3.954-3.953v-5.635a3.96 3.96 0 0 1 3.954-3.954h26.732a3.96 3.96 0 0 1 3.954 3.954v5.635a3.96 3.96 0 0 1-3.954 3.953Zm-26.725-9.948a.356.356 0 0 0-.36.36v5.635c0 .201.159.359.36.359h26.725c.202 0 .36-.158.36-.359v-5.635a.356.356 0 0 0-.36-.36H63.882h.007Z"/>
  <path fill="url(#i)" d="M127.281 56.355c-.036-1.387-1.014-2.04-1.912-2.063-17.467-.38-28.436 9.273-33.418 19.063-5.024-7-13.06-11.04-22.549-11.213-.891.014-1.876.633-1.955 1.912-.862 13.298 6.656 24.82 14.534 29.328 2.373 1.358 4.737 2.04 6.908 2.04 1.517 0 2.94-.337 4.213-1.013 1.638.885 3.486 1.33 5.484 1.33 2.624 0 5.485-.762 8.396-2.278 10.408-5.42 20.723-19.912 20.299-37.113v.008ZM90.169 77.553c-1.941 5.7-1.883 10.99-.015 14.16-2.364.533-4.91-.596-6.39-1.444-6.448-3.687-12.902-13.377-12.787-24.454 11.472.812 17.078 7.792 19.278 11.523-.029.072-.057.143-.08.215h-.006Zm15.152 12.73c-2.616 1.366-7.569 3.235-11.343.46-1.746-1.286-2.487-5.944-.41-12.032.08-.23.166-.453.245-.683.065-.123.108-.252.144-.389 3.723-9.682 13.312-19.508 29.73-19.752-.194 15.095-9.244 27.645-18.38 32.404l.014-.008Z"/>
  <defs>
    <linearGradient id="a" x1="0" x2="190" y1="95" y2="95" gradientUnits="userSpaceOnUse">
      <stop stop-color="#6619D0"/>
      <stop offset="1" stop-color="#00BFCB"/>
    </linearGradient>
    <linearGradient id="b" x1="8.756" x2="182.12" y1="95.438" y2="95.438" gradientUnits="userSpaceOnUse">
      <stop stop-color="#6619D0"/>
      <stop offset="1" stop-color="#00BFCB"/>
    </linearGradient>
    <linearGradient id="c" x1="21.016" x2="168.11" y1="94.562" y2="94.562" gradientUnits="userSpaceOnUse">
      <stop stop-color="#6619D0"/>
      <stop offset="1" stop-color="#00BFCB"/>
    </linearGradient>
    <linearGradient id="d" x1="6.913" x2=".258" y1="6.74" y2="-.065" gradientUnits="userSpaceOnUse">
      <stop stop-color="#6619D0"/>
      <stop offset="1" stop-color="#00BFCB"/>
    </linearGradient>
    <linearGradient id="e" x1="123.062" x2="123.062" y1="61.445" y2="156.99" gradientUnits="userSpaceOnUse">
      <stop stop-color="#fff"/>
      <stop offset="1" stop-color="#fff" stop-opacity="0"/>
    </linearGradient>
    <linearGradient id="f" x1="113.624" x2="113.624" y1="132.988" y2="154.171" gradientUnits="userSpaceOnUse">
      <stop stop-color="#fff"/>
      <stop offset="1" stop-color="#fff" stop-opacity="0"/>
    </linearGradient>
    <linearGradient id="g" x1="67.814" x2="67.814" y1="61.445" y2="165.448" gradientUnits="userSpaceOnUse">
      <stop stop-color="#fff"/>
      <stop offset="1" stop-color="#fff" stop-opacity="0"/>
    </linearGradient>
    <linearGradient id="h" x1="77.248" x2="77.248" y1="132.988" y2="152.56" gradientUnits="userSpaceOnUse">
      <stop stop-color="#fff"/>
      <stop offset="1" stop-color="#fff" stop-opacity="0"/>
    </linearGradient>
    <linearGradient id="i" x1="97.337" x2="97.337" y1="69.993" y2="114.297" gradientUnits="userSpaceOnUse">
      <stop stop-color="#65F6FF"/>
      <stop offset="1" stop-color="#65F6FF" stop-opacity="0"/>
    </linearGradient>
  </defs>
</svg>
