<svg xmlns="http://www.w3.org/2000/svg" xmlns:xlink="http://www.w3.org/1999/xlink" id="Layer_1" x="0px" y="0px" viewBox="0 0 400 240" style="enable-background:new 0 0 400 240;" xml:space="preserve"><style type="text/css">	.st0{clip-path:url(#SVGID_00000105387168863235550660000004077429987319870640_);}	.st1{fill:#F2F2F2;}	.st2{fill:#C9C9C9;}	.st3{opacity:0.7;}	.st4{fill:#FFFFFF;}	.st5{opacity:0.3;clip-path:url(#SVGID_00000101782714791259464400000017254322523833098669_);}	.st6{fill:#F5F5F5;}	.st7{fill:#FF4F00;}	.st8{fill:#77B5FE;}	.st9{fill:#E1E1E1;}	.st10{fill:#F6F6F6;}	.st11{fill:#C0C0C0;}	.st12{fill:#C61C73;}	.st13{opacity:0.1;}	.st14{clip-path:url(#SVGID_00000030458641360433504370000016330362833576134533_);}	.st15{fill:#0D192E;}	.st16{fill:#4B4E4D;}	.st17{fill-rule:evenodd;clip-rule:evenodd;fill:#E1E1E1;}	.st18{fill:#767676;}	.st19{fill:#1270AF;}	.st20{fill:#075D8C;}	.st21{opacity:0.38;fill:#767676;}	.st22{fill:#A9A9A9;}	.st23{clip-path:url(#SVGID_00000072240271988579968680000000105640309717845689_);fill:#C0C0C0;}	.st24{clip-path:url(#SVGID_00000047024128666850892330000010831014692794933905_);fill:#C0C0C0;}	.st25{fill:#DCDCDC;}	.st26{fill:#D64200;}	.st27{clip-path:url(#SVGID_00000037674827851732612680000010411154003138098560_);}	.st28{opacity:0.2;fill:#384255;}	.st29{enable-background:new    ;}	.st30{fill:#011C63;}	.st31{fill:#384255;}	.st32{clip-path:url(#SVGID_00000114051727136991507250000003716416236409357490_);}	.st33{fill:#D44200;}	.st34{clip-path:url(#SVGID_00000008130820212403958180000000979737564154765699_);}	.st35{fill:#F1F1F1;}	.st36{fill:#2C2C2C;}	.st37{fill:#D9D9D9;}	.st38{fill:#24126A;}	.st39{fill:#453C9E;}	.st40{clip-path:url(#SVGID_00000141419370707531198730000012980590607839951294_);}	.st41{opacity:0.2;fill:#C0C0C0;}	.st42{fill:#FFAA83;}	.st43{clip-path:url(#SVGID_00000157275514718783039030000012570655993133834646_);}	.st44{clip-path:url(#SVGID_00000091003525193282827990000000146861712639393701_);fill:#C0C0C0;}	.st45{clip-path:url(#SVGID_00000118374111356597275540000015251534393950817719_);fill:#C0C0C0;}	.st46{clip-path:url(#SVGID_00000006692778421877797230000017624731109365044869_);}	.st47{opacity:0.3;clip-path:url(#SVGID_00000060016571864998443430000016642258661462286217_);}	.st48{opacity:0.7;fill:#44649E;}	.st49{fill:#A79891;}	.st50{fill:#4C5262;}	.st51{fill:#848A87;}	.st52{clip-path:url(#SVGID_00000072973090384605928420000018317209707895225532_);fill:#F2F2F2;}	.st53{clip-path:url(#SVGID_00000072973090384605928420000018317209707895225532_);}	.st54{fill:#94A5B1;}	.st55{fill:#679CDB;}	.st56{fill:#96C6FE;}	.st57{fill:#ABABAB;}	.st58{fill:#97C2BF;}	.st59{fill:#BCC2C2;}	.st60{fill:#A6A6A6;}	.st61{fill:#98959E;}	.st62{clip-path:url(#SVGID_00000165920334532304153020000015144371257136361620_);}	.st63{fill:none;stroke:#F2F2F2;stroke-width:0.6405;stroke-miterlimit:10;}	.st64{opacity:0.3;clip-path:url(#SVGID_00000178198174350429076490000010523628631765783226_);}	.st65{clip-path:url(#SVGID_00000057855020376810255560000015577257452802917545_);}	.st66{fill:none;stroke:#F2F2F2;stroke-width:0.6499;stroke-miterlimit:10;}	.st67{fill:none;stroke:#FF4F00;stroke-width:1.319;stroke-miterlimit:10;}	.st68{fill:none;stroke:#77B5FE;stroke-width:1.319;stroke-linecap:round;stroke-miterlimit:10;}	.st69{clip-path:url(#SVGID_00000161611334838321056110000004313047579877012129_);fill:#C0C0C0;}	.st70{clip-path:url(#SVGID_00000126316354351037271220000015136194506890488717_);fill:#C0C0C0;}	.st71{fill:none;stroke:#77B5FE;stroke-width:1.2973;stroke-linecap:square;stroke-miterlimit:10;stroke-dasharray:5.1891,9.0887;}	.st72{clip-path:url(#SVGID_00000089532515114595949690000004819356522289926036_);}	.st73{fill:none;stroke:#F2F2F2;stroke-width:0.6595;stroke-miterlimit:10;}	.st74{fill:none;stroke:#C0C0C0;stroke-width:2.638;stroke-linecap:round;stroke-miterlimit:10;}	.st75{fill:none;stroke:#4B4E4D;stroke-width:1.603;stroke-linecap:round;stroke-linejoin:round;stroke-miterlimit:10;}	.st76{fill:none;stroke:#4B4E4D;stroke-width:1.7224;stroke-linejoin:round;stroke-miterlimit:10;}	.st77{fill:none;stroke:#C0C0C0;stroke-width:1.319;stroke-miterlimit:10;}	.st78{clip-path:url(#SVGID_00000183246570755605265660000007094010916051006866_);}	.st79{clip-path:url(#SVGID_00000040537188320197757150000012863599229942577581_);}	.st80{fill:none;stroke:#F2F2F2;stroke-width:0.6335;stroke-miterlimit:10;}	.st81{fill:none;stroke:#C0C0C0;stroke-width:1.2857;stroke-miterlimit:10;}	.st82{fill:none;stroke:#D9D9D9;stroke-width:0.2927;}	.st83{fill:#FFFFFF;stroke:#D9D9D9;stroke-width:0.2927;}	.st84{fill:none;stroke:#D9D9D9;stroke-width:0.3935;}	.st85{clip-path:url(#SVGID_00000019640742883883728550000011110683557745527701_);}	.st86{fill:#77B5FE;stroke:#FFFFFF;stroke-width:1.319;stroke-miterlimit:10;}	.st87{fill:#FF4F00;stroke:#FFFFFF;stroke-width:1.319;stroke-miterlimit:10;}	.st88{fill:none;stroke:#FFFFFF;stroke-width:1.319;stroke-miterlimit:10;}	.st89{clip-path:url(#SVGID_00000080916719860194209750000017508745798471997826_);}	.st90{fill:none;stroke:#FFFFFF;stroke-width:1.281;stroke-miterlimit:10;}	.st91{clip-path:url(#SVGID_00000129199353077279346430000010027681113235544733_);fill:#C0C0C0;}	.st92{clip-path:url(#SVGID_00000047779693704317482650000009652975584350590875_);fill:#C0C0C0;}	.st93{fill:none;stroke:#C0C0C0;stroke-width:1.281;stroke-miterlimit:10;}	.st94{clip-path:url(#SVGID_00000183243677606287481180000012708359250125420195_);}	.st95{opacity:0.3;clip-path:url(#SVGID_00000023238768579597304830000011978518991959693221_);}	.st96{clip-path:url(#SVGID_00000006705049019855896430000016134068109770365625_);fill:#F2F2F2;}	.st97{clip-path:url(#SVGID_00000006705049019855896430000016134068109770365625_);}	.st98{fill:none;stroke:#FFFFFF;stroke-width:0.7965;stroke-miterlimit:10;}	.st99{fill:none;stroke:#C0C0C0;stroke-width:0.9607;stroke-linecap:square;stroke-miterlimit:10;}	.st100{fill:none;stroke:#FF4F00;stroke-width:0.9607;stroke-miterlimit:10;}</style><g>	<g>		<defs>			<rect id="SVGID_00000020363681065719455670000015613425287147452310_" width="400" height="240"></rect>		</defs>		<clipPath id="SVGID_00000129909553894162779570000005237886881987757206_">			<use xlink:href="#SVGID_00000020363681065719455670000015613425287147452310_" style="overflow:visible;"></use>		</clipPath>		<g style="clip-path:url(#SVGID_00000129909553894162779570000005237886881987757206_);">			<g>				<polygon class="st1" points="-7.2,218.2 -7.2,218.9 37.1,245.3 38.3,245.3     "></polygon>			</g>			<g>				<polygon class="st1" points="-7.2,98.6 -7.2,99.3 238.3,245.3 239.6,245.3     "></polygon>			</g>			<g>				<polygon class="st1" points="11,-9.5 404.8,224.6 404.8,223.9 12.3,-9.5     "></polygon>			</g>			<g>				<polygon class="st1" points="212.2,-9.5 404.8,105 404.8,104.3 213.5,-9.5     "></polygon>			</g>			<g>				<polygon class="st1" points="300.3,245.3 404.8,183.1 404.8,182.4 299.1,245.3     "></polygon>			</g>			<g>				<polygon class="st1" points="99.1,245.3 404.8,63.5 404.8,62.8 97.8,245.3     "></polygon>			</g>			<g>				<polygon class="st1" points="-7.2,188.8 326.4,-9.5 325.1,-9.5 -7.2,188.1     "></polygon>			</g>			<g>				<polygon class="st1" points="-7.2,69.2 125.2,-9.5 123.9,-9.5 -7.2,68.5     "></polygon>			</g>		</g>	</g>	<g>		<path class="st11" d="M182.9,160.5v-3.6h1.1c1-1.7,2.6-3.2,4.9-4.6c7.9-4.6,20.8-4.6,28.7,0c2.3,1.3,3.9,2.9,4.9,4.6h1.1v3.6h0   c0,3-2,6-5.9,8.3c-7.9,4.6-20.8,4.6-28.7,0C184.9,166.5,182.9,163.5,182.9,160.5z"></path>		<path class="st11" d="M188.8,152.4c7.1-4.1,18.2-4.5,26.1-1.3v19c-7.9,3.2-19,2.8-26.1-1.3c-4-2.3-5.9-5.3-5.9-8.3v-3.6h1.1   C184.9,155.2,186.6,153.7,188.8,152.4z"></path>		<ellipse class="st1" cx="203.2" cy="156.9" rx="20.3" ry="11.7"></ellipse>		<path class="st4" d="M188.8,165.2c7.9,4.6,20.8,4.6,28.7,0c3.8-2.2,5.8-5,5.9-7.9c0.2,3.1-1.8,6.3-5.9,8.7   c-7.9,4.6-20.8,4.6-28.7,0c-4.1-2.4-6.1-5.5-5.9-8.7C183.1,160.2,185,163,188.8,165.2z"></path>		<path class="st9" d="M190.2,157.2c0.9,0.5,2.1,0.6,2.9,0.1l12.4-7.1c0.3-0.2,0.5-0.4,0.5-0.7l0,0l0-25.4l-16.5,6.9l0,25.2   c0,0,0,0.1,0,0.1l0,0h0C189.5,156.6,189.8,156.9,190.2,157.2z"></path>		<path class="st11" d="M189.5,131l0,25.2c0,0,0,0.1,0,0.1v0l0,0c0,0.3,0.3,0.6,0.7,0.9c0.4,0.2,0.9,0.4,1.4,0.4l0.1-27.5L189.5,131   z"></path>		<path class="st15" d="M190,130.2l12.4-7.1c0.7-0.4,2-0.4,2.9,0.1l0,0c0.9,0.5,0.9,1.2,0.2,1.7l-12.4,7.1c-0.7,0.4-2,0.4-2.9-0.1   l0,0C189.4,131.4,189.3,130.6,190,130.2z"></path>		<path class="st4" d="M193.1,132.1l12.4-7.1c0.3-0.2,0.5-0.5,0.5-0.7c-0.1,0.2-0.2,0.4-0.5,0.6l-12.4,7.1c-0.7,0.4-2,0.4-2.9-0.1   l0,0c-0.5-0.3-0.7-0.6-0.7-0.9c-0.1,0.4,0.1,0.8,0.7,1.1h0C191.1,132.5,192.4,132.6,193.1,132.1z"></path>		<path class="st1" d="M133.4,80.7l120.5-69.6c1.1-0.6,2.1-0.7,2.9-0.2l0,0l3.8,2.2l-2.3,0.3c0.1,0.3,0.1,0.7,0.1,1.1v83.2   c0,3.3-2,7.1-4.5,8.5l-120.3,69.5l0.6,2.5l-3.7-2.1l0,0c-0.9-0.5-1.5-1.8-1.5-3.6V89.2C128.9,85.9,130.9,82.1,133.4,80.7z"></path>		<path class="st11" d="M130.5,176L130.5,176c-0.9-0.5-1.5-1.8-1.5-3.6V89.2c0-1.5,0.4-3.1,1.1-4.5l80.6,46.5l-77,44.5l0.6,2.5   L130.5,176z"></path>		<path class="st4" d="M137.2,178l120.5-69.6c2.5-1.4,4.5-5.2,4.5-8.5V16.7c0-3.3-2-4.8-4.5-3.4L137.2,82.9   c-2.5,1.4-4.5,5.2-4.5,8.5v83.2C132.7,177.9,134.7,179.4,137.2,178z"></path>		<path class="st4" d="M136.6,82.7l120.5-69.6c1-0.6,2-0.7,2.8-0.3c-0.6-0.1-1.4,0-2.2,0.5L137.2,82.9c-2.5,1.4-4.5,5.2-4.5,8.5   v83.2c0,1.9,0.7,3.2,1.7,3.7c-1.4-0.2-2.3-1.6-2.3-3.9V91.2C132.1,87.9,134.1,84.1,136.6,82.7z"></path>		<path class="st9" d="M136.8,175.2l121.3-70c0.9-0.5,1.6-1.9,1.6-3V17.2c0-1.2-0.7-1.7-1.6-1.2l-121.3,70c-0.9,0.5-1.6,1.9-1.6,3   V174C135.2,175.2,136,175.7,136.8,175.2z"></path>		<g>			<polygon class="st4" points="140.7,102.4 254.2,36.9 254.2,26.9 140.7,92.3    "></polygon>			<g>				<polygon class="st7" points="184.1,76 142.2,100.1 142.2,92.9 184.1,68.8     "></polygon>				<polygon class="st1" points="225.9,51.8 184.1,76 184.1,68.8 225.9,44.6     "></polygon>				<polygon class="st11" points="252.7,36.3 216.8,57 216.8,49.8 252.7,29.1     "></polygon>			</g>		</g>		<g>			<polygon class="st4" points="140.7,118.3 254.2,52.8 254.2,42.8 140.7,108.3    "></polygon>			<g>				<polygon class="st7" points="184.1,91.9 142.2,116.1 142.2,108.9 184.1,84.7     "></polygon>				<polygon class="st1" points="225.9,67.7 184.1,91.9 184.1,84.7 225.9,60.5     "></polygon>				<polygon class="st11" points="252.7,52.2 216.8,73 216.8,65.8 252.7,45     "></polygon>			</g>		</g>		<g>			<polygon class="st4" points="140.7,134.3 254.2,68.8 254.2,58.7 140.7,124.2    "></polygon>			<g>				<polygon class="st11" points="184.1,107.8 142.2,132 142.2,124.8 184.1,100.6     "></polygon>				<polygon class="st1" points="225.9,83.7 184.1,107.8 184.1,100.6 225.9,76.4     "></polygon>				<polygon class="st8" points="252.7,68.2 216.8,88.9 216.8,81.7 252.7,61     "></polygon>			</g>		</g>		<g>			<polygon class="st4" points="140.7,150.2 254.2,84.7 254.2,74.7 140.7,140.2    "></polygon>			<g>				<polygon class="st11" points="184.1,123.8 142.2,148 142.2,140.8 184.1,116.6     "></polygon>				<polygon class="st1" points="225.9,99.6 184.1,123.8 184.1,116.6 225.9,92.4     "></polygon>				<polygon class="st8" points="252.7,84.1 216.8,104.9 216.8,97.7 252.7,76.9     "></polygon>			</g>		</g>		<g>			<polygon class="st4" points="140.7,166.1 254.2,100.7 254.2,90.6 140.7,156.1    "></polygon>			<g>				<polygon class="st7" points="184.1,139.7 142.2,163.9 142.2,156.7 184.1,132.5     "></polygon>				<polygon class="st1" points="225.9,115.5 184.1,139.7 184.1,132.5 225.9,108.3     "></polygon>				<polygon class="st11" points="252.7,100.1 216.8,120.8 216.8,113.6 252.7,92.9     "></polygon>			</g>		</g>	</g>	<path class="st11" d="M277.2,54.6l3.8-2.2c0.8-0.6,2.1-0.5,3.6,0.3l34.6,20.1c1.3,0.8,2.5,2,3.3,3.4l0.1,0.2  c0.2,0.3,0.3,0.6,0.5,0.9c0,0,0,0,0,0c0.1,0.3,0.2,0.6,0.3,0.9l0,0c0.1,0.3,0.2,0.6,0.2,0.9l0,0c0.1,0.3,0.1,0.6,0.1,0.9l-0.1,41.4  c0,1.2-0.5,2-1.3,2.4l-3.7,2.1c0,0-21.1-19.9-21.1-19.9l-8.9-5.2c-0.4-0.2-0.7-0.4-1-0.7c-0.3-0.2-0.6-0.5-0.8-0.8  c0,0-0.1-0.1-0.1-0.1c-0.3-0.3-0.6-0.6-0.8-1c-0.2-0.3-0.4-0.5-0.6-0.8c-0.8-1.3-1.3-2.7-1.3-3.9l0-11.1l-6.8-26.4  C277.3,55.5,277.1,54.6,277.2,54.6z"></path>	<path class="st1" d="M313.6,82.2c0.6-0.6,1.2-1.2,1.8-1.8l0,0l0,0c0.1,0,0.1-0.1,0.2-0.1c0,0,0,0,0,0l0,0c0,0,0,0,0,0  c0.6-0.5,1.2-1.1,1.8-1.6l0,0c0,0,0,0,0,0c0,0,0,0,0,0c0,0,0.1-0.1,0.1-0.1c0,0,0,0,0,0c0,0,0,0,0,0c0,0,0,0,0,0  c0.6-0.5,3.9-2.3,4.6-2.8c-0.8-1-2-2.3-3-2.9l-34.6-20.1c-1.5-0.9-2.8-0.9-3.6-0.3l-3.8,2.2c0,0,0.1,0.9,0.1,1.6l2.2,8.6  c0.7,0.1,1.3,0.3,2,0.6c7.4,3,13.8,8,20.4,10.9C305.8,78,309.7,80.1,313.6,82.2z"></path>	<path class="st9" d="M276.8,54.8l0.4-0.2c0,0,0,0,0,0c0,0,0,0,0.1,0c0.1,0,0.2-0.1,0.3-0.1c0.4-0.1,0.9-0.1,1.4,0  c0.5,0.1,1,0.3,1.5,0.6l34.6,20.1c1.3,0.8,2.5,2,3.3,3.4c0.8,1.3,1.2,2.7,1.2,3.9l-0.1,41.4c0,1-0.3,1.7-0.9,2.2l-0.4,0.2  c0,0,0,0,0,0c-0.1,0-0.2,0.1-0.2,0.1l0,0c-0.1,0-0.2,0.1-0.4,0.1c0,0,0,0,0,0c-0.8,0.1-1.7-0.1-2.7-0.7l-9.3-5.4l-25.3-14.7  c-2.5-1.5-4.6-4.7-4.6-7.3l0.1-41.4c0-0.8,0.2-1.4,0.5-1.8C276.5,55.1,276.6,55,276.8,54.8C276.7,54.9,276.7,54.9,276.8,54.8z"></path>	<path class="st4" d="M277,54.7c0.1,0,0.1-0.1,0.2-0.1c0,0,0,0,0.1,0c0.1,0,0.2-0.1,0.3-0.1c0.4-0.1,0.9-0.1,1.4,0  c0.5,0.1,1,0.3,1.5,0.6l34.6,20.1c1.3,0.8,2.5,2,3.3,3.4c0.8,1.3,1.2,2.7,1.2,3.9l-0.1,41.4c0,1-0.3,1.7-0.9,2.2l-0.4,0.2  c0,0,0,0,0,0c-0.1,0-0.2,0.1-0.2,0.1l0,0c-0.1,0-0.2,0.1-0.4,0.1c0,0,0,0,0,0c0.3-0.4,0.6-1.1,0.6-1.8l0.1-41.4  c0-1.2-0.5-2.6-1.2-3.9c-0.8-1.4-2-2.6-3.3-3.4l-34.6-20.1c-1-0.6-1.9-0.8-2.7-0.7c0.1-0.1,0.2-0.2,0.3-0.3  C276.8,54.8,276.9,54.7,277,54.7z"></path>	<g>		<path class="st16" d="M311.6,87.8c-0.2,0-0.3,0-0.4,0.1l-1.9,1.9c-0.8,0.8-2,1-3.4,0.5c0,0-0.1,0-0.1,0c0,0-3.5-1.1-7.6-2.4   c0,0-0.1-0.1-0.1-0.1l2.4-5.5c0.1-0.3-0.2-0.9-0.6-1l-1.6-0.3c-0.1,0-0.3,0-0.4,0.1l-5.8,4.8c0,0,0,0,0,0c-1.1-0.4-2.2-0.7-3.2-1   c-2.5-0.8-4.7-1.4-6.7-0.6c-1.3,0.5-2.7,2.8-2.7,2.8c-0.1,0.3-0.1,0.5,0,0.9c0.2,1.4,1.6,2.6,3.1,2.8l15.7,2.7l11.1,1.9l1.9,0.3   c0.8,0.1,1.3-0.3,1.3-1.1l0.2-5.2C312.9,88.7,312.2,87.8,311.6,87.8z"></path>		<path class="st16" d="M304,100l0.3-0.1c0.2-0.1,0.1-0.4-0.1-0.6l-3.3-4l-4.6-0.8l6,5.1C303,100.1,303.6,100.2,304,100z"></path>	</g>	<g>		<path class="st8" d="M289.4,14.2l-3.6-2.1l-0.7,1.5l-1.1-0.7l3.1-6.3l1.2,0.7l3,9.9l-1.1-0.7L289.4,14.2z M289.1,13.2l-1.5-5   l-1.5,3.3L289.1,13.2z"></path>		<path class="st8" d="M294.5,12.9c0.4,0,0.9,0.1,1.5,0.5v1.2l-0.3-0.2c-0.6-0.3-1.1-0.5-1.5-0.4c-0.4,0.1-0.6,0.5-0.6,1.2v3.4   l-1.1-0.6v-6.4l1.1,0.6v1.3C293.8,13.1,294.1,12.9,294.5,12.9z"></path>		<path class="st8" d="M299.2,15.6c0.4,0,0.9,0.1,1.5,0.5v1.2l-0.3-0.2c-0.6-0.3-1.1-0.5-1.5-0.4c-0.4,0.1-0.6,0.5-0.6,1.2v3.4   l-1.1-0.6v-6.4l1.1,0.6v1.3C298.5,15.8,298.8,15.7,299.2,15.6z"></path>		<path class="st8" d="M302,14.6c0.1,0,0.3,0,0.5,0.1c0.2,0.1,0.4,0.3,0.5,0.5c0.1,0.2,0.2,0.4,0.2,0.6c0,0.2-0.1,0.3-0.2,0.4   c-0.1,0-0.3,0-0.5-0.1c-0.2-0.1-0.4-0.3-0.5-0.5c-0.1-0.2-0.2-0.4-0.2-0.6C301.8,14.8,301.9,14.7,302,14.6z M303,17.6V24l-1.1-0.6   V17L303,17.6z"></path>		<path class="st8" d="M307.2,25.3l2-4.1l1.1,0.7l-2.5,5l-1.3-0.7l-2.5-7.9l1.1,0.7L307.2,25.3z"></path>		<path class="st8" d="M315.2,25c0.4,0.6,0.7,1.2,0.9,1.8v-1.6l1.1,0.6v6.4l-1.1-0.6v-1.6c-0.2,0.4-0.5,0.7-0.9,0.7   c-0.4,0.1-1-0.1-1.6-0.4c-0.6-0.3-1.1-0.8-1.5-1.3c-0.4-0.5-0.8-1.1-1-1.7c-0.3-0.6-0.4-1.3-0.4-2c0-0.7,0.1-1.2,0.4-1.5   c0.3-0.4,0.6-0.5,1-0.5c0.4,0,1,0.2,1.5,0.5C314.2,23.9,314.7,24.4,315.2,25z M312.3,24.4c-0.4,0.2-0.6,0.7-0.6,1.4   c0,0.7,0.2,1.4,0.6,2.1c0.4,0.6,0.9,1.2,1.6,1.5c0.4,0.2,0.8,0.4,1.1,0.4c0.3,0,0.6-0.1,0.8-0.4c0.2-0.2,0.3-0.6,0.3-1.1   c0-0.5-0.1-0.9-0.3-1.4c-0.2-0.5-0.4-0.9-0.8-1.3c-0.3-0.4-0.7-0.7-1.1-0.9C313.2,24.3,312.7,24.2,312.3,24.4z"></path>		<path class="st8" d="M319.9,25.1v8.7l-1.1-0.6v-8.7L319.9,25.1z"></path>		<path class="st8" d="M325.6,31.1c0.4,0.6,0.7,1.3,0.8,2l-1-0.6c0-0.4-0.2-0.8-0.5-1.2c-0.3-0.4-0.6-0.7-1.1-1   c-0.4-0.2-0.7-0.3-0.9-0.2c-0.2,0.1-0.3,0.2-0.3,0.6c0,0.2,0.1,0.5,0.2,0.7c0.1,0.2,0.3,0.4,0.5,0.6c0.2,0.2,0.5,0.4,0.9,0.7   c0.5,0.4,0.9,0.7,1.2,1c0.3,0.3,0.5,0.6,0.7,1c0.2,0.4,0.3,0.8,0.3,1.2c0,0.5-0.2,0.8-0.6,0.9c-0.4,0.1-0.9,0-1.6-0.4   c-0.8-0.4-1.4-1-1.9-1.6c-0.5-0.6-0.8-1.3-0.9-2l1,0.6c0,0.4,0.2,0.8,0.5,1.2c0.3,0.4,0.7,0.8,1.2,1c0.4,0.2,0.7,0.3,0.9,0.2   c0.2-0.1,0.3-0.3,0.3-0.6c0-0.2-0.1-0.5-0.2-0.7c-0.1-0.2-0.3-0.5-0.6-0.7c-0.2-0.2-0.5-0.5-0.9-0.8c-0.5-0.4-0.9-0.7-1.1-1   c-0.3-0.3-0.5-0.6-0.7-0.9c-0.2-0.4-0.3-0.7-0.3-1.1c0-0.5,0.2-0.9,0.6-1c0.4-0.1,0.9,0,1.6,0.4C324.6,29.9,325.2,30.5,325.6,31.1   z"></path>	</g>	<path class="st11" d="M66.3,89.8l3.8-2.2c0.8-0.6,2.1-0.5,3.6,0.3l34.6,20.1c1.3,0.8,2.5,2,3.3,3.4l0.1,0.2  c0.2,0.3,0.3,0.6,0.5,0.9c0,0,0,0,0,0c0.1,0.3,0.2,0.6,0.3,0.9l0,0c0.1,0.3,0.2,0.6,0.2,0.9l0,0c0.1,0.3,0.1,0.6,0.1,0.9l-0.1,41.4  c0,1.2-0.5,2-1.3,2.4l-3.7,2.1c0,0-21.1-19.9-21.1-19.9l-8.9-5.2c-0.4-0.2-0.7-0.4-1-0.7c-0.3-0.2-0.6-0.5-0.8-0.8  c0,0-0.1-0.1-0.1-0.1c-0.3-0.3-0.6-0.6-0.8-1c-0.2-0.3-0.4-0.5-0.6-0.8c-0.8-1.3-1.3-2.7-1.3-3.9l0-11.1l-6.8-26.4  C66.4,90.7,66.3,89.8,66.3,89.8z"></path>	<path class="st1" d="M102.7,117.4c0.6-0.6,1.2-1.2,1.8-1.8l0,0l0,0c0.1,0,0.1-0.1,0.2-0.1c0,0,0,0,0,0l0,0c0,0,0,0,0,0  c0.6-0.5,1.2-1.1,1.8-1.6l0,0c0,0,0,0,0,0c0,0,0,0,0,0c0,0,0.1-0.1,0.1-0.1c0,0,0,0,0,0c0,0,0,0,0,0c0,0,0,0,0,0  c0.6-0.5,3.9-2.3,4.6-2.8c-0.8-1-2-2.3-3-2.9L73.7,88c-1.5-0.9-2.8-0.9-3.6-0.3l-3.8,2.2c0,0,0.1,0.9,0.1,1.6l2.2,8.6  c0.7,0.1,1.3,0.3,2,0.6c7.4,3,13.8,8,20.4,10.9C95,113.2,98.9,115.3,102.7,117.4z"></path>	<path class="st9" d="M65.9,90l0.4-0.2c0,0,0,0,0,0c0,0,0,0,0.1,0c0.1,0,0.2-0.1,0.3-0.1c0.4-0.1,0.9-0.1,1.4,0  c0.5,0.1,1,0.3,1.5,0.6l34.6,20.1c1.3,0.8,2.5,2,3.3,3.4c0.8,1.3,1.2,2.7,1.2,3.9l-0.1,41.4c0,1-0.3,1.7-0.9,2.2l-0.4,0.2  c0,0,0,0,0,0c-0.1,0-0.2,0.1-0.2,0.1l0,0c-0.1,0-0.2,0.1-0.4,0.1c0,0,0,0,0,0c-0.8,0.1-1.7-0.1-2.7-0.7l-9.3-5.4l-25.3-14.7  c-2.5-1.5-4.6-4.7-4.6-7.3L65,92.2c0-0.8,0.2-1.4,0.5-1.8C65.7,90.3,65.8,90.2,65.9,90C65.9,90.1,65.9,90.1,65.9,90z"></path>	<path class="st4" d="M66.2,89.9c0.1,0,0.1-0.1,0.2-0.1c0,0,0,0,0.1,0c0.1,0,0.2-0.1,0.3-0.1c0.4-0.1,0.9-0.1,1.4,0  c0.5,0.1,1,0.3,1.5,0.6l34.6,20.1c1.3,0.8,2.5,2,3.3,3.4c0.8,1.3,1.2,2.7,1.2,3.9l-0.1,41.4c0,1-0.3,1.7-0.9,2.2l-0.4,0.2  c0,0,0,0,0,0c-0.1,0-0.2,0.1-0.2,0.1l0,0c-0.1,0-0.2,0.1-0.4,0.1c0,0,0,0,0,0c0.3-0.4,0.6-1.1,0.6-1.8l0.1-41.4  c0-1.2-0.5-2.6-1.2-3.9c-0.8-1.4-2-2.6-3.3-3.4L68.3,91.1c-1-0.6-1.9-0.8-2.7-0.7c0.1-0.1,0.2-0.2,0.3-0.3  C66,90,66.1,89.9,66.2,89.9z"></path>	<g>		<path class="st7" d="M101.1,130.8c-0.1-0.3-0.3-0.6-0.6-0.9c0,0-2.8-2.6-4.4-3.6c-2.4-1.4-4.2-1.5-6.2-1.5c-0.7,0-1.6,0-2.5,0   c0,0,0,0,0,0l-8.7-6.5c-0.1-0.1-0.3-0.2-0.4-0.2l-1.4-0.2c-0.3,0-0.3,0.4,0,0.8l5.8,6.1c0,0,0,0.1,0,0.1c-3.2,0.1-6,0.1-6,0.1   c0,0-0.1,0-0.1,0c-1.1,0-2.5-0.6-3.7-1.6l-3.1-2.5c-0.2-0.1-0.3-0.2-0.5-0.3c-0.6-0.1-0.7,0.5-0.3,1.2l3.5,5.2   c0.5,0.8,1.3,1.4,2,1.5l1.7,0.3l9.8,1.5l13.8,2.2C101.2,132.9,101.7,132.1,101.1,130.8z"></path>		<path class="st7" d="M88.6,132.1l-4.1-0.7l-0.8,2.9c0,0.2,0.1,0.4,0.3,0.6l0.4,0.2c0.6,0.3,1.1,0.3,1.4,0L88.6,132.1z"></path>	</g>	<g>		<path class="st7" d="M69.4,21.5l-2.4-1.4v8.1l2.4,1.4c1.4,0.8,2.4,1,3.2,0.7c0.7-0.3,1.1-1.1,1.1-2.3c0-1.3-0.4-2.5-1.1-3.6   C71.9,23.2,70.8,22.3,69.4,21.5z M72.8,27.4c0,1-0.3,1.6-0.8,1.9c-0.6,0.2-1.4,0-2.5-0.6L68,27.9v-6.3l1.4,0.8   c1.1,0.6,1.9,1.4,2.5,2.3C72.5,25.5,72.8,26.4,72.8,27.4z"></path>		<path class="st7" d="M79.8,33.3c-0.1,0.4-0.3,0.7-0.7,0.7c-0.4,0.1-0.8-0.1-1.4-0.4c-0.4-0.2-0.7-0.5-1.1-0.9   c-0.3-0.3-0.6-0.7-0.8-1.2c-0.2-0.4-0.3-0.8-0.3-1.2l5,2.9l0-0.2c0-0.2,0.1-0.4,0.1-0.6c0-0.5-0.1-1-0.3-1.6   c-0.2-0.6-0.6-1.1-1-1.6c-0.4-0.5-1-1-1.6-1.3c-0.6-0.3-1.1-0.5-1.6-0.5c-0.5,0-0.8,0.2-1.1,0.5c-0.3,0.3-0.4,0.8-0.4,1.5   c0,0.7,0.1,1.3,0.4,2c0.3,0.6,0.6,1.2,1.1,1.8c0.5,0.5,1,1,1.6,1.3c0.8,0.5,1.5,0.6,2,0.5c0.5-0.1,0.8-0.5,1-1.1l0-0.2l-1-0.5   L79.8,33.3z M78.8,29.7c0.3,0.3,0.6,0.7,0.8,1.2c0.2,0.4,0.2,0.8,0.2,1.2l-4.2-2.4c0-0.4,0.1-0.7,0.3-0.9c0.2-0.2,0.5-0.3,0.8-0.3   C77.3,28.5,78.2,29,78.8,29.7z"></path>		<path class="st7" d="M86.4,33.3c-0.5-0.5-1-1-1.6-1.3c-0.7-0.4-1.3-0.6-1.8-0.5c-0.2,0-0.4,0.1-0.6,0.2v-1l-0.9-0.5v9.1l0.9,0.5   v-3.8c0.2,0.3,0.3,0.6,0.6,0.9c0.5,0.6,1.1,1.2,1.8,1.6c0.6,0.3,1.1,0.5,1.6,0.5c0.5,0,0.8-0.2,1.1-0.5c0.3-0.3,0.4-0.8,0.4-1.5   s-0.1-1.3-0.4-1.9C87.2,34.4,86.8,33.9,86.4,33.3z M84.7,32.8c0.7,0.4,1.2,0.9,1.6,1.6c0.4,0.6,0.6,1.4,0.6,2.1   c0,0.7-0.2,1.2-0.6,1.4c-0.4,0.2-0.9,0.1-1.6-0.3c-0.4-0.2-0.8-0.6-1.1-1c-0.3-0.4-0.6-0.8-0.8-1.3c-0.2-0.5-0.3-1-0.3-1.4   c0-0.5,0.1-0.8,0.3-1.1c0.2-0.2,0.5-0.4,0.8-0.4C83.9,32.5,84.3,32.6,84.7,32.8z"></path>		<path class="st7" d="M93.7,38.3c-0.2-0.3-0.3-0.6-0.6-0.9c-0.5-0.6-1.1-1.2-1.8-1.6c-0.6-0.3-1.1-0.5-1.6-0.5   c-0.5,0-0.8,0.2-1.1,0.5c-0.3,0.3-0.4,0.8-0.4,1.5c0,0.6,0.1,1.3,0.4,1.9c0.3,0.6,0.6,1.2,1.1,1.8c0.5,0.5,1,1,1.6,1.3   c0.7,0.4,1.3,0.6,1.8,0.5c0.2,0,0.4-0.1,0.6-0.2v1l0.9,0.5v-6.3l-0.9-0.5V38.3z M91.5,41.5c-0.7-0.4-1.2-0.9-1.6-1.6   c-0.4-0.6-0.6-1.4-0.6-2.1c0-0.7,0.2-1.2,0.6-1.4c0.4-0.2,0.9-0.1,1.6,0.3c0.4,0.2,0.8,0.6,1.1,1c0.3,0.4,0.6,0.8,0.8,1.3   c0.2,0.5,0.3,0.9,0.3,1.4c0,0.5-0.1,0.8-0.3,1.1c-0.2,0.2-0.4,0.4-0.8,0.4C92.3,41.9,91.9,41.8,91.5,41.5z"></path>		<path class="st7" d="M97.6,39.8c-0.2,0-0.3,0.1-0.5,0.1v-0.7l-0.9-0.5V45l0.9,0.5V42c0-0.7,0.2-1.1,0.5-1.1c0.4-0.1,0.8,0,1.4,0.3   l0.4,0.2v-1l-0.2-0.1C98.5,39.9,98,39.7,97.6,39.8z"></path>		<path class="st7" d="M102.1,40.6l-0.9-0.5v1.5l-0.9-0.5v0.9l0.9,0.5V46c0,0.7,0.1,1.2,0.4,1.7c0.3,0.5,0.7,0.9,1.3,1.2l0.9,0.5   v-0.9l-0.8-0.5c-0.4-0.2-0.6-0.4-0.7-0.6c-0.1-0.1-0.2-0.4-0.2-0.9V43l1.7,1v-0.9l-1.7-1V40.6z"></path>		<path class="st7" d="M109.5,49.7c0,0.8-0.2,1.2-0.5,1.4c-0.3,0.2-0.8,0.1-1.4-0.2c-0.6-0.3-1-0.7-1.3-1.2   c-0.3-0.5-0.5-1.1-0.5-1.7v-3.6l-0.9-0.5v3.7c0,0.9,0.2,1.8,0.7,2.5c0.5,0.7,1.1,1.3,1.8,1.8c0.6,0.3,1.1,0.5,1.5,0.4   c0.2,0,0.4-0.1,0.5-0.2v0.8l0.9,0.5v-6.3l-0.9-0.5V49.7z"></path>		<path class="st7" d="M113.2,48.8c-0.2,0-0.3,0.1-0.5,0.1v-0.7l-0.9-0.5V54l0.9,0.5V51c0-0.7,0.2-1.1,0.5-1.1   c0.4-0.1,0.8,0,1.4,0.3l0.4,0.2v-1l-0.2-0.1C114.1,48.9,113.6,48.7,113.2,48.8z"></path>		<path class="st7" d="M120.6,56.9c-0.1,0.4-0.3,0.7-0.7,0.7c-0.4,0.1-0.8-0.1-1.4-0.4c-0.4-0.2-0.7-0.5-1.1-0.9   c-0.3-0.3-0.6-0.7-0.8-1.2c-0.2-0.4-0.3-0.8-0.3-1.2l5,2.9l0-0.2c0-0.2,0.1-0.4,0.1-0.6c0-0.5-0.1-1-0.3-1.6   c-0.2-0.6-0.6-1.1-1-1.6c-0.4-0.5-1-1-1.6-1.3c-0.6-0.3-1.1-0.5-1.6-0.5c-0.5,0-0.8,0.2-1.1,0.5c-0.3,0.3-0.4,0.8-0.4,1.5   c0,0.7,0.1,1.3,0.4,2c0.3,0.6,0.6,1.2,1.1,1.8c0.5,0.5,1,1,1.6,1.3c0.8,0.5,1.5,0.6,2,0.5c0.5-0.1,0.8-0.5,1-1.1l0-0.2l-1-0.5   L120.6,56.9z M119.7,53.3c0.3,0.3,0.6,0.7,0.8,1.2c0.2,0.4,0.2,0.8,0.2,1.2l-4.2-2.4c0-0.4,0.1-0.7,0.3-0.9   c0.2-0.2,0.5-0.3,0.8-0.3C118.2,52.1,119,52.5,119.7,53.3z"></path>		<path class="st7" d="M127.1,60.1L127.1,60.1c-0.2-0.4-0.5-0.7-0.8-1c-0.3-0.3-0.6-0.6-1.1-0.9c-0.4-0.3-0.7-0.6-0.9-0.8   c-0.2-0.2-0.3-0.4-0.5-0.6c-0.1-0.2-0.2-0.4-0.2-0.6c0-0.3,0.1-0.5,0.3-0.5c0.2-0.1,0.5,0,0.9,0.2c0.4,0.3,0.8,0.6,1,1   c0.3,0.4,0.4,0.8,0.4,1.2l0,0.2l0.9,0.5l0-0.3c-0.1-0.7-0.3-1.3-0.7-1.9c-0.4-0.6-1-1.1-1.6-1.5c-0.6-0.4-1.1-0.5-1.5-0.4   c-0.4,0.1-0.6,0.4-0.6,1c0,0.4,0.1,0.8,0.3,1.2c0.2,0.3,0.4,0.7,0.7,0.9c0.3,0.3,0.6,0.6,1,0.9c0.4,0.3,0.7,0.6,0.9,0.8   c0.2,0.2,0.4,0.4,0.5,0.6c0.1,0.2,0.2,0.4,0.2,0.6c0,0.3-0.1,0.5-0.3,0.5c-0.2,0.1-0.5,0-0.8-0.2c-0.5-0.3-0.9-0.6-1.2-1   c-0.3-0.4-0.4-0.8-0.5-1.2l0-0.2l-0.9-0.5l0,0.3c0.1,0.7,0.4,1.3,0.8,2c0.5,0.6,1,1.1,1.7,1.5c0.6,0.3,1.1,0.5,1.5,0.4   c0.4-0.1,0.6-0.4,0.6-1C127.4,60.9,127.3,60.5,127.1,60.1z"></path>	</g>	<g>		<path class="st11" d="M252.6,137.8l6.6-3.7c1.8-1,2.3,0.2,3,1.4l5.8,11.2c0.7,1.3,1.2,2.2-0.2,3.1l-6.4,3.7   c-1,0.7-1.7,0.8-2.4-0.6l-6.1-11.6C252.2,139.9,251.2,138.6,252.6,137.8z"></path>		<path class="st1" d="M253.1,137.5l6.6-3.7c1.8-1,2.3,0.2,3,1.4l5.8,11.2c0.7,1.3,1.2,2.2-0.2,3.1l-6.4,3.7c-1,0.7-1.7,0.8-2.4-0.6   l-6.1-11.6C252.7,139.6,251.7,138.3,253.1,137.5z"></path>		<polygon class="st9" points="268,147.1 260.1,151.6 253.2,138.6 261,134.1   "></polygon>		<path class="st9" d="M267.9,134.5c0,0-3.2,0.8-5.5,1c-2.3,0.2-3.4,0.3-3.4,0.5c0,0.7,0.9,0.7,1.2,0.7c0.7,0.1,2.2,0,2.2,0   s-0.2,0.4,0.3,1.1c0.3,0.5,0.4,1,0.8,1.4c1.6,1.6,6.6-0.4,6.6-0.4L267.9,134.5z"></path>		<path class="st1" d="M282.2,118c0,0,2.8-1.9,5.5-0.2c2,1.3,4.1,4.8,3.3,10.2c-1.5,9.3-16.2,15.1-16.2,15.1L282.2,118z"></path>		<path class="st11" d="M272.4,132.2c0,0-5.3,1.9-6.3,2.4c-1,0.5-0.9,3.2,0,4.3c0.9,1.1,6.8,0.1,6.8,0.1L272.4,132.2z"></path>		<path class="st11" d="M260.6,207.4c1-0.6,7.6,1.2,7.6,1.2l7.1,2.4l-0.5,5.3c0,0-2.5,2.7-6,0.3c-2.1-1.4-6.1-3.2-7.6-5.4   C260,209.6,259.6,208,260.6,207.4z"></path>		<path class="st11" d="M278.1,197.1c1-0.6,7.6,1.2,7.6,1.2l7.1,2.4l-0.5,5.3c0,0-2.5,2.7-6,0.3c-2.1-1.4-6.1-3.2-7.6-5.4   C277.5,199.3,277.1,197.7,278.1,197.1z"></path>		<path class="st16" d="M287.1,148.4c0,0,3.2,3.2,3.7,9.9c0.2,3-1.4,15.8-1.4,15.8s2.5,6.6,3.1,10.9c0.7,5.1,0.5,15,0.5,15   c-0.4,1.3-1.8,2.6-4.5,2.4c-2.8-0.2-4.8-3.8-4.8-3.8s-1-8.2-1.9-13.7c-0.5-3.1-1.1-5.2-1.4-7.7c-0.1-3-0.4-10.2-0.4-10.2   s-3.4,13.5-4.5,17.6c2.1,6.9,0.2,25.6,0,27c-4.2,3.3-6.8,0.2-8.5-2.5c0.1-4.2-0.6-11.5-0.7-17.3c-0.1-4.6,0-6.5-0.1-8   c-0.1-3,1.2-12,1.9-18.9c0.8-8,1-13.8,1-13.8L287.1,148.4z"></path>		<path class="st11" d="M269.6,128.1c0.1,4.6,0.1,10.5,0,13c-0.2,4.3-1.4,13.8-2.1,17.1c1.5,1.5,7.5,5.3,12.6,4.2   c3.6-0.8,9.2-2.7,11.4-6.4c0-0.7-2-6.9-2-11.3c0-6,0.5-12,0.6-16.5c0.1-3.2-1.6-7.5-2.9-8.8c-1.4-1.4-2.1-1.8-4.5-1.2   c-1.9,0.2-6.2,2.6-7.7,3.4C271.5,123.1,269.6,126.7,269.6,128.1z"></path>		<path class="st9" d="M284.2,120.6l-0.8-4.3l-6,1.4c0,0,0.7,2.3,0,4.2C277.4,122,282,121.7,284.2,120.6z"></path>		<path class="st9" d="M285.6,107.3c-1.2-2.6-5.8-5.6-10.2-1.6c-4.6,4.3-2.8,12.9,0.6,13.5c1.7,0.3,5.1-0.5,7.4-2.9   C286,113.7,286.6,109.3,285.6,107.3z"></path>		<path class="st16" d="M272.3,105.3c0,0,0.2,2,1.5,3.2c1.3,1.2,3.9,2.1,3.9,2.1s0,0.8-0.3,1.9c-0.2,1.1,0.4,1.5,0.4,1.5   s1.3-2.1,2.3-0.4c0.9,1.7-0.7,2.7-0.7,2.7s0.5,1.3,1.5,2.2c0.7,0.6,1.9,1.5,1.9,1.5s1-2.7,2.7-5.1c1.7-2.4,2.2-4.4,2.2-5.4   c0-1.4-0.5-3.8-3.4-5.1c-2.7-2.5-5.7-1-6.5-0.7s-2.5,0.7-3.9-0.2c0.1,1.4,0.8,2.4,0.8,2.4S273.5,105.7,272.3,105.3z"></path>		<path class="st1" d="M279.7,119.6c-2.3,0-3.9,1.2-4.6,2.1c0,0,3.7,2.2,6.1,1.2c1.3-0.5,3.3-1.6,3.8-2.2c0.6-0.8-1.3-2.9-1.3-2.9   S282.8,119.6,279.7,119.6z"></path>		<path class="st9" d="M256.4,145.7c0,0-0.5-1-0.6-1.8c-0.1-0.5,0.3-1.2,0.9-0.2c0.6,0.9,1.8,2,1.8,2l2.3,4c0,0-2.6,2.7-5.1,1   c-2.6-1.6-1-4.4-0.7-4.7C255.3,145.6,256.4,145.7,256.4,145.7z"></path>		<path class="st1" d="M265.5,140.6c0.6-3.5,1.2-6.2,1.7-9.5c0.8-5.1,3.4-7.4,5.5-7.7c0,0,2.8,2.8,3,6.9c0.2,4.2-0.2,7.7-2.6,11.8   c-0.8,1.4-3.2,4.8-5.5,5.9c-2.1,1-7.9,3.4-9.1,3.4c-1.7-1.1-3-3.8-0.5-6.4C259.5,144.1,263.7,141.4,265.5,140.6z"></path>	</g>	<g>		<rect x="90.3" y="46.9" class="st7" width="1.3" height="53.3"></rect>	</g>	<g>		<path class="st8" d="M300,64.9c-0.4,0-0.7-0.3-0.7-0.7V29.1c0-0.4,0.3-0.7,0.7-0.7s0.7,0.3,0.7,0.7v35.2   C300.7,64.7,300.4,64.9,300,64.9z"></path>	</g></g></svg>