<?xml version="1.0" encoding="UTF-8"?> <svg xmlns="http://www.w3.org/2000/svg" width="36" height="36" viewBox="0 0 36 36" fill="none"><g clip-path="url(#clip0_4513_18082)"><path fill-rule="evenodd" clip-rule="evenodd" d="M31.5859 6.10938H16.9531V10.2656H14.9531V6.14466C8.04405 6.63392 2.52455 12.1534 2.03528 19.0625H6.67188V21.0625H2.03528C2.52455 27.9716 8.04405 33.4911 14.9531 33.9803V29.8594H16.9531V33.9803C23.8622 33.4911 29.3817 27.9716 29.871 21.0625H26.2656V19.0625H29.871C29.635 15.728 28.2281 12.7184 26.0572 10.4397L27.5053 9.06019C30.2313 11.9216 31.9062 15.7975 31.9062 20.0625C31.9062 28.8732 24.7638 36.0156 15.9531 36.0156C7.14246 36.0156 0 28.8732 0 20.0625C0 11.2518 7.14246 4.10938 15.9531 4.10938H31.5858L29.6836 2.20712L31.0978 0.792908L35.4143 5.10939L31.0978 9.42587L29.6836 8.01166L31.5859 6.10938ZM15.9184 21.9399L22.3546 15.0746L20.8956 13.7067L15.7302 19.2164L12.9724 16.9879L11.7153 18.5435L15.9184 21.9399Z" fill="#0099CE"></path></g><defs><clipPath id="clip0_4513_18082"><rect width="36" height="36" fill="white"></rect></clipPath></defs></svg> 