<svg xmlns="http://www.w3.org/2000/svg" fill="none" viewBox="0 0 215 80">
  <g clip-path="url(#a)">
    <mask id="c" width="217" height="57" x="-1" y="12" maskUnits="userSpaceOnUse" style="mask-type:alpha">
      <mask id="b" width="217" height="57" x="-1" y="12" maskUnits="userSpaceOnUse" style="mask-type:luminance">
        <path fill="#fff" d="M-.241 12.19h215.556v56.283H-.241V12.19Z"/>
      </mask>
      <g fill="#fff" mask="url(#b)">
        <path d="m178.182 64.976-1.04 3.4h-3.47c-.008-1.31-.253-2.526.198-3.772.662-1.85 1.224-3.739 1.856-5.598.331-.963.73-1.905 1.075-2.863a161.31 161.31 0 0 0 1.444-4.115c.082-.24.013-.534.013-.827-.46.492-.46.523-1.105.531-2.286.02-4.572.017-6.859.02-.339 0-.676 0-1.042.064.747.489 1.646.709 2.191 1.486.55.792 1.001 1.589 1.026 2.593.027.997-.472 1.738-.993 2.487l-.59-.133c-.113.475-.209.898-.309 1.333 1.593.89 2.367 2.264 2.285 4.085-.021.496-.188 1.005-.39 1.463-.204.476-.581.878-.8 1.354-.222.5-.622.902-1.122 1.133-1.035.501-2.102.823-3.278.74-.638-.05-1.289.052-1.932.07-.607.013-1.219 0-1.903 0-.223-1.01-.121-1.961-.092-2.903.019-.472.402-.583.82-.587.924-.008 1.847.004 2.769-.052 1.184-.071 1.52-.48 1.57-1.674.052-1.129-.054-1.642-1.66-1.75-.819-.056-1.646 0-2.467-.027-.919-.03-1.049-.175-1.061-1.104-.008-.745 0-1.486 0-2.326.594-.037 1.064-.072 1.528-.09.376-.012.757-.033 1.131.006 1.253.131 2.143-.27 2.44-1.697-.394-.73-.993-1.19-1.982-1.129-.95.06-1.909.012-2.915.012-.405-1.063-.052-2.111-.287-3.212-.772 0-1.55.103-2.29-.03-.752-.132-1.439-.167-2.179.051-.31.09-.709-.131-1.231-.246.021.396-.025.7.069.958.647 1.79 1.345 3.559 1.974 5.353.762 2.167 1.464 4.35 2.21 6.526.337.99.719 1.964 1.065 2.95.084.243.116.504.202.886-.467.04-.828.094-1.187.102-.821.013-1.643 0-2.464-.004-.798-.004-1.008-.197-1.183-.977a19.673 19.673 0 0 0-.513-1.845c-.125-.377-.396-.626-.834-.63-1.303-.012-2.605-.04-3.901-.037-.168 0-.424.144-.484.29-.224.527-.382 1.083-.557 1.631-.163.501-.313 1.006-.467 1.513h-3.488c.008-1.308-.237-2.527.217-3.768.664-1.817 1.221-3.67 1.85-5.5.643-1.858 1.314-3.703 1.973-5.548.228-.638.463-1.268.707-1.929l1.52-.183c.034-.359.091-.693.091-1.022-.005-2.387-.03-4.771-.036-7.156-.004-9.81-.004-19.616-.004-29.426 0-1.611.061-1.648 1.679-1.632 1.878.02 3.763-.039 5.642.017 2.192.065 1.867.197 1.877 1.908.042 6.84.054 13.683.075 20.523.008 2.691 0 5.386 0 8.074 0 1.944.012 3.89-.013 5.833-.004.414-.149.827-.256 1.38l.427 1.524h1.078v-3.14c0-.41-.073-.831 0-1.23.109-.607.129-1.19.027-1.81-.138-.819.307-1.272 1.173-1.307.573-.025 1.203-.131 1.464.626 1.036-.35 2.016-.772 3.097-.63.35.047.679.257 1.029.283.519.04 1.045.004 1.569-.047.431-.041.85-.218 1.28-.236.959-.033 1.918-.004 2.877-.012.722-.005 1.438.381 2.178.026.145-.07.419.013.583.111.303.18.547.13.86.004.553-.217 1.097-.051 1.272.485.277.835.85 1.083 1.731 1.1v1.178l-.983.28c.192.147.326.247.455.35.651.517.88 1.133.53 1.873a.878.878 0 0 0-.025.819c.196.522.104 1.014-.374 1.375-.341.261-.444.575-.3.985.544 1.536 1.089 3.073 1.625 4.616.864 2.483 1.72 4.975 2.594 7.454.325.924.705 1.829 1.043 2.744.1.271.145.567.235.913-.338.068-.559.15-.782.154-.926.017-1.849.02-2.773.013-.964-.008-1.126-.175-1.303-1.074-.121-.629-.283-1.25-.484-1.86-.127-.38-.437-.555-.877-.547-1.4.027-2.8.008-4.337.008l-.002-.008Zm1.085-3.485c1.033-.051 1.835-.094 2.755-.137-.454-1.564-.872-3.003-1.344-4.612l-1.414 4.753.003-.004Zm-22.91-.086-1.355-4.671c-.474 1.664-1.069 3.125-1.335 4.67h2.69Zm25.699-12.798c-.369-.472-.141-1.14-.744-1.498-.042.422.029.837-.137 1.093-.288.433-.605.807-.489 1.375.099.497.151 1.002.224 1.505l.221.028c.377-.804-.205-1.974.93-2.5l-.005-.003Zm-19.364-14.182c-.343-.293-.55-.468-.809-.687a44.85 44.85 0 0 1-.333.755c.397-.027.682-.043 1.138-.07l.004.002Zm-5.916 3.71c.469.122.751.011.853-.328-.313.12-.584.222-.853.329Zm-1.578 1.692-.155.146c.059.11.094.256.188.322.098.068.251.051.381.072l.055-.138a24.193 24.193 0 0 1-.469-.402Zm4.994-22.986c.085-.608-.261-.521-.534-.509-.04 0-.078.072-.172.17l.706.339Zm18.499 46.928c-.046 0-.094 0-.136-.004l-.027.544c.056 0 .113 0 .163.004v-.544Zm-25.866.548c.068 0 .137 0 .206-.004l-.056-.558c-.051.004-.101.01-.15.018v.548-.004Zm8.37-29c.037-.063.081-.126.125-.192-.052-.029-.121-.094-.15-.076-.064.035-.113.111-.167.166.051.031.103.056.192.103Zm27.847 27.455c1.118-.047 2.099-.109 3.082-.121.451-.004.784.225.879.706.167.841.605 1.391 1.494 1.572.488.098.946.338 1.498.548-.025.275-.058.59-.098.985.442-.269.192-.723.403-1.04.667-.198 1.374-.407 2.138-.637.011-.63.557-1.244.066-1.915-.116-.156-.236-.322-.388-.433a9.587 9.587 0 0 0-1.105-.702c-.232-.12-.513-.24-.76-.215-1.801.18-3.432-.3-4.92-1.273-1.21-.786-1.83-1.892-1.915-3.386-.159-2.73 1.593-4.355 3.985-5.008-.724-.092-1.155-.695-1.819-.31-.069.04-.206-.008-.295-.047-.595-.257-1.187-.518-1.777-.784-.185-.595.171-.923.663-1.163.417-.202.84-.382 1.31-.591-.14-.339-.245-.58-.299-.719-.605 0-1.209.16-1.618-.049-.361-.189-.505-.792-.801-1.31-.244-.034-.467.144-.479.502-.017.381.062.685.525.868.793.322.801.669.171 1.284-.384-.127-.745-.273-1.115-.349-.096-.022-.276.163-.334.29-.035.078.07.312.146.328.88.164.64.79.61 1.33-.917.372-.917.363-1.463-.408a.786.786 0 0 0-.475-.308c-.578-.072-.724-.458-.745-.938-.035-.817-.086-1.64-.061-2.457.099-3.136-.06-6.27-.02-9.407.046-3.727.008-7.457 0-11.182 0-.547 0-1.07.873-1.026-1.016-.656-.878-1.59-.848-2.51.035-1.19.041-2.386.025-3.58-.009-.549.369-.766.73-1.015.179-.123.4-.189.76-.35-.35-.378-.586-.699-.886-.945a1.644 1.644 0 0 1-.659-1.412c.033-1.053.008-2.105.008-3.249 1.4-.172 2.664-.41 3.698.731.185-.281.288-.591.507-.726.204-.134.526-.13.796-.13 1.164.008 2.323.047 3.489.064.459.01.684.258.736.685.025.201.042.407.042.614-.02 2.05-.054 4.1-.073 6.153-.008 1.262.021 2.522.019 3.784-.008 2.085.012 4.17-.069 6.252-.021.622-.273 1.26-.542 1.828-.108.224-.546.314-.855.41-.217.07-.547-.19-.688.302.663.193 1.255-.145 1.991-.197.037.308.111.62.111.938.033 4.34.121 8.681.048 13.026-.021 1.18.083 2.35.038 3.528-.025.6-.143 1.195-.224 1.853.471.099 1.042.224 1.674.355-.008-.166.017-.359-.033-.533-.065-.22-.321-.468-.267-.622.263-.737.027-1.43-.081-2.136-.105-.706.565-.95.99-1.503-.229-.137-.467-.232-.634-.398-.149-.15-.325-.39-.3-.566.021-.158.271-.347.459-.415.607-.22 1.177-.402 1.285-1.205.054-.422.521-.628.886-.504.891.303 1.801-.296 2.704.153.288.144.768-.162 1.16-.17 1.064-.03 2.134-.102 3.183.012 1.243.126 2.495.116 3.736-.028 1.109-.113 2.151.094 3.022.667.3-.244.523-.579.793-.616a3.599 3.599 0 0 1 1.511.084c.44.134.638.858.406 1.453-.174.45-.222.817 0 1.262.111.226.116.54.081.805a11.75 11.75 0 0 0 0 2.742c.124 1.172.091 2.366.112 3.55.023 1.108-.124 1.262-1.212 1.267-1.951.008-3.904.008-5.852 0-1.015-.005-1.122-.103-1.167-1.1-.032-.657-.007-1.314-.007-1.975h-.249v3.126c0 1.061.087 2.124.001 3.177-.114 1.457.027 2.904-.008 4.355-.034 1.434.008 2.873.008 4.308 0 1.379-.334 1.658-1.659 1.311-.301-.078-.553-.334-.897-.554-.178.3-.457.544-.936.357-.497-.193-.51-.605-.518-1.012-.012-.847-.004-1.695-.085-2.55-.522 1.51-1.46 2.717-2.899 3.244-1.097.402-2.273.921-3.562.505-.471-.15-1.057-.099-1.549.026-.946.24-1.862-.078-2.562-.467-1.239-.698-2.522-1.54-2.909-3.075-.155-.603-.084-1.266-.116-2.023l-.019.004Zm13.353-6.1c-.945.643-1.96.673-2.992.665-.551-.004-.877-.146-.973-.772-.113-.757-.607-1.258-1.375-1.459a6.19 6.19 0 0 0-2.07-.082c-.132.02-.275-.012-.406 0-.548.066-1.007.446-1.101.903-.111.55.042.99.639 1.256.706.316 1.467.517 2.212.73 1.174.34 2.394.555 3.52 1.007.732.297 1.419.837 1.951 1.422.391.433.493 1.13.72 1.71.115-.501.115-.977.115-1.458.011-1.7.011-3.403.039-5.102.009-.404.038-.843.209-1.194.149-.306.116-.48-.033-.733a1.247 1.247 0 0 1-.176-.575c-.025-.578.049-1.17-.688-1.422-.104-.033-.104-.363-.167-.552-.014-.037-.107-.051-.229-.107-.029.232-.05.442-.09.737-.414.02-.834.123-1.21.041-.38-.08-.725-.336-1.083-.517l.358.398-.777.374c2.045.488 3.578 2.65 3.613 4.72l-.006.01Zm-13.411-41.984c-.117-.107-.215-.189-.301-.287-.105-.12-.197-.257-.283-.37-.729.062-1.257.271-1.585.63l.393.87c.792.165 1.471.18 1.776-.843Zm9.808 35.76c.073-.253.081-.563.228-.754.419-.533.259-.944-.176-1.323-.301-.26-.353-.555-.23-.918.042-.115-.014-.264-.029-.402l-.229-.029c-.063.222-.113.45-.182.671-.077.253-.166.501-.257.754.406.375.695 1.04.871 1.996l.004.005Zm-8.64-25.123c.196-.574.133-1.011-.57-1.272.112.915-1.105.835-1.215 1.707l1.785-.435Zm-2.638 2.17-.054.283 1.022.37v-1l-.968.349v-.002Zm-1.18-3.721c.334-.386.753-.6.423-1.156-.573.214-.584.587-.423 1.156Zm10.426 43.484c-.431-.246-.7-.41-1.014-.055.281.476.568.322 1.014.055Zm-6.583-34.325-.213.205.452.473c.069-.066.138-.134.209-.198l-.448-.476v-.004Zm-1.614-3.288-.249-.03-.05.5c.059.004.172.027.176.009.05-.159.084-.32.125-.483l-.002.004Zm15.811 21.98c-.052-.014-.099-.034-.15-.034-.009 0-.043.067-.034.082.029.045.077.082.119.119l.065-.166Zm-4.521 14.434.167-.073c-.025-.052-.052-.103-.073-.154l-.219.117.125.11ZM56.311 51.565h1.243c0-.527-.032-.958.008-1.391.038-.431.163-.852.215-1.285a1.617 1.617 0 0 0-.065-.657c-.15-.466-.202-.903.073-1.31.774.112-.014 1.281.945 1.277-.125-.714-.23-1.336-.346-2.011-.207-.09-.505-.156-.71-.33-.104-.087-.043-.37-.07-.709.377.066.66.15.942.146.236 0 .472-.106.703-.166l-.344-.93c1.145-.583 2.198-1.044 3.174-1.635.594-.364 1.086-.907 1.595-1.4.417-.394.797-.827 1.183-1.252.158-.17.36-.34.423-.55.194-.63.28-1.293.5-1.91.126-.348.442-.63.764-1.062-.017-.065-.073-.287-.134-.507-.05-.193-.2-.414-.146-.568.572-1.615.244-3.284.313-4.987l.709-.286c-.945-.209-1.41-1.695-.767-2.744-.689-1.17-1.335-2.333-2.053-3.464-.98-1.545-2.418-2.561-4.066-3.284-.552-.246-1.168-.342-1.764-.48-.817-.184-1.099-.488-1.105-1.328-.013-1.81-.017-3.622 0-5.438.01-.907.12-1.006 1.011-1.01 1.898-.012 3.67.462 5.453 1.108 2.073.756 3.885 1.888 5.583 3.208 1.288.997 2.231 2.368 3.199 3.688.955 1.305 1.318 2.865 1.98 4.293.224.477.268 1.068-.245 1.509-.121.103-.165.291-.28.509l.926.21c.148.553.423 1.105.415 1.653-.008.53-.304 1.061-.484 1.61 1.07.621.47 1.658.563 2.633-.29-.025-.48-.037-.675-.056-.03.103-.094.201-.077.288.04.225.041.527.187.665.855.804.682 1.818.5 2.756-.34 1.793-.871 3.546-1.795 5.143-.66 1.143-1.345 2.27-2.025 3.405-.569.95-1.41 1.64-2.256 2.329-1.13.915-2.244 1.85-3.576 2.48-1.464.689-2.88 1.51-4.58 1.655.084.58-.194.96-.584 1.32-.917.852-1.83 1.718-2.72 2.594a323.074 323.074 0 0 0-3.46 3.477c-.438.445-.438.605.008 1.114 2.029 2.325 4.077 4.642 6.102 6.972.341.394.627.84 1.013 1.36-.35.099-.53.198-.715.198-1.095.012-2.19 0-3.287.012-.446.006-.763-.166-1.053-.51a440.348 440.348 0 0 0-5.082-5.844c-.352-.394-.459-.805-.45-1.301.018-.858.041-1.714-.009-2.566-.037-.673.209-1.139.674-1.615 1.395-1.432 2.738-2.918 4.091-4.392.18-.197.305-.441.455-.665l-.027.027v.004Zm13.742-24.211c-.062.082-.127.158-.192.24.296.415.59.835.907 1.277.382 0 .674-.13.826-.403l-1.54-1.118v.004Zm-.377 3.624c-.142-.28-.188-.513-.28-.53a4.88 4.88 0 0 0-1.117-.077c-.11.004-.299.2-.299.312 0 .117.176.326.282.33.423.027.855-.016 1.41-.035h.004Zm63.331 13.08-.248 1c.617.09.929.426.876 1.146-.033.472.109.924-.656.942.756.232.996.591.881 1.334-.112.72.055 1.478.055 2.225 0 .92-.497 1.238-1.382.924-.16-.056-.301-.17-.464-.222-.156-.047-.383-.123-.484-.051-.851.62-1.648-.078-2.464-.117-.248-.013-.477-.487-.733-.774-.296-.107-.637-.236-.983-.36-.061-.02-.143-.073-.18-.05-1.174.683-1.996-.212-2.816-.729a14.586 14.586 0 0 1-2.669-2.184c-1.999-2.064-3.818-4.268-4.658-7.105-.236-.796-.526-1.57-.83-2.475l1.151-.201.012-.099-.94-.088c-.511-.476-.592-1.087-.622-1.76-.039-.844-.219-1.68-.273-2.523a17.861 17.861 0 0 1 0-2.243c.038-.638.209-1.268.261-1.909.125-1.633.518-3.175 1.152-4.7.504-1.215.983-2.427 1.596-3.6.83-1.58 2.132-2.741 3.403-3.905 1.506-1.379 3.316-2.266 5.21-3.07 1.898-.805 3.806-1.217 5.835-1.19.81.008.946.114.955.855.021 2.081.008 4.162.008 6.313-.803.337-1.517.75-2.289.944-1.354.339-2.334 1.244-3.383 2.036-.992.75-1.587 1.837-2.07 2.968a11.462 11.462 0 0 0-.935 3.505c-.099 1.102-.358 2.19-.573 3.448.166.636.54 1.478.573 2.33.042 1.095.326 2.134.496 3.199.031.161.095.315.188.451.429.653.99 1.244 1.285 1.946.556 1.336 1.695 2.011 2.796 2.74.381.252.869.349 1.315.503.51.178 1.02.344 1.604.546ZM120.082 31.79l.284.864c1.391.287 1.737.28 2.457-.047-.42-.218-.918-.39-1.293-.702-.467-.386-.891-.402-1.448-.119v.004Zm11.352 18.785c1.077-.185 1.699-.719 1.89-1.759h-.584c-.059.3-.115.602-.168.903-.355.488-1.122-.035-1.138.856Zm-8.409-12.688c-.036.068-.069.138-.109.206l.407.168c.022-.05.048-.09.069-.138l-.372-.235h.005Zm-3.203-.993a.803.803 0 0 0-.009-.11l-.513.055c0 .016 0 .035.005.051h.513l.004.004ZM94.196 48.771l-.188 1.063-1.037.267-.035.58 1.421-.543c.297-.288.193-.967.883-1.13.385.76.13 1.54 0 2.265-.083.472-.676.48-1.049.326-.594-.252-1.09-.197-1.72-.062-.643.138-1.387-.221-2.087-.371a.233.233 0 0 1-.086-.053.24.24 0 0 1-.054-.084c-.105-.458-.343-.73-.852-.686-.364.03-.688-.493-1.105-.047-.083.09-.398.018-.577-.056-1.94-.745-3.512-2.032-4.928-3.497-.78-.81-1.455-1.726-2.123-2.63a14.067 14.067 0 0 1-2.016-3.757c-.309-.882-.593-1.77-.922-2.756l1.032-.257c-.32-.141-.76-.205-.959-.457-.236-.296-.325-.751-.371-1.15-.134-1.08-.309-2.175-.288-3.256a57.5 57.5 0 0 1 .365-5.002c.075-.739.315-1.465.525-2.184.574-1.962 1.427-3.807 2.457-5.561.304-.515.742-.96 1.147-1.406 1.522-1.67 3.226-3.148 5.255-4.134 1.418-.683 2.888-1.278 4.473-1.588a14.752 14.752 0 0 1 3.351-.29c.455.013.71.21.71.678v6.512c-1.027.38-2.02.65-2.918 1.104-1.815.911-3.366 2.112-4.355 3.981-1.048 1.983-1.39 4.111-1.66 6.283-.052.429-.229.843-.344 1.256.211.833.532 1.676.61 2.542.097 1.057.248 2.094.563 3.104.07.223.177.437.298.638.294.497.654.965.903 1.482.604 1.268 1.492 2.245 2.71 2.943.53.303 1.01.65 1.665.714.521.055 1.027.326 1.614.531l-.231.908c.419.225.691.841.817 1.847-.086.061-.18.162-.3.213-.115.051-.248.055-.474.103.522.192 1.062.266 1.01.841-.053.622-.57.774-1.135.776h.005Zm-9.673-16.109-2.195-1.213c-.522.28-.676.686-.461 1.215.859.472 1.697.351 2.656 0v-.002Zm-3.002 4.265c-.02-.103-.032-.201-.049-.304l-.784.236.025.115c.272-.016.538-.029.808-.047Zm3.303 1.387c.025-.061.056-.127.083-.197-.08-.051-.156-.115-.238-.158-.09-.047-.187-.076-.281-.115-.032.064-.06.134-.094.197l.525.27.005.003ZM19.136 68.37h-3.45c-.098-1.133-.198-2.251.126-3.33.337-1.14.813-2.24 1.2-3.366.553-1.601 1.072-3.22 1.615-4.825.348-1.024.71-2.034 1.063-3.054.205-.604.4-1.21.62-1.872-1.293-.574-.789-1.72-.745-2.653.02-.454.142-.875-.008-1.34-.09-.284.012-.627.033-1.072.52.275.407.608.442.878.046.39.244.514.584.431l-.409-2.058c-.381-.051-.848-.13-.573-.907l1.057.201.386-.326c-.104-.312-.202-.62-.28-.856 1.143-.583 2.228-1.118 3.295-1.683 1.124-.595 1.746-1.675 2.622-2.766h-7.138c-.107-2.502-.07-4.873-.053-7.344.443-.039.805-.098 1.168-.102 1.817-.02 3.629-.041 5.443-.035.3 0 .609.072.899.158.521.154.767.497.75 1.071-.03 1.018-.01 2.042-.01 3.165.292-.047.488-.082.742-.121-.187-.635-.71-1.172-.158-1.782.05-.055-.036-.252-.084-.375-.277-.745-.152-1.41.447-2.052h7.96c.054.775.093 1.508.863 1.859.008.642.138 1.313 0 1.923-.309 1.317-.667 2.641-1.16 3.9-1.589 4.042-4.187 7.285-8.007 9.434-1.168.655-2.447 1.116-3.702 1.6-.521.202-1.11.236-1.656.493h.98c.851.012.912.051 1.185.827a971.76 971.76 0 0 1 1.743 4.903c.847 2.416 1.69 4.833 2.538 7.249.348.989.716 1.974 1.066 2.968.077.213.108.445.177.736-.24.068-.425.165-.613.167-1.028.018-2.054-.005-3.078.02-.54.014-.838-.246-.988-.714-.2-.61-.379-1.227-.536-1.85-.196-.783-.342-.917-1.195-.92-.89-.005-1.781.003-2.67-.005-.266 0-.527-.047-.819-.076l-.09-1.461-1.574 4.958-.008.004Zm2.164-6.82c1.045-.055 1.89-.102 2.794-.153l-1.36-4.827c-.573 1.756-1.069 3.31-1.434 4.98Zm2.967-26.938c.23.291.326.472.472.575.114.082.296.092.444.084.065 0 .186-.166.167-.201-.084-.164-.175-.372-.326-.442-.158-.076-.379-.016-.76-.016h.003Zm-3.294 28.334c.05 0 .102 0 .148.004v-.716c-.038 0-.077 0-.11-.004l-.038.716Z"/>
        <path d="M56.338 51.54c-.199.055-.399.094-.593.164-.719.262-1.313-.957-2.07-.177-.703-.113-1.418-.168-2.098-.361-.257-.072-.43-.452-.667-.727l-.991-.318c-.058-.02-.136-.084-.175-.068-1.314.657-2.152-.354-3.049-.95-.98-.657-1.94-1.401-2.734-2.266-1.597-1.73-3.142-3.523-3.947-5.808-.399-1.128-.81-2.255-1.256-3.505l1.187-.146.012-.129c-.3-.02-.604-.04-.932-.068-.507-.5-.655-1.122-.66-1.837-.01-.78-.168-1.56-.205-2.34a33.315 33.315 0 0 1-.009-2.447c.009-.372.12-.74.138-1.113.148-2.894 1.064-5.572 2.367-8.123 1.595-3.13 4.096-5.336 7.157-6.998 1.08-.585 2.17-1.143 3.345-1.4 1.643-.363 3.303-.856 5.013-.569.313.826.375 4.92.119 7.182-.728.291-1.502.615-2.29.91-2.123.793-3.691 2.193-4.825 4.159-.993 1.722-1.314 3.602-1.564 5.514-.042.34 0 .719-.149 1.012-.54 1.07.021 2.022.253 3.01.069.296.202.613.154.9-.163 1.057.159 2.09.548 2.955.616 1.37 1.444 2.73 2.482 3.805.828.856 1.86 1.738 3.243 1.786.192.01.38.137.573.215.92.349.939.407.394 1.279.265.07.522.133.826.215.069.51.131 1.01.204 1.566-.243.103-.483.201-.792.335.5.123 1.001.246.96.851-.047.61-.505.745-1.064.741-.075.35-.144.673-.225 1.072l-1.078.236-.038.547c.22.159.847-.313 2.217-1.592.223.355.283 1.194.183 2.516l.027-.029h.009ZM45.532 32.7c-.557-.331-1.05-.56-1.464-.88-.497-.385-.928-.492-1.4.009.042.222.077.454.127.685.013.064.06.12.09.175.734.193 1.618.195 2.65.008h-.003v.002Zm.638 5.608c-.343-.326-.532-.5-.83-.784-.048.608.066.862.83.784Zm6.64 7.56c.008.052.016.1.02.15l.553-.075-.03-.18-.542.106h-.002ZM41.64 36.86l.021.13c.236-.025.471-.056.707-.083l-.025-.154-.703.113v-.006Zm.98 2.128s-.033.041-.056.058c.04.024.083.055.125.072.008 0 .033-.035.05-.056a1.831 1.831 0 0 0-.119-.074ZM14.802 51.572c-.25-.098-.492-.234-.75-.291-.428-.093-.766-.144-1.056-.632-.207-.343-.918-.382-1.406-.555-.709.657-1.334.027-1.853-.256a15.736 15.736 0 0 1-3.87-2.94 23.32 23.32 0 0 1-2.547-3.196c-.761-1.156-1.489-2.354-1.829-3.738-.14-.582-.39-1.143-.59-1.711-.256-.74-.206-.807.565-.836.125-.004.25 0 .386-.16-.313-.02-.626-.04-.98-.067a2.727 2.727 0 0 1-.597-1.876c.021-.441 0-.887-.058-1.324-.263-1.913-.13-3.828.063-5.726a15.73 15.73 0 0 1 1.464-5.172 47.778 47.778 0 0 1 1.73-3.335c.313-.544.757-1.024 1.18-1.498 1.74-1.944 3.798-3.489 6.188-4.517 1.16-.5 2.33-1.076 3.676-1.088.84-.01 1.679-.262 2.523-.361.36-.041.73.043 1.07.066.278.91.326 4.603.107 7.15-.882.328-1.835.646-2.757 1.047-1.627.7-2.982 1.779-3.916 3.283-1.183 1.897-1.975 3.943-2.023 6.233-.017.694-.282 1.383-.409 1.962.213 1.199.484 2.32.594 3.46.115 1.17.417 2.244 1.02 3.243.248.404.538.79.74 1.22.626 1.343 1.631 2.333 2.907 3.022.705.382 1.51.569 2.274.842.596.215.733.63.414 1.243 1.254.13.789 1.076.912 1.82-.23.103-.438.194-.51.222.249.271.729.563.752.879.037.587-.536.772-1.051.82-.063.358-.115.657-.184 1.02-.346.087-.699.167-1.093.267l-.029.624c.509-.244.984-.402 1.374-.685.355-.252.3-.911.947-1.047.321.794.14 1.574.034 2.315-.061.431-.651.522-.939.355-.748-.43-1.453-.308-2.2-.082-.09.027-.2-.02-.302-.033l.029.025v.008ZM4.709 32.642c.961.402 1.852.394 2.832.014-.638-.328-1.208-.55-1.704-.883-.467-.314-.85-.342-1.305.072l.177.797Zm3.153 5.664-.586-.82c-.073.68.056.941.586.82Zm-3.493-1.4c0-.055-.008-.11-.013-.17l-.754.09c0 .025.01.052.014.082l.753-.002Zm-3.447-2.03c.056-.032.133-.055.146-.098.012-.037-.042-.098-.069-.15-.063.043-.127.082-.192.123.038.046.077.083.11.124l.005.002Zm3.81 4.173c-.05-.02-.102-.047-.159-.062-.008 0-.029.048-.041.078.052.021.104.047.158.064.008 0 .03-.047.046-.076l-.004-.004Zm10.005 6.814.052.207.42-.142-.053-.154-.417.09v-.003l-.002.002ZM106.885 30.2l-1.306-.445c-.609-.712-.59-1.644-.194-2.526-.676-1.15-1.293-2.237-1.947-3.294-1.31-2.114-3.255-3.331-5.665-3.811-.96-.193-1.228-.442-1.23-1.412-.01-1.813-.014-3.627 0-5.439.006-.903.096-1.02 1.014-.985.777.03 1.553.164 2.323.295.703.122 1.417.232 2.093.454 4.487 1.47 8.045 4.125 10.385 8.281.203.357.391.733.486 1.123.106.428.225.804.475 1.194.701 1.096.651 1.636-.011 2.92 1.44.48 1.723 1.848.72 3.477.764.476.906 1.17.542 2.746h-.766c.13.355.151.753.362.938.848.753.614 1.712.432 2.56a23.115 23.115 0 0 1-1.155 3.794c-1.606 3.992-4.098 7.296-7.937 9.365-2.146 1.155-4.411 2.12-6.911 2.266-.632.038-1.275-.031-1.871-.048-.294-1.21-.212-4.236.094-4.802.405.156.263.507.28.79.025.355.13.587.553.513-.135-.636-.263-1.246-.407-1.956-.265-.164-.93-.2-.596-.89.424-.477 1.063.54 1.43-.276-.078-.287-.172-.62-.23-.847 1.068-.544 2.032-1.026 2.986-1.525.737-.38 1.363-.862 1.829-1.589.338-.525.877-.923 1.323-1.387.111-.115.256-.24.3-.386.175-.603.271-1.235.487-1.822.132-.351.445-.636.762-1.063-.025-.068-.115-.277-.188-.493-.063-.189-.223-.462-.15-.564.329-.464.049-.977.194-1.439.359-1.143.157-2.286.021-3.489.39-.527.993-.156 1.489-.266-.013.985.265 1.122 1.508.728.119-.326 0-.52-.338-.566-.399-.056-.797-.09-1.195-.138l.009.014Zm2.02-2.762c-.03.055-.059.11-.086.166.313.403.59.842.947 1.2.248.253.578.063.894-.488-.491-.102-1.021-.133-1.199-.74-.025-.09-.364-.095-.556-.138Zm3.04-.373v-.017h-.446v.017h.446Zm26.966 24.494c1.186 0 2.374-.03 3.553.008.903.03 1.835-.201 2.712.296.157.09.487-.154.743-.214.977-.236 1.241-.035 1.262.959.014.615.02 1.229.019 1.847 0 .451-.244.687-.703.687l-.206.004c-3.693-.004-7.388-.008-11.084-.016-.132 0-.269-.039-.393-.056-.424-1.254-.111-1.773.945-1.572.009-.677-.542-.544-.97-.623-.026-.181-.129-.39-.061-.493.438-.653.331-1.363.32-2.077-.012-.985.027-1.966.065-2.951.009-.17.13-.343.194-.51.681.218-.063 1.314.917 1.335-.115-.56-.199-1.051-.335-1.527-.056-.193-.215-.431-.385-.5-.518-.202-.37-.549-.322-1.033.417.094.757.17 1.117.256l.343-.3-.305-1.079c2.536-.654 4.448-2.015 5.909-4.248h-7.112c-.148-2.496.096-4.868.019-7.329.561-.062 1.025-.15 1.494-.15 1.747 0 3.488.009 5.233.037 1.234.02 1.496.296 1.508 1.54.01.781-.009 1.57.01 2.353.005.3.116.548.599.356-.114-.304-.359-.622-.318-.895.122-.772-.06-1.53-.008-2.286.042-.69.536-1.105 1.212-1.109 2.227-.014 4.448-.01 6.673 0 .231 0 .459.072.721.12.071.718.222 1.348.814 1.824.171.137.188.583.14.864-.201 1.17-.38 2.352-.709 3.485-.658 2.261-1.788 4.313-3.128 6.234-1.055 1.521-2.457 2.703-3.984 3.74-1.601 1.083-3.296 1.986-5.138 2.59-.446.146-.911.223-1.365.328v.109l.004-.004Zm1.078-16.706.775.431c.06-.113.188-.24.163-.33-.125-.468-.471-.388-.938-.1ZM68.898 55.868l-.455 1.225c.063.008.198.004.309.055.275.12.665.193.78.41.354.662.825 1.368.855 2.074.12 2.79.091 5.592.116 8.394 0 .061-.048.127-.114.316-1.189.17-2.428.051-3.764.051-.03-.402-.078-.733-.078-1.06 0-2.934.013-5.877.009-8.816 0-.538.077-.975.78-1.065l-.772-.218c0-1.268-.081-2.53.04-3.776.05-.537.444-1.032-.07-1.666.36-.099.606-.21.852-.224.515-.024 1.042.082 1.537 0 1.203-.21 1.82.476 2.329 1.387.63 1.127 1.276 2.25 1.89 3.385.423.78.89 1.518 1.411 2.237.532.739.95 1.56 1.422 2.343.067.115.163.214.359.466.04-.383.085-.624.083-.864-.014-2.629-.035-5.262-.048-7.89-.004-.887.098-1.006.98-1.041.72-.027 1.44-.019 2.153-.027.54-.008.834.24.848.792.005.24.03.48.03.716v13.02c0 .236-.03.477-.046.764-.232.035-.45.063-.724.107l.632 1.28c-.363.082-.611.175-.86.185-.583.025-1.167-.043-1.743.029-.838.102-1.33-.27-1.724-.959-.455-.796-.989-1.545-1.447-2.34-1.341-2.315-2.66-4.644-3.986-6.965-.202-.351-.736-.634-.275-1.096l-1.334-1.199-.28-.488c-.046.055-.098.11-.146.162l.455.296h-.004Zm3.878 2.042c-.544-.123-.98-.047-1.3.226.495-.083.898-.157 1.3-.226Zm5.66 7.232c.052-.016.106-.033.158-.055a14.772 14.772 0 0 0-.15-.398l-.14.05c.042.134.084.272.128.403h.004Zm66.311-37.463c-.687-.57-1.311-1.067-1.727-1.935-.89-1.876-2.085-3.58-4.023-4.595-.877-.458-1.741-.912-2.754-1.033-.911-.106-1.189-.427-1.199-1.34a315.636 315.636 0 0 1 0-5.33c0-.334.086-.669.138-1.059.963-.225 1.892-.106 2.782.019 1.552.217 3.023.722 4.475 1.34 1.709.722 3.193 1.767 4.623 2.886.874.68 1.611 1.561 2.315 2.427.747.916 1.475 1.868 1.872 3.015.185.53.432 1.045.639 1.566.175.446-.086.716-.434.91-.648.362-1.309.703-1.981 1.021-1.543.708-3.095 1.384-4.732 2.112l.006-.004Zm63.441-7.696c-1.64 0-3.281.051-4.92-.02-.792-.035-1.548-.134-2.371-.027-1.241.164-2.525.061-3.784-.017-1.139-.067-1.298-.273-1.298-1.379 0-1.742 0-3.485.025-5.227.015-.827.117-.969.925-1.032.71-.056 1.432.008 2.15 0 2.423-.027 4.847-.064 7.267-.082 2.394-.017 4.786-.013 7.175 0 1.123.004 1.403.295 1.408 1.395a351.85 351.85 0 0 1 0 4.819c-.008 1.057-.384 1.486-1.449 1.554-.854.055-1.71.016-2.566.02h-2.564l.002-.004Zm-73.781 48.301c-.356.07-.582.15-.81.156-.992.013-1.981.02-2.974 0-.715-.014-.967-.252-1.13-.934-.15-.626-.267-1.272-.491-1.867-.105-.267-.447-.604-.691-.616-1.46-.057-2.924-.03-4.452-.03-.245.826-.5 1.627-.716 2.431-.208.776-.458 1.002-1.276 1.016-.65.008-1.3-.01-1.947.004-.518.013-.709-.215-.75-.732-.106-1.49.185-2.894.708-4.29.701-1.878 1.301-3.786 1.952-5.678.584-1.688 1.095-3.401 1.78-5.045.526-1.264.23-1.15 1.689-1.158.824-.004 1.642.01 2.463.02.741.015.849.106 1.102.816.659 1.847 1.334 3.684 1.973 5.533.491 1.434.906 2.894 1.417 4.32.501 1.406 1.091 2.779 1.614 4.174.209.567.338 1.158.543 1.868l-.004.012Zm-9.56-6.705c1.113-.078 1.996-.137 2.907-.197l-1.399-4.812c-.711 1.682-.955 3.322-1.502 5.01h-.006ZM29.203 27.607a4.207 4.207 0 0 1-1.814-2c-1.195-2.57-3.097-4.444-5.845-5.357-.321-.107-.663-.15-.997-.218-.813-.168-1.053-.425-1.057-1.231-.009-1.843-.013-3.69 0-5.54.008-.863.106-.993.938-.968 1.843.062 3.656.306 5.347 1.135.778.382 1.656.575 2.415.993 3.253 1.806 5.86 4.267 7.453 7.684.225.486.431.985.638 1.48.15.365.098.642-.305.835-.663.326-1.297.725-1.968 1.032-1.602.737-3.216 1.439-4.809 2.145l.004.01Zm183.896 6.9c-.424.041-.724.088-1.02.088-4.177.009-8.356.021-12.53.005-.383 0-.762-.197-1.086-.288-.575.107-1.127.273-1.685.296-.649.024-.95-.21-.925-.827.064-1.622-.333-3.272.246-4.868.046-.13-.036-.319-.088-.468-.146-.431-.298-.877.202-1.18.407-.249.772-.048 1.281.722-.004-.76.39-.887.969-.882 4.382.014 8.765 0 13.149 0 .206 0 .412 0 .617.035.72.11.939.334.947 1.087.013 1.47 0 2.941-.012 4.41-.005.604-.036 1.207-.057 1.868l-.008.004v-.002Zm-2.952-5.063-.199.226c.223.15.29.54.89.37l-.691-.596Zm-92.736 23.25c.121.348.179.715.361 1.006.773 1.232 1.013 2.586 1.026 4 .019 1.538.052 3.079-.013 4.618-.045 1.141-.106 2.288-.709 3.356-.81 1.426-1.932 2.384-3.545 2.64-1.487.237-2.988.17-4.525.056-.308-.987-.142-1.943-.096-2.877.01-.185.409-.462.656-.5a5.803 5.803 0 0 1 1.532-.005c1.307.15 2.393-.646 2.437-1.943.054-2.085.066-4.17.038-6.256-.009-.897-.784-1.631-1.708-1.693-.716-.045-1.439-.033-2.155-.072-.687-.039-.858-.185-.889-.852-.034-.814-.009-1.627-.009-2.518 1.11-.22 2.097-.086 3.069-.141 1.31-.078 2.461.457 3.627.944.283.119.601.16.898.238h.005Zm-28.863.6c0 .275.016.548 0 .819-.038.5-.33.841-.797.944-1.293.287-2.029 1.182-2.508 2.305-.488 1.135-.762 2.356-.501 3.575.296 1.383.617 2.812 1.968 3.645.142.086.272.252.413.26.928.074 1.079.764 1.22 1.47.038.201.094.398.103.6.06 1.438-.342 1.772-1.769 1.434-.521-.123-1.074-.236-1.537-.493-1.991-1.108-3.46-2.62-4.041-4.942-.3-1.194-.334-2.376-.42-3.575-.124-1.714.501-3.25 1.448-4.548.972-1.332 2.252-2.456 3.993-2.818.463-.094.912-.287 1.379-.338.853-.093 1.02.078 1.065.938.015.24 0 .48 0 .716h-.016v.008Zm-49.656-.012c0 .273.004.548 0 .82-.013.512-.317.87-.768.965-1.449.296-2.148 1.334-2.656 2.566-.678 1.631-.566 3.292.012 4.905.396 1.102 1.062 2.044 2.306 2.374.253.068.878.967.914 1.297.054.526.098 1.049.146 1.576.029.325-.113.577-.438.565-.6-.024-1.199-.092-1.79-.201a6.098 6.098 0 0 1-1.34-.419c-1.216-.544-1.998-1.572-2.79-2.586-1.147-1.47-1.293-3.222-1.46-4.973-.206-2.14.509-4.028 1.724-5.726.789-1.096 1.884-1.867 3.176-2.306.61-.21 1.225-.431 1.858-.528.947-.142 1.089.017 1.118.946.008.24 0 .48 0 .719h-.012v.006Zm11.863 15.06h-3.82c-.03-.382-.084-.745-.084-1.106-.01-4.71-.01-9.42-.01-14.135v-.41c.02-1.1.06-1.135 1.182-1.135h2.745c.056.453.146.812.142 1.174-.015 4.983-.04 9.968-.065 14.95 0 .169-.048.335-.094.662h.004Zm15.008.06c-1.16 0-2.248.011-3.33-.005-.41-.01-.605-.263-.584-.681.063-1.392.14-2.78.157-4.17.008-.742-.134-1.486-.138-2.227-.02-2.839-.017-5.68-.02-8.517 0-.206.007-.41.02-.616.031-.404.231-.622.655-.622.855 0 1.712-.027 2.569.004.642.02.74.142.761.831.027.754.015 1.502.015 2.258 0 3.895 0 7.797-.005 11.692 0 .614-.052 1.225-.091 2.052h-.009Z"/>
        <path d="M14.778 51.547c.033.75.102 1.494.102 2.243-.013 2.562-.063 5.123-.069 7.682 0 1.498.056 3.003.077 4.5.013.746 0 1.49 0 2.322a19.016 19.016 0 0 1-3.472.062c-.17-.015-.455-.357-.459-.546-.012-1.392.032-2.783.063-4.175 0-.129.08-.256.062-.381-.406-2.989-.11-5.993-.183-8.992-.02-.843.02-1.687.033-2.672l3.87-.018-.028-.025h.004Zm94.729 16.803h-3.886V51.598c1.085-.106 2.169-.158 3.233.035.275.048.532.474.681.782.111.224.037.536.037.81 0 1.743-.029 3.482.009 5.224.035 1.443-.175 2.873-.038 4.326.132 1.42.034 2.863.026 4.298 0 .398-.037.798-.062 1.28v-.003ZM1.625 67.21l-.273-.701-.254.012-.292 1.478c-.843.055-.957 0-.986-.797a88.535 88.535 0 0 1-.042-3.991c.02-2.081.075-4.158.104-6.24.004-.371-.062-.745-.081-1.116-.03-.677-.073-1.359.467-1.944-.634-.626-.53-1.391-.407-2.154a1.865 1.865 0 0 1 1.52.22c.536-.631 1.233-.442 1.888-.335.48.082.454.533.458.91.017 1.23.03 2.455.038 3.683.004.819.035 1.642-.008 2.458-.025.43-.27.848-.27 1.273 0 .418.253.84.261 1.258.032 2.011.017 4.026.009 6.038 0 .402.041.944-.438 1.04-.43.09-.945 0-1.377-.15-.45-.153-.264-.636-.3-.993.13.041.257.086.386.13l.012-.095-.402.016h-.013Zm-.517-14.353c-.112-.132-.173-.261-.223-.257-.12.008-.235.082-.354.13.066.094.123.24.212.268.082.027.207-.076.359-.142h.006Zm141.68 15.579h-3.1c-.497 0-.764-.236-.76-.752 0-.547-.021-1.091-.008-1.64.04-1.84.117-3.681.129-5.522.008-1.225-.086-2.45-.104-3.67-.008-.433.073-.866.117-1.358h3.715c.289 1.367.318 11.854.013 12.936l-.002.006Zm-53.19-3.426c.963-.172 1.568-.75 2.102-1.594-.574.078-1.037.189-1.498.193-.972.008-1.297-.325-1.311-1.273-.009-.478.014-.958.018-1.432.009-.497.236-.754.757-.745.48.008.96-.027 1.44-.02 1.261.005 1.321.06 1.463 1.432l.167-1.42c1.078 0 2.093-.027 3.107.02.211.008.472.252.604.458.334.527.31 1.149.116 1.687-.476 1.34-.989 2.694-2.002 3.735-1.264 1.293-2.741 2.243-4.613 2.362-.993.066-1.278-.349-.989-1.322.203-.669.407-1.336.63-2.08h.008Zm15.125-6.96c.625.769.458 1.676.397 2.55-.029.458-.385.698-.854.71-1.401.03-2.8.062-4.2.086-.716.012-1.43.04-2.146.012-.822-.03-.952-.174-.967-.976-.017-.774 0-1.55 0-2.282.89-.261 6.504-.304 7.773-.095l-.003-.004Zm-58.321-1.34c-.861.477-1.648.943-2.467 1.345-.449.224-.872.086-1.164-.347-.208-.308-.431-.615-.609-.942-.533-1.001-1.366-1.553-2.481-1.7-.098-.011-.188-.073-.353-.137-.235-.946-.14-1.93-.077-2.908.027-.398.386-.492.695-.427.694.15 1.407.282 2.054.56 2.04.875 3.695 2.16 4.406 4.557h-.004Zm49.612.032c-.837.44-1.695.915-2.57 1.348-.335.164-.678.064-.927-.232-.17-.205-.35-.419-.463-.657-.582-1.278-1.585-1.98-3.013-2.202-.294-1.075-.12-2.15-.107-3.187 2.359-.835 6.182 1.827 7.086 4.93h-.006ZM215.15 68.448h-3.383c-1.192 0-2.384-.016-3.578-.008-.924.008-1.147-.19-1.127-1.135.009-.431.061-.862.118-1.293.025-.205.956-.946 1.192-.924.732.062 1.443-.065 2.167-.152.295-.032.642-.032.902.082.467.206.87.313 1.35.017.163-.099.496-.076.672.027.372.217.678.205 1.044 0 .329-.181.699 0 .707.334.021.967.261 1.952-.061 3.048l-.003.004Zm-6.958-1.627-.122.026.062.304.126-.025-.066-.306Zm-1.13-8.723c.59-.072 1.053-.174 1.52-.178 1.504-.021 3.01-.019 4.513-.015 1.216.004 1.302.103 1.314 1.359.004.577 0 1.151 0 1.861-.582.082-1.105.185-1.635.22-1.146.068-2.296-.138-3.459.068-.574.102-1.217-.082-1.807-.222-.184-.047-.416-.378-.429-.587-.05-.804-.02-1.62-.02-2.51l.003.004ZM42.861 62.221c1.207.271 2.135.907 3.061 1.525.119.082.115.54.009.737-.313.556-.634 1.143-1.078 1.588-1.329 1.328-2.85 2.326-4.83 2.326a2.045 2.045 0 0 1-.407-.035c-.098-.02-.183-.082-.283-.123-.034-.099-.094-.193-.094-.292 0-1.028.41-1.943.917-2.797.184-.312.64-.452.966-.69.759-.543 1.372-1.21 1.739-2.235v-.004ZM4.147 58.213c1.866-.458 3.582-.185 5.282-.256.571-.025.87.328 1 .847a.808.808 0 0 1 .028.201c.02 2.07.288 2.194-2.03 2.266-.708.02-1.426.107-2.13.086a10.232 10.232 0 0 1-1.719-.248c-.367-.078-.423-.41-.427-.733-.009-.702 0-1.408 0-2.163h-.004Zm181.704-6.582c-.338-.273-.288-.5.016-.765.265.279.35.505-.016.765ZM37.303 32.992c-.09-.2-.17-.304-.17-.406 0-.062.15-.189.183-.172.104.042.236.133.25.223.013.076-.125.175-.267.355h.005Zm115.964-.359c-.163.115-.263.246-.348.236-.09-.008-.23-.154-.23-.236 0-.09.14-.232.23-.244.085-.008.188.123.348.246v-.002Z"/>
      </g>
    </mask>
    <g mask="url(#c)">
      <path fill="url(#d)" d="M-1.137-.339h216.378v80.545H-1.137V-.34Z"/>
    </g>
  </g>
  <defs>
    <linearGradient id="d" x1="-1.137" x2="215.241" y1="39.934" y2="39.934" gradientUnits="userSpaceOnUse">
      <stop stop-color="#6719D0"/>
      <stop offset="1" stop-color="#00BFCB"/>
    </linearGradient>
    <clipPath id="a">
      <path fill="#fff" d="M0 0h215v80H0z"/>
    </clipPath>
  </defs>
</svg>
