<?xml version="1.0" encoding="UTF-8"?> <svg xmlns="http://www.w3.org/2000/svg" width="34" height="33" viewBox="0 0 34 33" fill="none"><path d="M17.3701 32C25.9305 32 32.8701 25.0604 32.8701 16.5C32.8701 7.93959 25.9305 1 17.3701 1C8.8097 1 1.87012 7.93959 1.87012 16.5C1.87012 25.0604 8.8097 32 17.3701 32Z" stroke="#0099CE" stroke-width="2" stroke-miterlimit="10"></path><path d="M31.1197 9.40365C33.7688 14.3842 33.3204 20.5066 30.3933 24.8811C30.1423 24.6258 29.8921 24.3782 29.6523 24.1219C29.6064 24.0725 29.5917 23.9903 29.5752 23.9202C29.5631 23.8691 29.5666 23.812 29.5735 23.7592C29.7276 22.4995 29.4038 21.3663 28.758 20.2807C28.2853 19.4859 27.9104 18.6323 27.5096 17.796C27.4204 17.6099 27.3737 17.3891 27.3659 17.1814C27.346 16.642 27.3555 16.1018 27.3607 15.5616C27.3641 15.2664 27.2533 15.0491 26.9988 14.8872C26.5348 14.592 26.0742 14.289 25.6258 13.9704C25.3652 13.7851 25.1029 13.747 24.8007 13.8284C24.2804 13.9678 23.7584 14.1046 23.2312 14.2171C23.0753 14.2509 22.884 14.2413 22.7386 14.1807C21.7534 13.7721 20.7768 13.341 19.7934 12.9263C19.6254 12.8553 19.5501 12.7687 19.5258 12.5783C19.4055 11.6364 19.2575 10.6988 19.1363 9.75687C19.1215 9.64086 19.2038 9.51187 19.2419 9.3898C19.2445 9.38114 19.2566 9.37421 19.2644 9.36729C19.641 8.99589 19.9587 8.48771 20.4115 8.29379C20.8504 8.10592 21.4287 8.23665 21.9456 8.23578C22.355 8.23578 22.8329 8.11718 23.155 8.28859C23.4753 8.45914 23.6675 8.90845 23.8649 9.26427C24.1073 9.70146 24.4449 9.9075 24.9392 9.9733C25.8578 10.0945 26.7685 10.2789 27.6862 10.4148C27.8793 10.4434 28.0966 10.4088 28.2853 10.3482C29.2281 10.046 30.1656 9.7231 31.1197 9.40365Z" stroke="#0099CE" stroke-width="2" stroke-miterlimit="10"></path><path d="M14.4967 31.185C14.0053 31.1168 13.7278 30.9291 13.514 30.4529C12.8421 28.9592 12.5427 27.427 12.651 25.7742C12.7299 24.5848 12.6672 23.3845 12.6653 22.1891C12.6653 21.6438 12.5275 21.461 12.0133 21.3504C11.2483 21.1844 10.4785 21.0422 9.71724 20.8634C9.57088 20.8288 9.41122 20.6944 9.32853 20.5591C9.15747 20.2805 9.05958 19.9525 8.88566 19.6769C8.45324 18.9952 8.34489 18.2494 8.41712 17.4591C8.42663 17.3533 8.43233 17.217 8.49505 17.1508C9.20593 16.3961 9.6478 14.1958 10.6828 14.8688C11.2326 15.2262 11.1894 15.8843 11.4061 16.3842C11.5838 16.7942 11.8508 16.971 12.2928 16.9631C13.4066 16.9414 14.5214 16.9631 15.6352 16.9503C15.8757 16.9473 16.0173 17.0175 16.1408 17.2397C16.578 18.0291 17.0522 18.7967 17.4808 19.5909C17.6956 19.9891 17.9817 20.1422 18.4056 20.1224C18.8532 20.1017 19.3668 19.8 19.8178 20.1175C20.5306 20.6192 19.5356 21.5934 19.3825 22.3067C19.3626 22.4005 19.2504 22.4756 19.1754 22.5537C18.5396 23.2175 17.9085 23.8854 17.2632 24.5384C17.0256 24.7784 16.8641 25.0432 16.9287 25.386C17.1197 26.4015 16.7339 27.0862 15.8766 27.5643C15.5155 27.7658 15.2133 28.08 14.8749 28.3289C14.6098 28.5236 14.4881 28.7715 14.4938 29.1114C14.5052 29.7881 14.4976 30.4648 14.4976 31.185H14.4967Z" stroke="#0099CE" stroke-width="2" stroke-miterlimit="10"></path><path d="M2.68604 11.1976C2.8141 11.4649 3.87304 12.3228 3.92094 12.6141C4.08616 13.6269 4.64827 14.2974 5.52321 14.7628C6.00125 15.018 6.43139 15.3683 6.8977 15.6846H7.4354C7.59573 14.8899 6.99937 14.6737 6.5184 14.1813C6.35514 14.0132 6.15473 13.8681 6.03645 13.6719C5.89078 13.4297 5.74806 13.1525 5.71971 12.8773C5.66887 12.3839 5.70211 11.8805 5.70602 11.3811C5.71091 10.8036 5.88296 10.5954 6.44312 10.5093C7.19 10.3953 7.9359 10.2611 8.68669 10.1931C9.84513 10.088 10.9293 9.81378 11.8795 9.07818C12.2568 8.78594 12.6977 8.58478 13.0927 8.31456C13.2677 8.19546 13.4319 8.03033 13.5424 7.84918C14.0634 6.99148 14.5483 6.11076 15.0811 5.26107C15.214 5.0489 15.4526 4.87275 15.6813 4.76566C16.0548 4.59052 16.4624 4.49144 16.8505 4.34432C16.9522 4.30529 17.0744 4.22723 17.1155 4.13415C17.2191 3.90196 17.4557 3.6763 17.3706 3.37553C17.235 2.89584 16.5221 3.19538 16.1134 3.15435C14.9051 3.03225 13.7741 2.725 12.8248 1.89032" stroke="#0099CE" stroke-width="2" stroke-miterlimit="10"></path></svg> 