<svg width="413" height="176" viewBox="0 0 413 176" fill="none" xmlns="http://www.w3.org/2000/svg">
<rect width="413" height="176" fill="url(#paint0_linear_2919_7944)"/>
<g clip-path="url(#clip0_2919_7944)">
<path opacity="0.6" fill-rule="evenodd" clip-rule="evenodd" d="M231.954 130.978C222.779 136.991 211.852 140.48 200.122 140.48C167.652 140.48 141.33 113.743 141.33 80.7617C141.33 47.7799 167.652 21.043 200.122 21.043C232.592 21.043 258.914 47.7799 258.914 80.7617C258.914 93.9476 254.706 106.136 247.581 116.016L268.385 136.926C272.357 140.918 272.477 147.352 268.658 151.491C264.692 155.787 257.997 155.989 253.782 151.941L231.954 130.978Z" fill="#6619D0" fill-opacity="0.8"/>
<path opacity="0.2" fill-rule="evenodd" clip-rule="evenodd" d="M231.377 137.313C222.122 142.54 211.444 145.522 200.086 145.522C164.642 145.522 136 116.559 136 80.9414C136 45.3248 164.642 16.3608 200.086 16.3608C235.53 16.3608 264.172 45.3248 264.172 80.9414C264.172 93.6358 260.533 105.489 254.244 115.482L272.215 133.415C278.116 139.304 278.294 148.796 272.618 154.901C266.728 161.237 256.78 161.537 250.518 155.565L231.377 137.313ZM232.062 131.029C222.846 137.026 211.869 140.506 200.086 140.506C167.468 140.506 141.026 113.838 141.026 80.9414C141.026 48.0449 167.468 21.3768 200.086 21.3768C232.704 21.3768 259.145 48.0449 259.145 80.9414C259.145 94.0938 254.919 106.251 247.761 116.105L268.661 136.962C272.65 140.944 272.771 147.361 268.933 151.49C264.951 155.774 258.224 155.976 253.99 151.938L232.062 131.029Z" fill="#6619D0"/>
<path opacity="0.7" d="M153.553 68.2189C146.526 94.5755 161.68 121.556 187.399 128.483C213.119 135.409 239.664 119.658 246.69 93.3014C253.717 66.9453 238.564 39.9641 212.844 33.0378C187.125 26.1114 160.579 41.8626 153.553 68.2189Z" fill="url(#paint1_linear_2919_7944)"/>
<path d="M174.355 73.8207C170.467 88.4035 178.852 103.332 193.082 107.165C207.312 110.997 222 102.282 225.888 87.6991C229.776 73.1158 221.392 58.1873 207.161 54.3549C192.931 50.5225 178.243 59.2377 174.355 73.8207Z" stroke="url(#paint2_linear_2919_7944)" stroke-opacity="0.8" stroke-width="5" stroke-linecap="round" stroke-linejoin="round"/>
<path fill-rule="evenodd" clip-rule="evenodd" d="M211.092 39.612C233.174 45.559 246.287 68.7712 240.213 91.5561C234.138 114.341 211.235 127.854 189.152 121.908C167.07 115.96 153.957 92.7479 160.031 69.963C166.106 47.1779 189.01 33.6651 211.092 39.612ZM246.688 93.3001C253.688 67.0409 238.603 40.0464 212.827 33.1047C187.051 26.163 160.558 41.9601 153.557 68.2194C146.556 94.4786 161.641 121.473 187.417 128.415C203.164 132.656 219.178 128.41 230.852 118.478L257.672 145.433C258.981 146.749 261.103 146.749 262.411 145.433C263.72 144.117 263.72 141.985 262.411 140.67L235.663 113.785C240.729 108.121 244.586 101.182 246.688 93.3001Z" fill="url(#paint3_linear_2919_7944)" fill-opacity="0.8"/>
<path d="M199.677 46.6759C200.788 46.6759 201.688 45.7711 201.688 44.6549C201.688 43.5387 200.788 42.6338 199.677 42.6338C198.567 42.6338 197.667 43.5387 197.667 44.6549C197.667 45.7711 198.567 46.6759 199.677 46.6759Z" fill="#D9D9D9"/>
<path d="M199.677 119.435C200.788 119.435 201.688 118.53 201.688 117.414C201.688 116.298 200.788 115.393 199.677 115.393C198.567 115.393 197.667 116.298 197.667 117.414C197.667 118.53 198.567 119.435 199.677 119.435Z" fill="#D9D9D9"/>
<path d="M233.862 81.0347C233.862 82.151 234.762 83.0557 235.873 83.0557C236.984 83.0557 237.884 82.151 237.884 81.0347C237.884 79.9184 236.984 79.0137 235.873 79.0137C234.762 79.0137 233.862 79.9184 233.862 81.0347Z" fill="#D9D9D9"/>
<path d="M161.471 81.0347C161.471 82.151 162.371 83.0557 163.482 83.0557C164.593 83.0557 165.493 82.151 165.493 81.0347C165.493 79.9184 164.593 79.0137 163.482 79.0137C162.371 79.0137 161.471 79.9184 161.471 81.0347Z" fill="#D9D9D9"/>
<path d="M223.82 105.208C223.087 105.944 223.087 107.138 223.82 107.875C224.553 108.611 225.741 108.611 226.474 107.875C227.206 107.138 227.206 105.944 226.474 105.208C225.741 104.471 224.553 104.471 223.82 105.208Z" fill="#D9D9D9"/>
<path d="M172.518 53.6471C171.786 54.3835 171.786 55.5776 172.518 56.3141C173.251 57.0505 174.439 57.0505 175.172 56.3141C175.905 55.5776 175.905 54.3835 175.172 53.6471C174.439 52.9106 173.251 52.9106 172.518 53.6471Z" fill="#D9D9D9"/>
<path d="M175.172 105.208C174.44 104.472 173.252 104.472 172.519 105.208C171.786 105.945 171.786 107.139 172.519 107.876C173.252 108.612 174.44 108.612 175.172 107.875C175.905 107.139 175.905 105.945 175.172 105.208Z" fill="#D9D9D9"/>
<path d="M226.474 53.6461C225.741 52.9096 224.553 52.9097 223.82 53.6461C223.087 54.3826 223.087 55.5766 223.82 56.3131C224.553 57.0496 225.741 57.0496 226.474 56.3131C227.206 55.5766 227.206 54.3826 226.474 53.6461Z" fill="#D9D9D9"/>
<path d="M214.971 80.0859C213.993 80.0859 213.164 80.6907 212.815 81.5511H208.075C207.596 81.5511 207.203 81.9456 207.203 82.4279C207.203 82.9106 207.596 83.3051 208.075 83.3051H212.815C213.164 84.165 213.993 84.7703 214.971 84.7703C216.254 84.7703 217.302 83.7175 217.302 82.4279C217.302 81.1387 216.254 80.0859 214.971 80.0859ZM214.971 83.0158C214.648 83.0158 214.386 82.7529 214.386 82.4279C214.386 82.1033 214.648 81.84 214.971 81.84C215.294 81.84 215.556 82.1033 215.556 82.4279C215.556 82.7529 215.294 83.0158 214.971 83.0158Z" fill="url(#paint4_linear_2919_7944)"/>
<path d="M215.643 71.5226C215.643 70.233 214.596 69.1802 213.312 69.1802C212.029 69.1802 210.982 70.233 210.982 71.5226C210.982 72.4876 211.567 73.321 212.396 73.6807V76.5937H208.18C207.7 76.5937 207.307 76.9882 207.307 77.4709C207.307 77.9537 207.7 78.3482 208.18 78.3482H213.269C213.749 78.3482 214.142 77.9537 214.142 77.4709V73.7073C215.015 73.3649 215.643 72.5228 215.643 71.5226ZM213.312 70.9347C213.635 70.9347 213.897 71.198 213.897 71.5226C213.897 71.8471 213.635 72.1105 213.312 72.1105C212.99 72.1105 212.728 71.8471 212.728 71.5226C212.728 71.198 212.99 70.9347 213.312 70.9347Z" fill="url(#paint5_linear_2919_7944)"/>
<path d="M214.142 91.4822V87.7186C214.142 87.2358 213.749 86.8413 213.269 86.8413H206.635C206.155 86.8413 205.762 87.2358 205.762 87.7186C205.762 88.2013 206.155 88.5963 206.635 88.5963H212.396V91.5087C211.567 91.8681 210.982 92.6927 210.982 93.6669C210.982 94.9565 212.029 96.0093 213.313 96.0093C214.596 96.0093 215.644 94.9565 215.644 93.6669C215.644 92.6667 215.015 91.8246 214.142 91.4822ZM213.313 94.2543C212.99 94.2543 212.728 93.9919 212.728 93.6669C212.728 93.3423 212.99 93.079 213.313 93.079C213.636 93.079 213.897 93.3423 213.897 93.6669C213.897 93.9919 213.636 94.2543 213.313 94.2543Z" fill="url(#paint6_linear_2919_7944)"/>
<path d="M185.921 80.0859C186.899 80.0859 187.728 80.6907 188.077 81.5511H192.817C193.298 81.5511 193.69 81.9456 193.69 82.4279C193.69 82.9106 193.298 83.3051 192.817 83.3051H188.077C187.728 84.165 186.899 84.7703 185.921 84.7703C184.638 84.7703 183.591 83.7175 183.591 82.4279C183.591 81.1387 184.638 80.0859 185.921 80.0859ZM185.921 83.0158C186.244 83.0158 186.506 82.7529 186.506 82.4279C186.506 82.1033 186.244 81.84 185.921 81.84C185.598 81.84 185.336 82.1033 185.336 82.4279C185.336 82.7529 185.598 83.0158 185.921 83.0158Z" fill="url(#paint7_linear_2919_7944)"/>
<path d="M185.249 71.5226C185.249 70.233 186.297 69.1802 187.58 69.1802C188.863 69.1802 189.91 70.233 189.91 71.5226C189.91 72.4876 189.325 73.321 188.496 73.6807V76.5937H192.712C193.192 76.5937 193.585 76.9882 193.585 77.4709C193.585 77.9537 193.192 78.3482 192.712 78.3482H187.623C187.143 78.3482 186.75 77.9537 186.75 77.4709V73.7073C185.878 73.3649 185.249 72.5228 185.249 71.5226ZM187.58 70.9347C187.257 70.9347 186.995 71.198 186.995 71.5226C186.995 71.8471 187.257 72.1105 187.58 72.1105C187.903 72.1105 188.165 71.8471 188.165 71.5226C188.165 71.198 187.903 70.9347 187.58 70.9347Z" fill="url(#paint8_linear_2919_7944)"/>
<path d="M186.75 91.4822V87.7186C186.75 87.2358 187.143 86.8413 187.623 86.8413H194.257C194.737 86.8413 195.13 87.2358 195.13 87.7186C195.13 88.2013 194.737 88.5963 194.257 88.5963H188.496V91.5087C189.325 91.8681 189.91 92.6927 189.91 93.6669C189.91 94.9565 188.863 96.0093 187.579 96.0093C186.296 96.0093 185.249 94.9565 185.249 93.6669C185.249 92.6667 185.877 91.8246 186.75 91.4822ZM187.579 94.2543C187.903 94.2543 188.164 93.9919 188.164 93.6669C188.164 93.3423 187.903 93.079 187.579 93.079C187.256 93.079 186.995 93.3423 186.995 93.6669C186.995 93.9919 187.256 94.2543 187.579 94.2543Z" fill="url(#paint9_linear_2919_7944)"/>
<path fill-rule="evenodd" clip-rule="evenodd" d="M208.991 75.646L209.027 76.4881V76.4968C209.246 81.3242 209.564 88.4565 202.596 94.0341V94.158H202.44C201.969 94.5279 201.465 94.8904 200.926 95.2451C200.778 95.3329 200.612 95.3855 200.446 95.3855C200.28 95.3855 200.106 95.3416 199.966 95.2451C199.427 94.8904 198.924 94.5279 198.452 94.158H198.416V94.1297C191.325 88.5379 191.645 81.3521 191.865 76.4968L191.9 75.646C191.935 74.9265 192.45 74.3212 193.166 74.1722C193.672 74.0666 194.135 73.9615 194.572 73.8563C194.572 71.7068 195.706 69.8294 197.408 68.7852L196.387 67.294H195.026C194.545 67.294 194.153 66.8991 194.153 66.4163C194.153 65.934 194.545 65.5391 195.026 65.5391H196.85C197.129 65.5391 197.4 65.6794 197.565 65.9162L199.05 68.0835C199.512 67.9692 200.001 67.8993 200.481 67.8993C200.962 67.8993 201.424 67.9606 201.878 68.0748L203.353 65.9162C203.51 65.6794 203.781 65.5391 204.069 65.5391H205.893C206.373 65.5391 206.766 65.934 206.766 66.4163C206.766 66.8991 206.373 67.294 205.893 67.294H204.531L203.527 68.7679C205.239 69.8115 206.391 71.6981 206.391 73.8563H206.321C206.758 73.9615 207.22 74.0666 207.726 74.1722C208.442 74.3125 208.965 74.9265 208.991 75.646ZM198.416 91.8325C193.143 87.0069 193.4 81.284 193.611 76.5763L193.611 76.5672L193.646 75.8563C195.76 75.4175 197.304 74.9393 198.416 74.5055V91.8325ZM202.596 91.7375V74.5498C203.706 74.9718 205.222 75.4326 207.263 75.8563L207.299 76.5672L207.299 76.5763C207.509 81.2529 207.764 86.932 202.596 91.7375ZM202.596 72.6641C203.109 72.8826 203.768 73.1286 204.601 73.3823C204.427 71.812 203.406 70.5137 202 69.9519C201.995 69.9496 201.991 69.9473 201.988 69.945C201.977 69.9391 201.969 69.9345 201.956 69.9345C201.494 69.759 201.005 69.6538 200.481 69.6538C198.351 69.6538 196.605 71.2767 196.361 73.3562C198.22 72.777 199.172 72.2417 199.564 71.9875C200.079 71.6543 200.752 71.6451 201.275 71.9875C201.491 72.1288 201.879 72.3514 202.49 72.6184H202.596V72.6641Z" fill="white"/>
</g>
<defs>
<linearGradient id="paint0_linear_2919_7944" x1="206.5" y1="0" x2="206.5" y2="176" gradientUnits="userSpaceOnUse">
<stop stop-color="#6619D0" stop-opacity="0.3"/>
<stop offset="1" stop-color="#6619D0" stop-opacity="0"/>
</linearGradient>
<linearGradient id="paint1_linear_2919_7944" x1="246.69" y1="93.3014" x2="153.49" y2="68.4544" gradientUnits="userSpaceOnUse">
<stop stop-color="#6619D0"/>
<stop offset="1" stop-color="#00BFCB"/>
</linearGradient>
<linearGradient id="paint2_linear_2919_7944" x1="225.888" y1="87.6991" x2="174.321" y2="73.951" gradientUnits="userSpaceOnUse">
<stop stop-color="white"/>
<stop offset="1" stop-color="white" stop-opacity="0.2"/>
</linearGradient>
<linearGradient id="paint3_linear_2919_7944" x1="266.138" y1="141.033" x2="171.774" y2="47.201" gradientUnits="userSpaceOnUse">
<stop stop-color="white"/>
<stop offset="1" stop-color="white" stop-opacity="0.4"/>
</linearGradient>
<linearGradient id="paint4_linear_2919_7944" x1="216.519" y1="82.4805" x2="205.262" y2="82.1813" gradientUnits="userSpaceOnUse">
<stop stop-color="white"/>
<stop offset="1" stop-color="white" stop-opacity="0"/>
</linearGradient>
<linearGradient id="paint5_linear_2919_7944" x1="214.051" y1="70.1374" x2="204.607" y2="80.618" gradientUnits="userSpaceOnUse">
<stop stop-color="white"/>
<stop offset="1" stop-color="white" stop-opacity="0"/>
</linearGradient>
<linearGradient id="paint6_linear_2919_7944" x1="213.63" y1="95.0054" x2="203.001" y2="87.7349" gradientUnits="userSpaceOnUse">
<stop stop-color="white"/>
<stop offset="1" stop-color="white" stop-opacity="0"/>
</linearGradient>
<linearGradient id="paint7_linear_2919_7944" x1="184.373" y1="82.4805" x2="195.63" y2="82.1813" gradientUnits="userSpaceOnUse">
<stop stop-color="white"/>
<stop offset="1" stop-color="white" stop-opacity="0"/>
</linearGradient>
<linearGradient id="paint8_linear_2919_7944" x1="186.841" y1="70.1374" x2="196.285" y2="80.618" gradientUnits="userSpaceOnUse">
<stop stop-color="white"/>
<stop offset="1" stop-color="white" stop-opacity="0"/>
</linearGradient>
<linearGradient id="paint9_linear_2919_7944" x1="187.262" y1="95.0054" x2="197.892" y2="87.7349" gradientUnits="userSpaceOnUse">
<stop stop-color="white"/>
<stop offset="1" stop-color="white" stop-opacity="0"/>
</linearGradient>
<clipPath id="clip0_2919_7944">
<rect width="141" height="144" fill="white" transform="translate(136 16)"/>
</clipPath>
</defs>
</svg>
