<svg width="413" height="176" viewBox="0 0 413 176" fill="none" xmlns="http://www.w3.org/2000/svg">
<rect width="413" height="176" fill="url(#paint0_linear_2919_7854)"/>
<path opacity="0.2" d="M204.242 15.7999C205.215 14.111 207.647 14.111 208.619 15.7999L265.078 113.84C266.051 115.529 264.835 117.64 262.89 117.64H149.972C148.026 117.64 146.811 115.529 147.783 113.84L204.242 15.7999Z" fill="#6619D0"/>
<path opacity="0.2" d="M204.243 25.9332C205.215 24.2443 207.647 24.2443 208.619 25.9332L256.325 108.773C257.297 110.462 256.082 112.573 254.137 112.573H158.725C156.78 112.573 155.564 110.462 156.537 108.773L204.243 25.9332Z" fill="#6619D0"/>
<path d="M204.243 35.5601C205.215 33.8712 207.647 33.8712 208.619 35.5601L248.01 103.96C248.982 105.649 247.766 107.76 245.821 107.76H167.041C165.096 107.76 163.88 105.649 164.853 103.96L204.243 35.5601Z" fill="url(#paint1_linear_2919_7854)"/>
<path d="M206.431 36.8267L245.821 105.227H167.041L206.431 36.8267Z" stroke="url(#paint2_linear_2919_7854)" stroke-width="10"/>
<g opacity="0.8">
<mask id="mask0_2919_7854" style="mask-type:luminance" maskUnits="userSpaceOnUse" x="199" y="69" width="15" height="22">
<g opacity="0.8">
<g opacity="0.8">
<path fill-rule="evenodd" clip-rule="evenodd" d="M210.681 82.5291C210.612 82.1425 210.777 81.7559 211.075 81.5006C212.563 80.2248 213.506 78.3283 213.506 76.211C213.506 72.3684 210.399 69.2534 206.566 69.2534C202.733 69.2534 199.626 72.3684 199.626 76.211C199.626 78.3278 200.569 80.2238 202.056 81.5001C202.354 81.7554 202.519 82.1415 202.45 82.5281L201.207 89.5373C201.097 90.1585 201.574 90.728 202.202 90.728H210.928C211.557 90.728 212.033 90.1585 211.923 89.5373L210.681 82.5291Z" fill="white"/>
</g>
</g>
</mask>
<g mask="url(#mask0_2919_7854)">
<path d="M212.717 83.426C214.743 81.6892 216.033 79.1001 216.033 76.2111H210.979C210.979 77.5568 210.383 78.7601 209.432 79.5759L212.717 83.426ZM216.033 76.2111C216.033 70.9696 211.794 66.7202 206.566 66.7202V71.7869C209.003 71.7869 210.979 73.7679 210.979 76.2111H216.033ZM206.566 66.7202C201.338 66.7202 197.099 70.9696 197.099 76.2111H202.153C202.153 73.7679 204.129 71.7869 206.566 71.7869V66.7202ZM197.099 76.2111C197.099 79.0996 198.389 81.6882 200.414 83.425L203.699 79.5754C202.749 78.7601 202.153 77.5568 202.153 76.2111H197.099ZM203.695 89.9808L204.938 82.9715L199.962 82.0849L198.719 89.0941L203.695 89.9808ZM210.928 88.1948H202.202V93.2614H210.928V88.1948ZM208.193 82.9726L209.436 89.9808L214.411 89.0941L213.169 82.0859L208.193 82.9726ZM210.928 93.2614C213.13 93.2614 214.797 91.2672 214.411 89.0941L209.436 89.9808C209.271 89.0495 209.985 88.1948 210.928 88.1948V93.2614ZM200.414 83.425C200.131 83.1828 199.852 82.7055 199.962 82.0849L204.938 82.9715C205.185 81.5782 204.577 80.3278 203.699 79.5754L200.414 83.425ZM198.719 89.0941C198.334 91.2672 200.001 93.2614 202.202 93.2614V88.1948C203.146 88.1948 203.861 89.0495 203.695 89.9808L198.719 89.0941ZM209.432 79.5759C208.555 80.3283 207.946 81.5787 208.193 82.9726L213.169 82.0859C213.279 82.7066 213 83.1838 212.717 83.426L209.432 79.5759Z" fill="white"/>
</g>
</g>
<path opacity="0.75" d="M206.565 133.661C216.377 133.661 224.33 125.708 224.33 115.897C224.33 106.086 216.377 98.1333 206.565 98.1333C196.754 98.1333 188.8 106.086 188.8 115.897C188.8 125.708 196.754 133.661 206.565 133.661Z" fill="url(#paint3_linear_2919_7854)" stroke="url(#paint4_linear_2919_7854)" stroke-width="6" stroke-miterlimit="10"/>
<path opacity="0.75" d="M206.565 128.487C213.518 128.487 219.155 122.851 219.155 115.898C219.155 108.945 213.518 103.308 206.565 103.308C199.611 103.308 193.974 108.945 193.974 115.898C193.974 122.851 199.611 128.487 206.565 128.487Z" fill="url(#paint5_linear_2919_7854)" stroke="url(#paint6_linear_2919_7854)" stroke-width="6" stroke-miterlimit="10"/>
<path d="M206.565 163.641C205.912 163.641 205.382 163.11 205.382 162.458V114.867C205.382 114.214 205.912 113.684 206.565 113.684C207.218 113.684 207.748 114.214 207.748 114.867V162.458C207.748 163.11 207.218 163.641 206.565 163.641Z" fill="url(#paint7_linear_2919_7854)"/>
<path d="M223.64 163.64C223.337 163.64 223.035 163.525 222.805 163.293L216.852 157.341C216.006 156.495 215.542 155.375 215.542 154.18V124.199C215.542 123.547 216.072 123.016 216.725 123.016C217.377 123.016 217.908 123.547 217.908 124.199V154.18C217.908 154.742 218.128 155.27 218.525 155.668L224.478 161.62C224.94 162.082 224.94 162.83 224.478 163.293C224.248 163.523 223.945 163.64 223.642 163.64H223.64Z" fill="url(#paint8_linear_2919_7854)"/>
<path d="M188.915 163.638C188.262 163.638 187.732 163.109 187.732 162.456V154.745C187.732 153.55 188.197 152.427 189.042 151.584L194.61 146.02C195.007 145.622 195.228 145.095 195.228 144.532V134.914C195.228 134.261 195.758 133.731 196.411 133.731C197.063 133.731 197.594 134.261 197.594 134.914V144.532C197.594 145.727 197.128 146.848 196.283 147.693L190.716 153.26C190.318 153.658 190.098 154.186 190.098 154.748V162.458C190.098 163.111 189.568 163.641 188.915 163.641V163.638Z" fill="url(#paint9_linear_2919_7854)"/>
<path d="M206.736 117.375C204.951 117.375 203.503 116.01 203.503 114.326C203.503 112.643 204.951 111.278 206.736 111.278C208.522 111.278 209.97 112.643 209.97 114.326C209.97 116.01 208.522 117.375 206.736 117.375Z" fill="url(#paint10_radial_2919_7854)"/>
<path d="M216.77 126.801C214.984 126.801 213.536 125.435 213.536 123.752C213.536 122.069 214.984 120.704 216.77 120.704C218.556 120.704 220.003 122.069 220.003 123.752C220.003 125.435 218.556 126.801 216.77 126.801Z" fill="url(#paint11_radial_2919_7854)"/>
<path d="M196.343 137.497C194.558 137.497 193.109 136.131 193.109 134.449C193.109 132.765 194.558 131.4 196.343 131.4C198.129 131.4 199.577 132.765 199.577 134.449C199.577 136.131 198.129 137.497 196.343 137.497Z" fill="url(#paint12_radial_2919_7854)"/>
<defs>
<linearGradient id="paint0_linear_2919_7854" x1="206.5" y1="0" x2="206.5" y2="176" gradientUnits="userSpaceOnUse">
<stop stop-color="#6619D0" stop-opacity="0.3"/>
<stop offset="1" stop-color="#6619D0" stop-opacity="0"/>
</linearGradient>
<linearGradient id="paint1_linear_2919_7854" x1="206.431" y1="109.787" x2="206.431" y2="17.0668" gradientUnits="userSpaceOnUse">
<stop stop-color="#6619D0"/>
<stop offset="1" stop-color="#00BFCB"/>
</linearGradient>
<linearGradient id="paint2_linear_2919_7854" x1="206.431" y1="31.76" x2="206.431" y2="133.093" gradientUnits="userSpaceOnUse">
<stop stop-color="white"/>
<stop offset="1" stop-color="white" stop-opacity="0"/>
</linearGradient>
<linearGradient id="paint3_linear_2919_7854" x1="206.565" y1="98.1333" x2="206.565" y2="122.167" gradientUnits="userSpaceOnUse">
<stop stop-color="white"/>
<stop offset="1" stop-color="#6619D0" stop-opacity="0"/>
</linearGradient>
<linearGradient id="paint4_linear_2919_7854" x1="206.565" y1="97.3829" x2="206.565" y2="134.413" gradientUnits="userSpaceOnUse">
<stop stop-color="#6919D0"/>
<stop offset="1" stop-color="#6619D0" stop-opacity="0"/>
</linearGradient>
<linearGradient id="paint5_linear_2919_7854" x1="155.27" y1="103.308" x2="155.52" y2="120.342" gradientUnits="userSpaceOnUse">
<stop stop-color="white"/>
<stop offset="1" stop-color="#6619D0" stop-opacity="0"/>
</linearGradient>
<linearGradient id="paint6_linear_2919_7854" x1="155.27" y1="102.558" x2="155.52" y2="129.237" gradientUnits="userSpaceOnUse">
<stop stop-color="#6919D0"/>
<stop offset="1" stop-color="#6619D0" stop-opacity="0"/>
</linearGradient>
<linearGradient id="paint7_linear_2919_7854" x1="206.565" y1="163.268" x2="206.565" y2="126.226" gradientUnits="userSpaceOnUse">
<stop stop-color="#94F9FF" stop-opacity="0.2"/>
<stop offset="1" stop-color="#94FFF0"/>
</linearGradient>
<linearGradient id="paint8_linear_2919_7854" x1="220.181" y1="163.268" x2="220.181" y2="126.225" gradientUnits="userSpaceOnUse">
<stop stop-color="#94F9FF" stop-opacity="0.2"/>
<stop offset="1" stop-color="#94FFF0"/>
</linearGradient>
<linearGradient id="paint9_linear_2919_7854" x1="192.661" y1="163.269" x2="192.661" y2="126.226" gradientUnits="userSpaceOnUse">
<stop stop-color="#94F9FF" stop-opacity="0.2"/>
<stop offset="1" stop-color="#94FFF0"/>
</linearGradient>
<radialGradient id="paint10_radial_2919_7854" cx="0" cy="0" r="1" gradientUnits="userSpaceOnUse" gradientTransform="translate(206.565 114.118) rotate(180) scale(5.03185 4.74349)">
<stop offset="0.34" stop-color="#94FFF0"/>
<stop offset="1" stop-color="#94FFF0" stop-opacity="0"/>
</radialGradient>
<radialGradient id="paint11_radial_2919_7854" cx="0" cy="0" r="1" gradientUnits="userSpaceOnUse" gradientTransform="translate(216.575 123.537) rotate(180) scale(4.98339 4.6978)">
<stop offset="0.34" stop-color="#94FFF0"/>
<stop offset="1" stop-color="#94FFF0" stop-opacity="0"/>
</radialGradient>
<radialGradient id="paint12_radial_2919_7854" cx="0" cy="0" r="1" gradientUnits="userSpaceOnUse" gradientTransform="translate(196.558 134.238) rotate(180) scale(3.78676 3.56973)">
<stop offset="0.34" stop-color="#94FFF0"/>
<stop offset="1" stop-color="#94FFF0" stop-opacity="0"/>
</radialGradient>
</defs>
</svg>
