<svg width="215" height="80" viewBox="0 0 215 80" fill="none" xmlns="http://www.w3.org/2000/svg">
<mask id="mask0_3164_36204" style="mask-type:alpha" maskUnits="userSpaceOnUse" x="35" y="1" width="146" height="79">
<path fill-rule="evenodd" clip-rule="evenodd" d="M38.8949 1C36.9137 1 35 3.25689 35 4.89778V70.4018C35 72.3849 36.9812 74.2996 38.8949 74.2996H53.5886V69.8551H40.7401C40.0569 69.8551 39.4421 69.1707 39.4421 68.5556V6.74489C39.4421 6.06044 40.1254 5.44533 40.7401 5.44533H174.619C175.303 5.44533 175.918 6.12978 175.918 6.74489V68.5564C175.918 69.1724 175.235 69.856 174.619 69.856H129.925V74.3004H176.396C178.106 74.3004 180.292 72.3182 180.292 70.4027V4.89778C180.292 3.18844 178.106 1 176.396 1H38.8949Z" fill="white"/>
<path d="M56.4582 56.5902V19.9413H62.1308V38.0604L77.1657 19.9404H84.1363L70.5371 35.6667L84.4099 56.5902H77.9866L66.1625 39.4275L62.1299 43.872V56.5902H56.4573H56.4582ZM105.527 24.9315L100.402 41.0684H111.063L105.527 24.9315ZM102.042 19.9404H108.944L122.749 56.5218H115.915L112.498 46.8124H98.146L94.7291 56.5218H88.2373L102.042 19.9404ZM126.986 19.9404H132.317V51.736H148.172V56.248H126.986V19.9404ZM153.024 19.9404H158.423V56.1804H153.024V19.9404ZM65.4109 70.744C65.6845 71.3591 65.8213 72.1111 65.8213 73C65.8213 73.8889 65.6845 74.6418 65.4109 75.2569C65.1597 75.831 64.7586 76.3269 64.2497 76.6924C63.7708 77.0346 63.2244 77.1715 62.5412 77.1715C62.0624 77.1715 61.7212 77.1031 61.3792 76.9662C61.1021 76.8237 60.8486 76.6393 60.6276 76.4195C60.4223 76.2142 60.2855 76.0089 60.2171 75.8035H60.0803V77.0347H58.2359V66.368H60.1487V70.3333H60.2171C60.2855 70.1289 60.4223 69.9235 60.6276 69.7182C60.8319 69.5138 61.0371 69.3075 61.3108 69.1715C61.5844 69.0347 61.9949 68.9662 62.4728 68.9662C63.0876 68.9662 63.634 69.1031 64.1129 69.4444C64.7277 69.6498 65.1381 70.1289 65.4109 70.744ZM63.7708 74.2995C63.9076 73.8889 63.9761 73.4791 63.9761 73C63.9761 72.5218 63.9076 72.0427 63.7717 71.7013C63.634 71.2907 63.4297 71.0169 63.156 70.8124C62.8613 70.5884 62.5009 70.4681 62.1308 70.4702C61.7607 70.4681 61.4003 70.5884 61.1055 70.8124C60.8328 71.0169 60.6276 71.2907 60.4907 71.7013C60.3539 72.1111 60.2864 72.5218 60.2864 73.0684C60.2864 73.616 60.3539 74.0258 60.4907 74.4364C60.6276 74.8462 60.8328 75.12 61.1055 75.3253C61.3792 75.5298 61.7212 75.6667 62.1308 75.6667C62.5008 75.669 62.8612 75.549 63.156 75.3253L63.7708 74.2995ZM74.0224 68.9662L70.8099 77.9235C70.6731 78.3224 70.4648 78.6929 70.1951 79.0169C69.9214 79.2907 69.6487 79.5644 69.3066 79.7013C68.9646 79.8382 68.555 79.9751 68.0078 79.9751C67.735 79.9751 67.5298 79.9751 67.3246 79.9067C67.1202 79.8382 66.915 79.8382 66.7782 79.7698L67.1877 78.3333C67.4614 78.4018 67.735 78.4702 67.9402 78.4702C68.1446 78.4702 68.3498 78.4018 68.4866 78.2658C68.6234 78.1289 68.7602 77.9235 68.8971 77.6498L69.033 77.24L66.1634 69.1031H68.1446L70.1267 74.9831H70.1951L72.0403 68.9653H74.0215L74.0224 68.9662ZM88.9205 71.6329C88.9205 72.7955 88.7162 73.7529 88.3057 74.5733C87.9187 75.3577 87.2979 76.0025 86.5288 76.4187C85.7763 76.8293 84.9563 77.1031 83.9995 77.1031C83.0426 77.1031 82.2226 76.8978 81.471 76.4187C80.7194 76.0089 80.173 75.3938 79.6942 74.5733C79.2846 73.752 79.0794 72.7955 79.0794 71.6329C79.0794 70.4702 79.2837 69.5129 79.6942 68.6924C80.081 67.9077 80.7019 67.2626 81.471 66.8462C82.2226 66.4364 83.0435 66.2311 83.9995 66.2311C84.9563 66.2311 85.7763 66.4355 86.5288 66.8462C87.2805 67.2569 87.8268 67.872 88.3057 68.6924C88.6469 69.5129 88.9205 70.4702 88.9205 71.6329ZM86.9393 71.6329C86.9393 70.8124 86.8016 70.1289 86.528 69.5813C86.2552 69.0346 85.9132 68.624 85.5036 68.3511C85.0931 68.0773 84.5468 67.9404 83.9995 67.9404C83.4531 67.9404 82.9067 68.0773 82.4963 68.3511C82.0858 68.624 81.6762 69.0346 81.471 69.5813C81.1974 70.128 81.0614 70.8124 81.0614 71.6329C81.0614 72.4533 81.1974 73.1369 81.471 73.6844C81.7447 74.2311 82.0858 74.6409 82.4963 74.9146C82.9067 75.1884 83.4531 75.3253 83.9995 75.3253C84.5468 75.3253 85.0931 75.1884 85.5036 74.9146C85.9132 74.6409 86.3236 74.2302 86.528 73.6835C86.8016 73.1369 86.9384 72.4533 86.9384 71.6329H86.9393ZM92.2006 67.5982C92.0638 67.7351 91.9962 68.0089 91.9962 68.3511V68.9662H93.6363V70.4018H91.9962V76.8978H90.0826V68.1458C90.0826 67.5982 90.2194 67.1884 90.4237 66.7778C90.629 66.4364 90.971 66.1627 91.3122 65.9573C91.7226 65.7529 92.1322 65.6844 92.5426 65.6844C92.8847 65.6844 93.1574 65.6844 93.4311 65.752C93.7047 65.8204 93.8406 65.8204 93.9774 65.8889L93.6363 67.3253C93.5679 67.3253 93.4311 67.2569 93.3626 67.2569C93.2258 67.2569 93.089 67.1884 92.9522 67.1884C92.611 67.3929 92.3374 67.4622 92.2006 67.5982ZM96.848 67.5982C96.7111 67.7351 96.6427 68.0089 96.6427 68.3511V68.9662H98.2828V70.4018H96.6427V76.8978H94.7291V68.1458C94.7291 67.5982 94.8659 67.1884 95.0711 66.7778C95.2763 66.4364 95.6175 66.1627 95.9595 65.9573C96.37 65.7529 96.7795 65.6844 97.19 65.6844C97.5312 65.6844 97.8048 65.6844 98.0784 65.752C98.3512 65.8204 98.488 65.8204 98.6248 65.8889L98.2828 67.3253C98.2144 67.3253 98.0784 67.2569 98.01 67.2569C97.8732 67.2569 97.7364 67.1884 97.5996 67.1884C97.2584 67.3929 96.9848 67.4622 96.848 67.5982ZM106.963 72.7271C107.167 73.0684 107.235 73.4791 107.235 73.9573C107.235 74.5733 107.099 75.12 106.758 75.5991C106.415 76.0773 106.006 76.4195 105.39 76.6924C104.775 76.9662 104.092 77.1031 103.204 77.1031C102.384 77.1031 101.632 76.9662 101.085 76.6924C100.47 76.4195 99.9912 76.0773 99.6501 75.5991C99.2868 75.0781 99.0954 74.4565 99.1028 73.8213H101.016C101.016 74.1627 101.153 74.5049 101.359 74.7778C101.564 75.0515 101.836 75.1884 102.179 75.3253C102.521 75.4622 102.862 75.5298 103.272 75.5298C103.682 75.5298 104.092 75.4622 104.365 75.3253C104.707 75.1884 104.912 75.0515 105.117 74.7778C105.322 74.5733 105.39 74.2995 105.39 73.9573C105.39 73.6844 105.322 73.4791 105.117 73.2738C104.981 73.0693 104.707 72.9315 104.433 72.7955C104.161 72.6587 103.819 72.5902 103.409 72.4533L102.179 72.1111C101.29 71.9067 100.607 71.5644 100.128 71.0862C99.6501 70.6071 99.3764 69.992 99.3764 69.24C99.3764 68.624 99.5132 68.0773 99.8553 67.5982C100.196 67.12 100.675 66.7778 101.222 66.5049C101.844 66.2248 102.521 66.0846 103.204 66.0942C103.955 66.0942 104.639 66.2311 105.186 66.5049C105.732 66.7778 106.21 67.12 106.552 67.5982C106.894 68.0773 107.03 68.624 107.03 69.1715H105.186C105.117 68.6924 104.912 68.3511 104.57 68.1458C104.229 67.872 103.75 67.7351 103.204 67.7351C102.793 67.7351 102.452 67.8035 102.179 67.9404C101.925 68.0599 101.694 68.222 101.495 68.4195C101.359 68.624 101.29 68.8978 101.29 69.1031C101.29 69.3075 101.359 69.5129 101.427 69.6498C101.495 69.7867 101.701 69.9235 101.836 70.0604C102.042 70.1973 102.179 70.2649 102.452 70.3333L103.067 70.5387L104.092 70.8124C104.502 70.8809 104.912 71.0169 105.253 71.2222C105.595 71.3591 105.937 71.5644 106.279 71.8382C106.552 72.1111 106.758 72.3849 106.963 72.7271ZM115.847 72.864V73.4107H110.311C110.311 73.8213 110.38 74.2311 110.584 74.5733C110.721 74.9147 110.994 75.1884 111.268 75.3253C111.541 75.5298 111.951 75.5991 112.361 75.5991C112.634 75.5991 112.908 75.5307 113.113 75.4622C113.318 75.3938 113.523 75.2569 113.66 75.12C113.797 74.9831 113.933 74.7778 114.002 74.5733L115.779 74.7778C115.642 75.2569 115.437 75.6667 115.163 76.0089C114.822 76.3511 114.48 76.624 114.002 76.8293C113.523 77.0338 112.977 77.1031 112.361 77.1031C111.541 77.1031 110.858 76.9662 110.311 76.624C109.741 76.2697 109.27 75.7756 108.944 75.1884C108.603 74.5733 108.466 73.8213 108.466 73C108.466 72.1795 108.603 71.4275 108.944 70.8124C109.286 70.1973 109.696 69.7191 110.243 69.3769C110.839 69.0124 111.526 68.8226 112.225 68.8293C112.703 68.8293 113.182 68.8978 113.591 69.0338C114.002 69.1715 114.411 69.4444 114.753 69.7867C115.095 70.1289 115.368 70.5387 115.573 71.0178C115.71 71.5644 115.847 72.1795 115.847 72.864ZM114.002 72.1795C114.002 71.8382 113.933 71.496 113.797 71.2222C113.66 70.9493 113.454 70.744 113.182 70.5387C112.908 70.4018 112.566 70.2649 112.225 70.2649C111.814 70.2649 111.472 70.3333 111.2 70.5387C110.926 70.7431 110.652 70.9493 110.516 71.2907C110.377 71.5658 110.306 71.8709 110.311 72.1795H114.002ZM122.134 74.9155C122.27 74.7102 122.407 74.4355 122.407 74.1626H124.184C124.116 74.7093 123.979 75.256 123.706 75.6667C123.432 76.0773 123.023 76.4195 122.544 76.6924C122.066 76.9662 121.45 77.0347 120.767 77.0347C119.947 77.0347 119.264 76.8302 118.717 76.488C118.17 76.1458 117.692 75.6666 117.419 75.0515C117.145 74.4364 116.94 73.7529 116.94 72.9315C116.94 72.1111 117.077 71.4275 117.419 70.8124C117.76 70.1973 118.17 69.7191 118.717 69.3769C119.264 69.0347 119.947 68.8293 120.767 68.8293C121.382 68.8293 121.998 68.9662 122.476 69.1715C122.954 69.376 123.364 69.7182 123.638 70.1973C123.911 70.6071 124.116 71.1538 124.116 71.7013H122.339C122.27 71.2907 122.066 71.0169 121.792 70.744C121.519 70.4702 121.178 70.3333 120.699 70.3333C120.289 70.3333 119.947 70.4018 119.673 70.6755C119.401 70.88 119.127 71.1538 118.99 71.5644C118.853 71.9751 118.717 72.3849 118.717 72.9315C118.717 73.4791 118.785 73.9573 118.99 74.2995C119.127 74.7102 119.401 74.984 119.673 75.1884C119.947 75.3929 120.289 75.5307 120.699 75.5307C120.972 75.5307 121.246 75.4622 121.45 75.3938C121.792 75.3253 121.998 75.1209 122.134 74.9155Z" fill="white"/>
</mask>
<g mask="url(#mask0_3164_36204)">
<rect x="35" width="146" height="80" fill="url(#paint0_linear_3164_36204)"/>
</g>
<defs>
<linearGradient id="paint0_linear_3164_36204" x1="35" y1="40" x2="181" y2="40" gradientUnits="userSpaceOnUse">
<stop stop-color="#6719D0"/>
<stop offset="1" stop-color="#00BFCB"/>
</linearGradient>
</defs>
</svg>
