<svg xmlns="http://www.w3.org/2000/svg" fill="none" viewBox="0 0 100 101">
  <circle cx="50" cy="50.196" r="50" fill="#6619D0" opacity=".3"/>
  <circle cx="50" cy="50.196" r="39.682" fill="url(#a)" opacity=".6"/>
  <path fill="url(#b)" d="M67.207 48.271c0-9.436-7.633-17.107-17.011-17.107-9.379 0-17.011 7.676-17.011 17.107 0 6.936 3.426 11.337 5.924 14.547.897 1.154 1.746 2.25 2.045 3.033a1.342 1.342 0 0 0 .016 2.684h.101v1.234h-.101c-.737 0-1.335.602-1.335 1.343 0 .74.598 1.341 1.335 1.341h.101v.66a3.762 3.762 0 0 0 3.47 3.753v2.147c0 .74.597 1.342 1.334 1.342h8.241c.737 0 1.335-.601 1.335-1.342v-2.147a3.756 3.756 0 0 0 3.458-3.747v-.66h.113c.736 0 1.334-.601 1.334-1.342 0-.74-.598-1.342-1.334-1.342h-.113V68.54h.113c.736 0 1.334-.6 1.334-1.342 0-.74-.592-1.336-1.33-1.342.3-.778 1.143-1.868 2.04-3.016 2.509-3.216 5.94-7.623 5.94-14.569Zm-14.225 29.4h-5.573v-.79h5.573v.79Zm3.459-4.552c0 .596-.48 1.079-1.073 1.079H45.013a1.076 1.076 0 0 1-1.073-1.079v-.66h12.506v.66h-.005Zm0-3.344H43.935V68.54H56.44v1.235Zm-7.233-14.789a.545.545 0 0 1 .774 0 .553.553 0 0 1 0 .779.545.545 0 0 1-.774 0 .553.553 0 0 1 0-.779Zm9.96 6.2c-1.366 1.756-2.471 3.178-2.68 4.67h-3.426v-.472c0-.623.24-1.202.678-1.642l2.076-2.089a4.178 4.178 0 0 0 1.222-2.968v-5.567c.289-.118.556-.295.79-.526.94-.944.94-2.485 0-3.435a2.408 2.408 0 0 0-3.416 0 2.446 2.446 0 0 0 0 3.436c.224.225.48.391.758.51v5.582c0 .623-.24 1.202-.678 1.642l-2.076 2.089a4.177 4.177 0 0 0-1.222 2.968v.472h-.662v-8.245c.283-.118.544-.29.774-.52.94-.945.94-2.486 0-3.436a2.408 2.408 0 0 0-3.416 0 2.446 2.446 0 0 0 0 3.436c.23.23.49.402.774.52v8.245h-.587v-4.852a4.178 4.178 0 0 0-1.223-2.968l-.486-.489a2.309 2.309 0 0 1-.677-1.643v-4.707a2.427 2.427 0 0 0 1.473-2.233 2.423 2.423 0 0 0-2.413-2.432c-.646 0-1.254.253-1.708.714a2.428 2.428 0 0 0-.71 1.718c0 .65.251 1.256.71 1.718.23.23.497.402.78.526v4.702c0 1.122.432 2.18 1.222 2.968l.486.489c.437.44.677 1.02.677 1.642v4.853h-2.31c-.209-1.498-1.314-2.926-2.686-4.686-2.386-3.065-5.359-6.882-5.359-12.894 0-7.955 6.438-14.423 14.343-14.423s14.342 6.473 14.342 14.423c0 6.018-2.978 9.84-5.375 12.91l.005-.006Zm-2.669-9.92a.546.546 0 0 1-.774 0 .553.553 0 0 1 0-.778.546.546 0 0 1 .774 0 .553.553 0 0 1 0 .779Zm-11.369-1.91a.546.546 0 0 1-.934-.387.55.55 0 0 1 .545-.547.544.544 0 0 1 .544.547.55.55 0 0 1-.16.387h.005Z"/>
  <path fill="url(#c)" d="M50.228 28.04a1.339 1.339 0 0 1-1.334-1.342v-4.525c0-.74.597-1.342 1.334-1.342.737 0 1.334.601 1.334 1.342v4.525c0 .74-.597 1.342-1.334 1.342Z"/>
  <path fill="url(#d)" d="M39.19 31.143c-.46 0-.908-.242-1.159-.671l-2.247-3.919a1.349 1.349 0 0 1 .491-1.836c.64-.37 1.452-.15 1.826.494l2.247 3.919c.368.644.15 1.46-.491 1.835a1.295 1.295 0 0 1-.667.178Z"/>
  <path fill="url(#e)" d="M31.456 39.14a1.38 1.38 0 0 1-.667-.176l-3.897-2.26a1.348 1.348 0 0 1-.49-1.836 1.332 1.332 0 0 1 1.825-.494l3.896 2.26c.64.37.86 1.192.491 1.836a1.33 1.33 0 0 1-1.158.67Z"/>
  <path fill="url(#f)" d="M28.85 49.688h-4.499a1.339 1.339 0 0 1-1.334-1.342c0-.74.597-1.341 1.334-1.341h4.5c.736 0 1.334.6 1.334 1.341s-.598 1.343-1.334 1.343Z"/>
  <path fill="url(#g)" d="M61.191 31.143a1.38 1.38 0 0 1-.667-.178 1.348 1.348 0 0 1-.49-1.835l2.246-3.919a1.332 1.332 0 0 1 1.826-.494c.64.37.86 1.192.49 1.836l-2.246 3.919c-.246.43-.694.67-1.159.67Z"/>
  <path fill="url(#h)" d="M68.926 39.14a1.344 1.344 0 0 1-.667-2.506l3.896-2.26c.64-.37 1.457-.15 1.826.494.368.644.15 1.46-.491 1.836l-3.897 2.26a1.297 1.297 0 0 1-.667.177Z"/>
  <path fill="url(#i)" d="M76.03 49.688h-4.5a1.339 1.339 0 0 1-1.334-1.342c0-.74.598-1.341 1.335-1.341h4.5c.736 0 1.334.6 1.334 1.341s-.598 1.343-1.335 1.343Z"/>
  <defs>
    <linearGradient id="a" x1="50" x2="50" y1="10.514" y2="89.879" gradientUnits="userSpaceOnUse">
      <stop stop-color="#6619D0"/>
      <stop offset="1" stop-color="#00BFCB"/>
    </linearGradient>
    <linearGradient id="b" x1="50.196" x2="50.196" y1="31.164" y2="100.024" gradientUnits="userSpaceOnUse">
      <stop stop-color="#fff"/>
      <stop offset="1" stop-color="#fff" stop-opacity="0"/>
    </linearGradient>
    <linearGradient id="c" x1="50.191" x2="50.191" y1="27.819" y2="15.008" gradientUnits="userSpaceOnUse">
      <stop stop-color="#fff"/>
      <stop offset="1" stop-color="#fff" stop-opacity="0"/>
    </linearGradient>
    <linearGradient id="d" x1="39.709" x2="33.11" y1="30.536" y2="18.502" gradientUnits="userSpaceOnUse">
      <stop stop-color="#fff"/>
      <stop offset="1" stop-color="#fff" stop-opacity="0"/>
    </linearGradient>
    <linearGradient id="e" x1="32.334" x2="20.688" y1="38.3" y2="31.701" gradientUnits="userSpaceOnUse">
      <stop stop-color="#fff"/>
      <stop offset="1" stop-color="#fff" stop-opacity="0"/>
    </linearGradient>
    <linearGradient id="f" x1="30.004" x2="17.97" y1="48.005" y2="48.005" gradientUnits="userSpaceOnUse">
      <stop stop-color="#fff"/>
      <stop offset="1" stop-color="#fff" stop-opacity="0"/>
    </linearGradient>
    <linearGradient id="g" x1="60.672" x2="67.659" y1="30.536" y2="19.278" gradientUnits="userSpaceOnUse">
      <stop stop-color="#fff"/>
      <stop offset="1" stop-color="#fff" stop-opacity="0"/>
    </linearGradient>
    <linearGradient id="h" x1="68.048" x2="80.859" y1="38.3" y2="30.536" gradientUnits="userSpaceOnUse">
      <stop stop-color="#fff"/>
      <stop offset="1" stop-color="#fff" stop-opacity="0"/>
    </linearGradient>
    <linearGradient id="i" x1="70.377" x2="83.964" y1="48.393" y2="48.393" gradientUnits="userSpaceOnUse">
      <stop stop-color="#fff"/>
      <stop offset="1" stop-color="#fff" stop-opacity="0"/>
    </linearGradient>
  </defs>
</svg>
