<svg width="215" height="80" viewBox="0 0 215 80" fill="none" xmlns="http://www.w3.org/2000/svg">
<mask id="mask0_3164_31932" style="mask-type:alpha" maskUnits="userSpaceOnUse" x="10" y="0" width="196" height="80">
<mask id="mask1_3164_31932" style="mask-type:luminance" maskUnits="userSpaceOnUse" x="10" y="0" width="196" height="80">
<path d="M206 0H10V80H206V0Z" fill="white"/>
</mask>
<g mask="url(#mask1_3164_31932)">
<mask id="mask2_3164_31932" style="mask-type:luminance" maskUnits="userSpaceOnUse" x="10" y="0" width="196" height="42">
<path d="M205.628 0H10V41.8605H205.628V0Z" fill="white"/>
</mask>
<g mask="url(#mask2_3164_31932)">
<path d="M45.6544 31.0828C45.6544 32.9898 44.9307 33.9405 43.4891 33.9405C42.0455 33.9405 41.4241 32.9563 41.4241 30.9833V8.67349C41.4241 7.6707 41.3814 6.88558 41.2978 6.31814C41.2123 5.7507 41.0367 5.31535 40.7683 5.01488C40.5008 4.71442 40.08 4.5293 39.5087 4.46326C38.7563 4.38714 38.0002 4.35299 37.244 4.36093H34.7768C33.9371 4.36093 33.2738 4.41116 32.7862 4.51349C32.3531 4.58428 31.9552 4.795 31.6529 5.11349C31.3844 5.41395 31.2089 5.8493 31.1253 6.41767C31.0417 6.98512 30.9989 7.73674 30.9989 8.67349V31.0335C30.9989 32.973 30.2948 33.9423 28.8847 33.9423C28.111 33.9423 27.5592 33.7153 27.2238 33.2633C26.8857 32.814 26.7195 32.1051 26.7195 31.1349V8.72372C26.7195 7.78884 26.6767 7.03721 26.5931 6.46698C26.5095 5.89953 26.3414 5.45674 26.0887 5.13953C25.8139 4.80858 25.4301 4.5866 25.0065 4.51349C24.3923 4.40038 23.7684 4.34958 23.1441 4.36186H17.958C17.2204 4.36186 16.6138 4.41116 16.1447 4.51349C15.7193 4.58791 15.3301 4.79907 15.0365 5.11349C14.7477 5.45831 14.5562 5.87424 14.482 6.31814C14.3705 6.96279 14.3194 7.61674 14.3324 8.27163V9.87721C14.3324 10.4447 14.3557 10.8949 14.4086 11.2307C14.4551 11.5637 14.5414 11.8484 14.6585 12.0819C14.7774 12.3191 14.9604 12.5079 15.2121 12.6586C15.4648 12.8102 15.7927 12.9665 16.1949 13.1349C16.899 13.4019 17.3607 13.7544 17.579 14.187C17.7982 14.6223 17.9245 15.3581 17.958 16.3944V29.0772C17.958 30.7823 17.6719 31.9628 17.1015 32.613C16.5302 33.2642 15.4908 33.5898 13.9804 33.5898C12.469 33.5898 11.4277 33.2642 10.8565 32.613C10.2852 31.9609 10 30.7498 10 28.9777V5.06419C10 4.02791 10.0687 3.19349 10.2025 2.55721C10.3381 1.92279 10.588 1.42884 10.9586 1.07814C11.3274 0.728372 11.8485 0.487442 12.5192 0.352558C13.3831 0.20186 14.2591 0.134884 15.1359 0.151628H40.667C41.7093 0.151628 42.5564 0.210233 43.2122 0.326512C43.8653 0.444651 44.379 0.685581 44.7477 1.05209C45.1165 1.4214 45.359 1.93953 45.4779 2.60651C45.5949 3.27628 45.6544 4.16 45.6544 5.26512V31.0828ZM68.4136 19.1005C68.4136 19.9042 68.3634 20.5637 68.264 21.0819C68.1618 21.6 67.9779 21.9935 67.7095 22.2605C67.4401 22.5274 67.0555 22.7098 66.5511 22.8112C65.886 22.9246 65.2107 22.9758 64.5354 22.9628H59.5546C58.412 22.9628 57.6819 23.1209 57.3633 23.4381C57.0446 23.7544 56.8849 24.4837 56.8849 25.6186V27.2223C56.8849 27.826 56.909 28.3014 56.961 28.6512C56.988 28.9553 57.1208 29.24 57.3373 29.4558C57.5723 29.654 57.863 29.7758 58.1696 29.8056C58.6461 29.8633 59.1254 29.8884 59.6047 29.8809H62.5754C63.3129 29.8809 63.834 29.7628 64.1359 29.5284C64.4388 29.2949 64.6236 28.8781 64.6905 28.2753L64.7908 27.4233C64.893 26.2884 65.4801 25.7209 66.5539 25.7209C67.7949 25.7209 68.4164 26.5888 68.4164 28.3274V29.7302C68.4164 30.5646 68.3662 31.2344 68.2659 31.7358C68.1962 32.173 68.0039 32.5805 67.7122 32.9135C67.4429 33.1972 67.0574 33.3823 66.5539 33.4651C65.886 33.5591 65.2126 33.6009 64.5382 33.5898H53.8139C53.0076 33.5898 52.3434 33.5479 51.8251 33.4651C51.3012 33.3814 50.9092 33.1972 50.6398 32.9135C50.3481 32.581 50.1562 32.1727 50.0862 31.7358C49.9726 31.0736 49.9222 30.402 49.9357 29.7302V13.9386C49.9357 13.0688 49.9766 12.3758 50.062 11.8577C50.1456 11.3367 50.3314 10.9367 50.6166 10.654C50.9417 10.3507 51.356 10.1572 51.7991 10.1023C52.4664 10.0077 53.1401 9.96567 53.8139 9.97674H64.5382C65.3779 9.97674 66.0588 10.0195 66.5799 10.1023C67.0982 10.1851 67.493 10.3693 67.7624 10.654C68.0309 10.9377 68.2064 11.3395 68.29 11.8577C68.3736 12.3758 68.4164 13.0688 68.4164 13.9386V19.1005H68.4136ZM64.7407 16.2474C64.7407 15.1126 64.5809 14.3833 64.2623 14.067C63.9437 13.747 63.2126 13.5888 62.0738 13.5888H56.2811C55.6773 13.5888 55.198 13.613 54.8468 13.6642C54.5468 13.6902 54.2635 13.813 54.0396 14.0149C53.8371 14.2381 53.7145 14.52 53.6876 14.8186C53.6383 15.1693 53.6114 15.6465 53.6114 16.2474V16.5981C53.6114 17.1981 53.6355 17.6763 53.6876 18.026C53.7377 18.3767 53.8548 18.653 54.0405 18.854C54.2254 19.053 54.492 19.1777 54.8459 19.2298C55.1989 19.2772 55.6764 19.3042 56.2811 19.3042H62.0719C63.2135 19.3042 63.9437 19.1451 64.2604 18.8298C64.5809 18.5107 64.7407 17.7656 64.7407 16.5972V16.2474ZM74.1542 4.56279C74.1542 3.39442 74.2899 2.58326 74.5583 2.13116C74.8277 1.68186 75.3126 1.45488 76.0167 1.45488C76.7236 1.45488 77.2085 1.67256 77.4779 2.10791C77.7473 2.54047 77.882 3.34233 77.882 4.51349V8.07256C77.882 8.87442 77.9563 9.37395 78.1077 9.57674C78.2582 9.77581 78.6557 9.89395 79.2902 9.92744C80.8368 9.96 81.6078 10.5805 81.6078 11.7814C81.6078 12.9851 80.9037 13.6028 79.4899 13.6381C78.7533 13.6716 78.2935 13.787 78.1077 13.9888C77.9219 14.1898 77.8299 14.6912 77.8299 15.493V16.5451C77.8299 17.347 77.9321 17.8912 78.1318 18.1749C78.3343 18.4595 78.7886 18.6837 79.4927 18.8521C80.1968 19.053 80.651 19.32 80.8508 19.654C81.0533 19.987 81.1536 20.6567 81.1536 21.6595V29.3302C81.1536 30.1981 81.1127 30.9079 81.0291 31.4586C80.9436 32.013 80.7774 32.4447 80.5256 32.7647C80.262 33.0894 79.8991 33.3182 79.4927 33.4158C78.9313 33.5459 78.3558 33.6043 77.7798 33.5898C76.7394 33.5898 75.9833 33.4977 75.5151 33.3153C75.0441 33.1312 74.6921 32.7721 74.4561 32.2372C74.3115 31.9304 74.2261 31.599 74.2044 31.2605C74.1641 30.6179 74.1483 29.974 74.157 29.3302V15.7935L74.1041 14.9414C74.1041 14.4735 74.0279 14.1637 73.8783 14.0121C73.726 13.8633 73.4334 13.7544 72.9977 13.6884L72.3419 13.6381C71.0665 13.5367 70.4284 12.9358 70.4284 11.8316C70.4284 10.5963 71.1334 9.97674 72.5435 9.97674C72.9123 9.97674 73.2077 9.95349 73.4241 9.9014C73.5246 9.88186 73.6196 9.84037 73.7022 9.78C73.785 9.71953 73.8534 9.64158 73.9025 9.55163C74.0212 9.29972 74.0897 9.02702 74.1041 8.74884C74.1375 8.39907 74.1542 7.92093 74.1542 7.32093V4.56279ZM103.763 29.7302C103.763 30.5646 103.716 31.2344 103.614 31.7358C103.543 32.173 103.352 32.5805 103.059 32.9135C102.791 33.1972 102.405 33.3823 101.901 33.4651C101.234 33.5591 100.561 33.6009 99.8878 33.5898H89.1608C88.3545 33.5898 87.6931 33.5405 87.1729 33.4391C86.6509 33.3395 86.2561 33.1544 85.9876 32.8874C85.721 32.6205 85.5352 32.227 85.4358 31.7098C85.3238 31.0561 85.2728 30.3934 85.2835 29.7302V23.3116C85.2835 22.4437 85.3262 21.7507 85.4089 21.2298C85.4925 20.7126 85.6783 20.3126 85.9635 20.0288C86.2886 19.7256 86.7029 19.5321 87.146 19.4772C87.6504 19.3926 88.321 19.3526 89.1608 19.3526H97.4188C97.9891 19.3526 98.4508 19.3172 98.8029 19.2502C99.1041 19.2091 99.386 19.0782 99.6119 18.8744C99.8154 18.6512 99.9464 18.3721 99.9882 18.0726C100.062 17.6167 100.096 17.1553 100.088 16.694V16.2446C100.088 15.6772 100.063 15.2149 100.011 14.8651C99.9852 14.5658 99.8615 14.2834 99.6593 14.0614C99.4363 13.8601 99.1539 13.737 98.8549 13.7107C98.3784 13.6535 97.8987 13.6284 97.4188 13.6353H91.3753C90.5383 13.6353 89.9578 13.72 89.6392 13.8865C89.3206 14.054 89.1273 14.4205 89.0614 14.9907L88.9592 15.6912C88.792 16.7953 88.1882 17.347 87.146 17.347C86.4419 17.347 85.957 17.1451 85.6876 16.7433C85.4182 16.3414 85.2835 15.6084 85.2835 14.5386V13.9377C85.2835 13.0679 85.3262 12.3749 85.4089 11.8567C85.4925 11.3358 85.6783 10.9358 85.9635 10.653C86.2886 10.3498 86.7029 10.1563 87.146 10.1014C87.6504 10.0186 88.321 9.97581 89.1608 9.97581H99.938C100.775 9.97581 101.448 10.0186 101.95 10.1014C102.454 10.1842 102.84 10.3684 103.109 10.653C103.378 10.9367 103.554 11.3386 103.64 11.8567C103.722 12.3749 103.763 13.0679 103.763 13.9377V29.7302ZM94.9014 23.0121C93.7598 23.0121 93.0297 23.1702 92.7129 23.4874C92.3915 23.8047 92.2318 24.533 92.2318 25.6688V27.2726C92.2318 27.8753 92.2559 28.3516 92.3089 28.7005C92.3358 29.0047 92.4696 29.2893 92.6869 29.5051C92.921 29.7033 93.2108 29.8251 93.5174 29.8549C93.8685 29.9051 94.3497 29.9312 94.9516 29.9312H97.4188C97.9891 29.9312 98.4508 29.8977 98.8029 29.8288C99.1038 29.7886 99.3857 29.6586 99.6119 29.4558C99.8125 29.2389 99.9436 28.9667 99.9882 28.6744C100.054 28.3433 100.088 27.8921 100.088 27.3247V25.8195C100.088 25.1842 100.063 24.6847 100.011 24.3153C99.9843 24.0021 99.8614 23.7048 99.6593 23.4642C99.4436 23.2476 99.159 23.1137 98.8549 23.0856C98.3784 23.0298 97.8981 23.0047 97.4188 23.0121H94.9014ZM126.321 29.7302C126.321 30.5646 126.269 31.2344 126.169 31.7358C126.099 32.173 125.907 32.5805 125.615 32.9135C125.346 33.1972 124.96 33.3823 124.456 33.4651C123.79 33.5591 123.116 33.6009 122.444 33.5898H111.717C110.877 33.5898 110.205 33.5479 109.701 33.4651C109.259 33.4104 108.845 33.2174 108.519 32.9135C108.215 32.5899 108.02 32.1774 107.965 31.7358C107.869 31.0717 107.827 30.401 107.838 29.7302V28.0744C107.838 26.9395 107.974 26.1628 108.242 25.7442C108.509 25.3256 108.98 25.1172 109.652 25.1172C110.289 25.1172 110.734 25.2828 110.986 25.6195C111.238 25.9526 111.397 26.5888 111.464 27.5256C111.497 28.5953 111.666 29.2707 111.968 29.5544C112.27 29.8391 112.925 29.9805 113.931 29.9805H116.6C117.205 29.9805 117.683 29.9479 118.037 29.8809C118.337 29.8381 118.617 29.707 118.841 29.5023C119.046 29.28 119.177 29.0019 119.219 28.7033C119.286 28.3507 119.319 27.8921 119.319 27.3247V25.6688C119.319 24.534 119.161 23.814 118.843 23.5135C118.523 23.213 117.793 23.0642 116.65 23.0642H111.666C110.86 23.0642 110.199 23.0121 109.678 22.9135C109.156 22.8112 108.762 22.6195 108.492 22.3367C108.201 22.0039 108.008 21.5953 107.939 21.1581C107.825 20.4958 107.775 19.8244 107.788 19.1526V13.9386C107.788 13.0688 107.831 12.3758 107.915 11.8577C107.998 11.3367 108.183 10.9367 108.469 10.654C108.795 10.35 109.209 10.157 109.652 10.1023C110.156 10.0195 110.827 9.97674 111.666 9.97674H122.49C123.334 9.97674 124.004 10.0195 124.506 10.1023C124.949 10.1572 125.364 10.3498 125.691 10.654C125.976 10.9377 126.159 11.3395 126.245 11.8577C126.328 12.3758 126.371 13.0688 126.371 13.9386V14.9916C126.371 15.8595 126.228 16.4772 125.943 16.8456C125.657 17.2121 125.179 17.3972 124.508 17.3972C123.901 17.3972 123.457 17.2456 123.174 16.9479C122.888 16.6447 122.693 16.1433 122.593 15.4409C122.526 14.6726 122.341 14.1805 122.039 13.9619C121.737 13.7451 121.083 13.6363 120.076 13.6363H114.134C113.562 13.6363 113.101 13.6698 112.749 13.7386C112.449 13.7801 112.167 13.9111 111.942 14.1144C111.741 14.3357 111.617 14.617 111.59 14.9153C111.534 15.373 111.508 15.8344 111.514 16.2949V16.6967C111.514 17.2642 111.548 17.7237 111.616 18.0735C111.658 18.373 111.79 18.654 111.994 18.8781C112.217 19.0781 112.5 19.2009 112.799 19.2279C113.151 19.2744 113.612 19.3014 114.184 19.3014H122.444C123.281 19.3014 123.961 19.3535 124.482 19.453C125.004 19.5516 125.396 19.746 125.665 20.0298C125.933 20.3135 126.109 20.7153 126.195 21.2307C126.278 21.7516 126.321 22.4447 126.321 23.3126V29.7302ZM130.399 13.8372C130.399 13.0353 130.449 12.3823 130.548 11.8837C130.619 11.441 130.821 11.0299 131.128 10.7033C131.457 10.3984 131.868 10.1983 132.311 10.1284C132.815 10.026 133.452 9.97674 134.226 9.97674H145.003C145.841 9.97674 146.514 10.027 147.016 10.1284C147.52 10.2279 147.905 10.4121 148.174 10.6791C148.443 10.947 148.627 11.3302 148.728 11.8316C148.828 12.333 148.879 13.0019 148.879 13.8372V29.6307C148.879 30.4986 148.839 31.1916 148.752 31.7126C148.669 32.2279 148.493 32.6298 148.225 32.9135C147.955 33.1972 147.563 33.3823 147.042 33.4651C146.367 33.5581 145.684 33.6 145.003 33.5898H136.441C135.502 33.5898 134.871 33.7414 134.552 34.0391C134.233 34.3423 134.076 34.9433 134.076 35.8465V39.3572C134.076 40.5256 133.948 41.3274 133.696 41.7628C133.446 42.1972 132.968 42.4149 132.261 42.4149C131.557 42.4149 131.072 42.1879 130.801 41.7358C130.534 41.2865 130.399 40.4753 130.399 39.3051V13.8372ZM136.743 13.586C135.602 13.586 134.871 13.7442 134.555 14.0642C134.233 14.3805 134.074 15.1079 134.074 16.2428V17.6474C134.074 18.4521 134.176 18.9935 134.375 19.2772C134.579 19.5619 135.03 19.786 135.736 19.9535C136.441 20.1553 136.896 20.4223 137.095 20.7581C137.297 21.0893 137.397 21.7591 137.397 22.7619V27.2744C137.397 27.8753 137.42 28.3507 137.473 28.7005C137.5 29.0047 137.635 29.2893 137.852 29.5051C138.086 29.7033 138.375 29.8251 138.682 29.8549C139.034 29.9051 139.515 29.9312 140.116 29.9312H142.534C143.105 29.9312 143.565 29.8977 143.918 29.8288C144.218 29.7879 144.5 29.6577 144.724 29.4558C144.93 29.2316 145.061 28.9516 145.103 28.6512C145.169 28.3014 145.204 27.8419 145.204 27.2744V16.2419C145.204 15.107 145.053 14.3814 144.75 14.0651C144.449 13.7451 143.728 13.586 142.586 13.586H136.743ZM159.907 29.3274C159.907 30.1981 159.865 30.9079 159.781 31.4586C159.698 32.0102 159.529 32.4447 159.277 32.7619C159.015 33.0874 158.652 33.3163 158.245 33.4149C157.684 33.5461 157.108 33.6049 156.532 33.5898C155.492 33.5898 154.747 33.4977 154.293 33.3135C153.842 33.1312 153.48 32.7693 153.211 32.2372C153.066 31.9296 152.98 31.5972 152.958 31.2577C152.917 30.6152 152.901 29.9713 152.909 29.3274V3.1107C152.909 1.94233 153.041 1.14047 153.31 0.705116C153.58 0.269767 154.064 0.0520932 154.772 0.0520932C155.475 0.0520932 155.912 0.269767 156.182 0.705116C156.448 1.14047 156.584 1.94233 156.584 3.1107V7.52186C156.584 8.32558 156.684 8.8707 156.886 9.15349C157.085 9.43814 157.541 9.66232 158.245 9.82791C158.952 10.0288 159.403 10.2967 159.605 10.6326C159.807 10.9637 159.907 11.6326 159.907 12.6353V29.3302V29.3274ZM182.417 29.7302C182.417 30.5646 182.366 31.2344 182.265 31.7358C182.195 32.173 182.003 32.5805 181.712 32.9135C181.442 33.1972 181.056 33.3823 180.553 33.4651C179.886 33.5591 179.214 33.6009 178.54 33.5898H167.813C167.006 33.5898 166.345 33.5479 165.824 33.4651C165.304 33.3814 164.908 33.1972 164.642 32.9135C164.35 32.5815 164.157 32.1731 164.088 31.7358C163.973 31.0737 163.922 30.402 163.935 29.7302V13.9386C163.935 13.0688 163.977 12.3758 164.061 11.8577C164.147 11.3367 164.33 10.9367 164.616 10.654C164.943 10.3499 165.356 10.1568 165.8 10.1023C166.467 10.0078 167.14 9.96577 167.813 9.97674H178.54C179.377 9.97674 180.056 10.0195 180.578 10.1023C181.1 10.1851 181.491 10.3693 181.762 10.654C182.029 10.9377 182.205 11.3395 182.291 11.8577C182.375 12.3758 182.417 13.0688 182.417 13.9386V29.7302ZM170.28 13.5888C169.138 13.5888 168.41 13.747 168.091 14.067C167.772 14.3833 167.614 15.1098 167.614 16.2456V17.6502C167.614 18.454 167.713 18.9963 167.913 19.28C168.115 19.5637 168.569 19.7888 169.274 19.9563C169.978 20.1572 170.432 20.4251 170.635 20.76C170.834 21.0921 170.936 21.7609 170.936 22.7637V27.2772C170.936 27.8781 170.961 28.3535 171.011 28.7033C171.037 29.0074 171.171 29.2921 171.389 29.5079C171.624 29.706 171.915 29.8279 172.221 29.8577C172.571 29.907 173.052 29.933 173.656 29.933H176.072C176.644 29.933 177.103 29.9005 177.458 29.8316C177.757 29.7898 178.036 29.6605 178.262 29.4577C178.467 29.2348 178.6 28.9544 178.642 28.654C178.705 28.3033 178.74 27.8447 178.74 27.2772V16.2419C178.74 15.107 178.59 14.3805 178.287 14.0633C177.985 13.7442 177.266 13.5851 176.123 13.5851L170.28 13.5888ZM193.444 3.1107C193.444 4.27907 193.201 5.09023 192.714 5.53953C192.229 5.99163 191.312 6.2186 189.97 6.2186C188.561 6.2186 187.61 6.01767 187.125 5.61488C186.638 5.21302 186.395 4.44651 186.395 3.30884C186.395 2.10791 186.657 1.26977 187.176 0.80186C187.696 0.336744 188.659 0.101395 190.07 0.101395C191.346 0.101395 192.229 0.309767 192.714 0.728372C193.201 1.14512 193.444 1.94047 193.444 3.1107ZM193.444 29.3302C193.444 30.1981 193.401 30.9079 193.319 31.4586C193.267 31.9302 193.093 32.3795 192.816 32.7647C192.552 33.089 192.19 33.3178 191.784 33.4158C191.346 33.533 190.776 33.5898 190.07 33.5898C189.029 33.5898 188.285 33.4977 187.83 33.3153C187.378 33.1312 187.017 32.7721 186.747 32.2372C186.603 31.9305 186.517 31.5991 186.496 31.2605C186.454 30.618 186.437 29.974 186.446 29.3302V12.9358C186.446 11.7656 186.579 10.9637 186.85 10.5284C187.115 10.0949 187.604 9.87721 188.308 9.87721C189.012 9.87721 189.45 10.0949 189.719 10.5284C189.988 10.9637 190.124 11.7656 190.124 12.9358V16.5451C190.124 17.347 190.221 17.8912 190.423 18.1749C190.626 18.4595 191.077 18.6837 191.784 18.8521C192.488 19.053 192.941 19.32 193.142 19.654C193.344 19.987 193.444 20.6567 193.444 21.6595V29.3302ZM198.178 4.56279C198.178 3.39442 198.311 2.58326 198.583 2.13116C198.85 1.68186 199.337 1.45488 200.04 1.45488C200.744 1.45488 201.233 1.67256 201.502 2.10791C201.771 2.54047 201.906 3.34233 201.906 4.51349V8.07256C201.906 8.87442 201.98 9.37395 202.132 9.57674C202.283 9.77581 202.677 9.89395 203.315 9.92744C204.859 9.96 205.632 10.5805 205.632 11.7814C205.632 12.9851 204.924 13.6028 203.513 13.6381C202.776 13.6716 202.314 13.787 202.132 13.9888C201.946 14.1898 201.853 14.6912 201.853 15.493V16.5451C201.853 17.347 201.954 17.8912 202.155 18.1749C202.358 18.4595 202.811 18.6837 203.517 18.8521C204.22 19.053 204.672 19.32 204.874 19.654C205.077 19.987 205.177 20.6567 205.177 21.6595V29.3302C205.177 30.1981 205.135 30.9079 205.052 31.4586C205 31.9306 204.826 32.3808 204.546 32.7647C204.284 33.0892 203.922 33.318 203.517 33.4158C202.955 33.546 202.379 33.6044 201.803 33.5898C200.763 33.5898 200.007 33.4977 199.538 33.3153C199.068 33.1312 198.716 32.7721 198.48 32.2372C198.336 31.9302 198.25 31.599 198.228 31.2605C198.188 30.6179 198.171 29.974 198.178 29.3302V15.7935L198.127 14.9414C198.127 14.4735 198.052 14.1637 197.9 14.0121C197.749 13.8633 197.457 13.7544 197.019 13.6884L196.365 13.6381C195.091 13.5367 194.451 12.9358 194.451 11.8316C194.451 10.5963 195.157 9.97674 196.568 9.97674C196.936 9.97674 197.23 9.95349 197.448 9.9014C197.549 9.8826 197.644 9.84149 197.727 9.78093C197.81 9.72037 197.879 9.64205 197.927 9.55163C198.044 9.29953 198.114 9.02698 198.127 8.74884C198.163 8.39907 198.176 7.92093 198.176 7.32093L198.178 4.56279ZM245.009 29.0791C245.009 30.08 244.943 30.8772 244.808 31.4586C244.7 32.0015 244.394 32.4846 243.95 32.814C243.515 33.1312 242.903 33.3395 242.114 33.4409C241.325 33.5405 240.258 33.5898 238.917 33.5898H225.772C224.562 33.5898 223.59 33.5312 222.852 33.4149C222.115 33.2967 221.536 33.0726 221.116 32.7386C220.695 32.4047 220.419 31.92 220.284 31.2837C220.135 30.4744 220.066 29.6521 220.081 28.8288V2.70791C220.081 0.903256 220.789 0 222.198 0C222.971 0 223.515 0.210233 223.833 0.626977C224.155 1.04558 224.313 1.7386 224.313 2.70791V9.62698C224.313 10.6298 224.397 11.3656 224.562 11.8316C224.73 12.2995 225.051 12.6167 225.522 12.7842L226.378 13.187C226.711 13.3526 226.991 13.52 227.21 13.6884C227.427 13.854 227.594 14.0977 227.711 14.414C227.829 14.7312 227.904 15.1833 227.94 15.7674C227.972 16.3535 227.987 17.1135 227.987 18.0502V25.5693C227.987 26.4046 228.04 27.0735 228.139 27.5749C228.241 28.0772 228.448 28.4502 228.769 28.7033C229.089 28.9544 229.54 29.12 230.128 29.2056C230.716 29.2874 231.513 29.3302 232.521 29.3302H237.103C237.877 29.3302 238.497 29.2781 238.965 29.1786C239.381 29.1066 239.767 28.9153 240.076 28.6279C240.367 28.3144 240.559 27.9209 240.629 27.4995C240.741 26.8791 240.791 26.2493 240.778 25.6186V2.70884C240.778 1.7386 240.946 1.04558 241.283 0.626977C241.615 0.210233 242.156 0 242.894 0C243.632 0 244.169 0.210233 244.507 0.626977C244.84 1.04558 245.009 1.7386 245.009 2.70791V29.0791ZM263.944 9.97674C264.783 9.97674 265.454 10.0195 265.959 10.1023C266.402 10.1581 266.815 10.3507 267.141 10.654C267.427 10.9377 267.611 11.3395 267.694 11.8577C267.778 12.3758 267.822 13.0688 267.822 13.9386V30.4819C267.822 31.6502 267.684 32.4623 267.417 32.9135C267.149 33.3628 266.662 33.5898 265.959 33.5898C265.251 33.5898 264.773 33.3721 264.521 32.9395C264.271 32.5042 264.146 31.7023 264.146 30.5321V16.2456C264.146 15.1098 263.986 14.3814 263.667 14.0642C263.345 13.7451 262.618 13.586 261.476 13.586H255.736C254.594 13.586 253.863 13.7442 253.545 14.0642C253.227 14.3805 253.066 15.1079 253.066 16.2428V17.6474C253.066 18.4521 253.166 18.9935 253.369 19.2772C253.57 19.5619 254.022 19.786 254.726 19.9535C255.434 20.1553 255.885 20.4223 256.087 20.7581C256.291 21.0893 256.39 21.7591 256.39 22.7619V29.3293C256.39 30.1981 256.346 30.9079 256.262 31.4595C256.181 32.0102 256.012 32.4456 255.76 32.7619C255.497 33.0874 255.134 33.3172 254.726 33.4149C254.291 33.533 253.721 33.5898 253.016 33.5898C251.94 33.5898 251.178 33.4977 250.725 33.3135C250.27 33.1312 249.909 32.7693 249.643 32.2372C249.497 31.9307 249.412 31.5992 249.39 31.2605C249.349 30.618 249.333 29.974 249.34 29.3302V13.9386C249.34 13.0688 249.381 12.3758 249.465 11.8577C249.551 11.3367 249.733 10.9367 250.019 10.654C250.346 10.35 250.76 10.1569 251.204 10.1023C251.705 10.0195 252.379 9.97674 253.216 9.97674H263.944ZM278.847 29.3274C278.847 30.1981 278.807 30.9079 278.722 31.4586C278.638 32.0102 278.471 32.4447 278.22 32.7619C277.956 33.0874 277.595 33.3163 277.187 33.4149C276.749 33.533 276.182 33.5898 275.474 33.5898C274.435 33.5898 273.687 33.4977 273.234 33.3135C272.781 33.1312 272.42 32.7693 272.15 32.2372C272.006 31.9293 271.92 31.5971 271.898 31.2577C271.858 30.6151 271.841 29.9713 271.85 29.3274V3.1107C271.85 1.94233 271.985 1.14047 272.253 0.705116C272.52 0.269767 273.008 0.0520932 273.712 0.0520932C274.418 0.0520932 274.853 0.269767 275.122 0.705116C275.39 1.14047 275.524 1.94233 275.524 3.1107V7.52186C275.524 8.32558 275.626 8.8707 275.825 9.15349C276.03 9.43814 276.483 9.66232 277.187 9.82791C277.892 10.0288 278.345 10.2967 278.546 10.6326C278.747 10.9637 278.847 11.6326 278.847 12.6353V29.3302V29.3274ZM301.357 19.1005C301.357 19.9042 301.307 20.5637 301.207 21.0819C301.106 21.6 300.923 21.9935 300.654 22.2605C300.385 22.5274 300 22.7098 299.495 22.8112C298.83 22.9248 298.154 22.9756 297.48 22.9628H292.495C291.354 22.9628 290.623 23.1209 290.305 23.4381C289.986 23.7544 289.828 24.4837 289.828 25.6186V27.2223C289.828 27.826 289.851 28.3014 289.903 28.6512C289.929 28.9553 290.063 29.24 290.279 29.4558C290.514 29.654 290.804 29.7758 291.111 29.8056C291.588 29.8633 292.066 29.8884 292.546 29.8809H295.517C296.255 29.8809 296.775 29.7628 297.079 29.5284C297.38 29.2949 297.565 28.8781 297.632 28.2753L297.733 27.4233C297.831 26.2884 298.42 25.7209 299.495 25.7209C300.738 25.7209 301.357 26.5888 301.357 28.3274V29.7302C301.357 30.5646 301.307 31.2344 301.207 31.7358C301.139 32.1721 300.947 32.5805 300.654 32.9135C300.385 33.1972 300 33.3823 299.495 33.4651C298.828 33.5593 298.153 33.601 297.48 33.5898H286.756C285.948 33.5898 285.284 33.5479 284.766 33.4651C284.246 33.3814 283.85 33.1972 283.583 32.9135C283.291 32.581 283.098 32.1728 283.027 31.7358C282.915 31.0734 282.865 30.402 282.877 29.7302V13.9386C282.877 13.0688 282.918 12.3758 283.004 11.8577C283.087 11.3367 283.273 10.9367 283.558 10.654C283.884 10.3498 284.298 10.1572 284.739 10.1023C285.244 10.0195 285.916 9.97674 286.756 9.97674H297.48C298.32 9.97674 299 10.0195 299.52 10.1023C300.04 10.1851 300.435 10.3693 300.704 10.654C300.973 10.9377 301.148 11.3395 301.231 11.8577C301.315 12.3758 301.357 13.0688 301.357 13.9386V19.1005ZM297.682 16.2446C297.682 15.1098 297.522 14.3814 297.204 14.0642C296.885 13.7451 296.156 13.586 295.012 13.586H289.222C288.618 13.586 288.14 13.6102 287.788 13.6623C287.488 13.6884 287.203 13.8112 286.981 14.0121C286.779 14.2353 286.655 14.5172 286.63 14.8167C286.58 15.1665 286.553 15.6447 286.553 16.2456V16.5953C286.553 17.1963 286.58 17.6744 286.63 18.0242C286.679 18.374 286.796 18.6502 286.981 18.8521C287.167 19.0502 287.433 19.1758 287.788 19.2279C288.14 19.2744 288.618 19.3014 289.222 19.3014H295.012C296.156 19.3014 296.885 19.1433 297.204 18.8279C297.522 18.5088 297.682 17.7637 297.682 16.5953V16.2419V16.2446ZM323.867 29.7302C323.867 30.5646 323.816 31.2344 323.714 31.7358C323.646 32.173 323.453 32.5805 323.161 32.9135C322.895 33.1972 322.506 33.3823 322.004 33.4651C321.337 33.5593 320.665 33.601 319.991 33.5898H309.263C308.459 33.5898 307.795 33.5405 307.273 33.4391C306.753 33.3395 306.36 33.1544 306.093 32.8874C305.823 32.6205 305.637 32.227 305.537 31.7098C305.425 31.0561 305.375 30.3934 305.386 29.7302V23.3116C305.386 22.4437 305.428 21.7507 305.511 21.2298C305.596 20.7126 305.78 20.3126 306.066 20.0288C306.393 19.7247 306.807 19.5317 307.25 19.4772C307.753 19.3926 308.425 19.3526 309.263 19.3526H317.523C318.093 19.3526 318.556 19.3172 318.907 19.2502C319.206 19.2093 319.488 19.0781 319.712 18.8744C319.916 18.6512 320.05 18.3721 320.09 18.0726C320.157 17.7228 320.192 17.2614 320.192 16.694V16.2446C320.192 15.6772 320.167 15.2149 320.117 14.8651C320.09 14.5659 319.965 14.2836 319.764 14.0614C319.54 13.8604 319.256 13.7373 318.957 13.7107C318.482 13.6536 318.002 13.6284 317.523 13.6353H311.481C310.641 13.6353 310.059 13.72 309.742 13.8865C309.422 14.054 309.23 14.4205 309.163 14.9907L309.064 15.6912C308.893 16.7953 308.29 17.347 307.25 17.347C306.544 17.347 306.058 17.1451 305.788 16.7433C305.521 16.3414 305.386 15.6084 305.386 14.5386V13.9377C305.386 13.0679 305.428 12.3749 305.511 11.8567C305.596 11.3358 305.78 10.9358 306.066 10.653C306.393 10.349 306.807 10.156 307.25 10.1014C307.753 10.0186 308.425 9.97581 309.263 9.97581H320.039C320.878 9.97581 321.551 10.0186 322.054 10.1014C322.556 10.1842 322.945 10.3684 323.213 10.653C323.478 10.9367 323.659 11.3386 323.741 11.8567C323.825 12.3749 323.867 13.0679 323.867 13.9377V29.7302ZM315.003 23.0121C313.864 23.0121 313.134 23.1702 312.814 23.4874C312.497 23.8047 312.334 24.533 312.334 25.6688V27.2726C312.334 27.8753 312.361 28.3516 312.411 28.7005C312.436 29.0056 312.572 29.2902 312.789 29.5051C313.023 29.7033 313.312 29.8251 313.619 29.8549C314.095 29.9126 314.574 29.9386 315.053 29.9312H317.523C318.093 29.9312 318.556 29.8977 318.907 29.8288C319.206 29.7879 319.488 29.6577 319.712 29.4558C319.914 29.2391 320.046 28.9674 320.09 28.6744C320.157 28.3433 320.192 27.8921 320.192 27.3247V25.8195C320.192 25.1842 320.167 24.6847 320.117 24.3153C320.088 24.0022 319.965 23.7053 319.764 23.4642C319.547 23.2477 319.262 23.1139 318.957 23.0856C318.482 23.029 318.002 23.0045 317.523 23.0121H315.003ZM346.422 29.7302C346.422 30.5646 346.372 31.2344 346.27 31.7358C346.201 32.173 346.009 32.5805 345.716 32.9135C345.449 33.1972 345.062 33.3823 344.56 33.4651C343.893 33.5591 343.219 33.6009 342.545 33.5898H331.817C330.981 33.5898 330.308 33.5479 329.806 33.4651C329.363 33.4101 328.948 33.2172 328.62 32.9135C328.316 32.5892 328.123 32.1769 328.067 31.7358C327.972 31.0716 327.931 30.401 327.942 29.7302V28.0744C327.942 26.9395 328.076 26.1628 328.344 25.7442C328.613 25.3256 329.081 25.1172 329.756 25.1172C330.392 25.1172 330.839 25.2828 331.088 25.6195C331.341 25.9526 331.499 26.5888 331.568 27.5256C331.602 28.5953 331.769 29.2707 332.072 29.5544C332.373 29.8391 333.026 29.9805 334.036 29.9805H336.704C337.184 29.9897 337.665 29.9564 338.139 29.8809C338.44 29.8391 338.719 29.707 338.944 29.5023C339.147 29.28 339.279 29.0019 339.321 28.7033C339.388 28.3507 339.423 27.8921 339.423 27.3247V25.6688C339.423 24.534 339.264 23.814 338.944 23.5135C338.624 23.213 337.897 23.0642 336.754 23.0642H331.769C330.964 23.0642 330.3 23.0121 329.779 22.9135C329.259 22.8112 328.866 22.6195 328.597 22.3367C328.304 22.0045 328.112 21.5957 328.043 21.1581C327.927 20.4962 327.877 19.8245 327.892 19.1526V13.9386C327.892 13.0688 327.933 12.3758 328.017 11.8577C328.102 11.3367 328.285 10.9367 328.57 10.654C328.898 10.3498 329.313 10.1572 329.756 10.1023C330.257 10.0195 330.929 9.97674 331.769 9.97674H342.595C343.434 9.97674 344.107 10.0195 344.61 10.1023C345.053 10.1581 345.467 10.3507 345.794 10.654C346.078 10.9377 346.264 11.3395 346.347 11.8577C346.431 12.3758 346.473 13.0688 346.473 13.9386V14.9916C346.473 15.8595 346.33 16.4772 346.044 16.8456C345.758 17.2121 345.282 17.3972 344.61 17.3972C344.006 17.3972 343.561 17.2456 343.275 16.9479C342.99 16.6447 342.798 16.1433 342.694 15.4409C342.629 14.6726 342.445 14.1805 342.142 13.9619C341.841 13.7451 341.184 13.6363 340.177 13.6363H334.235C333.665 13.6363 333.203 13.6698 332.85 13.7386C332.551 13.7801 332.271 13.9111 332.048 14.1144C331.845 14.3355 331.721 14.6167 331.692 14.9153C331.637 15.373 331.612 15.8344 331.618 16.2949V16.6967C331.618 17.2642 331.652 17.7237 331.719 18.0735C331.759 18.374 331.892 18.654 332.097 18.8781C332.281 19.0595 332.549 19.1758 332.9 19.2279C333.255 19.2744 333.717 19.3014 334.287 19.3014H342.545C343.384 19.3014 344.063 19.3535 344.585 19.453C345.105 19.5516 345.499 19.746 345.768 20.0298C346.038 20.3135 346.213 20.7153 346.297 21.2307C346.381 21.7516 346.422 22.4447 346.422 23.3126V29.7302ZM368.983 30.4819C368.983 31.6502 368.848 32.4623 368.579 32.9135C368.309 33.3628 367.824 33.5898 367.118 33.5898C366.413 33.5898 365.935 33.3721 365.682 32.9377C365.432 32.5042 365.304 31.7023 365.304 30.5321V16.2456C365.304 15.1079 365.145 14.3814 364.827 14.0623C364.509 13.7451 363.778 13.5888 362.637 13.5888H356.898C355.756 13.586 355.025 13.7451 354.707 14.0623C354.388 14.3814 354.227 15.107 354.227 16.2428V17.6474C354.227 18.4493 354.327 18.9935 354.532 19.2772C354.731 19.5619 355.186 19.786 355.888 19.9535C356.595 20.1553 357.046 20.4223 357.249 20.7553C357.449 21.0893 357.554 21.7591 357.554 22.7619V29.3274C357.554 30.1981 357.51 30.9079 357.426 31.4586C357.343 32.0102 357.174 32.4447 356.921 32.7619C356.66 33.0874 356.296 33.3172 355.888 33.4149C355.453 33.533 354.883 33.5898 354.177 33.5898C353.102 33.5898 352.34 33.4977 351.885 33.3135C351.432 33.1312 351.071 32.7693 350.803 32.2372C350.658 31.9296 350.573 31.5972 350.552 31.2577C350.509 30.6153 350.492 29.9713 350.5 29.3274V3.1107C350.5 1.94233 350.636 1.14047 350.905 0.705116C351.175 0.269767 351.66 0.0520932 352.365 0.0520932C353.071 0.0520932 353.549 0.269767 353.8 0.705116C354.052 1.14047 354.177 1.94233 354.177 3.1107V7.67349C354.177 8.57674 354.338 9.18698 354.657 9.50419C354.975 9.82046 355.604 9.9786 356.543 9.9786H365.106C365.945 9.9786 366.616 10.0214 367.118 10.1051C367.561 10.1591 367.977 10.3526 368.303 10.6558C368.589 10.9395 368.771 11.3414 368.857 11.8595C368.94 12.3777 368.983 13.0707 368.983 13.9414V30.4846V30.4819ZM391.49 19.1005C391.49 19.9042 391.44 20.5637 391.34 21.0819C391.238 21.6 391.056 21.9935 390.786 22.2605C390.518 22.5274 390.131 22.7098 389.628 22.8112C388.963 22.9246 388.288 22.9758 387.613 22.9628H382.629C381.487 22.9628 380.756 23.1209 380.438 23.4381C380.119 23.7544 379.959 24.4837 379.959 25.6186V27.2223C379.959 27.826 379.985 28.3014 380.035 28.6512C380.062 28.9553 380.196 29.24 380.415 29.4558C380.649 29.654 380.938 29.7758 381.244 29.8056C381.72 29.8626 382.199 29.8878 382.679 29.8809H385.65C386.388 29.8809 386.909 29.7628 387.21 29.5284C387.513 29.2949 387.698 28.8781 387.765 28.2753L387.866 27.4233C387.968 26.2884 388.554 25.7209 389.628 25.7209C390.87 25.7209 391.49 26.5888 391.49 28.3274V29.7302C391.49 30.5646 391.44 31.2344 391.34 31.7358C391.27 32.1721 391.078 32.5805 390.786 32.9135C390.518 33.1972 390.131 33.3823 389.628 33.4651C388.961 33.5591 388.286 33.6009 387.613 33.5898H376.889C376.223 33.5991 375.56 33.5572 374.899 33.4651C374.379 33.3814 373.984 33.1972 373.715 32.9135C373.423 32.5813 373.232 32.1728 373.163 31.7358C373.047 31.0739 372.997 30.4021 373.012 29.7302V13.9386C373.012 13.0688 373.053 12.3758 373.137 11.8577C373.221 11.3367 373.405 10.9367 373.69 10.654C374.017 10.3503 374.431 10.1573 374.874 10.1023C375.377 10.0195 376.047 9.97674 376.889 9.97674H387.613C388.453 9.97674 389.133 10.0195 389.655 10.1023C390.173 10.1851 390.568 10.3693 390.836 10.654C391.104 10.9377 391.281 11.3395 391.365 11.8577C391.45 12.3758 391.49 13.0688 391.49 13.9386V19.1005ZM387.816 16.2446C387.816 15.1098 387.657 14.3814 387.337 14.0642C387.018 13.7451 386.287 13.586 385.147 13.586H379.355C378.751 13.586 378.273 13.6102 377.92 13.6623C377.621 13.6884 377.337 13.8112 377.114 14.0121C376.912 14.2353 376.788 14.5172 376.762 14.8167C376.711 15.1665 376.686 15.6447 376.686 16.2456V16.5953C376.686 17.1963 376.711 17.6744 376.762 18.0242C376.791 18.3284 376.916 18.6177 377.114 18.8521C377.332 19.067 377.616 19.2 377.92 19.2279C378.273 19.2744 378.751 19.3014 379.355 19.3014H385.147C386.287 19.3014 387.018 19.1433 387.337 18.8279C387.657 18.5088 387.816 17.7637 387.816 16.5953V16.2419V16.2446ZM414.002 29.7302C414.002 30.4986 413.951 31.1321 413.849 31.6344C413.777 32.0757 413.576 32.4856 413.27 32.8121C412.984 33.0958 412.6 33.2967 412.112 33.4149C411.627 33.533 410.995 33.5898 410.223 33.5898H399.397C398.592 33.5898 397.928 33.5479 397.407 33.4651C396.888 33.3814 396.493 33.1972 396.224 32.9135C395.933 32.5805 395.741 32.1725 395.67 31.7358C395.558 31.0734 395.508 30.402 395.52 29.7302V13.8865C395.52 13.0521 395.56 12.373 395.647 11.8577C395.731 11.3367 395.913 10.9367 396.199 10.654C396.526 10.35 396.94 10.1569 397.382 10.1023C397.888 10.0195 398.558 9.97674 399.397 9.97674H408.008C408.946 9.97674 409.569 9.8186 409.872 9.50233C410.173 9.18233 410.326 8.57395 410.326 7.6707V3.10791C410.326 1.93953 410.458 1.13767 410.727 0.702326C410.995 0.266977 411.467 0.0493023 412.138 0.0493023C412.876 0.0493023 413.371 0.266977 413.623 0.702326C413.874 1.13767 414.002 1.93953 414.002 3.10791V29.7302ZM401.865 13.586C400.724 13.586 399.993 13.7442 399.673 14.0623C399.355 14.3814 399.196 15.107 399.196 16.2428V17.6474C399.196 18.4493 399.296 18.9935 399.498 19.2772C399.7 19.5619 400.153 19.786 400.856 19.9535C401.562 20.1553 402.016 20.4223 402.216 20.7553C402.419 21.0893 402.519 21.7591 402.519 22.7619V27.2726C402.519 27.8753 402.542 28.3516 402.595 28.7005C402.623 29.0047 402.757 29.2893 402.973 29.5051C403.207 29.7033 403.497 29.8251 403.803 29.8549C404.28 29.9126 404.76 29.9386 405.238 29.9312H407.656C408.227 29.9312 408.687 29.8977 409.04 29.8288C409.346 29.7833 409.636 29.653 409.872 29.453C410.089 29.2363 410.231 28.9553 410.276 28.6512C410.349 28.1953 410.382 27.734 410.376 27.2726V16.2419C410.376 15.107 410.215 14.3805 409.897 14.0614C409.579 13.7442 408.848 13.5879 407.706 13.5879L401.865 13.586Z" fill="white"/>
</g>
<mask id="mask3_3164_31932" style="mask-type:luminance" maskUnits="userSpaceOnUse" x="10" y="41" width="196" height="43">
<path d="M205.628 41.8604H10V83.7208H205.628V41.8604Z" fill="white"/>
</mask>
<g mask="url(#mask3_3164_31932)">
<path d="M-163.35 72.9431C-163.35 74.8501 -164.074 75.8006 -165.516 75.8006C-166.96 75.8006 -167.581 74.8164 -167.581 72.8434V50.5336C-167.581 49.5309 -167.624 48.7459 -167.706 48.1785C-167.792 47.611 -167.968 47.1755 -168.237 46.875C-168.503 46.5746 -168.925 46.3897 -169.495 46.3236C-170.248 46.2475 -171.005 46.2131 -171.761 46.2211H-174.227C-175.068 46.2211 -175.732 46.2713 -176.219 46.3727C-176.651 46.4441 -177.05 46.6552 -177.352 46.9738C-177.619 47.2743 -177.797 47.7097 -177.88 48.2771C-177.962 48.8444 -178.006 49.5978 -178.006 50.5336V72.8937C-178.006 74.8333 -178.71 75.8025 -180.121 75.8025C-180.893 75.8025 -181.445 75.5755 -181.781 75.1234C-182.119 74.6741 -182.284 73.9655 -182.284 72.9952V50.584C-182.284 49.6491 -182.328 48.8976 -182.412 48.3273C-182.495 47.7599 -182.664 47.3171 -182.916 46.9999C-183.191 46.6687 -183.575 46.4466 -183.998 46.3736C-184.612 46.2605 -185.236 46.2097 -185.861 46.222H-191.048C-191.785 46.222 -192.392 46.2713 -192.86 46.3736C-193.285 46.4481 -193.675 46.6594 -193.968 46.9738C-194.257 47.3183 -194.448 47.7345 -194.522 48.1785C-194.636 48.8231 -194.686 49.4775 -194.672 50.132V51.7374C-194.672 52.3048 -194.649 52.7551 -194.597 53.091C-194.549 53.424 -194.463 53.7087 -194.346 53.9422C-194.227 54.1794 -194.043 54.3683 -193.793 54.519C-193.541 54.6706 -193.211 54.8269 -192.81 54.9952C-192.106 55.2622 -191.644 55.6146 -191.426 56.0471C-191.207 56.4825 -191.081 57.2184 -191.048 58.2547V70.9375C-191.048 72.6426 -191.332 73.8229 -191.903 74.4732C-192.474 75.1243 -193.514 75.4501 -195.025 75.4501C-196.535 75.4501 -197.577 75.1243 -198.148 74.4732C-198.719 73.8211 -199.005 72.6099 -199.005 70.8378V46.9244C-199.005 45.8882 -198.936 45.0536 -198.802 44.4174C-198.667 43.7829 -198.418 43.2891 -198.047 42.9384C-197.677 42.5886 -197.155 42.3476 -196.485 42.2127C-195.621 42.0623 -194.745 41.9952 -193.868 42.012H-168.338C-167.295 42.012 -166.448 42.0706 -165.792 42.1869C-165.139 42.305 -164.626 42.5458 -164.258 42.9123C-163.888 43.2816 -163.646 43.7999 -163.528 44.4669C-163.411 45.1366 -163.35 46.0204 -163.35 47.1255V72.9431ZM-140.591 60.9608C-140.591 61.7645 -140.641 62.4241 -140.741 62.9422C-140.843 63.4604 -141.026 63.8536 -141.295 64.1206C-141.564 64.3876 -141.949 64.5701 -142.454 64.6715C-143.119 64.785 -143.794 64.836 -144.468 64.8229H-149.45C-150.592 64.8229 -151.323 64.9813 -151.641 65.2985C-151.96 65.6148 -152.12 66.3439 -152.12 67.4788V69.0827C-152.12 69.6864 -152.096 70.1615 -152.044 70.5113C-152.017 70.8155 -151.884 71.1004 -151.667 71.3162C-151.432 71.5143 -151.142 71.6362 -150.835 71.6659C-150.359 71.7236 -149.879 71.7487 -149.4 71.7413H-146.429C-145.692 71.7413 -145.171 71.6231 -144.868 71.3887C-144.566 71.1552 -144.381 70.7383 -144.314 70.1355L-144.214 69.2836C-144.112 68.1487 -143.525 67.5812 -142.451 67.5812C-141.21 67.5812 -140.588 68.449 -140.588 70.1876V71.5905C-140.588 72.4249 -140.639 73.0947 -140.738 73.5961C-140.809 74.0333 -141.001 74.4408 -141.293 74.7738C-141.562 75.0576 -141.947 75.2417 -142.451 75.3255C-143.119 75.4194 -143.792 75.4613 -144.467 75.4501H-155.191C-155.997 75.4501 -156.661 75.4083 -157.18 75.3255C-157.704 75.2417 -158.095 75.0576 -158.364 74.7738C-158.656 74.4415 -158.849 74.0332 -158.919 73.5961C-159.031 72.9336 -159.081 72.2622 -159.068 71.5905V55.799C-159.068 54.9292 -159.028 54.236 -158.943 53.7178C-158.859 53.1969 -158.673 52.7971 -158.387 52.5143C-158.061 52.2103 -157.648 52.0172 -157.206 51.9627C-156.539 51.868 -155.864 51.826 -155.191 51.8371H-144.467C-143.627 51.8371 -142.946 51.8799 -142.425 51.9627C-141.907 52.0455 -141.512 52.2297 -141.242 52.5143C-140.974 52.798 -140.798 53.1997 -140.715 53.7178C-140.631 54.236 -140.588 54.9292 -140.588 55.799V60.9608H-140.591ZM-144.264 58.1077C-144.264 56.9728 -144.424 56.2435 -144.742 55.9272C-145.061 55.6072 -145.791 55.4492 -146.931 55.4492H-152.724C-153.328 55.4492 -153.807 55.4734 -154.158 55.5245C-154.458 55.5506 -154.741 55.6732 -154.965 55.875C-155.168 56.0983 -155.291 56.3804 -155.317 56.679C-155.367 57.0297 -155.393 57.5068 -155.393 58.1077V58.4585C-155.393 59.0585 -155.369 59.5364 -155.317 59.8862C-155.267 60.2369 -155.15 60.5132 -154.965 60.7141C-154.779 60.9132 -154.513 61.0389 -154.158 61.09C-153.807 61.1375 -153.328 61.1645 -152.724 61.1645H-146.933C-145.791 61.1645 -145.061 61.0055 -144.744 60.6901C-144.424 60.371 -144.264 59.6259 -144.264 58.4576V58.1077ZM-134.851 46.423C-134.851 45.2547 -134.715 44.4436 -134.446 43.9915C-134.177 43.5422 -133.692 43.3152 -132.988 43.3152C-132.281 43.3152 -131.796 43.5329 -131.527 43.9683C-131.258 44.4008 -131.123 45.2025 -131.123 46.3736V49.9328C-131.123 50.7347 -131.048 51.2342 -130.897 51.437C-130.747 51.6361 -130.349 51.7543 -129.715 51.7878C-128.168 51.8213 -127.397 52.4408 -127.397 53.6417C-127.397 54.8455 -128.101 55.4631 -129.514 55.4985C-130.251 55.532 -130.711 55.6473 -130.897 55.8492C-131.082 56.0501 -131.175 56.5515 -131.175 57.3534V58.4053C-131.175 59.2071 -131.073 59.7513 -130.873 60.035C-130.67 60.3197 -130.216 60.5439 -129.512 60.7122C-128.808 60.9132 -128.354 61.1803 -128.154 61.5134C-127.951 61.8483 -127.851 62.5171 -127.851 63.5199V71.1904C-127.851 72.0583 -127.892 72.7683 -127.976 73.319C-128.061 73.8734 -128.227 74.305 -128.479 74.625C-128.743 74.9497 -129.106 75.1784 -129.512 75.2761C-130.073 75.4061 -130.649 75.4646 -131.225 75.4501C-132.264 75.4501 -133.021 75.3578 -133.49 75.1755C-133.961 74.9913 -134.313 74.6324 -134.549 74.0976C-134.694 73.7909 -134.779 73.4592 -134.8 73.1206C-134.841 72.4781 -134.857 71.8342 -134.848 71.1904V57.6538L-134.901 56.8027C-134.901 56.3338 -134.977 56.0239 -135.126 55.8722C-135.279 55.7234 -135.571 55.6146 -136.007 55.5485L-136.663 55.4985C-137.938 55.3971 -138.576 54.7962 -138.576 53.692C-138.576 52.4566 -137.871 51.8371 -136.461 51.8371C-136.092 51.8371 -135.797 51.8138 -135.581 51.7617C-135.48 51.742 -135.386 51.7003 -135.303 51.6399C-135.22 51.5794 -135.151 51.5015 -135.102 51.4118C-134.983 51.1597 -134.915 50.8873 -134.901 50.6101C-134.867 50.2594 -134.851 49.7822 -134.851 49.1813V46.423ZM-105.242 71.5905C-105.242 72.4249 -105.289 73.0947 -105.391 73.5961C-105.462 74.0333 -105.653 74.4408 -105.946 74.7738C-106.214 75.0576 -106.6 75.2417 -107.104 75.3255C-107.771 75.4194 -108.443 75.4613 -109.117 75.4501H-119.844C-120.65 75.4501 -121.312 75.4008 -121.833 75.2994C-122.354 75.1999 -122.749 75.0148 -123.017 74.7478C-123.284 74.4808 -123.47 74.0872 -123.569 73.57C-123.681 72.9163 -123.732 72.2536 -123.721 71.5905V65.1718C-123.721 64.3039 -123.679 63.6109 -123.596 63.09C-123.512 62.5728 -123.326 62.1727 -123.041 61.889C-122.715 61.5851 -122.301 61.3923 -121.859 61.3376C-121.354 61.2529 -120.684 61.2127 -119.844 61.2127H-111.586C-111.016 61.2127 -110.554 61.1775 -110.202 61.1105C-109.901 61.0694 -109.619 60.9384 -109.393 60.7346C-109.189 60.5113 -109.058 60.2323 -109.017 59.9328C-108.942 59.477 -108.909 59.0155 -108.917 58.5532V58.1049C-108.917 57.5375 -108.941 57.075 -108.993 56.7253C-109.019 56.4259 -109.143 56.1437 -109.345 55.9216C-109.568 55.7203 -109.851 55.5973 -110.15 55.5709C-110.626 55.5137 -111.106 55.4887 -111.586 55.4957H-117.629C-118.466 55.4957 -119.047 55.5811 -119.366 55.7467C-119.684 55.9141 -119.877 56.2808 -119.943 56.8511L-120.046 57.5504C-120.213 58.6555 -120.817 59.2064 -121.859 59.2064C-122.563 59.2064 -123.049 59.0054 -123.317 58.6035C-123.586 58.2016 -123.721 57.4685 -123.721 56.3988V55.798C-123.721 54.9283 -123.679 54.235 -123.596 53.7169C-123.512 53.196 -123.326 52.7962 -123.041 52.5134C-122.714 52.2097 -122.301 52.0167 -121.859 51.9617C-121.354 51.879 -120.684 51.8362 -119.844 51.8362H-109.067C-108.23 51.8362 -107.556 51.879 -107.055 51.9617C-106.55 52.0445 -106.165 52.2287 -105.895 52.5134C-105.627 52.7971 -105.451 53.1988 -105.365 53.7169C-105.282 54.235 -105.242 54.9283 -105.242 55.798V71.5905ZM-114.103 64.8722C-115.245 64.8722 -115.976 65.0306 -116.292 65.3478C-116.613 65.665 -116.773 66.3932 -116.773 67.529V69.1327C-116.773 69.7355 -116.749 70.2118 -116.696 70.5606C-116.669 70.8648 -116.535 71.1506 -116.318 71.3655C-116.084 71.5636 -115.794 71.6855 -115.487 71.7152C-115.136 71.7655 -114.655 71.7913 -114.053 71.7913H-111.586C-111.016 71.7913 -110.554 71.758 -110.202 71.6892C-109.901 71.6489 -109.619 71.519 -109.393 71.3162C-109.192 71.0992 -109.061 70.8268 -109.017 70.5346C-108.951 70.2034 -108.917 69.7522 -108.917 69.1848V67.6808C-108.917 67.0445 -108.941 66.5448 -108.993 66.1755C-109.02 65.8623 -109.143 65.5652 -109.345 65.3245C-109.561 65.108 -109.846 64.974 -110.15 64.9459C-110.626 64.8901 -111.107 64.8648 -111.586 64.8722H-114.103ZM-82.6839 71.5905C-82.6839 72.4249 -82.7359 73.0947 -82.8362 73.5961C-82.9059 74.0333 -83.0982 74.4408 -83.3898 74.7738C-83.6592 75.0576 -84.0447 75.2417 -84.5491 75.3255C-85.2151 75.4194 -85.8886 75.4613 -86.5611 75.4501H-97.2891C-98.1288 75.4501 -98.8004 75.4083 -99.3048 75.3255C-99.747 75.2708 -100.16 75.0777 -100.486 74.7738C-100.791 74.4502 -100.986 74.0376 -101.041 73.5961C-101.137 72.932 -101.178 72.2613 -101.167 71.5905V69.9347C-101.167 68.7998 -101.032 68.0231 -100.763 67.6045C-100.497 67.1859 -100.026 66.9776 -99.3541 66.9776C-98.7168 66.9776 -98.2719 67.1429 -98.0202 67.4797C-97.7675 67.8127 -97.6087 68.4492 -97.5418 69.3859C-97.5083 70.4557 -97.3393 71.1311 -97.0374 71.4148C-96.7355 71.6985 -96.0806 71.8406 -95.0746 71.8406H-92.4058C-91.8011 71.8406 -91.3227 71.8083 -90.9688 71.7413C-90.6688 71.6985 -90.3882 71.5673 -90.1644 71.3636C-89.96 71.1404 -89.829 70.8611 -89.7863 70.5634C-89.7194 70.2109 -89.6869 69.7522 -89.6869 69.1848V67.529C-89.6869 66.3941 -89.8448 65.6743 -90.1625 65.3738C-90.483 65.0734 -91.214 64.9244 -92.3547 64.9244H-97.3393C-98.1456 64.9244 -98.8069 64.8724 -99.3281 64.7738C-99.8492 64.6715 -100.244 64.4797 -100.513 64.1969C-100.805 63.8641 -100.997 63.4557 -101.067 63.0185C-101.18 62.3563 -101.23 61.6847 -101.217 61.0129V55.799C-101.217 54.9292 -101.175 54.236 -101.091 53.7178C-101.008 53.1969 -100.823 52.7971 -100.537 52.5143C-100.211 52.2104 -99.7962 52.0174 -99.3541 51.9627C-98.8497 51.8799 -98.179 51.8371 -97.3393 51.8371H-86.5156C-85.6731 51.8371 -85.0015 51.8799 -84.4999 51.9627C-84.0568 52.0176 -83.6416 52.2101 -83.3146 52.5143C-83.0294 52.798 -82.8464 53.1997 -82.761 53.7178C-82.6774 54.236 -82.6346 54.9292 -82.6346 55.799V56.852C-82.6346 57.7199 -82.7777 58.3374 -83.0628 58.7057C-83.349 59.0732 -83.8264 59.2575 -84.498 59.2575C-85.1046 59.2575 -85.5486 59.1059 -85.8319 58.8083C-86.118 58.505 -86.3122 58.0036 -86.4125 57.3013C-86.4794 56.5329 -86.6652 56.0408 -86.9671 55.8222C-87.269 55.6055 -87.9229 55.4966 -88.9298 55.4966H-94.8721C-95.4434 55.4966 -95.905 55.5291 -96.2562 55.5989C-96.5571 55.6402 -96.8377 55.7712 -97.0634 55.9748C-97.265 56.1962 -97.3885 56.4771 -97.4164 56.7757C-97.4721 57.2334 -97.4981 57.6938 -97.4916 58.1552V58.5569C-97.4916 59.1243 -97.4582 59.5841 -97.3894 59.9338C-97.3476 60.2334 -97.2157 60.5141 -97.0114 60.7383C-96.7884 60.9383 -96.506 61.0612 -96.2069 61.0882C-95.8539 61.1347 -95.3932 61.1617 -94.8229 61.1617H-86.5621C-85.7251 61.1617 -85.0451 61.2138 -84.524 61.3134C-84.002 61.412 -83.61 61.6062 -83.3406 61.8899C-83.0731 62.1736 -82.8966 62.5757 -82.8111 63.091C-82.7275 63.612 -82.6848 64.3048 -82.6848 65.1727L-82.6839 71.5905ZM-78.6059 55.6976C-78.6059 54.8957 -78.5558 54.2425 -78.4564 53.7439C-78.3858 53.3011 -78.1833 52.8899 -77.8767 52.5634C-77.5481 52.2583 -77.136 52.0583 -76.6933 51.9887C-76.1898 51.8864 -75.5526 51.8371 -74.7788 51.8371H-64.0016C-63.1637 51.8371 -62.4903 51.8873 -61.9887 51.9887C-61.4852 52.0883 -61.0997 52.2722 -60.8303 52.5392C-60.5619 52.8071 -60.3779 53.1906 -60.2767 53.692C-60.1764 54.1934 -60.1262 54.8622 -60.1262 55.6976V71.4908C-60.1262 72.3588 -60.1661 73.0519 -60.2525 73.5728C-60.3361 74.0882 -60.5126 74.4901 -60.7801 74.7738C-61.0495 75.0576 -61.4415 75.2417 -61.9627 75.3255C-62.638 75.4185 -63.3207 75.4604 -64.0016 75.4501H-72.5634C-73.5025 75.4501 -74.1332 75.6016 -74.4528 75.8993C-74.7714 76.2026 -74.9293 76.8036 -74.9293 77.7069V81.2174C-74.9293 82.3857 -75.0566 83.1878 -75.3092 83.6222C-75.5591 84.0576 -76.0366 84.2752 -76.7435 84.2752C-77.4476 84.2752 -77.9325 84.0482 -78.2037 83.5961C-78.4703 83.1468 -78.6059 82.3355 -78.6059 81.1653V55.6976ZM-72.2615 55.4464C-73.4031 55.4464 -74.1342 55.6044 -74.45 55.9244C-74.7714 56.2407 -74.9312 56.9673 -74.9312 58.1031V59.5078C-74.9312 60.3124 -74.829 60.8538 -74.6293 61.1376C-74.4258 61.4213 -73.9744 61.6464 -73.2684 61.8138C-72.5634 62.0157 -72.1092 62.2827 -71.9094 62.6185C-71.7079 62.9497 -71.6075 63.6194 -71.6075 64.6222V69.1348C-71.6075 69.7357 -71.5843 70.2108 -71.5314 70.5606C-71.5044 70.8648 -71.3697 71.1506 -71.1524 71.3655C-70.9183 71.5636 -70.6294 71.6855 -70.3229 71.7152C-69.9708 71.7655 -69.4896 71.7913 -68.8886 71.7913H-66.4707C-65.8994 71.7913 -65.4396 71.758 -65.0866 71.6892C-64.7866 71.6483 -64.5051 71.518 -64.2803 71.3162C-64.0759 71.092 -63.944 70.8109 -63.9013 70.5113C-63.8353 70.1615 -63.801 69.7022 -63.801 69.1348V58.1021C-63.801 56.9672 -63.9515 56.2416 -64.2543 55.9254C-64.5562 55.6054 -65.277 55.4464 -66.4186 55.4464H-72.2615ZM-49.0973 71.1876C-49.0973 72.0583 -49.14 72.7683 -49.2236 73.319C-49.3063 73.8706 -49.4753 74.305 -49.728 74.6222C-49.9912 74.9474 -50.3538 75.1769 -50.76 75.2752C-51.3212 75.4066 -51.8968 75.4653 -52.4729 75.4501C-53.5124 75.4501 -54.2574 75.3578 -54.7116 75.1736C-55.163 74.9913 -55.5244 74.6297 -55.7947 74.0976C-55.9393 73.7898 -56.0245 73.4573 -56.0455 73.1178C-56.0868 72.4753 -56.1035 71.8314 -56.0957 71.1876V44.9711C-56.0957 43.8027 -55.9638 43.0006 -55.6944 42.5653C-55.425 42.1299 -54.941 41.9123 -54.2332 41.9123C-53.53 41.9123 -53.0925 42.1299 -52.8231 42.5653C-52.5565 43.0006 -52.4209 43.8027 -52.4209 44.9711V49.382C-52.4209 50.1857 -52.3206 50.731 -52.119 51.0138C-51.9193 51.2976 -51.4641 51.5227 -50.76 51.6883C-50.054 51.8892 -49.6017 52.1571 -49.4001 52.4929C-49.1976 52.8241 -49.0982 53.4929 -49.0982 54.4957V71.1904L-49.0973 71.1876ZM-26.5879 71.5905C-26.5879 72.4249 -26.639 73.0947 -26.7393 73.5961C-26.8099 74.0333 -27.0022 74.4408 -27.293 74.7738C-27.5623 75.0576 -27.9488 75.2417 -28.4522 75.3255C-29.1192 75.4194 -29.7908 75.4613 -30.4652 75.4501H-41.1913C-41.9985 75.4501 -42.659 75.4083 -43.181 75.3255C-43.7012 75.2417 -44.0969 75.0576 -44.3626 74.7738C-44.6547 74.4416 -44.8469 74.0332 -44.9172 73.5961C-45.0313 72.9339 -45.0823 72.2623 -45.0695 71.5905V55.799C-45.0695 54.9292 -45.0277 54.236 -44.9432 53.7178C-44.8577 53.1969 -44.6738 52.7971 -44.3886 52.5143C-44.0635 52.2101 -43.6483 52.0176 -43.2052 51.9627C-42.5382 51.8681 -41.8649 51.8261 -41.1913 51.8371H-30.4652C-29.6273 51.8371 -28.9483 51.8799 -28.4271 51.9627C-27.9051 52.0455 -27.514 52.2297 -27.2428 52.5143C-26.9753 52.798 -26.7997 53.1997 -26.7133 53.7178C-26.6297 54.236 -26.5879 54.9292 -26.5879 55.799V71.5905ZM-38.725 55.4492C-39.8667 55.4492 -40.5949 55.6072 -40.9136 55.9272C-41.2331 56.2435 -41.391 56.9701 -41.391 58.1059V59.5106C-41.391 60.3143 -41.2916 60.8566 -41.0919 61.1403C-40.8894 61.4241 -40.4361 61.6492 -39.7311 61.8166C-39.0269 62.0176 -38.5727 62.2854 -38.3702 62.6203C-38.1705 62.9523 -38.0683 63.6213 -38.0683 64.6241V69.1376C-38.0683 69.7385 -38.0441 70.2136 -37.994 70.5634C-37.968 70.8676 -37.8333 71.1524 -37.6159 71.3683C-37.3809 71.5664 -37.0902 71.6883 -36.7836 71.718C-36.4334 71.7673 -35.9541 71.7934 -35.3485 71.7934H-32.9324C-32.3611 71.7934 -31.9013 71.7608 -31.5464 71.692C-31.2473 71.6501 -30.9686 71.5208 -30.7429 71.318C-30.5367 71.0948 -30.4048 70.8136 -30.363 70.5141C-30.2998 70.1634 -30.2645 69.705 -30.2645 69.1376V58.1021C-30.2645 56.9672 -30.415 56.2407 -30.7178 55.9235C-31.0197 55.6044 -31.7396 55.4454 -32.8822 55.4454L-38.725 55.4492ZM-15.5608 44.9711C-15.5608 46.1394 -15.8023 46.9504 -16.2909 47.3997C-16.7758 47.8518 -17.6927 48.0788 -19.0349 48.0788C-20.4441 48.0788 -21.3944 47.878 -21.8793 47.4752C-22.3669 47.0734 -22.6094 46.3069 -22.6094 45.1692C-22.6094 43.9683 -22.3474 43.1301 -21.8291 42.6622C-21.3089 42.1971 -20.3456 41.9617 -18.9346 41.9617C-17.6592 41.9617 -16.7758 42.17 -16.2909 42.5886C-15.8033 43.0054 -15.5608 43.8009 -15.5608 44.9711ZM-15.5608 71.1904C-15.5608 72.0583 -15.6036 72.7683 -15.6862 73.319C-15.7373 73.7906 -15.9119 74.2399 -16.1888 74.625C-16.4522 74.9495 -16.8148 75.1782 -17.2208 75.2761C-17.6592 75.3933 -18.2287 75.4501 -18.9346 75.4501C-19.9759 75.4501 -20.72 75.3578 -21.1752 75.1755C-21.6266 74.9913 -21.9879 74.6324 -22.2573 74.0976C-22.4022 73.7909 -22.4877 73.4592 -22.5091 73.1206C-22.5509 72.4781 -22.5676 71.8342 -22.5592 71.1904V54.7962C-22.5592 53.6259 -22.4255 52.8239 -22.1551 52.3885C-21.8895 51.955 -21.4009 51.7374 -20.6968 51.7374C-19.9927 51.7374 -19.5542 51.955 -19.2858 52.3885C-19.0164 52.8239 -18.8807 53.6259 -18.8807 54.7962V58.4053C-18.8807 59.2071 -18.7841 59.7513 -18.5816 60.035C-18.3791 60.3197 -17.9277 60.5439 -17.2208 60.7122C-16.5167 60.9132 -16.0634 61.1803 -15.8627 61.5134C-15.6611 61.8483 -15.5608 62.5171 -15.5608 63.5199V71.1904ZM-10.8271 46.423C-10.8271 45.2547 -10.6933 44.4436 -10.4221 43.9915C-10.1546 43.5422 -9.66782 43.3152 -8.96371 43.3152C-8.26052 43.3152 -7.77191 43.5329 -7.50252 43.9683C-7.23314 44.4008 -7.09845 45.2025 -7.09845 46.3736V49.9328C-7.09845 50.7347 -7.02414 51.2342 -6.87273 51.437C-6.72224 51.6361 -6.32746 51.7543 -5.69023 51.7878C-4.14545 51.8213 -3.37259 52.4408 -3.37259 53.6417C-3.37259 54.8455 -4.08042 55.4631 -5.49144 55.4985C-6.22899 55.532 -6.68973 55.6473 -6.87273 55.8492C-7.05851 56.0501 -7.1514 56.5515 -7.1514 57.3534V58.4053C-7.1514 59.2071 -7.05109 59.7513 -6.84952 60.035C-6.64702 60.3197 -6.1937 60.5439 -5.48772 60.7122C-4.78454 60.9132 -4.33308 61.1803 -4.13058 61.5134C-3.92808 61.8483 -3.82776 62.5171 -3.82776 63.5199V71.1904C-3.82776 72.0583 -3.86956 72.7683 -3.95316 73.319C-4.00518 73.7906 -4.1789 74.2399 -4.4585 74.625C-4.7186 74.9487 -5.08179 75.1775 -5.48772 75.2761C-6.04944 75.4062 -6.62526 75.4647 -7.20155 75.4501C-8.24193 75.4501 -8.99808 75.3578 -9.46811 75.1755C-9.93721 74.9913 -10.2883 74.6324 -10.5243 74.0976C-10.6687 73.7907 -10.7545 73.4591 -10.7769 73.1206C-10.8171 72.478 -10.8338 71.8342 -10.8271 71.1904V57.6538L-10.8773 56.8027C-10.8773 56.3338 -10.9516 56.0239 -11.1048 55.8722C-11.2553 55.7234 -11.5479 55.6146 -11.9854 55.5485L-12.6394 55.4985C-13.9139 55.3971 -14.5539 54.7962 -14.5539 53.692C-14.5539 52.4566 -13.8479 51.8371 -12.4369 51.8371C-12.069 51.8371 -11.7746 51.8138 -11.5572 51.7617C-11.4563 51.743 -11.3608 51.7018 -11.278 51.6413C-11.195 51.5807 -11.1267 51.5022 -11.0779 51.4118C-10.9598 51.1601 -10.8917 50.8879 -10.8773 50.6101C-10.842 50.2594 -10.829 49.7822 -10.829 49.1813L-10.8271 46.423ZM36.0039 70.9394C36.0039 71.9404 35.9389 72.7376 35.8033 73.319C35.6954 73.8619 35.3894 74.3451 34.9449 74.6743C34.5102 74.9915 33.8981 75.1999 33.1094 75.3013C32.3198 75.4008 31.2535 75.4501 29.9121 75.4501H16.7671C15.5577 75.4501 14.5842 75.3915 13.8475 75.2752C13.11 75.1571 12.5313 74.9319 12.1114 74.5989C11.6906 74.2649 11.4147 73.7801 11.2791 73.1439C11.1305 72.3346 11.0617 71.5124 11.0766 70.6892V44.5681C11.0766 42.7634 11.7844 41.8604 13.1936 41.8604C13.9664 41.8604 14.5099 42.0706 14.8285 42.4873C15.1499 42.9059 15.3087 43.5988 15.3087 44.5681V51.4873C15.3087 52.4901 15.3923 53.2259 15.5577 53.692C15.7249 54.1599 16.0463 54.4771 16.5172 54.6445L17.3737 55.0471C17.7062 55.2127 17.9858 55.3802 18.2051 55.5485C18.4224 55.7141 18.5896 55.958 18.7067 56.2743C18.8246 56.5915 18.899 57.0436 18.9352 57.6278C18.9668 58.2138 18.9816 58.9736 18.9816 59.9104V67.4297C18.9816 68.265 19.0355 68.9338 19.134 69.4352C19.2362 69.9376 19.4433 70.3104 19.7647 70.5634C20.0842 70.8146 20.5357 70.9804 21.1237 71.0659C21.7108 71.1478 22.5078 71.1904 23.5166 71.1904H28.0979C28.8727 71.1904 29.4922 71.1385 29.9604 71.039C30.3762 70.9669 30.7621 70.7754 31.0714 70.4881C31.3621 70.1736 31.5544 69.7813 31.6241 69.3599C31.7365 68.7394 31.7866 68.1095 31.7727 67.4788V44.5681C31.7727 43.5988 31.9399 42.9059 32.278 42.4873C32.6106 42.0706 33.1512 41.8604 33.8897 41.8604C34.6273 41.8604 35.1642 42.0706 35.5023 42.4873C35.8348 42.9059 36.0039 43.5988 36.0039 44.5681V70.9394ZM54.9397 51.8371C55.7785 51.8371 56.4492 51.8799 56.9545 51.9627C57.3976 52.0185 57.8101 52.211 58.1361 52.5143C58.4222 52.798 58.6062 53.1997 58.6898 53.7178C58.7734 54.236 58.817 54.9292 58.817 55.799V72.3422C58.817 73.5106 58.6795 74.3227 58.412 74.7738C58.1445 75.2231 57.6568 75.4501 56.9536 75.4501C56.2476 75.4501 55.7683 75.2322 55.5166 74.7997C55.2667 74.3643 55.1413 73.5627 55.1413 72.3924V58.1059C55.1413 56.9701 54.9815 56.2416 54.662 55.9244C54.3406 55.6054 53.6132 55.4464 52.4716 55.4464H46.7309C45.5893 55.4464 44.8583 55.6044 44.5406 55.9244C44.222 56.2407 44.0613 56.9673 44.0613 58.1031V59.5078C44.0613 60.3124 44.1616 60.8538 44.3641 61.1376C44.5657 61.4213 45.0171 61.6464 45.7212 61.8138C46.4291 62.0157 46.8805 62.2827 47.0821 62.6185C47.2864 62.9497 47.3849 63.6194 47.3849 64.6222V71.1895C47.3849 72.0583 47.3413 72.7683 47.2577 73.3199C47.1759 73.8706 47.0068 74.3059 46.7551 74.6222C46.4922 74.9478 46.129 75.1776 45.7212 75.2752C45.2865 75.3934 44.7162 75.4501 44.0111 75.4501C42.9354 75.4501 42.1737 75.3578 41.7204 75.1736C41.2653 74.9913 40.9039 74.6297 40.6382 74.0976C40.4922 73.7912 40.4064 73.4594 40.3856 73.1206C40.3446 72.4781 40.3279 71.8342 40.3354 71.1904V55.799C40.3354 54.9292 40.3763 54.236 40.4599 53.7178C40.5463 53.1969 40.7293 52.7971 41.0144 52.5143C41.3414 52.2102 41.7559 52.0172 42.1988 51.9627C42.7004 51.8799 43.3739 51.8371 44.2118 51.8371H54.9397ZM69.8422 71.1876C69.8422 72.0583 69.8023 72.7683 69.7168 73.319C69.6332 73.8706 69.466 74.305 69.2152 74.6222C68.9514 74.9478 68.5901 75.1766 68.1823 75.2752C67.7438 75.3934 67.1772 75.4501 66.4694 75.4501C65.429 75.4501 64.6821 75.3578 64.2288 75.1736C63.7764 74.9913 63.4151 74.6297 63.1457 74.0976C63.0012 73.7897 62.9155 73.4573 62.8931 73.1178C62.8528 72.4752 62.8366 71.8314 62.8448 71.1876V44.9711C62.8448 43.8027 62.9804 43.0006 63.2479 42.5653C63.5154 42.1299 64.0031 41.9123 64.7072 41.9123C65.4132 41.9123 65.8479 42.1299 66.1173 42.5653C66.3867 43.0006 66.5195 43.8027 66.5195 44.9711V49.382C66.5195 50.1857 66.6217 50.731 66.8205 51.0138C67.0249 51.2976 67.4782 51.5227 68.1823 51.6883C68.8883 51.8892 69.3406 52.1571 69.5413 52.4929C69.7419 52.8241 69.8422 53.4929 69.8422 54.4957V71.1904V71.1876ZM92.3525 60.9608C92.3525 61.7645 92.3023 62.4241 92.202 62.9422C92.1008 63.4604 91.9178 63.8536 91.6493 64.1206C91.3799 64.3876 90.9954 64.5701 90.49 64.6715C89.8247 64.7852 89.1501 64.8358 88.4753 64.8229H83.4907C82.3491 64.8229 81.618 64.9813 81.3004 65.2985C80.9817 65.6148 80.8229 66.3439 80.8229 67.4788V69.0827C80.8229 69.6864 80.8461 70.1615 80.8972 70.5113C80.9251 70.8146 81.0579 71.1004 81.2743 71.3162C81.5093 71.5143 81.7992 71.6362 82.1066 71.6659C82.5832 71.7236 83.0616 71.7487 83.5409 71.7413H86.5124C87.25 71.7413 87.7702 71.6231 88.074 71.3887C88.3749 71.1552 88.5607 70.7383 88.6276 70.1355L88.7279 69.2836C88.8264 68.1487 89.4153 67.5812 90.49 67.5812C91.7329 67.5812 92.3525 68.449 92.3525 70.1876V71.5905C92.3525 72.4249 92.3023 73.0947 92.202 73.5961C92.1342 74.0323 91.9419 74.4408 91.6493 74.7738C91.3799 75.0576 90.9954 75.2417 90.49 75.3255C89.8227 75.4197 89.1491 75.4614 88.4753 75.4501H77.751C76.9428 75.4501 76.2796 75.4083 75.7613 75.3255C75.2411 75.2417 74.8453 75.0576 74.5778 74.7738C74.2856 74.4415 74.0931 74.0332 74.0223 73.5961C73.9104 72.9336 73.8601 72.2622 73.8719 71.5905V55.799C73.8719 54.9292 73.9136 54.236 73.9991 53.7178C74.0827 53.1969 74.2685 52.7971 74.5537 52.5143C74.8788 52.2101 75.2931 52.0176 75.7343 51.9627C76.2396 51.8799 76.9112 51.8371 77.751 51.8371H88.4753C89.315 51.8371 89.9949 51.8799 90.5151 51.9627C91.0353 52.0455 91.4301 52.2297 91.6995 52.5143C91.9679 52.798 92.1435 53.1997 92.2262 53.7178C92.3098 54.236 92.3525 54.9292 92.3525 55.799V60.9608ZM88.6777 58.1049C88.6777 56.97 88.517 56.2416 88.1993 55.9244C87.8798 55.6054 87.1515 55.4464 86.0071 55.4464H80.2172C79.6134 55.4464 79.135 55.4706 78.783 55.5227C78.4834 55.5484 78.2004 55.671 77.9767 55.8722C77.7742 56.0955 77.6506 56.3776 77.6256 56.6771C77.5754 57.0269 77.5485 57.505 77.5485 58.1059V58.4557C77.5485 59.0566 77.5754 59.5346 77.6256 59.8843C77.6739 60.2341 77.7909 60.5104 77.9767 60.7122C78.1625 60.9104 78.4281 61.0361 78.783 61.0882C79.136 61.1347 79.6134 61.1617 80.2172 61.1617H86.0071C87.1515 61.1617 87.8798 61.0036 88.1993 60.6883C88.517 60.3692 88.6777 59.6241 88.6777 58.4557V58.1021V58.1049ZM114.862 71.5905C114.862 72.4249 114.812 73.0947 114.71 73.5961C114.641 74.0333 114.449 74.4408 114.156 74.7738C113.89 75.0576 113.501 75.2417 112.999 75.3255C112.332 75.4197 111.66 75.4614 110.986 75.4501H100.258C99.454 75.4501 98.7898 75.4008 98.2687 75.2994C97.7485 75.1999 97.3556 75.0148 97.0881 74.7478C96.8187 74.4808 96.632 74.0872 96.5326 73.57C96.4205 72.9163 96.3698 72.2536 96.3812 71.5905V65.1718C96.3812 64.3039 96.423 63.6109 96.5066 63.09C96.5911 62.5728 96.775 62.1727 97.0612 61.889C97.3881 61.5849 97.8026 61.3921 98.2455 61.3376C98.748 61.2529 99.4206 61.2127 100.258 61.2127H108.518C109.089 61.2127 109.551 61.1775 109.902 61.1105C110.202 61.0696 110.483 60.9383 110.707 60.7346C110.911 60.5113 111.045 60.2323 111.085 59.9328C111.152 59.583 111.187 59.1215 111.187 58.5532V58.1049C111.187 57.5375 111.162 57.075 111.112 56.7253C111.085 56.426 110.96 56.1439 110.759 55.9216C110.535 55.7206 110.252 55.5976 109.953 55.5709C109.477 55.5138 108.998 55.4887 108.518 55.4957H102.476C101.636 55.4957 101.055 55.5811 100.737 55.7467C100.417 55.9141 100.225 56.2808 100.158 56.8511L100.06 57.5504C99.8887 58.6555 99.285 59.2064 98.2455 59.2064C97.5395 59.2064 97.0528 59.0054 96.7834 58.6035C96.5159 58.2016 96.3812 57.4685 96.3812 56.3988V55.798C96.3812 54.9283 96.423 54.235 96.5066 53.7169C96.5911 53.196 96.775 52.7962 97.0612 52.5134C97.3882 52.2094 97.8026 52.0164 98.2455 51.9617C98.748 51.879 99.4206 51.8362 100.258 51.8362H111.035C111.874 51.8362 112.546 51.879 113.05 51.9617C113.551 52.0445 113.94 52.2287 114.208 52.5134C114.474 52.7971 114.655 53.1988 114.736 53.7169C114.82 54.235 114.862 54.9283 114.862 55.798V71.5905ZM105.998 64.8722C104.859 64.8722 104.129 65.0306 103.81 65.3478C103.492 65.665 103.329 66.3932 103.329 67.529V69.1327C103.329 69.7355 103.356 70.2118 103.407 70.5606C103.432 70.8657 103.567 71.1506 103.785 71.3655C104.019 71.5636 104.308 71.6855 104.614 71.7152C105.091 71.7729 105.569 71.7988 106.048 71.7913H108.518C109.089 71.7913 109.551 71.758 109.902 71.6892C110.202 71.6483 110.483 71.518 110.707 71.3162C110.909 71.0994 111.041 70.8276 111.085 70.5346C111.152 70.2034 111.187 69.7522 111.187 69.1848V67.6808C111.187 67.0445 111.162 66.5448 111.112 66.1755C111.083 65.8624 110.96 65.5657 110.759 65.3245C110.542 65.1081 110.257 64.9742 109.953 64.9459C109.477 64.8894 108.998 64.8646 108.518 64.8722H105.998ZM137.418 71.5905C137.418 72.4249 137.367 73.0947 137.265 73.5961C137.197 74.0333 137.004 74.4408 136.712 74.7738C136.444 75.0576 136.057 75.2417 135.555 75.3255C134.888 75.4194 134.214 75.4613 133.54 75.4501H122.812C121.976 75.4501 121.303 75.4083 120.801 75.3255C120.358 75.2705 119.943 75.0776 119.615 74.7738C119.311 74.4496 119.118 74.0372 119.062 73.5961C118.968 72.9319 118.926 72.2613 118.937 71.5905V69.9347C118.937 68.7998 119.072 68.0231 119.339 67.6045C119.609 67.1859 120.077 66.9776 120.751 66.9776C121.387 66.9776 121.834 67.1429 122.083 67.4797C122.336 67.8127 122.495 68.4492 122.563 69.3859C122.597 70.4557 122.764 71.1311 123.067 71.4148C123.368 71.6985 124.021 71.8406 125.032 71.8406H127.699C128.18 71.8498 128.66 71.8167 129.135 71.7413C129.436 71.6994 129.714 71.5673 129.939 71.3636C130.142 71.1404 130.274 70.8611 130.316 70.5634C130.383 70.2109 130.418 69.7522 130.418 69.1848V67.529C130.418 66.3941 130.259 65.6743 129.939 65.3738C129.619 65.0734 128.892 64.9244 127.75 64.9244H122.764C121.96 64.9244 121.295 64.8724 120.774 64.7738C120.254 64.6715 119.861 64.4797 119.592 64.1969C119.299 63.8646 119.107 63.4561 119.038 63.0185C118.922 62.3565 118.872 61.6848 118.887 61.0129V55.799C118.887 54.9292 118.929 54.236 119.012 53.7178C119.097 53.1969 119.281 52.7971 119.565 52.5143C119.893 52.2101 120.308 52.0176 120.751 51.9627C121.253 51.8799 121.924 51.8371 122.764 51.8371H133.591C134.429 51.8371 135.102 51.8799 135.605 51.9627C136.048 52.0185 136.463 52.211 136.789 52.5143C137.073 52.798 137.259 53.1997 137.342 53.7178C137.426 54.236 137.468 54.9292 137.468 55.799V56.852C137.468 57.7199 137.326 58.3374 137.04 58.7057C136.753 59.0732 136.277 59.2575 135.605 59.2575C135.002 59.2575 134.557 59.1059 134.271 58.8083C133.985 58.505 133.793 58.0036 133.689 57.3013C133.624 56.5329 133.44 56.0408 133.137 55.8222C132.836 55.6055 132.18 55.4966 131.173 55.4966H125.23C124.66 55.4966 124.198 55.5291 123.845 55.5989C123.546 55.6403 123.267 55.7714 123.043 55.9748C122.84 56.1959 122.716 56.4771 122.687 56.7757C122.632 57.2334 122.607 57.6938 122.614 58.1552V58.5569C122.614 59.1243 122.647 59.5841 122.714 59.9338C122.754 60.2343 122.888 60.5141 123.092 60.7383C123.276 60.9197 123.544 61.0361 123.896 61.0882C124.25 61.1347 124.712 61.1617 125.282 61.1617H133.54C134.379 61.1617 135.058 61.2138 135.58 61.3134C136.1 61.412 136.494 61.6062 136.764 61.8899C137.033 62.1736 137.209 62.5757 137.292 63.091C137.376 63.612 137.418 64.3048 137.418 65.1727V71.5905ZM159.978 72.3422C159.978 73.5106 159.843 74.3227 159.574 74.7738C159.305 75.2231 158.82 75.4501 158.113 75.4501C157.409 75.4501 156.93 75.2322 156.678 74.7978C156.427 74.3643 156.3 73.5627 156.3 72.3924V58.1059C156.3 56.9673 156.141 56.2416 155.822 55.9226C155.504 55.6054 154.773 55.4492 153.633 55.4492H147.893C146.751 55.4464 146.02 55.6054 145.703 55.9226C145.383 56.2416 145.222 56.9673 145.222 58.1031V59.5078C145.222 60.3097 145.323 60.8538 145.527 61.1376C145.726 61.4213 146.181 61.6464 146.883 61.8138C147.59 62.0157 148.042 62.2827 148.244 62.6157C148.445 62.9496 148.549 63.6194 148.549 64.6222V71.1876C148.549 72.0583 148.505 72.7683 148.422 73.319C148.338 73.8706 148.169 74.305 147.916 74.6222C147.655 74.9478 147.291 75.1776 146.883 75.2752C146.449 75.3934 145.878 75.4501 145.172 75.4501C144.097 75.4501 143.335 75.3578 142.881 75.1736C142.427 74.9913 142.066 74.6297 141.798 74.0976C141.653 73.7899 141.568 73.4574 141.548 73.1178C141.504 72.4754 141.487 71.8314 141.496 71.1876V44.9711C141.496 43.8027 141.631 43.0006 141.901 42.5653C142.17 42.1299 142.655 41.9123 143.36 41.9123C144.066 41.9123 144.544 42.1299 144.795 42.5653C145.047 43.0006 145.172 43.8027 145.172 44.9711V49.5336C145.172 50.4369 145.333 51.0471 145.652 51.3643C145.97 51.6806 146.599 51.839 147.538 51.839H156.101C156.941 51.839 157.611 51.8827 158.113 51.9655C158.556 52.0194 158.972 52.2129 159.298 52.5162C159.584 52.7999 159.766 53.2025 159.852 53.7197C159.935 54.2378 159.978 54.931 159.978 55.8017V72.345V72.3422ZM182.486 60.9608C182.486 61.7645 182.435 62.4241 182.335 62.9422C182.233 63.4604 182.051 63.8536 181.781 64.1206C181.513 64.3876 181.127 64.5701 180.623 64.6715C179.958 64.785 179.284 64.836 178.608 64.8229H173.624C172.482 64.8229 171.751 64.9813 171.433 65.2985C171.114 65.6148 170.954 66.3439 170.954 67.4788V69.0827C170.954 69.6864 170.98 70.1615 171.03 70.5113C171.057 70.8155 171.191 71.1004 171.41 71.3162C171.644 71.5143 171.933 71.6362 172.24 71.6659C172.715 71.723 173.195 71.7482 173.674 71.7413H176.646C177.383 71.7413 177.904 71.6231 178.205 71.3887C178.508 71.1552 178.694 70.7383 178.761 70.1355L178.861 69.2836C178.963 68.1487 179.549 67.5812 180.623 67.5812C181.865 67.5812 182.486 68.449 182.486 70.1876V71.5905C182.486 72.4249 182.435 73.0947 182.335 73.5961C182.265 74.0323 182.073 74.4408 181.781 74.7738C181.513 75.0576 181.127 75.2417 180.623 75.3255C179.956 75.4194 179.282 75.4613 178.608 75.4501H167.884C167.218 75.4594 166.555 75.4176 165.894 75.3255C165.374 75.2417 164.979 75.0576 164.71 74.7738C164.418 74.4417 164.227 74.0331 164.158 73.5961C164.042 72.9341 163.992 72.2624 164.007 71.5905V55.799C164.007 54.9292 164.049 54.236 164.132 53.7178C164.216 53.1969 164.401 52.7971 164.685 52.5143C165.012 52.2107 165.426 52.0177 165.869 51.9627C166.373 51.8799 167.042 51.8371 167.884 51.8371H178.608C179.448 51.8371 180.128 51.8799 180.65 51.9627C181.168 52.0455 181.563 52.2297 181.832 52.5143C182.099 52.798 182.277 53.1997 182.36 53.7178C182.446 54.236 182.486 54.9292 182.486 55.799V60.9608ZM178.811 58.1049C178.811 56.97 178.652 56.2416 178.332 55.9244C178.013 55.6054 177.283 55.4464 176.142 55.4464H170.35C169.747 55.4464 169.268 55.4706 168.915 55.5227C168.616 55.5487 168.332 55.6713 168.11 55.8722C167.907 56.0955 167.784 56.3776 167.757 56.6771C167.707 57.0269 167.682 57.505 167.682 58.1059V58.4557C167.682 59.0566 167.707 59.5346 167.757 59.8843C167.787 60.1895 167.911 60.4778 168.11 60.7122C168.327 60.9271 168.611 61.0602 168.915 61.0882C169.268 61.1347 169.747 61.1617 170.35 61.1617H176.142C177.283 61.1617 178.013 61.0036 178.332 60.6883C178.652 60.3692 178.811 59.6241 178.811 58.4557V58.1021V58.1049ZM204.997 71.5905C204.997 72.3589 204.947 72.9922 204.844 73.4946C204.772 73.9359 204.571 74.3459 204.266 74.6724C203.98 74.9562 203.595 75.1571 203.107 75.2752C202.622 75.3934 201.99 75.4501 201.218 75.4501H190.392C189.587 75.4501 188.923 75.4083 188.403 75.3255C187.883 75.2417 187.489 75.0576 187.219 74.7738C186.929 74.4408 186.736 74.0327 186.666 73.5961C186.553 72.9336 186.503 72.2622 186.515 71.5905V55.7467C186.515 54.9122 186.555 54.2332 186.642 53.7178C186.726 53.1969 186.908 52.7971 187.194 52.5143C187.521 52.2103 187.935 52.0173 188.378 51.9627C188.883 51.8799 189.554 51.8371 190.392 51.8371H199.003C199.942 51.8371 200.564 51.679 200.867 51.3627C201.168 51.0427 201.321 50.4341 201.321 49.5308V44.9683C201.321 43.7999 201.453 42.9978 201.722 42.5625C201.99 42.1271 202.462 41.9095 203.133 41.9095C203.871 41.9095 204.366 42.1271 204.619 42.5625C204.87 42.9978 204.997 43.7999 204.997 44.9683V71.5905ZM192.861 55.4464C191.719 55.4464 190.988 55.6044 190.668 55.9226C190.351 56.2416 190.191 56.9673 190.191 58.1031V59.5078C190.191 60.3097 190.291 60.8538 190.493 61.1376C190.695 61.4213 191.149 61.6464 191.851 61.8138C192.558 62.0157 193.011 62.2827 193.212 62.6157C193.414 62.9496 193.515 63.6194 193.515 64.6222V69.1327C193.515 69.7355 193.538 70.2118 193.59 70.5606C193.619 70.8648 193.752 71.1497 193.968 71.3655C194.202 71.5636 194.493 71.6855 194.798 71.7152C195.275 71.7729 195.755 71.7988 196.233 71.7913H198.651C199.223 71.7913 199.682 71.758 200.035 71.6892C200.341 71.6436 200.631 71.5134 200.867 71.3134C201.084 71.0966 201.226 70.8155 201.271 70.5113C201.344 70.0555 201.378 69.5941 201.371 69.1327V58.1021C201.371 56.9672 201.211 56.2407 200.892 55.9216C200.574 55.6044 199.843 55.4482 198.702 55.4482L192.861 55.4464Z" fill="white"/>
</g>
</g>
</mask>
<g mask="url(#mask0_3164_31932)">
<path d="M206 0H10V80H206V0Z" fill="url(#paint0_linear_3164_31932)"/>
</g>
<defs>
<linearGradient id="paint0_linear_3164_31932" x1="10" y1="40" x2="206" y2="40" gradientUnits="userSpaceOnUse">
<stop stop-color="#6719D0"/>
<stop offset="1" stop-color="#00BFCB"/>
</linearGradient>
</defs>
</svg>
