<?xml version="1.0" encoding="UTF-8"?> <svg xmlns="http://www.w3.org/2000/svg" width="36" height="36" viewBox="0 0 36 36" fill="none"><g clip-path="url(#clip0_4513_18029)"><path fill-rule="evenodd" clip-rule="evenodd" d="M7.36377 7.89394C7.36377 3.53424 10.898 0 15.2577 0C18.2999 0 20.9402 1.72095 22.2582 4.24243H33.818V6.24243H22.9786C23.092 6.77504 23.1516 7.32752 23.1516 7.89394V8.48486H33.818V10.4849H23.1516V12.6667H26.5152C26.6843 12.6667 26.8486 12.6877 27.0055 12.7272H33.818V14.7272H28.5152V16.9697H33.818V18.9697H28.5152V34C28.5152 35.1046 27.6197 36 26.5152 36H4C2.89543 36 2 35.1046 2 34V14.6667C2 13.5621 2.89543 12.6667 4 12.6667H7.36377V7.89394ZM21.1516 7.89394V12.6667H9.36377V7.89394C9.36377 4.63881 12.0026 2 15.2577 2C18.5128 2 21.1516 4.63881 21.1516 7.89394ZM26.5152 14.6667H4L4 34L26.5152 34V14.6667ZM16.7965 25.0495L15.9089 25.6435V30.8182H14.6059V25.6434L13.7185 25.0493C12.9704 24.5485 12.4849 23.7018 12.4849 22.7424C12.4849 21.2111 13.7263 19.9697 15.2576 19.9697C16.7889 19.9697 18.0303 21.2111 18.0303 22.7424C18.0303 23.7019 17.5447 24.5487 16.7965 25.0495ZM20.0303 22.7424C20.0303 24.3972 19.1881 25.8553 17.9089 26.7115V32.8181H12.6059V26.7113C11.3269 25.8551 10.4849 24.3971 10.4849 22.7424C10.4849 20.1065 12.6217 17.9697 15.2576 17.9697C17.8935 17.9697 20.0303 20.1065 20.0303 22.7424Z" fill="#0099CE"></path></g><defs><clipPath id="clip0_4513_18029"><rect width="36" height="36" fill="white"></rect></clipPath></defs></svg> 