<svg xmlns="http://www.w3.org/2000/svg" fill="none" viewBox="0 0 215 80">
  <g clip-path="url(#a)">
    <mask id="b" width="215" height="80" x="0" y="0" maskUnits="userSpaceOnUse" style="mask-type:luminance">
      <path fill="#fff" d="M214.831 0H.169v80H214.83V0Z"/>
    </mask>
    <g mask="url(#b)">
      <mask id="c" width="215" height="58" x="0" y="11" maskUnits="userSpaceOnUse" style="mask-type:alpha">
        <path fill="#fff" fill-rule="evenodd" d="M205.741 55.892h-5.282V45.73h4.94c1.201 0 2.058.033 3.018.172 2.986.377 4.668 1.922 4.668 4.874 0 2.884-1.887 4.806-4.836 5.047-.996.068-1.581.068-2.508.068Zm7.515 5.974c-.275-2.61-1.373-4.737-3.466-5.46 2.781-.582 4.702-2.677 4.702-5.733 0-3.536-2.164-5.458-5.766-5.906-1.097-.134-2.126-.17-3.327-.17h-6.245v23.69h1.305V57.024h5.249c.549 0 1.337 0 2.057.033 2.746.139 3.878 2.405 4.187 5.016.376 3.293.86 4.702 1.408 6.212h1.474c-.718-1.442-1.2-2.985-1.578-6.42Zm-32.179-4.876h12.56v-1.098h-12.56V45.695h13.348v-1.098h-14.651v23.69h14.995v-1.134h-13.692V56.99Zm-23.671-11.294h8.889v22.59h1.303v-22.59h8.922v-1.099h-19.114v1.099Zm-4.898-1.099v12.6c0 3.088 0 6.761.069 9.855l-13.52-22.455h-1.99v23.69h1.304V55.653c0-3.093 0-6.731-.068-9.822l13.486 22.454h2.024l-.035-23.689h-1.27Zm-22.365 15.519c0 .787-.033 1.44-.101 2.127-.276 2.988-2.267 5.39-6.555 5.39-4.256 0-6.245-2.402-6.52-5.39a20.493 20.493 0 0 1-.104-2.127V44.597h-1.304v15.484c0 .584.035 1.305.103 2.266.275 3.706 2.849 6.42 7.825 6.42 5.008 0 7.582-2.714 7.857-6.42.071-.961.104-1.682.104-2.266V44.597h-1.305v15.519Zm-29.167-11.837H87.449V34.45h-8.823v33.837h8.823V55.144h13.527v13.142h8.823V34.45h-8.823v13.83Zm-45.308-2.584h8.889v22.591h1.304v-22.59h8.92v-1.099H55.668v1.099ZM39.79 56.99h12.557v-1.098H39.79V45.695h13.346v-1.098h-14.65v23.69H53.48v-1.134H39.79V56.99Zm-16.095-8.074c0 1.963.049 5.444.294 8.876L11.147 34.45H.169v33.836h8.823V54.31c0-1.96 0-4.952-.296-8.384l12.305 22.361h11.517V34.45h-8.823v14.466ZM131.832 29.15h2.802V11.559h-2.802V29.15Zm-14.088-17.594h-2.805V29.15h12.158v-2.322h-9.353V11.556Zm-17.63 9.561 2.446-7.24 2.317 7.24h-4.763Zm.687-9.561-6.32 17.595h2.982l1.91-5.814h6.245l1.911 5.814h3.031l-6.141-17.595h-3.618Zm-11.795 0-8.182 8.95v-8.95h-2.802V29.15h2.802v-5.662l1.556-1.682 5.784 7.344h3.749l-7.495-9.077 7.9-8.518h-3.312Z" clip-rule="evenodd"/>
      </mask>
      <g mask="url(#c)">
        <path fill="url(#d)" d="M.169-.144H214.83v80H.169v-80Z"/>
      </g>
    </g>
  </g>
  <defs>
    <linearGradient id="d" x1=".169" x2="214.831" y1="39.856" y2="39.856" gradientUnits="userSpaceOnUse">
      <stop stop-color="#6719D0"/>
      <stop offset="1" stop-color="#00BFCB"/>
    </linearGradient>
    <clipPath id="a">
      <path fill="#fff" d="M0 0h215v80H0z"/>
    </clipPath>
  </defs>
</svg>
