<svg width="413" height="176" viewBox="0 0 413 176" fill="none" xmlns="http://www.w3.org/2000/svg">
<rect width="413" height="176" fill="url(#paint0_linear_2919_7989)"/>
<g clip-path="url(#clip0_2919_7989)">
<path d="M206.762 12.0918C248.589 12.0918 282.496 46.018 282.496 87.8678C282.496 129.718 248.589 163.644 206.762 163.644C164.936 163.644 131.028 129.718 131.028 87.8678C131.028 46.018 164.936 12.0918 206.762 12.0918Z" fill="url(#paint1_radial_2919_7989)"/>
<path opacity="0.2" d="M290.993 76.5767C270.972 49.643 242.371 33.4927 210.463 31.0946C178.554 28.6964 146.931 40.9448 123.371 64.6782C121.527 66.5266 121.549 69.5173 123.402 71.3404L184.689 149.716C184.689 149.716 184.708 149.717 184.726 149.718C188.111 154.873 193.754 158.476 200.37 158.973C206.985 159.471 212.63 156.981 216.742 152.711C216.742 152.711 216.742 152.711 216.74 152.73L290.023 83.1824C292.11 81.6361 292.56 78.6807 290.993 76.5767Z" fill="#6619D0"/>
<path opacity="0.2" d="M278.577 79.2524C261.459 56.2239 237.004 42.4151 209.723 40.3646C182.441 38.3142 155.402 48.7864 135.259 69.0792C133.681 70.659 133.7 73.2167 135.285 74.7752L187.686 141.787C187.686 141.787 187.702 141.788 187.718 141.79C190.612 146.197 195.437 149.278 201.093 149.702C206.749 150.127 211.576 147.998 215.091 144.349C215.091 144.349 215.091 144.349 215.09 144.364L277.748 84.9004C279.533 83.5785 279.916 81.0515 278.577 79.2524Z" fill="#6619D0"/>
<path opacity="0.5" d="M269.027 81.3104C254.142 61.2858 232.878 49.2783 209.154 47.4951C185.431 45.7122 161.92 54.8187 144.404 72.4637C143.033 73.838 143.049 76.0615 144.427 77.4172L189.992 135.688C189.992 135.688 190.006 135.689 190.02 135.689C192.537 139.522 196.733 142.2 201.65 142.571C206.569 142.94 210.766 141.089 213.823 137.915C213.823 137.915 213.823 137.915 213.822 137.929L268.305 86.2219C269.858 85.0724 270.192 82.8748 269.027 81.3104Z" fill="url(#paint2_linear_2919_7989)"/>
<mask id="mask0_2919_7989" style="mask-type:luminance" maskUnits="userSpaceOnUse" x="154" y="55" width="102" height="78">
<path d="M154.836 55.563L255.366 56.0089L255.028 132.455L154.497 132.01L154.836 55.563Z" fill="white"/>
</mask>
<g mask="url(#mask0_2919_7989)">
<path d="M204.873 132.233C211.566 132.263 217.034 126.799 217.064 120.052C217.094 113.305 211.675 107.793 204.982 107.763C198.289 107.733 192.82 113.197 192.791 119.945C192.76 126.691 198.18 132.204 204.873 132.233ZM204.957 113.386C208.571 113.402 211.503 116.383 211.487 120.027C211.471 123.671 208.512 126.626 204.898 126.611C201.283 126.595 198.352 123.612 198.369 119.969C198.384 116.325 201.342 113.37 204.957 113.386Z" fill="url(#paint3_linear_2919_7989)"/>
<path d="M252.452 84.481C253.087 84.4837 253.734 84.262 254.262 83.8141C255.437 82.8071 255.59 81.0424 254.591 79.8572C241.841 64.6418 223.742 55.8684 204.923 55.7853C186.104 55.7014 168.452 63.9451 155.412 79.0013C154.403 80.1662 154.518 81.9436 155.673 82.9723C156.829 83.9897 158.592 83.8734 159.612 82.7085C171.576 68.9068 187.651 61.3426 204.897 61.419C222.143 61.4955 238.64 69.5302 250.336 83.4821C250.88 84.1362 251.67 84.4778 252.452 84.481Z" fill="url(#paint4_linear_2919_7989)"/>
<path d="M239.783 96.0187C240.419 96.0214 241.055 95.8115 241.582 95.3637C242.757 94.368 242.922 92.5919 241.923 91.4067C232.413 79.9728 218.9 73.3793 204.833 73.3169C190.766 73.2544 177.676 79.415 167.954 90.6517C166.945 91.8165 167.06 93.593 168.227 94.6222C169.383 95.6396 171.146 95.5234 172.166 94.3476C180.811 84.3545 192.404 78.8843 204.808 78.9395C217.213 78.9943 229.068 84.7033 237.646 95.0198C238.189 95.6753 238.98 96.0155 239.772 96.0187H239.783Z" fill="url(#paint5_linear_2919_7989)"/>
<path d="M227.053 106.5C227.677 106.502 228.314 106.292 228.829 105.856C230.017 104.871 230.192 103.095 229.215 101.899C222.969 94.2235 214.053 89.7992 204.771 89.7566C195.49 89.7159 186.972 93.7937 180.591 101.233C179.582 102.409 179.708 104.187 180.875 105.204C182.042 106.222 183.805 106.094 184.814 104.918C190.107 98.7337 197.183 95.3463 204.746 95.3802C212.311 95.4132 219.634 99.0001 224.905 105.467C225.448 106.144 226.25 106.497 227.053 106.5Z" fill="url(#paint6_linear_2919_7989)"/>
</g>
<path d="M205.87 16.5698C206.735 16.5736 207.435 17.2784 207.432 18.1424L207.152 81.1307C207.149 81.9943 206.442 82.6936 205.577 82.6891C204.711 82.685 204.012 81.9802 204.016 81.1166L204.295 18.1284C204.299 17.2646 205.004 16.5659 205.87 16.5698Z" fill="url(#paint7_linear_2919_7989)"/>
<path d="M183.226 16.4708C183.627 16.4725 184.029 16.6265 184.332 16.9358L192.191 24.8485C193.308 25.9722 193.917 27.4577 193.911 29.0399L193.735 68.7194C193.731 69.5835 193.025 70.282 192.159 70.2779C191.293 70.2738 190.593 69.569 190.597 68.7054L190.773 29.026C190.776 28.2812 190.487 27.5816 189.962 27.0529L182.103 19.1403C181.492 18.5252 181.497 17.5356 182.113 16.9259C182.42 16.6227 182.821 16.469 183.223 16.4707L183.226 16.4708Z" fill="url(#paint8_linear_2919_7989)"/>
<path d="M229.277 16.6771C230.142 16.681 230.842 17.3858 230.838 18.2497L230.793 28.4543C230.786 30.0364 230.162 31.5198 229.037 32.6303L221.621 39.9622C221.091 40.486 220.796 41.1832 220.793 41.9279L220.737 54.6581C220.732 55.5219 220.026 56.2206 219.161 56.2166C218.294 56.2126 217.595 55.5078 217.599 54.6441L217.655 41.9139C217.662 40.3318 218.285 38.8517 219.412 37.7379L226.827 30.4028C227.358 29.8788 227.653 29.1817 227.656 28.437L227.701 18.2325C227.704 17.3686 228.411 16.67 229.277 16.6738V16.6771Z" fill="url(#paint9_linear_2919_7989)"/>
<path d="M205.371 77.8028C207.739 77.8132 209.651 79.6286 209.641 81.857C209.631 84.0845 207.703 85.8832 205.335 85.8724C202.967 85.8619 201.054 84.0465 201.064 81.8186C201.074 79.591 203.003 77.7919 205.371 77.8028Z" fill="url(#paint10_radial_2919_7989)"/>
<path d="M192.121 65.2686C194.489 65.2795 196.402 67.0953 196.392 69.3228C196.382 71.5499 194.454 73.349 192.086 73.3386C189.717 73.3278 187.805 71.5124 187.814 69.2848C187.824 67.0569 189.753 65.2586 192.121 65.2686Z" fill="url(#paint11_radial_2919_7989)"/>
<path d="M219.273 51.2325C221.641 51.2426 223.554 53.0585 223.544 55.2862C223.534 57.5139 221.606 59.3126 219.237 59.3017C216.869 59.2918 214.957 57.4755 214.967 55.2479C214.976 53.0203 216.905 51.2217 219.273 51.2325Z" fill="url(#paint12_radial_2919_7989)"/>
</g>
<defs>
<linearGradient id="paint0_linear_2919_7989" x1="206.5" y1="0" x2="206.5" y2="176" gradientUnits="userSpaceOnUse">
<stop stop-color="#6619D0" stop-opacity="0.3"/>
<stop offset="1" stop-color="#6619D0" stop-opacity="0"/>
</linearGradient>
<radialGradient id="paint1_radial_2919_7989" cx="0" cy="0" r="1" gradientUnits="userSpaceOnUse" gradientTransform="translate(206.762 87.8678) rotate(-90) scale(75.7765 75.7341)">
<stop stop-color="#6619D0"/>
<stop offset="1" stop-color="#6619D0" stop-opacity="0"/>
</radialGradient>
<linearGradient id="paint2_linear_2919_7989" x1="208.933" y1="47.4784" x2="201.785" y2="142.581" gradientUnits="userSpaceOnUse">
<stop stop-color="#6619D0"/>
<stop offset="1" stop-color="#00BFCB"/>
</linearGradient>
<linearGradient id="paint3_linear_2919_7989" x1="205.37" y1="20.1049" x2="204.585" y2="196.984" gradientUnits="userSpaceOnUse">
<stop stop-color="white"/>
<stop offset="1" stop-color="white" stop-opacity="0.1"/>
</linearGradient>
<linearGradient id="paint4_linear_2919_7989" x1="205.259" y1="20.1042" x2="204.474" y2="196.983" gradientUnits="userSpaceOnUse">
<stop stop-color="white"/>
<stop offset="1" stop-color="white" stop-opacity="0.1"/>
</linearGradient>
<linearGradient id="paint5_linear_2919_7989" x1="205.258" y1="20.1042" x2="204.474" y2="196.983" gradientUnits="userSpaceOnUse">
<stop stop-color="white"/>
<stop offset="1" stop-color="white" stop-opacity="0.1"/>
</linearGradient>
<linearGradient id="paint6_linear_2919_7989" x1="205.101" y1="55.7858" x2="204.474" y2="196.983" gradientUnits="userSpaceOnUse">
<stop stop-color="white"/>
<stop offset="1" stop-color="white" stop-opacity="0.1"/>
</linearGradient>
<linearGradient id="paint7_linear_2919_7989" x1="205.868" y1="17.063" x2="205.65" y2="66.0894" gradientUnits="userSpaceOnUse">
<stop stop-color="#94F9FF" stop-opacity="0.2"/>
<stop offset="1" stop-color="#94FFF0"/>
</linearGradient>
<linearGradient id="paint8_linear_2919_7989" x1="187.811" y1="16.9842" x2="187.593" y2="66.011" gradientUnits="userSpaceOnUse">
<stop stop-color="#94F9FF" stop-opacity="0.2"/>
<stop offset="1" stop-color="#94FFF0"/>
</linearGradient>
<linearGradient id="paint9_linear_2919_7989" x1="224.306" y1="17.145" x2="224.089" y2="66.1715" gradientUnits="userSpaceOnUse">
<stop stop-color="#94F9FF" stop-opacity="0.2"/>
<stop offset="1" stop-color="#94FFF0"/>
</linearGradient>
<radialGradient id="paint10_radial_2919_7989" cx="0" cy="0" r="1" gradientUnits="userSpaceOnUse" gradientTransform="translate(205.579 82.1158) rotate(0.254127) scale(6.67309 6.27814)">
<stop offset="0.34" stop-color="#94FFF0"/>
<stop offset="1" stop-color="#94FFF0" stop-opacity="0"/>
</radialGradient>
<radialGradient id="paint11_radial_2919_7989" cx="0" cy="0" r="1" gradientUnits="userSpaceOnUse" gradientTransform="translate(192.36 69.5893) rotate(0.254127) scale(6.6088 6.21766)">
<stop offset="0.34" stop-color="#94FFF0"/>
<stop offset="1" stop-color="#94FFF0" stop-opacity="0"/>
</radialGradient>
<radialGradient id="paint12_radial_2919_7989" cx="0" cy="0" r="1" gradientUnits="userSpaceOnUse" gradientTransform="translate(218.97 55.5443) rotate(0.254127) scale(5.02187 4.72467)">
<stop offset="0.34" stop-color="#94FFF0"/>
<stop offset="1" stop-color="#94FFF0" stop-opacity="0"/>
</radialGradient>
<clipPath id="clip0_2919_7989">
<rect width="170" height="152" fill="white" transform="translate(122 12)"/>
</clipPath>
</defs>
</svg>
