<svg xmlns="http://www.w3.org/2000/svg" fill="none" viewBox="0 0 100 101">
  <circle cx="50" cy="50.522" r="50" fill="#6619D0" opacity=".3"/>
  <circle cx="50.001" cy="50.522" r="39.682" fill="url(#a)" opacity=".6"/>
  <path fill="url(#b)" d="M66.235 46.764a5.029 5.029 0 0 0 .907-2.88 5.051 5.051 0 0 0-5.046-5.047 5.051 5.051 0 0 0-5.046 5.046c0 1.069.338 2.058.906 2.876a6.05 6.05 0 0 0-1.66.78 6.164 6.164 0 0 0-1.216-.466 5.286 5.286 0 0 0 1.034-3.136 5.325 5.325 0 0 0-5.32-5.32 5.325 5.325 0 0 0-5.321 5.32c0 1.176.387 2.254 1.034 3.136a6.703 6.703 0 0 0-1.215.465 6.05 6.05 0 0 0-1.661-.779 5.025 5.025 0 0 0 .906-2.876 5.051 5.051 0 0 0-5.046-5.046 5.051 5.051 0 0 0-5.046 5.046 5.04 5.04 0 0 0 .907 2.881c-2.538.745-4.4 3.096-4.4 5.87v4.53c0 .883.72 1.603 1.602 1.603h9.299c.24.602.823 1.029 1.508 1.029h14.864c.686 0 1.27-.426 1.51-1.03h9.298c.882 0 1.602-.72 1.602-1.601v-4.532c0-2.778-1.862-5.124-4.4-5.869Zm-4.14-5.477a2.601 2.601 0 0 1 2.597 2.596 2.601 2.601 0 0 1-2.596 2.597 2.601 2.601 0 0 1-2.597-2.596 2.601 2.601 0 0 1 2.597-2.597Zm-11.302-.22a2.875 2.875 0 0 1 2.871 2.87 2.875 2.875 0 0 1-2.87 2.871 2.875 2.875 0 0 1-2.871-2.87 2.875 2.875 0 0 1 2.87-2.871Zm-11.302.22a2.601 2.601 0 0 1 2.597 2.596 2.601 2.601 0 0 1-2.597 2.597 2.601 2.601 0 0 1-2.596-2.596 2.601 2.601 0 0 1 2.596-2.597Zm-6.09 11.346a3.679 3.679 0 0 1 3.675-3.674h4.83c.451 0 .892.083 1.304.24a6.45 6.45 0 0 0-1.48 4.11v3.004h-8.328v-3.68Zm10.784.676a4.025 4.025 0 0 1 4.022-4.022h5.178c.823 0 1.592.25 2.234.681.034.025.064.05.098.074a4.026 4.026 0 0 1 1.69 3.272v4.032H44.185V53.31Zm24 3.004h-8.333v-3.004a6.423 6.423 0 0 0-1.48-4.11 3.66 3.66 0 0 1 1.303-.24h4.83a3.679 3.679 0 0 1 3.675 3.674v3.68h.005Z"/>
  <path fill="url(#c)" d="M80.08 33.9a1.32 1.32 0 0 0-1.75.639l-1.356 2.917c-4.865-10.324-15.358-17.093-26.932-17.093-16.412 0-29.765 13.352-29.765 29.765a1.32 1.32 0 0 0 2.638 0C22.915 35.172 35.085 23 50.042 23c10.546 0 20.11 6.167 24.547 15.579l-3.223-1.499a1.32 1.32 0 0 0-1.752.639 1.32 1.32 0 0 0 .638 1.751l5.08 2.358c.307.143.634.216.96.216.265 0 .528-.047.787-.142a2.269 2.269 0 0 0 1.287-1.182l2.358-5.075a1.32 1.32 0 0 0-.638-1.751l-.005.005Z"/>
  <path fill="url(#d)" d="M78.486 48.809a1.32 1.32 0 0 0-1.319 1.319c0 14.956-12.17 27.126-27.127 27.126-10.54 0-20.068-6.135-24.515-15.51l2.954 1.282c.67.29 1.446-.016 1.736-.686a1.318 1.318 0 0 0-.686-1.735l-5.138-2.232a2.277 2.277 0 0 0-1.746-.031 2.25 2.25 0 0 0-1.256 1.213l-2.232 5.133c-.29.67.016 1.446.686 1.736a1.308 1.308 0 0 0 1.73-.68l1.399-3.224c4.806 10.488 15.367 17.372 27.063 17.372 16.412 0 29.765-13.352 29.765-29.764a1.32 1.32 0 0 0-1.32-1.32h.006Z"/>
  <defs>
    <linearGradient id="a" x1="50.001" x2="50.001" y1="10.839" y2="90.204" gradientUnits="userSpaceOnUse">
      <stop stop-color="#6619D0"/>
      <stop offset="1" stop-color="#00BFCB"/>
    </linearGradient>
    <linearGradient id="b" x1="50.793" x2="50.793" y1="38.617" y2="74.462" gradientUnits="userSpaceOnUse">
      <stop stop-color="#fff"/>
      <stop offset="1" stop-color="#fff" stop-opacity="0"/>
    </linearGradient>
    <linearGradient id="c" x1="75.794" x2="10.715" y1="39.014" y2="53.3" gradientUnits="userSpaceOnUse">
      <stop stop-color="#fff"/>
      <stop offset="1" stop-color="#fff" stop-opacity="0"/>
    </linearGradient>
    <linearGradient id="d" x1="23.015" x2="88.491" y1="60.046" y2="47.744" gradientUnits="userSpaceOnUse">
      <stop stop-color="#fff"/>
      <stop offset="1" stop-color="#fff" stop-opacity="0"/>
    </linearGradient>
  </defs>
</svg>
