<svg width="413" height="176" viewBox="0 0 413 176" fill="none" xmlns="http://www.w3.org/2000/svg">
<rect width="413" height="176" fill="url(#paint0_linear_2919_7917)"/>
<g clip-path="url(#clip0_2919_7917)">
<path d="M207 164C165.026 164 131 129.974 131 88C131 46.0264 165.026 12 207 12C248.974 12 283 46.0264 283 88C283 129.974 248.974 164 207 164Z" fill="url(#paint1_radial_2919_7917)"/>
<path opacity="0.2" d="M205.283 157.626C199.631 157.626 194.035 155.755 189.524 152.359L172.796 139.765C164.046 133.178 156.838 124.524 151.951 114.739C147.063 104.954 144.48 94.0036 144.48 83.0714V64.6559C144.48 50.7731 155.365 39.3368 169.26 38.6204C182.221 37.9521 190.242 33.9455 192.392 32.7334C196.317 30.5197 200.775 29.3496 205.283 29.3496C209.791 29.3496 214.249 30.5197 218.175 32.7334C220.324 33.9455 228.344 37.9518 241.307 38.6204C255.202 39.3368 266.086 50.7728 266.086 64.6559V83.0714C266.086 94.0027 263.503 104.953 258.616 114.739C253.728 124.524 246.521 133.178 237.771 139.765L221.042 152.359C216.531 155.755 210.934 157.626 205.283 157.626Z" fill="#6619D0"/>
<path opacity="0.2" d="M205.283 147.547C201.816 147.547 198.382 146.4 195.616 144.317L178.887 131.723C171.379 126.071 165.194 118.644 160.999 110.247C156.805 101.85 154.588 92.4533 154.588 83.0723V64.6568C154.588 56.1408 161.262 49.1257 169.782 48.6865C184.538 47.9255 193.989 43.4122 197.367 41.507C199.778 40.1477 202.515 39.4292 205.282 39.4292C208.05 39.4292 210.787 40.1477 213.197 41.507C216.576 43.4122 226.028 47.9255 240.784 48.6865C249.303 49.1257 255.977 56.1408 255.977 64.6568V83.0723C255.977 92.4533 253.76 101.85 249.566 110.247C245.372 118.644 239.186 126.071 231.679 131.723L214.949 144.317C212.183 146.4 208.749 147.547 205.282 147.547H205.283Z" fill="#6619D0"/>
<path opacity="0.8" d="M245.138 64.6567V83.0731C245.138 83.735 245.127 84.3936 245.097 85.0501C244.506 100.037 237.207 114.018 225.146 123.098L208.418 135.691C206.564 137.088 204.002 137.088 202.148 135.691L185.42 123.098C178.422 117.829 173.029 110.913 169.619 103.105C166.89 96.8676 165.428 90.0593 165.428 83.0731V64.6567C165.428 61.9044 167.587 59.6213 170.342 59.4783C187.017 58.6211 198.016 53.5565 202.704 50.9147C204.306 50.0108 206.26 50.0108 207.863 50.9147C212.551 53.5565 223.55 58.6211 240.225 59.4783C242.98 59.6213 245.138 61.9044 245.138 64.6567Z" fill="url(#paint2_linear_2919_7917)"/>
<path d="M245.097 85.049C244.506 100.036 237.207 114.018 225.146 123.097L208.418 135.691C206.564 137.087 204.002 137.087 202.148 135.691L185.42 123.097C178.422 117.829 173.029 110.912 169.619 103.104L205.824 82.1248C216.411 75.9896 229.463 75.9896 240.05 82.1248L245.097 85.049Z" fill="url(#paint3_linear_2919_7917)"/>
<path d="M173.654 111.938V115.739C173.654 115.876 173.652 116.012 173.646 116.147C173.524 119.24 172.017 122.126 169.528 124L166.075 126.6C165.693 126.888 165.164 126.888 164.781 126.6L161.329 124C159.884 122.913 158.771 121.485 158.067 119.874C157.504 118.586 157.202 117.181 157.202 115.739V111.938C157.202 111.37 157.648 110.899 158.216 110.869C161.658 110.692 163.928 109.647 164.896 109.101C165.227 108.915 165.63 108.915 165.961 109.101C166.929 109.647 169.199 110.692 172.641 110.869C173.209 110.899 173.655 111.369 173.655 111.938H173.654Z" fill="url(#paint4_linear_2919_7917)"/>
<path d="M165.428 124.838C165.193 124.838 164.958 124.764 164.762 124.617L162.602 122.991C160.262 121.229 158.866 118.433 158.866 115.51V113.592C158.866 113.04 159.281 112.57 159.831 112.499C162.168 112.2 163.907 111.545 164.954 111.048C165.255 110.905 165.601 110.905 165.902 111.048C166.949 111.545 168.688 112.2 171.025 112.499C171.576 112.569 171.991 113.039 171.991 113.592V115.848C171.991 118.559 170.695 121.153 168.526 122.786L166.095 124.616C165.898 124.764 165.663 124.838 165.429 124.838H165.428ZM165.428 111.784C165.39 111.784 165.353 111.792 165.317 111.809C164.215 112.332 162.387 113.022 159.939 113.335C159.809 113.352 159.711 113.462 159.711 113.592V115.51C159.711 118.17 160.982 120.716 163.112 122.318L165.272 123.945C165.363 124.014 165.493 124.014 165.585 123.945L168.016 122.114C169.975 120.639 171.145 118.297 171.145 115.849V113.592C171.145 113.462 171.047 113.352 170.917 113.335C168.47 113.022 166.641 112.332 165.539 111.809C165.503 111.793 165.466 111.784 165.428 111.784Z" fill="url(#paint5_linear_2919_7917)"/>
<path d="M254.681 92.9072V96.7086C254.681 96.8452 254.679 96.9814 254.673 97.1166C254.551 100.21 253.044 103.096 250.555 104.97L247.102 107.569C246.719 107.858 246.19 107.858 245.808 107.569L242.355 104.97C240.911 103.882 239.798 102.455 239.094 100.843C238.53 99.5559 238.229 98.1503 238.229 96.7086V92.9072C238.229 92.3395 238.674 91.8676 239.243 91.8382C242.685 91.6614 244.955 90.6159 245.923 90.0708C246.253 89.884 246.657 89.884 246.987 90.0708C247.955 90.6159 250.226 91.6614 253.667 91.8382C254.236 91.8676 254.682 92.339 254.682 92.9072H254.681Z" fill="url(#paint6_linear_2919_7917)"/>
<path d="M246.455 105.806C246.22 105.806 245.985 105.732 245.789 105.584L243.629 103.958C241.29 102.197 239.893 99.4007 239.893 96.4774V94.5598C239.893 94.0074 240.308 93.5374 240.858 93.4668C243.195 93.1682 244.934 92.5127 245.981 92.0156C246.282 91.8731 246.627 91.8731 246.929 92.0156C247.976 92.5127 249.714 93.1682 252.052 93.4668C252.602 93.5374 253.018 94.0074 253.018 94.5598V96.8162C253.018 99.5269 251.722 102.12 249.553 103.754L247.121 105.584C246.925 105.732 246.69 105.806 246.455 105.806H246.455ZM246.455 92.7516C246.417 92.7516 246.379 92.7602 246.344 92.7769C245.241 93.3003 243.413 93.9898 240.965 94.3028C240.836 94.3195 240.738 94.4299 240.738 94.5602V96.4779C240.738 99.1383 242.009 101.683 244.138 103.286L246.298 104.912C246.39 104.982 246.519 104.982 246.611 104.912L249.043 103.082C251.002 101.606 252.172 99.2645 252.172 96.8167V94.5602C252.172 94.4299 252.074 94.32 251.944 94.3028C249.496 93.9898 247.668 93.3003 246.566 92.7769C246.53 92.7602 246.493 92.7516 246.455 92.7516Z" fill="url(#paint7_linear_2919_7917)"/>
<path d="M193.236 39.1742V42.9755C193.236 43.1123 193.234 43.2481 193.228 43.3835C193.106 46.4768 191.599 49.3626 189.11 51.2368L185.657 53.8363C185.275 54.1246 184.746 54.1246 184.363 53.8363L180.911 51.2368C179.466 50.1492 178.353 48.7217 177.649 47.1101C177.086 45.8228 176.784 44.4174 176.784 42.9755V39.1742C176.784 38.6062 177.23 38.1347 177.799 38.1053C181.24 37.9283 183.511 36.883 184.479 36.3377C184.809 36.1511 185.212 36.1511 185.543 36.3377C186.511 36.883 188.781 37.9283 192.223 38.1053C192.791 38.1347 193.237 38.6059 193.237 39.1742H193.236Z" fill="url(#paint8_linear_2919_7917)"/>
<path d="M185.011 52.0733C184.776 52.0733 184.541 51.9995 184.345 51.852L182.184 50.2258C179.845 48.4644 178.448 45.6679 178.448 42.7451V40.8274C178.448 40.2748 178.864 39.8051 179.414 39.7345C181.751 39.4354 183.49 38.7805 184.537 38.2836C184.838 38.1405 185.184 38.1405 185.485 38.2836C186.531 38.7805 188.27 39.4357 190.607 39.7345C191.158 39.8051 191.573 40.2748 191.573 40.8274V43.0839C191.573 45.7944 190.278 48.388 188.108 50.0215L185.677 51.852C185.481 51.9995 185.246 52.0736 185.011 52.0736L185.011 52.0733ZM182.694 49.5532L184.854 51.1793C184.945 51.2487 185.075 51.249 185.167 51.1793L187.598 49.3488C189.558 47.8737 190.728 45.5317 190.728 43.0836V40.8271C190.728 40.697 190.63 40.5868 190.5 40.5699C188.051 40.2568 186.224 39.5672 185.121 39.0438C185.051 39.0105 184.97 39.0105 184.899 39.0438C183.797 39.5672 181.969 40.2565 179.521 40.5699C179.391 40.5865 179.293 40.697 179.293 40.8271V42.7448C179.293 45.4046 180.565 47.9501 182.694 49.5532Z" fill="url(#paint9_linear_2919_7917)"/>
<path d="M163.625 135.319C163.618 135.319 163.612 135.319 163.606 135.319C163.202 135.309 162.883 134.974 162.893 134.571L163.278 119.598L134.735 131.504C134.362 131.659 133.935 131.484 133.779 131.112C133.623 130.741 133.799 130.314 134.171 130.159L163.756 117.818C163.985 117.723 164.246 117.749 164.451 117.889C164.655 118.029 164.775 118.262 164.769 118.509L164.355 134.608C164.345 135.004 164.02 135.319 163.625 135.319Z" fill="url(#paint10_linear_2919_7917)"/>
<path d="M279.128 114.555C279.026 114.555 278.922 114.534 278.823 114.488L247.653 100.192C247.406 100.078 247.243 99.8378 247.229 99.5673C247.214 99.2968 247.352 99.0407 247.586 98.9027L260.982 90.9739C261.329 90.7685 261.778 90.882 261.984 91.2285C262.19 91.5746 262.076 92.022 261.728 92.2274L249.53 99.4474L279.434 113.164C279.801 113.332 279.962 113.765 279.793 114.131C279.67 114.398 279.405 114.556 279.129 114.556L279.128 114.555Z" fill="url(#paint11_linear_2919_7917)"/>
<path d="M184.398 43.5376C184.247 43.5376 184.096 43.4916 183.967 43.3977L164.997 29.6037C164.671 29.3666 164.6 28.9106 164.838 28.5852C165.075 28.26 165.532 28.1883 165.859 28.4257L184.334 41.8599L190.811 35.6717C191.102 35.3932 191.565 35.4029 191.844 35.6936C192.124 35.9843 192.114 36.4456 191.822 36.7243L184.903 43.335C184.763 43.4691 184.581 43.5376 184.398 43.5376Z" fill="url(#paint12_linear_2919_7917)"/>
<path d="M215.344 95.2074C214.86 95.2074 214.467 94.8161 214.467 94.333C214.467 93.8498 214.86 93.4581 215.344 93.4581C217.295 93.4581 218.882 91.8757 218.882 89.9309C218.882 87.9861 217.295 86.4041 215.344 86.4041C214.86 86.4041 214.467 86.0123 214.467 85.5292C214.467 85.0461 214.86 84.6543 215.344 84.6543C218.263 84.6543 220.637 87.0216 220.637 89.9309C220.637 92.8401 218.263 95.2074 215.344 95.2074Z" fill="url(#paint13_linear_2919_7917)"/>
<path d="M216.883 104.587H214.081C213.516 104.587 213.058 104.13 213.058 103.567C213.058 103.003 213.516 102.546 214.081 102.546H216.359L216.76 100.402C216.86 99.8681 217.267 99.4343 217.797 99.2968C218.659 99.0733 219.485 98.7322 220.252 98.2834C220.724 98.0075 221.32 98.0269 221.769 98.3346L223.573 99.5673L225.009 98.1355L223.772 96.3373C223.464 95.8881 223.444 95.295 223.721 94.825C224.172 94.0596 224.513 93.2362 224.738 92.3772C224.876 91.8479 225.312 91.4425 225.846 91.343L227.997 90.9436V88.9183L225.846 88.5188C225.312 88.4193 224.876 88.0139 224.738 87.486C224.513 86.626 224.172 85.8023 223.721 85.0368C223.444 84.5668 223.464 83.9737 223.772 83.5259L225.009 81.7268L223.573 80.295L221.769 81.5277C221.32 81.8353 220.724 81.8548 220.252 81.5784C219.485 81.1301 218.659 80.789 217.797 80.5655C217.267 80.428 216.86 79.9941 216.76 79.4608L216.359 77.316H214.081C213.516 77.316 213.058 76.8591 213.058 76.2955C213.058 75.7318 213.516 75.2749 214.081 75.2749H216.883C217.565 75.2749 218.151 75.7603 218.276 76.4289L218.7 78.6976C219.476 78.9279 220.226 79.2373 220.938 79.6214L222.846 78.3163C223.409 77.9317 224.167 78.0019 224.649 78.4818L226.827 80.6533C227.309 81.1346 227.379 81.8905 226.993 82.451L225.684 84.3537C226.069 85.0635 226.38 85.8113 226.61 86.5853L228.886 87.0083C229.556 87.1327 230.043 87.7167 230.043 88.3962V91.4665C230.043 92.1464 229.556 92.7305 228.886 92.8549L226.61 93.2774C226.38 94.051 226.069 94.7992 225.684 95.509L226.993 97.4122C227.378 97.9722 227.309 98.7286 226.827 99.209L224.649 101.38C224.166 101.862 223.409 101.931 222.846 101.546L220.938 100.242C220.226 100.626 219.476 100.935 218.7 101.166L218.276 103.435C218.151 104.103 217.565 104.587 216.883 104.587Z" fill="url(#paint14_linear_2919_7917)"/>
<path d="M197.047 104.285C189.847 104.285 182.103 102.557 182.103 98.764V93.0129C182.103 92.3519 182.641 91.8154 183.304 91.8154C183.966 91.8154 184.505 92.3519 184.505 93.0129V98.764C184.505 99.6959 188.771 101.89 197.047 101.89C205.324 101.89 209.59 99.7018 209.59 98.764V93.0129C209.59 92.3519 210.128 91.8154 210.791 91.8154C211.454 91.8154 211.992 92.3519 211.992 93.0129V98.764C211.992 102.557 204.241 104.285 197.047 104.285Z" fill="url(#paint15_linear_2919_7917)"/>
<path d="M197.047 98.3283C189.847 98.3283 182.103 96.6002 182.103 92.807V87.0558C182.103 86.3949 182.641 85.8584 183.304 85.8584C183.966 85.8584 184.505 86.3949 184.505 87.0558V92.807C184.505 93.7389 188.771 95.9334 197.047 95.9334C205.324 95.9334 209.59 93.7452 209.59 92.807V87.0558C209.59 86.3949 210.128 85.8584 210.791 85.8584C211.454 85.8584 211.992 86.3949 211.992 87.0558V92.807C211.992 96.6002 204.241 98.3283 197.047 98.3283Z" fill="url(#paint16_linear_2919_7917)"/>
<path d="M197.047 92.3698C189.847 92.3698 182.103 90.6417 182.103 86.8485V81.0974C182.103 80.4364 182.641 79.8999 183.304 79.8999C183.966 79.8999 184.505 80.4364 184.505 81.0974V86.8485C184.505 87.7804 188.771 89.9749 197.047 89.9749C205.324 89.9749 209.59 87.7867 209.59 86.8485V81.0974C209.59 80.4364 210.128 79.8999 210.791 79.8999C211.454 79.8999 211.992 80.4364 211.992 81.0974V86.8485C211.992 90.6417 204.241 92.3698 197.047 92.3698Z" fill="url(#paint17_linear_2919_7917)"/>
<path d="M197.047 86.6188C189.847 86.6188 182.103 84.8902 182.103 81.0975C182.103 77.3052 189.853 75.5762 197.047 75.5762C204.241 75.5762 211.992 77.3043 211.992 81.0975C211.992 84.8907 204.241 86.6188 197.047 86.6188ZM197.047 77.9711C188.771 77.9711 184.505 80.1592 184.505 81.0975C184.505 82.0353 188.771 84.2234 197.047 84.2234C205.324 84.2234 209.59 82.0348 209.59 81.0975C209.59 80.1597 205.324 77.9711 197.047 77.9711Z" fill="url(#paint18_linear_2919_7917)"/>
<path d="M224.273 113.559H185.43C182.724 113.559 180.522 111.364 180.522 108.666C180.522 108.102 180.981 107.645 181.546 107.645C182.111 107.645 182.569 108.102 182.569 108.666C182.569 110.238 183.853 111.517 185.43 111.517H224.273C225.85 111.517 227.133 110.238 227.133 108.666C227.133 108.102 227.591 107.645 228.157 107.645C228.722 107.645 229.18 108.102 229.18 108.666C229.18 111.364 226.979 113.559 224.273 113.559Z" fill="url(#paint19_linear_2919_7917)"/>
<path d="M228.157 72.2172C227.591 72.2172 227.133 71.7603 227.133 71.1966C227.133 69.6237 225.85 68.3444 224.273 68.3444H185.43C183.852 68.3444 182.569 69.6237 182.569 71.1966C182.569 71.7603 182.111 72.2172 181.546 72.2172C180.981 72.2172 180.522 71.7603 180.522 71.1966C180.522 68.4986 182.724 66.3032 185.43 66.3032H224.273C226.979 66.3032 229.18 68.4982 229.18 71.1966C229.18 71.7603 228.722 72.2172 228.157 72.2172Z" fill="url(#paint20_linear_2919_7917)"/>
<path d="M163.811 138.214C161.681 138.214 159.954 136.594 159.954 134.595C159.954 132.597 161.681 130.976 163.811 130.976C165.941 130.976 167.668 132.597 167.668 134.595C167.668 136.594 165.941 138.214 163.811 138.214Z" fill="url(#paint21_radial_2919_7917)"/>
<path d="M261.589 95.2381C259.585 95.2381 257.959 93.6177 257.959 91.619C257.959 89.6204 259.585 88 261.589 88C263.595 88 265.219 89.6204 265.219 91.619C265.219 93.6177 263.595 95.2381 261.589 95.2381Z" fill="url(#paint22_radial_2919_7917)"/>
<path d="M191.488 39.1426C189.359 39.1426 187.631 37.6236 187.631 35.7498C187.631 33.876 189.359 32.3569 191.488 32.3569C193.618 32.3569 195.345 33.876 195.345 35.7498C195.345 37.6236 193.618 39.1426 191.488 39.1426Z" fill="url(#paint23_radial_2919_7917)"/>
</g>
<defs>
<linearGradient id="paint0_linear_2919_7917" x1="206.5" y1="0" x2="206.5" y2="176" gradientUnits="userSpaceOnUse">
<stop stop-color="#6619D0" stop-opacity="0.3"/>
<stop offset="1" stop-color="#6619D0" stop-opacity="0"/>
</linearGradient>
<radialGradient id="paint1_radial_2919_7917" cx="0" cy="0" r="1" gradientUnits="userSpaceOnUse" gradientTransform="translate(207 88) rotate(90) scale(76)">
<stop stop-color="#6619D0"/>
<stop offset="1" stop-color="#6619D0" stop-opacity="0"/>
</radialGradient>
<linearGradient id="paint2_linear_2919_7917" x1="197.211" y1="45.7031" x2="197.211" y2="154.727" gradientUnits="userSpaceOnUse">
<stop stop-color="#00BFCB"/>
<stop offset="0.984" stop-color="#641CD0"/>
</linearGradient>
<linearGradient id="paint3_linear_2919_7917" x1="229.914" y1="119.026" x2="191.896" y2="80.8937" gradientUnits="userSpaceOnUse">
<stop stop-color="white" stop-opacity="0.1"/>
<stop offset="1" stop-color="white" stop-opacity="0.05"/>
</linearGradient>
<linearGradient id="paint4_linear_2919_7917" x1="157.202" y1="117.889" x2="173.654" y2="117.889" gradientUnits="userSpaceOnUse">
<stop stop-color="#00BFCB" stop-opacity="0.7"/>
<stop offset="1" stop-color="#6619D0"/>
</linearGradient>
<linearGradient id="paint5_linear_2919_7917" x1="165.428" y1="110.941" x2="165.428" y2="124.838" gradientUnits="userSpaceOnUse">
<stop stop-color="white"/>
<stop offset="1" stop-color="white" stop-opacity="0.3"/>
</linearGradient>
<linearGradient id="paint6_linear_2919_7917" x1="238.229" y1="98.8583" x2="254.681" y2="98.8583" gradientUnits="userSpaceOnUse">
<stop stop-color="#00BFCB" stop-opacity="0.7"/>
<stop offset="1" stop-color="#6619D0"/>
</linearGradient>
<linearGradient id="paint7_linear_2919_7917" x1="246.455" y1="91.9088" x2="246.455" y2="105.806" gradientUnits="userSpaceOnUse">
<stop stop-color="white"/>
<stop offset="1" stop-color="white" stop-opacity="0.3"/>
</linearGradient>
<linearGradient id="paint8_linear_2919_7917" x1="176.784" y1="45.125" x2="193.236" y2="45.125" gradientUnits="userSpaceOnUse">
<stop stop-color="#00BFCB" stop-opacity="0.7"/>
<stop offset="1" stop-color="#6619D0"/>
</linearGradient>
<linearGradient id="paint9_linear_2919_7917" x1="185.011" y1="38.176" x2="185.011" y2="52.0733" gradientUnits="userSpaceOnUse">
<stop stop-color="white"/>
<stop offset="1" stop-color="white" stop-opacity="0.3"/>
</linearGradient>
<linearGradient id="paint10_linear_2919_7917" x1="137.486" y1="120.393" x2="165.81" y2="130.733" gradientUnits="userSpaceOnUse">
<stop stop-color="#94F9FF" stop-opacity="0.2"/>
<stop offset="1" stop-color="#94FFF0"/>
</linearGradient>
<linearGradient id="paint11_linear_2919_7917" x1="263.544" y1="90.8712" x2="263.544" y2="114.555" gradientUnits="userSpaceOnUse">
<stop stop-color="#94FFF0"/>
<stop offset="1" stop-color="#94F9FF" stop-opacity="0.2"/>
</linearGradient>
<linearGradient id="paint12_linear_2919_7917" x1="178.372" y1="28.2857" x2="178.372" y2="43.5376" gradientUnits="userSpaceOnUse">
<stop stop-color="#94F9FF" stop-opacity="0.2"/>
<stop offset="1" stop-color="#94FFF0"/>
</linearGradient>
<linearGradient id="paint13_linear_2919_7917" x1="217.552" y1="84.6543" x2="217.552" y2="95.2074" gradientUnits="userSpaceOnUse">
<stop stop-color="white"/>
<stop offset="1" stop-color="white" stop-opacity="0.59"/>
</linearGradient>
<linearGradient id="paint14_linear_2919_7917" x1="221.551" y1="75.2744" x2="221.551" y2="104.587" gradientUnits="userSpaceOnUse">
<stop stop-color="white"/>
<stop offset="1" stop-color="white" stop-opacity="0.59"/>
</linearGradient>
<linearGradient id="paint15_linear_2919_7917" x1="197.047" y1="76.8032" x2="197.047" y2="108.049" gradientUnits="userSpaceOnUse">
<stop stop-color="white"/>
<stop offset="1" stop-color="white" stop-opacity="0.5"/>
</linearGradient>
<linearGradient id="paint16_linear_2919_7917" x1="197.047" y1="76.804" x2="197.047" y2="108.049" gradientUnits="userSpaceOnUse">
<stop stop-color="white"/>
<stop offset="1" stop-color="white" stop-opacity="0.5"/>
</linearGradient>
<linearGradient id="paint17_linear_2919_7917" x1="197.047" y1="76.8034" x2="197.047" y2="108.049" gradientUnits="userSpaceOnUse">
<stop stop-color="white"/>
<stop offset="1" stop-color="white" stop-opacity="0.5"/>
</linearGradient>
<linearGradient id="paint18_linear_2919_7917" x1="197.047" y1="76.803" x2="197.047" y2="108.049" gradientUnits="userSpaceOnUse">
<stop stop-color="white"/>
<stop offset="1" stop-color="white" stop-opacity="0.5"/>
</linearGradient>
<linearGradient id="paint19_linear_2919_7917" x1="204.851" y1="107.645" x2="204.851" y2="113.559" gradientUnits="userSpaceOnUse">
<stop stop-color="white"/>
<stop offset="1" stop-color="white" stop-opacity="0.59"/>
</linearGradient>
<linearGradient id="paint20_linear_2919_7917" x1="204.851" y1="66.3032" x2="204.851" y2="72.2172" gradientUnits="userSpaceOnUse">
<stop stop-color="white"/>
<stop offset="1" stop-color="white" stop-opacity="0.59"/>
</linearGradient>
<radialGradient id="paint21_radial_2919_7917" cx="0" cy="0" r="1" gradientUnits="userSpaceOnUse" gradientTransform="translate(163.811 134.595) rotate(180) scale(3.85672 3.61905)">
<stop offset="0.34375" stop-color="#94FFF0"/>
<stop offset="1" stop-color="#94FFF0" stop-opacity="0"/>
</radialGradient>
<radialGradient id="paint22_radial_2919_7917" cx="0" cy="0" r="1" gradientUnits="userSpaceOnUse" gradientTransform="translate(261.589 91.619) rotate(180) scale(3.62985 3.61905)">
<stop offset="0.34375" stop-color="#94FFF0"/>
<stop offset="1" stop-color="#94FFF0" stop-opacity="0"/>
</radialGradient>
<radialGradient id="paint23_radial_2919_7917" cx="0" cy="0" r="1" gradientUnits="userSpaceOnUse" gradientTransform="translate(191.488 35.7498) rotate(180) scale(3.85672 3.39286)">
<stop offset="0.34375" stop-color="#94FFF0"/>
<stop offset="1" stop-color="#94FFF0" stop-opacity="0"/>
</radialGradient>
<clipPath id="clip0_2919_7917">
<rect width="152" height="152" fill="white" transform="translate(131 12)"/>
</clipPath>
</defs>
</svg>
