<svg width="413" height="176" viewBox="0 0 413 176" fill="none" xmlns="http://www.w3.org/2000/svg">
<rect width="413" height="176" fill="url(#paint0_linear_2919_7890)"/>
<g clip-path="url(#clip0_2919_7890)">
<mask id="mask0_2919_7890" style="mask-type:luminance" maskUnits="userSpaceOnUse" x="112" y="12" width="189" height="152">
<path d="M300.556 12H112.182V163.69H300.556V12Z" fill="white"/>
</mask>
<g mask="url(#mask0_2919_7890)">
<path d="M182.901 163.689C143.844 163.689 112.182 132.108 112.182 93.1502C112.182 54.1926 143.844 22.6113 182.901 22.6113C221.957 22.6113 253.619 54.1926 253.619 93.1502C253.619 132.108 221.957 163.689 182.901 163.689Z" fill="url(#paint1_radial_2919_7890)"/>
<path opacity="0.2" fill-rule="evenodd" clip-rule="evenodd" d="M230.817 53.8456V55.2077C240.153 57.6742 249.112 65.2864 249.112 77.5239V133.51C249.112 148.645 235.407 156.706 224.236 156.706H141.46C130.289 156.706 116.583 148.645 116.583 133.51V77.5239C116.583 65.283 125.548 57.6696 134.887 55.2055V53.8456C134.887 30.8178 153.646 12.1167 176.729 12.1167H188.975C212.059 12.1167 230.817 30.8178 230.817 53.8456Z" fill="#6619D0"/>
<path opacity="0.2" fill-rule="evenodd" clip-rule="evenodd" d="M221.949 69.6376H214.481H221.941C221.944 69.6376 221.946 69.6376 221.949 69.6376ZM221.949 62.4817H221.941H221.656V55.5403C221.656 37.3731 206.85 22.6113 188.636 22.6113H177.068C158.855 22.6113 144.049 37.3731 144.049 55.5403V62.4817H143.756C135.571 62.4817 126.761 68.3011 126.761 77.9058V130.787C126.761 140.391 135.571 146.21 143.756 146.21H221.941C230.125 146.21 238.935 140.391 238.935 130.787V77.9058C238.935 68.3046 230.131 62.4857 221.949 62.4817Z" fill="#6619D0"/>
<path opacity="0.7" d="M220.369 70.2354H213.203V56.7075C213.203 43.0683 202.079 31.9756 188.403 31.9756H177.302C163.625 31.9756 152.501 43.0683 152.501 56.7075V70.2354H145.335C140.14 70.2354 135.911 73.7921 135.911 78.169V128.914C135.911 133.29 140.14 136.847 145.335 136.847H220.361C225.556 136.847 229.785 133.29 229.785 128.914V78.169C229.785 73.7921 225.556 70.2354 220.361 70.2354H220.369Z" fill="url(#paint2_linear_2919_7890)"/>
<mask id="mask1_2919_7890" style="mask-type:luminance" maskUnits="userSpaceOnUse" x="135" y="31" width="95" height="106">
<path d="M229.785 31.9756H135.911V136.847H229.785V31.9756Z" fill="white"/>
</mask>
<g mask="url(#mask1_2919_7890)">
<g opacity="0.7">
<path d="M220.362 70.2324H213.197V56.7056C213.197 43.0674 202.073 31.9756 188.398 31.9756H177.299C163.623 31.9756 152.5 43.0674 152.5 56.7056V70.2324H145.334C140.14 70.2324 135.911 73.7891 135.911 78.1655V128.906C135.911 133.283 140.14 136.839 145.334 136.839H220.354C225.549 136.839 229.777 133.283 229.777 128.906V78.1655C229.777 73.7891 225.549 70.2324 220.354 70.2324H220.362ZM157.287 56.7056C157.287 45.7012 166.264 36.7497 177.299 36.7497H188.398C199.433 36.7497 208.409 45.7012 208.409 56.7056V70.2324H157.287V56.7056ZM224.998 128.906C224.998 130.617 222.875 132.065 220.362 132.065H145.334C142.821 132.065 140.699 130.617 140.699 128.906V78.1655C140.699 76.4545 142.821 75.0066 145.334 75.0066H220.354C222.867 75.0066 224.989 76.4545 224.989 78.1655V128.906H224.998Z" fill="url(#paint3_linear_2919_7890)"/>
<path d="M166.246 118.744C165.841 118.744 165.428 118.631 165.052 118.397L148.106 107.747C147.174 107.159 146.61 106.156 146.603 105.054C146.595 103.953 147.129 102.935 148.038 102.324L164.999 91.0324C166.036 90.339 167.434 90.6258 168.126 91.6661C168.817 92.7074 168.531 94.1099 167.494 94.8043L152.209 104.979L167.449 114.558C168.501 115.222 168.824 116.618 168.163 117.681C167.735 118.367 166.998 118.744 166.246 118.744Z" fill="white"/>
<path d="M199.555 118.745C198.826 118.745 198.105 118.39 197.676 117.734C196.984 116.693 197.27 115.289 198.307 114.595L213.598 104.419L198.352 94.8387C197.301 94.1745 196.977 92.7789 197.639 91.7158C198.3 90.6592 199.691 90.335 200.751 90.9983L217.695 101.65C218.627 102.239 219.191 103.242 219.199 104.343C219.214 105.445 218.672 106.463 217.763 107.074L200.796 118.368C200.413 118.624 199.977 118.745 199.548 118.745H199.555Z" fill="white"/>
<path d="M189.858 119.088H189.842L175.568 118.984C174.897 118.984 174.275 118.633 173.908 118.077C173.541 117.512 173.485 116.803 173.756 116.191L177.451 107.828C174.674 106.093 172.934 103.094 172.958 99.8551C172.974 97.317 174.035 94.9383 175.942 93.1636C177.817 91.421 180.299 90.4824 182.916 90.4898C185.542 90.5061 187.999 91.4921 189.85 93.2672C191.733 95.0656 192.755 97.4601 192.738 99.9987C192.715 103.245 190.927 106.213 188.127 107.908L191.693 116.326C191.957 116.939 191.885 117.646 191.517 118.204C191.151 118.753 190.529 119.088 189.858 119.088ZM178.632 115.029L186.842 115.093L183.714 107.709C183.499 107.199 183.507 106.626 183.73 106.125C183.953 105.624 184.384 105.234 184.903 105.059C187.193 104.279 188.733 102.234 188.757 99.9824C188.765 98.5507 188.174 97.1817 187.097 96.1473C185.988 95.0809 184.496 94.4926 182.892 94.4763C181.328 94.4605 179.796 95.0335 178.663 96.0837C177.562 97.1023 176.955 98.455 176.948 99.8871C176.932 102.139 178.448 104.2 180.722 105.02C181.241 105.202 181.664 105.6 181.879 106.109C182.094 106.619 182.094 107.191 181.879 107.692L178.639 115.029H178.632Z" fill="white"/>
</g>
</g>
<path opacity="0.75" d="M263.707 101.972C263.707 89.853 253.884 80.0288 241.766 80.0288C229.648 80.0288 219.824 89.853 219.824 101.972C219.824 114.091 229.648 123.915 241.766 123.915C253.884 123.915 263.707 114.091 263.707 101.972Z" fill="url(#paint4_linear_2919_7890)" stroke="url(#paint5_linear_2919_7890)" stroke-width="6" stroke-miterlimit="10"/>
<path opacity="0.75" d="M257.317 101.972C257.317 93.3833 250.354 86.4204 241.766 86.4204C233.178 86.4204 226.216 93.3833 226.216 101.972C226.216 110.561 233.178 117.524 241.766 117.524C250.354 117.524 257.317 110.561 257.317 101.972Z" fill="url(#paint6_linear_2919_7890)" stroke="url(#paint7_linear_2919_7890)" stroke-width="6" stroke-miterlimit="10"/>
<path d="M300.739 101.972C300.739 102.778 300.085 103.433 299.278 103.433H240.494C239.688 103.433 239.032 102.778 239.032 101.972C239.032 101.165 239.688 100.51 240.494 100.51H299.278C300.085 100.51 300.739 101.165 300.739 101.972Z" fill="url(#paint8_linear_2919_7890)"/>
<path d="M300.738 80.882C300.738 81.2551 300.596 81.6291 300.309 81.9129L292.957 89.2656C291.913 90.3104 290.529 90.8843 289.053 90.8843H252.021C251.215 90.8843 250.56 90.2295 250.56 89.4231C250.56 88.6172 251.215 87.9618 252.021 87.9618H289.053C289.747 87.9618 290.399 87.6904 290.891 87.1988L298.242 79.8466C298.814 79.2751 299.738 79.2751 300.309 79.8466C300.593 80.1308 300.738 80.5049 300.738 80.8785V80.882Z" fill="url(#paint9_linear_2919_7890)"/>
<path d="M300.735 123.773C300.735 124.579 300.08 125.234 299.275 125.234H289.75C288.274 125.234 286.887 124.66 285.846 123.615L278.973 116.739C278.482 116.247 277.83 115.976 277.135 115.976H265.255C264.448 115.976 263.793 115.32 263.793 114.514C263.793 113.708 264.448 113.053 265.255 113.053H277.135C278.611 113.053 279.996 113.627 281.039 114.672L287.916 121.548C288.407 122.039 289.059 122.312 289.754 122.312H299.277C300.083 122.312 300.738 122.967 300.738 123.773H300.735Z" fill="url(#paint10_linear_2919_7890)"/>
<path d="M243.591 101.759C243.591 103.964 241.905 105.753 239.826 105.753C237.747 105.753 236.061 103.964 236.061 101.759C236.061 99.5526 237.747 97.7642 239.826 97.7642C241.905 97.7642 243.591 99.5526 243.591 101.759Z" fill="url(#paint11_radial_2919_7890)"/>
<path d="M255.235 89.367C255.235 91.5725 253.548 93.3614 251.469 93.3614C249.39 93.3614 247.704 91.5725 247.704 89.367C247.704 87.161 249.39 85.3726 251.469 85.3726C253.548 85.3726 255.235 87.161 255.235 89.367Z" fill="url(#paint12_radial_2919_7890)"/>
<path d="M268.446 114.597C268.446 116.803 266.76 118.592 264.681 118.592C262.602 118.592 260.915 116.803 260.915 114.597C260.915 112.391 262.602 110.603 264.681 110.603C266.76 110.603 268.446 112.391 268.446 114.597Z" fill="url(#paint13_radial_2919_7890)"/>
</g>
</g>
<defs>
<linearGradient id="paint0_linear_2919_7890" x1="206.5" y1="0" x2="206.5" y2="176" gradientUnits="userSpaceOnUse">
<stop stop-color="#6619D0" stop-opacity="0.3"/>
<stop offset="1" stop-color="#6619D0" stop-opacity="0"/>
</linearGradient>
<radialGradient id="paint1_radial_2919_7890" cx="0" cy="0" r="1" gradientUnits="userSpaceOnUse" gradientTransform="translate(182.901 93.1502) rotate(90) scale(70.5389 70.7187)">
<stop stop-color="#6619D0"/>
<stop offset="1" stop-color="#6619D0" stop-opacity="0"/>
</radialGradient>
<linearGradient id="paint2_linear_2919_7890" x1="182.848" y1="31.9756" x2="182.848" y2="136.847" gradientUnits="userSpaceOnUse">
<stop stop-color="#6619D0"/>
<stop offset="1" stop-color="#00BFCB"/>
</linearGradient>
<linearGradient id="paint3_linear_2919_7890" x1="182.852" y1="16.6745" x2="182.852" y2="148.05" gradientUnits="userSpaceOnUse">
<stop stop-color="white"/>
<stop offset="1" stop-color="white" stop-opacity="0.1"/>
</linearGradient>
<linearGradient id="paint4_linear_2919_7890" x1="219.824" y1="101.972" x2="249.51" y2="101.972" gradientUnits="userSpaceOnUse">
<stop stop-color="white"/>
<stop offset="1" stop-color="#6619D0" stop-opacity="0"/>
</linearGradient>
<linearGradient id="paint5_linear_2919_7890" x1="218.898" y1="101.972" x2="264.637" y2="101.972" gradientUnits="userSpaceOnUse">
<stop stop-color="#6919D0"/>
<stop offset="1" stop-color="#6619D0" stop-opacity="0"/>
</linearGradient>
<linearGradient id="paint6_linear_2919_7890" x1="226.216" y1="165.331" x2="247.255" y2="165.022" gradientUnits="userSpaceOnUse">
<stop stop-color="white"/>
<stop offset="1" stop-color="#6619D0" stop-opacity="0"/>
</linearGradient>
<linearGradient id="paint7_linear_2919_7890" x1="225.289" y1="165.331" x2="258.243" y2="165.022" gradientUnits="userSpaceOnUse">
<stop stop-color="#6919D0"/>
<stop offset="1" stop-color="#6619D0" stop-opacity="0"/>
</linearGradient>
<linearGradient id="paint8_linear_2919_7890" x1="300.279" y1="101.972" x2="254.524" y2="101.972" gradientUnits="userSpaceOnUse">
<stop stop-color="#94F9FF" stop-opacity="0.2"/>
<stop offset="1" stop-color="#94FFF0"/>
</linearGradient>
<linearGradient id="paint9_linear_2919_7890" x1="300.278" y1="85.1542" x2="254.523" y2="85.1542" gradientUnits="userSpaceOnUse">
<stop stop-color="#94F9FF" stop-opacity="0.2"/>
<stop offset="1" stop-color="#94FFF0"/>
</linearGradient>
<linearGradient id="paint10_linear_2919_7890" x1="300.278" y1="119.145" x2="254.523" y2="119.145" gradientUnits="userSpaceOnUse">
<stop stop-color="#94F9FF" stop-opacity="0.2"/>
<stop offset="1" stop-color="#94FFF0"/>
</linearGradient>
<radialGradient id="paint11_radial_2919_7890" cx="0" cy="0" r="1" gradientUnits="userSpaceOnUse" gradientTransform="translate(239.568 101.97) rotate(90) scale(6.21527 5.8591)">
<stop offset="0.34" stop-color="#94FFF0"/>
<stop offset="1" stop-color="#94FFF0" stop-opacity="0"/>
</radialGradient>
<radialGradient id="paint12_radial_2919_7890" cx="0" cy="0" r="1" gradientUnits="userSpaceOnUse" gradientTransform="translate(251.204 89.6068) rotate(90) scale(6.15546 5.80265)">
<stop offset="0.34" stop-color="#94FFF0"/>
<stop offset="1" stop-color="#94FFF0" stop-opacity="0"/>
</radialGradient>
<radialGradient id="paint13_radial_2919_7890" cx="0" cy="0" r="1" gradientUnits="userSpaceOnUse" gradientTransform="translate(264.421 114.333) rotate(90) scale(4.67737 4.4093)">
<stop offset="0.34" stop-color="#94FFF0"/>
<stop offset="1" stop-color="#94FFF0" stop-opacity="0"/>
</radialGradient>
<clipPath id="clip0_2919_7890">
<rect width="189" height="152" fill="white" transform="translate(112 12)"/>
</clipPath>
</defs>
</svg>
