<?xml version="1.0" encoding="UTF-8"?> <svg xmlns="http://www.w3.org/2000/svg" id="Icons" viewBox="0 0 88 88"><defs><style> .cls-1 { fill: #0b84cb; } .cls-2 { fill: #063e5b; } .cls-3 { fill: #fff; } .cls-4 { fill: #d1ab29; } .cls-5 { fill: #d6f1ff; } </style></defs><rect class="cls-5" x=".13" y=".13" width="87.74" height="87.74" rx="13.33" ry="13.33"></rect><path class="cls-1" d="M66.8,44.79c-1.93,0-3.5-1.57-3.5-3.5v-3.35c0-10.59-8.62-19.21-19.21-19.21s-19.2,8.62-19.2,19.21v3.35c0,1.93-1.57,3.5-3.5,3.5s-3.5-1.57-3.5-3.5v-3.35c0-14.45,11.75-26.21,26.2-26.21s26.21,11.76,26.21,26.21v3.35c0,1.93-1.57,3.5-3.5,3.5Z"></path><path class="cls-1" d="M53.2,73.05h-2.7c-1.38,0-2.5-1.12-2.5-2.5s1.12-2.5,2.5-2.5h2.7c5.27,0,9.56-4.29,9.56-9.56,0-1.38,1.12-2.5,2.5-2.5s2.5,1.12,2.5,2.5c0,8.03-6.53,14.56-14.56,14.56Z"></path><rect class="cls-2" x="40.05" y="65.63" width="13.22" height="9.26" rx="4.35" ry="4.35"></rect><path class="cls-4" d="M56.76,54.61h-11.05l-7.9,5.59c-.48.34-1.14,0-1.14-.59v-5.01h-4.39c-1.13,0-2.05-.92-2.05-2.05v-18.55c0-1.13.92-2.05,2.05-2.05h24.47c1.13,0,2.05.92,2.05,2.05v18.55c0,1.13-.92,2.05-2.05,2.05Z"></path><path class="cls-2" d="M71.12,38.62h4.62c1.17,0,2.11.95,2.11,2.11v18.63c0,1.17-.95,2.11-2.11,2.11h-4.62c-4.34,0-7.87-3.53-7.87-7.87v-7.11c0-4.34,3.53-7.87,7.87-7.87Z" transform="translate(141.09 100.1) rotate(180)"></path><path class="cls-2" d="M18.17,38.62h4.62c1.17,0,2.11.95,2.11,2.11v18.63c0,1.17-.95,2.11-2.11,2.11h-4.62c-4.34,0-7.87-3.53-7.87-7.87v-7.11c0-4.34,3.53-7.87,7.87-7.87Z"></path><rect class="cls-3" x="36.11" y="44.85" width="13.09" height="3.97"></rect><rect class="cls-3" x="36.11" y="37.72" width="17.16" height="3.97"></rect></svg> 