<?xml version="1.0" encoding="UTF-8"?> <svg xmlns="http://www.w3.org/2000/svg" xmlns:xlink="http://www.w3.org/1999/xlink" id="Icons" viewBox="0 0 88 88"><defs><style>.cls-1{fill:url(#linear-gradient);}.cls-1,.cls-2,.cls-3,.cls-4,.cls-5{stroke-width:0px;}.cls-2{fill:#14b1e6;}.cls-3{fill:#d6f1ff;}.cls-4{fill:#fff;}.cls-5{fill:#0184cf;}</style><linearGradient id="linear-gradient" x1="77.37" y1="45.66" x2="41.82" y2="45.66" gradientUnits="userSpaceOnUse"><stop offset="0" stop-color="#0184cf"></stop><stop offset=".16" stop-color="#0080ca"></stop><stop offset=".32" stop-color="#0076be"></stop><stop offset=".49" stop-color="#0065aa"></stop><stop offset=".66" stop-color="#004d8d"></stop><stop offset=".82" stop-color="#002e68"></stop><stop offset=".99" stop-color="#00083c"></stop><stop offset="1" stop-color="#000639"></stop></linearGradient></defs><rect class="cls-3" x=".13" y=".13" width="87.74" height="87.74" rx="13.33" ry="13.33"></rect><rect class="cls-5" x="20.02" y="36.37" width="21.24" height="25.2"></rect><polygon class="cls-5" points="48.41 36.37 12.86 36.37 30.64 15.81 48.41 36.37"></polygon><polygon class="cls-1" points="77.37 36.37 59.6 15.81 41.82 36.37 48.98 36.37 49.12 75.51 70.22 61.89 70.22 36.37 77.37 36.37"></polygon><polygon class="cls-4" points="45.11 10.07 27.83 30.07 34.78 30.07 34.78 59.47 55.44 48.97 55.44 30.07 62.4 30.07 45.11 10.07"></polygon><path class="cls-2" d="m45.89,58.37c-.74,0-1.45-.41-1.81-1.12-.5-1-.09-2.21.9-2.7h0c.07-.04,7.31-3.75,9.05-9.84.31-1.07,1.42-1.69,2.49-1.39,1.07.31,1.69,1.42,1.38,2.49-2.23,7.82-10.76,12.16-11.12,12.34-.29.14-.6.21-.9.21Z"></path><path class="cls-2" d="m50.93,62.41c-.74,0-1.45-.41-1.81-1.12-.5-1-.09-2.21.9-2.7.14-.07,9.34-4.84,12.07-14.86.29-1.07,1.4-1.71,2.48-1.42,1.07.29,1.71,1.4,1.42,2.48-3.22,11.83-13.71,17.18-14.15,17.41-.29.14-.6.21-.9.21Z"></path><path class="cls-2" d="m56.98,66.44c-.64,0-1.26-.3-1.65-.86-.64-.91-.42-2.17.49-2.81h0c.1-.07,9.53-6.8,12.32-17.03.29-1.07,1.4-1.71,2.48-1.42,1.07.29,1.71,1.4,1.42,2.48-3.18,11.66-13.46,18.97-13.9,19.27-.35.25-.76.36-1.15.36Z"></path><path class="cls-2" d="m54.96,75.51c-.72,0-1.42-.39-1.78-1.07-.52-.98-.15-2.2.83-2.73.14-.08,14.4-7.8,17.15-17.91.29-1.07,1.4-1.71,2.48-1.42,1.07.29,1.71,1.4,1.42,2.48-3.22,11.8-18.5,20.06-19.15,20.41-.3.16-.63.24-.95.24Z"></path><path class="cls-2" d="m62.41,66.72c-.27.14-.57.22-.9.22-1.11,0-2.02-.9-2.02-2.02,0-.37.11-.71.28-1.01-.61-.65-1.26-1.34-1.92-2.05-.12.02-.25.04-.37.04-1.11,0-2.02-.9-2.02-2.02,0-.17.03-.34.07-.5-.85-.91-1.69-1.81-2.47-2.64-.2.06-.4.11-.62.11-1.11,0-2.02-.9-2.02-2.02,0-.27.05-.52.15-.75-1.01-1.08-1.66-1.77-1.66-1.77.09.09-3.72,2.25-4,2.37-1.55.65-3.57.91-5.1.07-1.71-.93-2.22-3.42-1.21-5.05.88-1.43,2.87-1.26,4.03-2.36,2.01-1.91-.43-3.94-2.5-4.07-4.39-.26-10.86,1.63-14.4,3.99-3.05,2.04-4.66,3.49-6.47,6.81-5.28,9.65,3.4,18.27,11.93,21.52,7.51,2.86,17.8,2.91,24.67-.31.96-.45,1.12-1.71,1.92-2.41,2.14-1.86,4.08-2.64,6.27-4.44,0,0-.63-.67-1.62-1.73Z"></path></svg> 