<?xml version="1.0" encoding="UTF-8"?> <svg xmlns="http://www.w3.org/2000/svg" xmlns:xlink="http://www.w3.org/1999/xlink" id="Icons" viewBox="0 0 88 88"><defs><style>.cls-1{fill:url(#New_Gradient_Swatch_3);}.cls-1,.cls-2,.cls-3,.cls-4{stroke-width:0px;}.cls-2{fill:#14b1e6;}.cls-3{fill:#d6f1ff;}.cls-4{fill:#fff;}</style><linearGradient id="New_Gradient_Swatch_3" x1="50.86" y1="64.37" x2="76.96" y2="35.39" gradientUnits="userSpaceOnUse"><stop offset="0" stop-color="#0184cf"></stop><stop offset=".24" stop-color="#0081cc"></stop><stop offset=".4" stop-color="#007ac3"></stop><stop offset=".54" stop-color="#006db4"></stop><stop offset=".67" stop-color="#005b9e"></stop><stop offset=".79" stop-color="#004382"></stop><stop offset=".9" stop-color="#002760"></stop><stop offset="1" stop-color="#000639"></stop></linearGradient></defs><rect class="cls-3" x=".13" y=".13" width="87.74" height="87.74" rx="13.33" ry="13.33"></rect><path class="cls-4" d="m45.91,28.98c2.55-12.37,8.53-12.61,11.2-.5l2.57-.11-.26-1.53c-3.61-19.51-12.68-20.01-16.62-1.89-4.14-17.08-13.01-15.72-16.42,3.75l-.38,2.44,3.9-.17c2.69-13.67,9.24-13.94,12.05-.54l1.8-.08-.15-1.25,2.32-.1Z"></path><polygon class="cls-2" points="60.14 72.65 19.96 70.57 19.96 40.3 60.14 40.3 60.14 72.65"></polygon><polygon class="cls-1" points="73.56 32.34 61.98 28.26 61.98 39.45 60.1 39.1 60.1 72.69 71.4 65.32 71.4 41.97 73.56 42.36 73.56 32.34"></polygon><polygon class="cls-2" points="61.98 40.3 16.78 40.3 16.78 30.28 61.98 28.26 61.98 40.3"></polygon><polygon class="cls-4" points="43.41 72.35 35.35 71.91 35.35 28.98 43.41 28.58 43.41 72.35"></polygon></svg> 