<?xml version="1.0" encoding="UTF-8"?> <svg xmlns="http://www.w3.org/2000/svg" xmlns:xlink="http://www.w3.org/1999/xlink" id="Icons" viewBox="0 0 88 88"><defs><style>.cls-1{fill:url(#New_Gradient_Swatch_3);}.cls-1,.cls-2,.cls-3,.cls-4,.cls-5{stroke-width:0px;}.cls-2{fill:#14b1e6;}.cls-3{fill:#d6f1ff;}.cls-4{fill:#fff;}.cls-5{fill:#0184cf;}</style><linearGradient id="New_Gradient_Swatch_3" x1="45.14" y1="51.83" x2="67.99" y2="51.83" gradientUnits="userSpaceOnUse"><stop offset="0" stop-color="#0184cf"></stop><stop offset=".24" stop-color="#0081cc"></stop><stop offset=".4" stop-color="#007ac3"></stop><stop offset=".54" stop-color="#006db4"></stop><stop offset=".67" stop-color="#005b9e"></stop><stop offset=".79" stop-color="#004382"></stop><stop offset=".9" stop-color="#002760"></stop><stop offset="1" stop-color="#000639"></stop></linearGradient></defs><rect class="cls-3" x=".13" y=".13" width="87.74" height="87.74" rx="13.33" ry="13.33"></rect><path class="cls-2" d="m60.81,34.33h-6.4v-9.46c0-5.17-4.2-9.37-9.37-9.37s-9.37,4.2-9.37,9.37v9.46h-6.4v-9.46c0-8.69,7.07-15.77,15.77-15.77s15.77,7.07,15.77,15.77v9.46Z"></path><path class="cls-5" d="m45.24,74.06h-19.62c-1.95,0-3.53-1.58-3.53-3.53v-37.41c0-1.95,1.58-3.53,3.53-3.53h20.41c2,0,21.05,4.36,21.05,6.36v32.65c0,1.96-21.35,5.31-21.83,5.45,0,0,0,0,0,0Z"></path><path class="cls-1" d="m64.37,29.6h-19.23v44.47h19.23c2,0,3.62-1.62,3.62-3.62v-37.22c0-2-1.62-3.62-3.62-3.62Z"></path><circle class="cls-4" cx="45.04" cy="52.29" r="17.9"></circle><path class="cls-2" d="m36.01,44.41l3.6,3.86-11.25,10.5c1.64,4.26,4.86,7.73,8.95,9.7l7.29-6.8,4.01-3.75,3.6,3.86,3.17-19.19-10.78,1.02-8.59.81Z"></path></svg> 