<?xml version="1.0" encoding="UTF-8"?>
<svg id="Icons" xmlns="http://www.w3.org/2000/svg" xmlns:xlink="http://www.w3.org/1999/xlink" viewBox="0 0 88 88">
  <defs>
    <style>
      .cls-1 {
        fill: #14b1e6;
        stroke: #14b1e6;
        stroke-width: 1.5px;
      }

      .cls-1, .cls-2, .cls-3 {
        stroke-miterlimit: 10;
      }

      .cls-4 {
        fill: #4bbff9;
      }

      .cls-2 {
        fill: none;
        stroke: #4bbff9;
        stroke-width: 3px;
      }

      .cls-3 {
        fill: #fff;
        stroke: url(#New_Gradient_Swatch_3);
        stroke-width: 6px;
      }

      .cls-5 {
        fill: #d6f1ff;
      }
    </style>
    <linearGradient id="New_Gradient_Swatch_3" data-name="New Gradient Swatch 3" x1="12.55" y1="44" x2="75.88" y2="44" gradientUnits="userSpaceOnUse">
      <stop offset="0" stop-color="#0184cf"/>
      <stop offset=".24" stop-color="#0081cc"/>
      <stop offset=".4" stop-color="#007ac3"/>
      <stop offset=".54" stop-color="#006db4"/>
      <stop offset=".67" stop-color="#005b9e"/>
      <stop offset=".79" stop-color="#004382"/>
      <stop offset=".9" stop-color="#002760"/>
      <stop offset="1" stop-color="#000639"/>
    </linearGradient>
  </defs>
  <path class="cls-5" d="M74.76.13c7.36,0,13.33,5.97,13.33,13.33v61.07c0,7.36-5.97,13.33-13.33,13.33H13.68c-7.36,0-13.33-5.97-13.33-13.33V13.46C.35,6.1,6.32.13,13.68.13"/>
  <rect class="cls-5" x=".13" y=".13" width="87.74" height="87.74" rx="13.33" ry="13.33"/>
  <line class="cls-2" x1="13.42" y1="75.16" x2="71.19" y2="16.06"/>
  <g>
    <line class="cls-2" x1="14.01" y1="15.41" x2="73.11" y2="73.18"/>
    <polygon class="cls-4" points="65.59 76.63 76.53 65.69 77.28 77.39 65.59 76.63"/>
    <polygon class="cls-4" points="22.59 12.99 11.65 23.93 10.9 12.23 22.59 12.99"/>
  </g>
  <circle class="cls-3" cx="44.22" cy="44" r="28.66"/>
  <path class="cls-1" d="M39.24,59.65v5.46h3.02v-4.9c.5.04,1,.07,1.51.07s1.01-.02,1.51-.07v4.9h3.02v-5.46c2.75-.78,5.2-2.25,7.16-4.22l-3.2-3.2c-2.17,2.17-5.18,3.52-8.49,3.52s-6.32-1.34-8.49-3.52c-2.17-2.17-3.52-5.18-3.52-8.49s1.34-6.32,3.52-8.49c2.17-2.17,5.18-3.52,8.49-3.52s6.32,1.34,8.49,3.52l3.2-3.2c-1.96-1.96-4.42-3.44-7.16-4.22v-5.47h-3.02v4.91c-.5-.04-1-.07-1.51-.07s-1.01.02-1.51.07v-4.91h-3.02v5.47c-2.75.78-5.2,2.25-7.16,4.22-2.99,2.99-4.85,7.13-4.85,11.7s1.85,8.7,4.85,11.7c1.96,1.96,4.42,3.44,7.16,4.22Z"/>
  <polygon class="cls-4" points="74.65 23.59 63.71 12.65 75.4 11.89 74.65 23.59"/>
  <polygon class="cls-4" points="11 66.59 21.94 77.52 10.25 78.28 11 66.59"/>
</svg>