<?xml version="1.0" encoding="UTF-8"?> <svg xmlns="http://www.w3.org/2000/svg" xmlns:xlink="http://www.w3.org/1999/xlink" id="Icons" viewBox="0 0 88 88"><defs><style>.cls-1{fill:url(#New_Gradient_Swatch_3);}.cls-1,.cls-2,.cls-3,.cls-4{stroke-width:0px;}.cls-2{fill:#14b1e6;}.cls-3{fill:#d6f1ff;}.cls-4{fill:#fff;}</style><linearGradient id="New_Gradient_Swatch_3" x1="24" y1="52" x2="64" y2="52" gradientUnits="userSpaceOnUse"><stop offset="0" stop-color="#0184cf"></stop><stop offset=".24" stop-color="#0081cc"></stop><stop offset=".4" stop-color="#007ac3"></stop><stop offset=".54" stop-color="#006db4"></stop><stop offset=".67" stop-color="#005b9e"></stop><stop offset=".79" stop-color="#004382"></stop><stop offset=".9" stop-color="#002760"></stop><stop offset="1" stop-color="#000639"></stop></linearGradient></defs><rect class="cls-3" x=".13" y=".13" width="87.74" height="87.74" rx="13.33" ry="13.33"></rect><rect class="cls-4" x="19" y="15" width="27" height="54"></rect><rect class="cls-2" x="46.25" y="20" width="26" height="46"></rect><polygon class="cls-1" points="50.67 29 24 29 24 75 50.67 75 64 75 64 29 50.67 29"></polygon><rect class="cls-4" x="29" y="33.73" width="4.84" height="12"></rect><rect class="cls-4" x="37.47" y="33.73" width="4.84" height="12"></rect><rect class="cls-4" x="45.94" y="33.73" width="4.84" height="12"></rect><rect class="cls-4" x="29" y="49.73" width="4.84" height="12"></rect><rect class="cls-4" x="37.47" y="49.73" width="4.84" height="12"></rect><rect class="cls-4" x="45.94" y="49.73" width="4.84" height="12"></rect><rect class="cls-4" x="54.41" y="33.73" width="4.84" height="12"></rect><rect class="cls-4" x="54.41" y="49.73" width="4.84" height="12"></rect><rect class="cls-2" x="53.75" y="17" width="11" height="4"></rect></svg> 