<?xml version="1.0" encoding="UTF-8"?> <svg xmlns="http://www.w3.org/2000/svg" width="33" height="33" viewBox="0 0 33 33" fill="none"><g id="StarCompliance-product-logos-approved V2_L&amp;R-License &amp; Registration 2"><g id="Group 155"><path id="Vector" d="M28.681 9.14648H3.23305C2.52832 9.14648 1.95703 9.71778 1.95703 10.4225V25.6198C1.95703 26.3245 2.52832 26.8958 3.23305 26.8958H28.681C29.3857 26.8958 29.957 26.3245 29.957 25.6198V10.4225C29.957 9.71778 29.3857 9.14648 28.681 9.14648Z" fill="url(#paint0_linear_3897_609)"></path><path id="Vector_2" d="M17.9364 26.8955H13.9807V30.0345H17.9364V26.8955Z" fill="#101851"></path><path id="Vector_3" d="M9.34009 29.6904H22.5809V30.0137C22.5809 30.69 22.0322 31.2387 21.3559 31.2387H10.5693C9.89303 31.2387 9.34434 30.69 9.34434 30.0137V29.6904H9.34009Z" fill="#3944C8"></path><path id="Vector_4" d="M25.0067 1.88L5.32917 5.23293C4.63446 5.3513 4.16725 6.01044 4.28563 6.70515L6.51186 19.7704C6.63024 20.4651 7.28937 20.9323 7.98408 20.8139L27.6616 17.461C28.3563 17.3426 28.8235 16.6835 28.7051 15.9888L26.4789 2.92354C26.3605 2.22883 25.7014 1.76162 25.0067 1.88Z" fill="white"></path><path id="Vector_5" d="M11.3722 12.3933C12.7558 12.3933 13.8774 11.2717 13.8774 9.88805C13.8774 8.50445 12.7558 7.38281 11.3722 7.38281C9.98858 7.38281 8.86694 8.50445 8.86694 9.88805C8.86694 11.2717 9.98858 12.3933 11.3722 12.3933Z" fill="#3944C8"></path><path id="Vector_6" d="M11.0169 12.6859L12.6312 12.4108C14.279 12.1301 15.8445 13.2397 16.1253 14.8875L16.3267 16.0699L8.73751 17.3631L8.53603 16.1807C8.25525 14.5329 9.36489 12.9674 11.0127 12.6866L11.0169 12.6859Z" fill="#3944C8"></path><path id="Vector_7" d="M24.0529 5.57531L16.6775 6.83203L16.9283 8.30376L24.3037 7.04703L24.0529 5.57531Z" fill="#D1D4F7"></path><path id="Vector_8" d="M24.671 9.1964L17.2957 10.4531L17.5464 11.9248L24.9218 10.6681L24.671 9.1964Z" fill="#D1D4F7"></path><path id="Vector_9" d="M25.2868 12.8185L17.9114 14.0752L18.1622 15.5469L25.5375 14.2902L25.2868 12.8185Z" fill="#D1D4F7"></path></g></g><defs><linearGradient id="paint0_linear_3897_609" x1="5.381" y1="29.367" x2="26.5373" y2="6.67527" gradientUnits="userSpaceOnUse"><stop stop-color="#3944C8"></stop><stop offset="1" stop-color="#171F66"></stop></linearGradient></defs></svg> 