<?xml version="1.0" encoding="UTF-8"?> <svg xmlns="http://www.w3.org/2000/svg" xmlns:xlink="http://www.w3.org/1999/xlink" id="Icons" viewBox="0 0 88 88"><defs><style> .cls-1 { fill: #4bbff9; } .cls-2, .cls-3 { fill: #fff; } .cls-2, .cls-4 { stroke: #e3c272; stroke-miterlimit: 10; stroke-width: 5px; } .cls-5 { fill: url(#New_Gradient_Swatch_3); } .cls-4 { fill: #d1ab29; } .cls-6 { fill: #d6f1ff; } </style><linearGradient id="New_Gradient_Swatch_3" data-name="New Gradient Swatch 3" x1="18.29" y1="46.93" x2="70" y2="46.93" gradientUnits="userSpaceOnUse"><stop offset="0" stop-color="#0b84cb"></stop><stop offset=".24" stop-color="#0a81c8"></stop><stop offset=".41" stop-color="#0a79bf"></stop><stop offset=".55" stop-color="#086cb0"></stop><stop offset=".67" stop-color="#075a9a"></stop><stop offset=".79" stop-color="#05427e"></stop><stop offset=".9" stop-color="#02245c"></stop><stop offset="1" stop-color="#000639"></stop></linearGradient></defs><rect class="cls-6" x=".13" y=".13" width="87.74" height="87.74" rx="13.33" ry="13.33"></rect><path class="cls-5" d="M67.4,58.48h-2.08l-1.58-22.49c-.43-6.17-5.56-10.95-11.75-10.95h-15.69c-6.19,0-11.32,4.78-11.75,10.95l-1.58,22.49h-.92c-2.08,0-3.77,1.69-3.77,3.77v6.57h51.72v-7.74c0-1.44-1.17-2.61-2.61-2.61Z"></path><path class="cls-1" d="M44.14,25.04h-7.85c-6.19,0-11.32,4.78-11.75,10.95l-1.58,22.6h21.18V25.04Z"></path><g><line class="cls-2" x1="15.94" y1="23.45" x2="23.3" y2="28.55"></line><line class="cls-2" x1="11.76" y1="37.81" x2="19.18" y2="36.46"></line><line class="cls-2" x1="29.25" y1="21.9" x2="27.9" y2="14.48"></line></g><g><line class="cls-4" x1="70.7" y1="22.4" x2="63.47" y2="27.69"></line><line class="cls-4" x1="58.51" y1="13.75" x2="57.35" y2="21.19"></line><line class="cls-4" x1="67.8" y1="35.49" x2="75.25" y2="36.65"></line></g><path class="cls-3" d="M56.63,52.56c-5.23,0-9.48-4.24-9.48-9.48s4.24-9.48,9.48-9.48v18.96Z"></path><path class="cls-3" d="M31.55,33.61c5.23,0,9.48,4.24,9.48,9.48s-4.24,9.48-9.48,9.48v-18.96Z"></path></svg> 