<?xml version="1.0" encoding="UTF-8"?> <svg xmlns="http://www.w3.org/2000/svg" xmlns:xlink="http://www.w3.org/1999/xlink" id="Icons" viewBox="0 0 88 88"><defs><style>.cls-1{fill:url(#New_Gradient_Swatch_3);}.cls-1,.cls-2,.cls-3,.cls-4{stroke-width:0px;}.cls-2{fill:#14b1e6;}.cls-3{fill:#d6f1ff;}.cls-4{fill:#fff;}</style><linearGradient id="New_Gradient_Swatch_3" x1="33.3" y1="58.16" x2="71.32" y2="58.16" gradientUnits="userSpaceOnUse"><stop offset="0" stop-color="#0184cf"></stop><stop offset=".24" stop-color="#0081cc"></stop><stop offset=".4" stop-color="#007ac3"></stop><stop offset=".54" stop-color="#006db4"></stop><stop offset=".67" stop-color="#005b9e"></stop><stop offset=".79" stop-color="#004382"></stop><stop offset=".9" stop-color="#002760"></stop><stop offset="1" stop-color="#000639"></stop></linearGradient></defs><rect class="cls-3" x=".13" y=".13" width="87.74" height="87.74" rx="13.33" ry="13.33"></rect><path class="cls-1" d="m71.32,38.7h-38.02v31.19h18.34l9.85,7.49c.67.54,1.66.07,1.66-.79v-6.7h8.17v-31.19Z"></path><rect class="cls-2" x="20.15" y="15.33" width="38.25" height="31.68"></rect><circle class="cls-4" cx="62.63" cy="55.01" r="2.99"></circle><circle class="cls-4" cx="44.57" cy="55.01" r="2.99"></circle><circle class="cls-4" cx="53.6" cy="55.01" r="2.99"></circle><path class="cls-4" d="m51.95,32.56c-.07-.12-.16-.24-.23-.37-1.89-3.27-3.46-6.14-5.26-9.37-.4-.73-.9-1.4-1.35-2.1-.55-.85-1.06-.98-1.88-.42-3.96,2.72-7.36,5.23-11.26,7.78-.45.3-.78.64-.67,1.21.11.57.53.78,1.06.9,1.92.41,3.17.7,5.22,1.15-.35,1.08-.59,2.16-1.03,3.15-2.21,4.99-5.97,8.22-11.31,9.4-3.73.82-7.25.34-10.54-1.28-.17-.08-.37.03-.37.22v8.23c0,.18.12.35.29.4,4.77,1.62,9.24,1.66,14.88.09,1.45-.41,2.89-.95,4.1-1.85.16-.12.35-.18.54-.26.7-.45,1.4-.9,2.1-1.35.69-.59,1.4-1.16,2.08-1.77,3.77-3.43,6.18-7.66,7.33-12.62.04-.17.04-.35.06-.58.26.05.42.08.59.11,1.8.39,2.71.58,4.51.97.46.1.86.03,1.15-.38.3-.42.25-.84,0-1.26Z"></path></svg> 