<svg width="224" height="228" viewBox="0 0 224 228" fill="none" xmlns="http://www.w3.org/2000/svg">
<path opacity="0.6" fill-rule="evenodd" clip-rule="evenodd" d="M150.153 178.134C136.466 187.059 120.163 192.239 102.663 192.239C54.2212 192.239 14.9514 152.551 14.9514 103.594C14.9514 54.6368 54.2212 14.9492 102.663 14.9492C151.105 14.9492 190.375 54.6368 190.375 103.594C190.375 123.167 184.098 141.259 173.467 155.925L204.506 186.963C210.431 192.889 210.61 202.44 204.911 208.583C198.996 214.959 189.006 215.26 182.718 209.251L150.153 178.134Z" fill="#6619D0" fill-opacity="0.8"/>
<path opacity="0.2" fill-rule="evenodd" clip-rule="evenodd" d="M149.293 187.538C135.485 195.298 119.555 199.724 102.61 199.724C49.7312 199.724 7 156.731 7 103.862C7 50.9934 49.7312 8 102.61 8C155.488 8 198.219 50.9934 198.219 103.862C198.219 122.705 192.79 140.299 183.408 155.133L210.218 181.753C219.022 190.494 219.288 204.583 210.82 213.646C202.032 223.051 187.191 223.495 177.849 214.631L149.293 187.538ZM150.315 178.21C136.566 187.112 120.189 192.278 102.61 192.278C53.9473 192.278 14.4988 152.693 14.4988 103.862C14.4988 55.031 53.9473 15.4456 102.61 15.4456C151.272 15.4456 190.72 55.031 190.72 103.862C190.72 123.385 184.415 141.43 173.736 156.058L204.916 187.017C210.868 192.928 211.048 202.454 205.323 208.582C199.381 214.941 189.346 215.241 183.029 209.248L150.315 178.21Z" fill="#6619D0"/>
<path opacity="0.7" d="M33.1871 84.9763C22.7042 124.099 45.3115 164.149 83.682 174.431C122.053 184.712 161.656 161.331 172.139 122.208C182.622 83.0855 160.015 43.0354 121.644 32.7541C83.2736 22.4727 43.6701 45.8534 33.1871 84.9763Z" fill="url(#paint0_linear_1322_2058)"/>
<path d="M64.222 93.2925C58.4218 114.939 70.9304 137.099 92.1608 142.788C113.391 148.476 135.304 135.54 141.104 113.893C146.904 92.2463 134.396 70.0867 113.165 64.398C91.9348 58.7093 70.0222 71.6459 64.222 93.2925Z" stroke="url(#paint1_linear_1322_2058)" stroke-opacity="0.8" stroke-width="5" stroke-linecap="round" stroke-linejoin="round"/>
<path fill-rule="evenodd" clip-rule="evenodd" d="M119.029 42.5134C151.974 51.341 171.537 85.7968 162.474 119.618C153.412 153.44 119.242 173.498 86.2971 164.671C53.3523 155.843 33.7894 121.387 42.8519 87.5657C51.9144 53.7441 86.0842 33.6859 119.029 42.5134ZM172.133 122.207C182.578 83.228 160.073 43.1583 121.617 32.8542C83.1618 22.5501 43.6369 45.9989 33.1926 84.9775C22.7483 123.956 45.2534 164.026 83.7089 174.33C107.201 180.625 131.092 174.323 148.509 159.58L188.521 199.592C190.474 201.545 193.639 201.545 195.592 199.592C197.545 197.639 197.545 194.474 195.592 192.521L155.685 152.614C163.244 144.206 168.999 133.906 172.133 122.207Z" fill="url(#paint2_linear_1322_2058)" fill-opacity="0.8"/>
<circle cx="102" cy="50" r="3" fill="#D9D9D9"/>
<circle cx="102" cy="158" r="3" fill="#D9D9D9"/>
<ellipse cx="156" cy="104" rx="3" ry="3" transform="rotate(90 156 104)" fill="#D9D9D9"/>
<ellipse cx="48" cy="104" rx="3" ry="3" transform="rotate(90 48 104)" fill="#D9D9D9"/>
<circle cx="139.998" cy="141.862" r="2.79931" transform="rotate(135 139.998 141.862)" fill="#D9D9D9"/>
<circle cx="63.4613" cy="65.3252" r="2.79931" transform="rotate(135 63.4613 65.3252)" fill="#D9D9D9"/>
<circle cx="63.4618" cy="141.862" r="2.79931" transform="rotate(-135 63.4618 141.862)" fill="#D9D9D9"/>
<circle cx="139.998" cy="65.3244" r="2.79931" transform="rotate(-135 139.998 65.3244)" fill="#D9D9D9"/>
<path d="M124.817 102.591C123.358 102.591 122.121 103.49 121.6 104.766H114.529C113.813 104.766 113.227 105.352 113.227 106.068C113.227 106.785 113.813 107.371 114.529 107.371H121.6C122.121 108.647 123.358 109.545 124.817 109.545C126.731 109.545 128.294 107.983 128.294 106.068C128.294 104.154 126.731 102.591 124.817 102.591ZM124.817 106.941C124.335 106.941 123.944 106.55 123.944 106.068C123.944 105.587 124.335 105.196 124.817 105.196C125.299 105.196 125.689 105.587 125.689 106.068C125.689 106.55 125.299 106.941 124.817 106.941Z" fill="url(#paint3_linear_1322_2058)"/>
<path d="M125.82 89.8814C125.82 87.967 124.257 86.4043 122.342 86.4043C120.428 86.4043 118.865 87.967 118.865 89.8814C118.865 91.3139 119.738 92.551 120.975 93.085V97.4085H114.685C113.969 97.4085 113.383 97.9946 113.383 98.7108C113.383 99.4271 113.969 100.013 114.685 100.013H122.277C122.994 100.013 123.58 99.4271 123.58 98.7108V93.124C124.882 92.6162 125.82 91.366 125.82 89.8814ZM122.342 89.0088C122.824 89.0088 123.215 89.3995 123.215 89.8814C123.215 90.3632 122.824 90.7539 122.342 90.7539C121.861 90.7539 121.47 90.3632 121.47 89.8814C121.47 89.3995 121.861 89.0088 122.342 89.0088Z" fill="url(#paint4_linear_1322_2058)"/>
<path d="M123.58 119.509V113.922C123.58 113.206 122.994 112.62 122.277 112.62H112.38C111.664 112.62 111.078 113.206 111.078 113.922C111.078 114.638 111.664 115.224 112.38 115.224H120.975V119.548C119.738 120.082 118.866 121.306 118.866 122.751C118.866 124.666 120.428 126.228 122.343 126.228C124.257 126.228 125.82 124.666 125.82 122.751C125.82 121.267 124.882 120.017 123.58 119.509ZM122.343 123.624C121.861 123.624 121.47 123.233 121.47 122.751C121.47 122.269 121.861 121.879 122.343 121.879C122.824 121.879 123.215 122.269 123.215 122.751C123.215 123.233 122.824 123.624 122.343 123.624Z" fill="url(#paint5_linear_1322_2058)"/>
<path d="M81.4771 102.591C82.9356 102.591 84.1728 103.49 84.6937 104.766H91.7651C92.4813 104.766 93.0673 105.352 93.0673 106.068C93.0673 106.785 92.4813 107.371 91.7651 107.371H84.6937C84.1728 108.647 82.9356 109.545 81.4771 109.545C79.5627 109.545 78 107.983 78 106.068C78 104.154 79.5627 102.591 81.4771 102.591ZM81.4771 106.941C81.9589 106.941 82.3496 106.55 82.3496 106.068C82.3496 105.587 81.9589 105.196 81.4771 105.196C80.9952 105.196 80.6046 105.587 80.6046 106.068C80.6046 106.55 80.9952 106.941 81.4771 106.941Z" fill="url(#paint6_linear_1322_2058)"/>
<path d="M80.4744 89.8814C80.4744 87.967 82.0371 86.4043 83.9515 86.4043C85.8658 86.4043 87.4285 87.967 87.4285 89.8814C87.4285 91.3139 86.556 92.551 85.3189 93.085V97.4085H91.6089C92.3251 97.4085 92.9111 97.9946 92.9111 98.7108C92.9111 99.4271 92.3251 100.013 91.6089 100.013H84.0166C83.3003 100.013 82.7143 99.4271 82.7143 98.7108V93.124C81.412 92.6162 80.4744 91.366 80.4744 89.8814ZM83.9515 89.0088C83.4696 89.0088 83.0789 89.3995 83.0789 89.8814C83.0789 90.3632 83.4696 90.7539 83.9515 90.7539C84.4333 90.7539 84.824 90.3632 84.824 89.8814C84.824 89.3995 84.4333 89.0088 83.9515 89.0088Z" fill="url(#paint7_linear_1322_2058)"/>
<path d="M82.7142 119.509V113.922C82.7142 113.206 83.3002 112.62 84.0165 112.62H93.9138C94.63 112.62 95.216 113.206 95.216 113.922C95.216 114.638 94.63 115.224 93.9138 115.224H85.3187V119.548C86.5559 120.082 87.4284 121.306 87.4284 122.751C87.4284 124.666 85.8657 126.228 83.9514 126.228C82.037 126.228 80.4743 124.666 80.4743 122.751C80.4743 121.267 81.4119 120.017 82.7142 119.509ZM83.9514 123.624C84.4332 123.624 84.8239 123.233 84.8239 122.751C84.8239 122.269 84.4332 121.879 83.9514 121.879C83.4695 121.879 83.0788 122.269 83.0788 122.751C83.0788 123.233 83.4695 123.624 83.9514 123.624Z" fill="url(#paint8_linear_1322_2058)"/>
<path fill-rule="evenodd" clip-rule="evenodd" d="M115.896 96.0022L115.948 97.2524V97.2654C116.276 104.431 116.75 115.018 106.355 123.297V123.481H106.122C105.419 124.03 104.667 124.568 103.863 125.095C103.642 125.225 103.394 125.303 103.147 125.303C102.9 125.303 102.639 125.238 102.431 125.095C101.627 124.568 100.875 124.03 100.172 123.481H100.119V123.439C89.5386 115.139 90.0163 104.472 90.3456 97.2654L90.3977 96.0022C90.4498 94.9344 91.2181 94.0358 92.286 93.8144C93.0413 93.6581 93.7315 93.5018 94.3826 93.3456C94.3826 90.155 96.0756 87.3681 98.615 85.8184L97.0914 83.6046H95.0598C94.3436 83.6046 93.7575 83.0185 93.7575 82.3023C93.7575 81.586 94.3436 81 95.0598 81H97.7816C98.1983 81 98.602 81.2084 98.8494 81.56L101.063 84.7766C101.754 84.6073 102.483 84.5031 103.199 84.5031C103.915 84.5031 104.605 84.5943 105.283 84.7636L107.484 81.56C107.718 81.2084 108.122 81 108.551 81H111.273C111.989 81 112.575 81.586 112.575 82.3023C112.575 83.0185 111.989 83.6046 111.273 83.6046H109.242L107.744 85.7924C110.296 87.3421 112.015 90.142 112.015 93.3456H111.911C112.562 93.5018 113.253 93.6581 114.008 93.8144C115.076 94.0228 115.857 94.9344 115.896 96.0022ZM100.119 120.029C92.2504 112.866 92.634 104.371 92.9495 97.383L92.9501 97.3696L93.0022 96.3148C96.155 95.6634 98.4598 94.9531 100.119 94.3093V120.029ZM106.355 119.888V94.375C108.01 95.0012 110.272 95.6855 113.318 96.3148L113.37 97.3696L113.37 97.383C113.684 104.325 114.064 112.755 106.355 119.888ZM106.355 91.5764C107.119 91.9006 108.102 92.2654 109.346 92.6423C109.085 90.3113 107.562 88.3839 105.465 87.5504C105.458 87.547 105.452 87.5435 105.446 87.5402C105.431 87.5314 105.419 87.5244 105.4 87.5244C104.71 87.2639 103.98 87.1077 103.199 87.1077C100.021 87.1077 97.4169 89.5169 97.0523 92.6033C99.8261 91.7438 101.246 90.9494 101.832 90.5717C102.6 90.0769 103.603 90.0638 104.384 90.5717C104.706 90.7817 105.284 91.112 106.196 91.5081H106.355V91.5764Z" fill="white"/>
<defs>
<linearGradient id="paint0_linear_1322_2058" x1="172.139" y1="122.208" x2="33.1871" y2="84.9763" gradientUnits="userSpaceOnUse">
<stop stop-color="#6619D0"/>
<stop offset="1" stop-color="#00BFCB"/>
</linearGradient>
<linearGradient id="paint1_linear_1322_2058" x1="141.104" y1="113.893" x2="64.222" y2="93.2925" gradientUnits="userSpaceOnUse">
<stop stop-color="white"/>
<stop offset="1" stop-color="white" stop-opacity="0.2"/>
</linearGradient>
<linearGradient id="paint2_linear_1322_2058" x1="201.152" y1="193.06" x2="61.0787" y2="53.0705" gradientUnits="userSpaceOnUse">
<stop stop-color="white"/>
<stop offset="1" stop-color="white" stop-opacity="0.4"/>
</linearGradient>
<linearGradient id="paint3_linear_1322_2058" x1="127.126" y1="106.147" x2="110.332" y2="105.697" gradientUnits="userSpaceOnUse">
<stop stop-color="white"/>
<stop offset="1" stop-color="white" stop-opacity="0"/>
</linearGradient>
<linearGradient id="paint4_linear_1322_2058" x1="123.444" y1="87.8255" x2="109.434" y2="103.453" gradientUnits="userSpaceOnUse">
<stop stop-color="white"/>
<stop offset="1" stop-color="white" stop-opacity="0"/>
</linearGradient>
<linearGradient id="paint5_linear_1322_2058" x1="122.816" y1="124.738" x2="107.009" y2="113.871" gradientUnits="userSpaceOnUse">
<stop stop-color="white"/>
<stop offset="1" stop-color="white" stop-opacity="0"/>
</linearGradient>
<linearGradient id="paint6_linear_1322_2058" x1="79.1676" y1="106.147" x2="95.9621" y2="105.697" gradientUnits="userSpaceOnUse">
<stop stop-color="white"/>
<stop offset="1" stop-color="white" stop-opacity="0"/>
</linearGradient>
<linearGradient id="paint7_linear_1322_2058" x1="82.8498" y1="87.8255" x2="96.8603" y2="103.453" gradientUnits="userSpaceOnUse">
<stop stop-color="white"/>
<stop offset="1" stop-color="white" stop-opacity="0"/>
</linearGradient>
<linearGradient id="paint8_linear_1322_2058" x1="83.4784" y1="124.738" x2="99.2851" y2="113.871" gradientUnits="userSpaceOnUse">
<stop stop-color="white"/>
<stop offset="1" stop-color="white" stop-opacity="0"/>
</linearGradient>
</defs>
</svg>
