<?xml version="1.0" encoding="UTF-8"?> <svg xmlns="http://www.w3.org/2000/svg" width="33" height="32" viewBox="0 0 33 32" fill="none"><path fill-rule="evenodd" clip-rule="evenodd" d="M25.4812 24.9486H30.2179L30.4975 25.489C30.5887 25.6651 30.7414 26.0266 30.8666 26.3534C30.9319 26.5236 30.9972 26.7036 31.0491 26.8657C31.09 26.9935 31.1568 27.2108 31.1729 27.4088L31.1731 27.4112L30.1762 27.4903L31.1728 27.4075L31.1729 27.4088C31.3797 29.9048 29.5583 31.9492 27.0355 31.9512L27.0387 31.9511L27.0319 30.9512V31.9512L27.0355 31.9512C23.837 31.9727 20.6229 31.9835 17.4177 31.9511L17.4159 31.9511C16.4485 31.9395 15.4846 31.8238 14.5661 31.6676L14.7327 30.6817L14.5651 31.6675L14.5661 31.6676C13.3478 31.4628 12.1557 31.0002 11.082 30.5835C10.6991 30.4349 10.3312 30.2922 9.98267 30.1691L10.6487 28.2832C11.1255 28.4516 11.5681 28.6234 11.9923 28.7881C12.9955 29.1776 13.8954 29.5269 14.8984 29.6954L14.9004 29.6958C15.7565 29.8414 16.6101 29.9412 17.4389 29.9512C20.6279 29.9835 23.8294 29.9727 27.0252 29.9512L27.0319 29.9512C28.3469 29.9512 29.2786 28.9506 29.1821 27.6043C29.1838 27.6111 29.1849 27.6158 29.1854 27.6185H25.4812" fill="#0099CE"></path><path fill-rule="evenodd" clip-rule="evenodd" d="M15.9758 0.688109C16.4262 0.224185 17.0462 -0.0169409 17.7108 0.000925907L17.7122 0.000961252C19.4917 0.0511407 21.0824 0.714925 22.3168 2.07438C24.1747 4.11457 24.3133 6.55033 23.8402 8.86566C23.7297 9.41003 23.5703 9.96591 23.4073 10.5016H28.9778C30.3426 10.5016 31.5814 11.0386 32.4124 12.2518L32.4148 12.2553C32.5727 12.488 32.7008 12.8188 32.7922 13.1424C32.8909 13.4918 32.9722 13.9227 32.9941 14.3959C33.0376 15.3349 32.8485 16.5337 31.983 17.5432L30.4646 16.2414C30.8932 15.7415 31.0249 15.1074 30.9962 14.4885C30.9821 14.1828 30.929 13.9035 30.8676 13.6861C30.8183 13.5116 30.7746 13.4148 30.7609 13.3844C30.7564 13.3745 30.7551 13.3716 30.7578 13.3753C30.3484 12.7819 29.7705 12.5016 28.9778 12.5016H20.7314L21.0969 11.2261C21.1996 10.8679 21.3014 10.5398 21.3982 10.2276C21.5882 9.61504 21.7593 9.06381 21.8803 8.46726L21.8806 8.46587C22.2843 6.49066 22.1019 4.8085 20.8377 3.42054L20.8365 3.41928C19.9961 2.49351 18.9348 2.03623 17.6558 2.00017L17.684 1.00075L17.6571 2.0002C17.5196 1.99651 17.4498 2.04109 17.4109 2.08119C17.3682 2.12517 17.3043 2.22646 17.3043 2.4237V5.67968C17.3043 5.98435 17.2232 6.4591 16.9028 6.82698C15.8802 8.05105 14.8488 9.28568 13.7839 10.5002C13.2481 11.1119 12.6879 11.726 12.136 12.331C11.7743 12.7275 11.4161 13.1202 11.0706 13.5058L9.58105 12.1712C9.95439 11.7545 10.3215 11.3522 10.6851 10.9538C11.2214 10.3661 11.75 9.78682 12.2794 9.18239C13.3045 8.01337 14.3008 6.82216 15.3043 5.62085V2.4237C15.3043 1.76922 15.5292 1.14816 15.9758 0.688109Z" fill="#0099CE"></path><path fill-rule="evenodd" clip-rule="evenodd" d="M26.2507 20.5605H30.7989L31.0954 21.0089C32.2958 22.8239 32.0342 24.9633 30.6433 26.3796L29.2163 24.9783C29.8383 24.3449 30.0497 23.4515 29.67 22.5605H26.2507V20.5605Z" fill="#0099CE"></path><path fill-rule="evenodd" clip-rule="evenodd" d="M26.5396 16.1724H31.4533L31.751 16.6095C32.3706 17.5193 32.6497 18.5468 32.4802 19.6718L32.4795 19.6759C32.3379 20.5898 31.9214 21.3501 31.3136 21.9628L29.8937 20.5543C30.2266 20.2187 30.4303 19.8369 30.5028 19.3717C30.5657 18.9519 30.5155 18.5602 30.3438 18.1724H26.5396V16.1724Z" fill="#0099CE"></path><path fill-rule="evenodd" clip-rule="evenodd" d="M0 11.1484H4.28327C7.04469 11.1484 9.28327 13.387 9.28327 16.1484V26.0454C9.28327 28.8069 7.0447 31.0454 4.28327 31.0454H0V11.1484ZM2 13.1484V29.0454H4.28327C5.94012 29.0454 7.28327 27.7023 7.28327 26.0454V16.1484C7.28327 14.4915 5.94012 13.1484 4.28327 13.1484H2Z" fill="#0099CE"></path></svg> 