<svg width="96" height="96" viewBox="0 0 96 96" fill="none" xmlns="http://www.w3.org/2000/svg">
<mask id="mask0_2912_1481" style="mask-type:luminance" maskUnits="userSpaceOnUse" x="2" y="0" width="92" height="96">
<path d="M93.922 0H2.07788V96H93.922V0Z" fill="white"/>
</mask>
<g mask="url(#mask0_2912_1481)">
<path opacity="0.3" d="M81.5218 34.6614H81.4865C80.7102 34.6381 79.9455 34.5459 79.2045 34.3896V14.7368C79.2045 6.61452 72.4758 0 64.2003 0H27.1339C25.1515 0 23.2166 0.381257 21.3814 1.13226L20.7346 1.40954C20.4464 1.54822 20.1994 1.6753 20.0052 1.79084L19.8582 1.87171C18.6054 2.55339 17.4879 3.37367 16.5292 4.3153L6.47738 14.188C5.52453 15.1238 4.68933 16.2157 4.00121 17.4288C3.97768 17.4635 3.96002 17.5039 3.9365 17.5386C3.76004 17.839 3.59535 18.1452 3.44831 18.4571L3.23067 18.9539C2.46608 20.7563 2.07788 22.6626 2.07788 24.6095V81.2634C2.07788 89.3856 8.80653 96 17.0821 96H64.2003C68.3702 96 72.1936 94.4112 74.9697 91.5287C76.8635 89.5647 78.1398 87.1613 78.7869 84.3653C87.2095 78.2246 92.8324 68.4962 93.6087 58.5484C93.8381 55.5907 93.8676 52.7717 93.8909 50.0451C93.8967 49.1728 93.9087 48.3063 93.9204 47.4165C94.0322 40.4729 88.5855 34.875 81.516 34.6668L81.5218 34.6614Z" fill="url(#paint0_linear_2912_1481)"/>
<path opacity="0.3" d="M79.5005 39.2959C77.285 39.2286 75.1763 38.749 73.1915 37.8505V15.867C73.1915 10.3264 68.6479 5.81812 63.0641 5.81812H27.6277C26.2891 5.81812 24.9845 6.07478 23.7478 6.58811L23.3313 6.76665C23.1684 6.84478 23.028 6.91729 22.9099 6.98425L22.8085 7.04006C22.7803 7.05681 22.7466 7.07351 22.713 7.09583C21.8639 7.56453 21.1046 8.12249 20.4637 8.75858L10.8595 18.2997C10.2184 18.9358 9.65616 19.6834 9.18381 20.5316C9.16132 20.5762 9.13319 20.6152 9.11632 20.6543C9.03199 20.7994 8.92515 20.9891 8.81269 21.2234L8.6721 21.5582C8.15478 22.7913 7.89612 24.0858 7.89612 25.4138V80.1329C7.89612 85.6735 12.4396 90.1818 18.0233 90.1818H63.0699C65.8868 90.1818 68.4509 89.1162 70.3011 87.1742C72.2128 85.1715 72.9214 82.7553 73.1632 80.7019C80.9567 75.591 86.282 66.9148 86.9847 57.8759C87.193 55.1584 87.2208 52.514 87.2437 49.9415C87.2491 49.0879 87.2603 48.2397 87.2715 47.3749C87.3446 42.9115 84.0046 39.441 79.5059 39.3126L79.5005 39.2959Z" fill="url(#paint1_linear_2912_1481)"/>
<path fill-rule="evenodd" clip-rule="evenodd" d="M20.5265 83.5009H64.133C66.3921 83.5009 68.2539 81.8099 68.4713 79.5695C68.5585 78.6723 67.8998 77.8781 67.0018 77.7912C66.1037 77.7098 65.3087 78.3622 65.2218 79.2595C65.1674 79.8197 64.6994 80.2436 64.133 80.2436H20.5265C19.9223 80.2436 19.4324 79.7544 19.4324 79.1506V26.3261H25.9755C28.3813 26.3261 30.3354 24.3739 30.3354 21.9704V15.4339H64.133C64.7372 15.4339 65.2272 15.9234 65.2272 16.527V38.0452C65.2272 38.9478 65.9566 39.6763 66.86 39.6763C67.7639 39.6763 68.4933 38.9478 68.4933 38.0452V16.527C68.4933 14.1234 66.5392 12.1711 64.133 12.1711H29.8292C29.1979 12.1711 28.5936 12.3017 28.0222 12.5627C27.5484 12.7802 27.1183 13.0793 26.7485 13.4491L17.4456 22.7371C17.0754 23.1069 16.776 23.5365 16.5583 24.015C16.297 24.5861 16.1664 25.1951 16.1664 25.8203V79.1452C16.1664 81.5489 18.1205 83.5009 20.5265 83.5009ZM27.0693 17.7396L21.7402 23.0634H25.9755C26.5797 23.0634 27.0693 22.574 27.0693 21.9704V17.7396Z" fill="url(#paint2_linear_2912_1481)"/>
<path fill-rule="evenodd" clip-rule="evenodd" d="M36.8728 24.9612H58.6788C59.5823 24.9612 60.3116 24.2326 60.3116 23.3299C60.3116 22.4272 59.5823 21.6985 58.6788 21.6985H36.8728C35.9693 21.6985 35.2399 22.4272 35.2399 23.3299C35.2399 24.2326 35.9693 24.9612 36.8728 24.9612ZM25.9753 33.1291H58.6788C59.5823 33.1291 60.3116 32.4005 60.3116 31.4979C60.3116 30.5948 59.5823 29.8663 58.6788 29.8663H25.9753C25.0714 29.8663 24.342 30.5948 24.342 31.4979C24.342 32.4005 25.0714 33.1291 25.9753 33.1291ZM58.6788 41.3024H25.9753C25.0714 41.3024 24.342 40.5738 24.342 39.6708C24.342 38.7681 25.0714 38.0396 25.9753 38.0396H58.6788C59.5823 38.0396 60.3116 38.7681 60.3116 39.6708C60.3116 40.5738 59.5823 41.3024 58.6788 41.3024ZM49.1528 49.4702H25.9753C25.0714 49.4702 24.342 48.7413 24.342 47.8387C24.342 46.936 25.0714 46.2075 25.9753 46.2075H49.1528C50.0567 46.2075 50.786 46.936 50.786 47.8387C50.786 48.7413 50.0567 49.4702 49.1528 49.4702ZM49.3327 57.6381H25.9753C25.0714 57.6381 24.342 56.9092 24.342 56.0066C24.342 55.1039 25.0714 54.375 25.9753 54.375H49.3327C50.2362 54.375 50.9655 55.1039 50.9655 56.0066C50.9655 56.9092 50.2362 57.6381 49.3327 57.6381ZM25.9753 73.9735H55.8811C56.7846 73.9735 57.5139 73.245 57.5139 72.3424C57.5139 71.4397 56.7846 70.7108 55.8811 70.7108H25.9753C25.0714 70.7108 24.342 71.4397 24.342 72.3424C24.342 73.245 25.0714 73.9735 25.9753 73.9735ZM50.9764 65.806H25.9753C25.0714 65.806 24.342 65.0771 24.342 64.1745C24.342 63.2718 25.0714 62.5429 25.9753 62.5429H50.9764C51.8802 62.5429 52.6096 63.2718 52.6096 64.1745C52.6096 65.0771 51.8802 65.806 50.9764 65.806Z" fill="url(#paint3_linear_2912_1481)"/>
<path d="M67.1222 76.462C67.1222 76.462 67.0844 76.462 67.0628 76.462C66.2836 76.4346 65.6344 76.1404 65.0505 75.8295C57.8609 72.0065 52.8195 64.4151 52.2135 56.4911C52.024 54.0151 52.0024 51.5174 51.9808 49.107C51.9754 48.2563 51.9646 47.4056 51.9484 46.5603C51.9268 45.1531 52.7762 44.2534 54.1718 44.2152C58.3534 44.0897 62.232 42.8026 65.7051 40.3814C66.1701 40.0597 66.6243 39.9014 67.1006 39.896C67.6093 39.896 68.0635 40.0597 68.5232 40.376C71.9962 42.7972 75.8802 44.0897 80.0619 44.2098C81.4574 44.2534 82.3068 45.1477 82.2852 46.5549C82.269 47.4056 82.2636 48.2563 82.2528 49.1016C82.2312 51.5174 82.2096 54.0151 82.0201 56.4911C81.4142 64.4205 76.3781 72.0119 69.1831 75.8349C68.6046 76.1458 67.9555 76.44 67.1762 76.4674C67.1546 76.4674 67.1384 76.4674 67.1168 76.4674L67.1222 76.462ZM55.2157 47.4326C55.2211 47.9837 55.2265 48.5289 55.2319 49.0742C55.2535 51.4355 55.2752 53.8733 55.4539 56.2401C55.9729 63.0736 60.3386 69.6232 66.5703 72.9391C66.8301 73.0754 67.0142 73.1627 67.1222 73.1843C67.2303 73.1573 67.4144 73.0754 67.6687 72.9391C73.9058 69.6232 78.2661 63.0736 78.7852 56.2401C78.9639 53.8733 78.9855 51.4301 79.0071 49.0742C79.0071 48.5289 79.0179 47.9837 79.0233 47.4384C74.7336 47.1546 70.7357 45.7857 67.1168 43.3699C63.4925 45.7857 59.4946 47.1546 55.2103 47.4384L55.2157 47.4326Z" fill="url(#paint4_linear_2912_1481)"/>
<path d="M65.72 63.9999C65.2853 63.9999 64.8722 63.8249 64.5676 63.5182L60.7363 59.6612C60.1009 59.0208 60.1009 57.9814 60.7363 57.341C61.3722 56.701 62.4049 56.701 63.0408 57.341L65.7146 60.0331L72.8552 52.8435C73.491 52.2035 74.5238 52.2035 75.1596 52.8435C75.795 53.4839 75.795 54.5233 75.1596 55.1637L66.8612 63.5128C66.5566 63.8195 66.1385 63.9945 65.7088 63.9945L65.72 63.9999Z" fill="url(#paint5_linear_2912_1481)"/>
</g>
<defs>
<linearGradient id="paint0_linear_2912_1481" x1="48" y1="0" x2="48" y2="96" gradientUnits="userSpaceOnUse">
<stop stop-color="#6619D0"/>
<stop offset="1" stop-color="#00BFCB"/>
</linearGradient>
<linearGradient id="paint1_linear_2912_1481" x1="47.5844" y1="5.81812" x2="47.5844" y2="90.1818" gradientUnits="userSpaceOnUse">
<stop stop-color="#6619D0"/>
<stop offset="1" stop-color="#00BFCB"/>
</linearGradient>
<linearGradient id="paint2_linear_2912_1481" x1="23.3735" y1="12.4159" x2="23.3735" y2="88.1713" gradientUnits="userSpaceOnUse">
<stop stop-color="white"/>
<stop offset="1" stop-color="white" stop-opacity="0"/>
</linearGradient>
<linearGradient id="paint3_linear_2912_1481" x1="47.7759" y1="21.6985" x2="47.7759" y2="80.5289" gradientUnits="userSpaceOnUse">
<stop stop-color="white"/>
<stop offset="1" stop-color="white" stop-opacity="0"/>
</linearGradient>
<linearGradient id="paint4_linear_2912_1481" x1="67.1168" y1="39.896" x2="67.1168" y2="88.6997" gradientUnits="userSpaceOnUse">
<stop stop-color="white"/>
<stop offset="1" stop-color="white" stop-opacity="0"/>
</linearGradient>
<linearGradient id="paint5_linear_2912_1481" x1="67.948" y1="52.3635" x2="67.948" y2="70.148" gradientUnits="userSpaceOnUse">
<stop stop-color="white"/>
<stop offset="1" stop-color="white" stop-opacity="0"/>
</linearGradient>
</defs>
</svg>
